<svg width="81" height="60" viewBox="0 0 81 60" fill="none" xmlns="http://www.w3.org/2000/svg">
<g clip-path="url(#clip0_238_7017)">
<path d="M0.713379 0.190918H80.4534V59.9959H0.713379V0.190918Z" fill="#74ACDF"/>
<path d="M0.713379 20.126H80.4534V40.061H0.713379V20.126Z" fill="white"/>
<path d="M40.2007 30.2495L43.6096 37.6653C43.6096 37.6653 43.6694 37.8088 43.7651 37.7729C43.8608 37.7251 43.8009 37.5816 43.8009 37.5816L40.9662 29.9265M40.8825 32.8211C40.8346 33.9454 41.5284 34.5674 41.4446 35.5721C41.3489 36.5888 41.8991 37.151 42.0427 37.5457C42.1623 37.9404 41.8991 38.1676 42.0068 38.2274C42.1264 38.2873 42.3656 37.9763 42.2939 37.4141C42.2101 36.8639 41.7915 36.6964 41.8872 35.4645C41.9829 34.2325 41.3848 33.9454 41.5284 32.833" fill="#F6B40E"/>
<path d="M40.2007 30.2495L43.6096 37.6653C43.6096 37.6653 43.6694 37.8088 43.7651 37.7729C43.8608 37.7251 43.8009 37.5816 43.8009 37.5816L40.9662 29.9265M40.8825 32.8211C40.8346 33.9454 41.5284 34.5674 41.4446 35.5721C41.3489 36.5888 41.8991 37.151 42.0427 37.5457C42.1623 37.9404 41.8991 38.1676 42.0068 38.2274C42.1264 38.2873 42.3656 37.9763 42.2939 37.4141C42.2101 36.8639 41.7915 36.6964 41.8872 35.4645C41.9829 34.2325 41.3848 33.9454 41.5284 32.833" stroke="#85340A" stroke-width="0.241524"/>
<path d="M40.1699 30.0906L40.4814 38.2464C40.4814 38.2464 40.4817 38.4019 40.5838 38.4054C40.6905 38.3978 40.6902 38.2423 40.6902 38.2423L41.0007 30.0852M39.8156 32.7274C39.3412 33.7478 39.7441 34.5879 39.2822 35.4841C38.8048 36.3868 39.098 37.1167 39.0795 37.5363C39.039 37.9468 38.7089 38.056 38.7855 38.1525C38.8731 38.2535 39.2131 38.0577 39.3619 37.5109C39.4951 36.9705 39.1724 36.6556 39.7323 35.554C40.2922 34.4524 39.8495 33.9584 40.4078 32.9856" fill="#F6B40E"/>
<path d="M40.1699 30.0906L40.4814 38.2464C40.4814 38.2464 40.4817 38.4019 40.5838 38.4054C40.6905 38.3978 40.6902 38.2423 40.6902 38.2423L41.0007 30.0852M39.8156 32.7274C39.3412 33.7478 39.7441 34.5879 39.2822 35.4841C38.8048 36.3868 39.098 37.1167 39.0795 37.5363C39.039 37.9468 38.7089 38.056 38.7855 38.1525C38.8731 38.2535 39.2131 38.0577 39.3619 37.5109C39.4951 36.9705 39.1724 36.6556 39.7323 35.554C40.2922 34.4524 39.8495 33.9584 40.4078 32.9856" stroke="#85340A" stroke-width="0.241524"/>
<path d="M40.2028 29.9332L37.3695 37.5874C37.3695 37.5874 37.3103 37.7312 37.4033 37.7735C37.5048 37.8073 37.564 37.6635 37.564 37.6635L40.9724 30.2461M38.8665 32.2337C38.0376 32.9949 38.0884 33.9252 37.3187 34.5765C36.5322 35.2277 36.5237 36.0143 36.3461 36.3949C36.1516 36.7586 35.8048 36.7332 35.8386 36.8516C35.8809 36.9785 36.27 36.9277 36.6167 36.4795C36.9466 36.0312 36.769 35.6168 37.7078 34.8133C38.6466 34.0098 38.4267 33.3839 39.3147 32.6989" fill="#F6B40E"/>
<path d="M40.2028 29.9332L37.3695 37.5874C37.3695 37.5874 37.3103 37.7312 37.4033 37.7735C37.5048 37.8073 37.564 37.6635 37.564 37.6635L40.9724 30.2461M38.8665 32.2337C38.0376 32.9949 38.0884 33.9252 37.3187 34.5765C36.5322 35.2277 36.5237 36.0143 36.3461 36.3949C36.1516 36.7586 35.8048 36.7332 35.8386 36.8516C35.8809 36.9785 36.27 36.9277 36.6167 36.4795C36.9466 36.0312 36.769 35.6168 37.7078 34.8133C38.6466 34.0098 38.4267 33.3839 39.3147 32.6989" stroke="#85340A" stroke-width="0.241524"/>
<path d="M40.2929 29.7991L34.7461 35.7864C34.7461 35.7864 34.6364 35.8966 34.7062 35.9713C34.787 36.0414 34.8967 35.9312 34.8967 35.9312L40.8843 30.3828M38.178 31.4131C37.1209 31.7992 36.8118 32.6781 35.8515 32.9853C34.8756 33.2859 34.5668 34.0094 34.257 34.293C33.9381 34.5546 33.6275 34.3985 33.6134 34.5208C33.6039 34.6542 33.9828 34.7562 34.4747 34.4748C34.951 34.1868 34.9455 33.736 36.1203 33.3529C37.2951 32.9699 37.3315 32.3075 38.4141 32.0144" fill="#F6B40E"/>
<path d="M40.2929 29.7991L34.7461 35.7864C34.7461 35.7864 34.6364 35.8966 34.7062 35.9713C34.787 36.0414 34.8967 35.9312 34.8967 35.9312L40.8843 30.3828M38.178 31.4131C37.1209 31.7992 36.8118 32.6781 35.8515 32.9853C34.8756 33.2859 34.5668 34.0094 34.257 34.293C33.9381 34.5546 33.6275 34.3985 33.6134 34.5208C33.6039 34.6542 33.9828 34.7562 34.4747 34.4748C34.951 34.1868 34.9455 33.736 36.1203 33.3529C37.2951 32.9699 37.3315 32.3075 38.4141 32.0144" stroke="#85340A" stroke-width="0.241524"/>
<path d="M41.0978 33.0125C41.1576 34.089 41.7676 34.5674 41.648 35.5602C41.9111 34.7827 41.2772 34.1727 41.3131 33.0244M40.3921 30.1777L42.7245 35.2731L40.7748 30.0222" fill="#85340A"/>
<path d="M39.9408 32.9861C39.5841 34.0035 39.9645 34.679 39.4741 35.5504C40.0148 34.9328 39.6625 34.1266 40.1351 33.0795M40.3736 30.097L40.5785 35.6971L40.7867 30.0998" fill="#85340A"/>
<path d="M38.8826 32.5209C38.1637 33.3244 38.2568 34.094 37.4702 34.7114C38.206 34.3478 38.1891 33.4682 39.0264 32.6816M40.3881 30.0174L38.4344 35.2697L40.7687 30.1781" fill="#85340A"/>
<path d="M38.0836 31.6859C37.1119 32.1532 36.9034 32.8998 35.9404 33.1692C36.7594 33.1148 37.0804 32.2957 38.1549 31.8894M40.4325 29.9492L36.6176 34.0539L40.7226 30.2433" fill="#85340A"/>
<path d="M40.428 29.7112L33.0122 33.1201C33.0122 33.1201 32.8687 33.1799 32.9046 33.2756C32.9524 33.3712 33.0959 33.3114 33.0959 33.3114L40.751 30.4767M37.8564 30.393C36.7321 30.3451 36.1101 31.0389 35.1054 30.9551C34.0887 30.8594 33.5265 31.4096 33.1318 31.5532C32.7371 31.6728 32.5098 31.4096 32.45 31.5173C32.3902 31.6369 32.7012 31.8761 33.2634 31.8044C33.8136 31.7206 33.9811 31.302 35.213 31.3977C36.445 31.4934 36.7321 30.8953 37.8445 31.0389" fill="#F6B40E"/>
<path d="M40.428 29.7112L33.0122 33.1201C33.0122 33.1201 32.8687 33.1799 32.9046 33.2756C32.9524 33.3712 33.0959 33.3114 33.0959 33.3114L40.751 30.4767M37.8564 30.393C36.7321 30.3451 36.1101 31.0389 35.1054 30.9551C34.0887 30.8594 33.5265 31.4096 33.1318 31.5532C32.7371 31.6728 32.5098 31.4096 32.45 31.5173C32.3902 31.6369 32.7012 31.8761 33.2634 31.8044C33.8136 31.7206 33.9811 31.302 35.213 31.3977C36.445 31.4934 36.7321 30.8953 37.8445 31.0389" stroke="#85340A" stroke-width="0.241524"/>
<path d="M40.5859 29.6806L32.4301 29.9921C32.4301 29.9921 32.2746 29.9924 32.2711 30.0946C32.2787 30.2013 32.4342 30.201 32.4342 30.201L40.5913 30.5114M37.9491 29.3264C36.9287 28.8519 36.0886 29.2548 35.1924 28.793C34.2897 28.3155 33.5598 28.6087 33.1402 28.5903C32.7298 28.5497 32.6205 28.2196 32.524 28.2962C32.423 28.3838 32.6188 28.7238 33.1656 28.8727C33.706 29.0059 34.0209 28.6832 35.1225 29.243C36.2241 29.8029 36.7182 29.3602 37.6909 29.9185" fill="#F6B40E"/>
<path d="M40.5859 29.6806L32.4301 29.9921C32.4301 29.9921 32.2746 29.9924 32.2711 30.0946C32.2787 30.2013 32.4342 30.201 32.4342 30.201L40.5913 30.5114M37.9491 29.3264C36.9287 28.8519 36.0886 29.2548 35.1924 28.793C34.2897 28.3155 33.5598 28.6087 33.1402 28.5903C32.7298 28.5497 32.6205 28.2196 32.524 28.2962C32.423 28.3838 32.6188 28.7238 33.1656 28.8727C33.706 29.0059 34.0209 28.6832 35.1225 29.243C36.2241 29.8029 36.7182 29.3602 37.6909 29.9185" stroke="#85340A" stroke-width="0.241524"/>
<path d="M40.7443 29.7133L33.0901 26.88C33.0901 26.88 32.9463 26.8208 32.904 26.9138C32.8702 27.0153 33.014 27.0745 33.014 27.0745L40.4314 30.4829M38.4438 28.377C37.6826 27.5481 36.7523 27.5989 36.101 26.8292C35.4498 26.0427 34.6632 26.0342 34.2826 25.8566C33.9189 25.6621 33.9443 25.3153 33.8259 25.3491C33.699 25.3914 33.7498 25.7805 34.198 26.1272C34.6463 26.4571 35.0607 26.2795 35.8642 27.2183C36.6677 28.1571 37.2936 27.9372 37.9786 28.8252" fill="#F6B40E"/>
<path d="M40.7443 29.7133L33.0901 26.88C33.0901 26.88 32.9463 26.8208 32.904 26.9138C32.8702 27.0153 33.014 27.0745 33.014 27.0745L40.4314 30.4829M38.4438 28.377C37.6826 27.5481 36.7523 27.5989 36.101 26.8292C35.4498 26.0427 34.6632 26.0342 34.2826 25.8566C33.9189 25.6621 33.9443 25.3153 33.8259 25.3491C33.699 25.3914 33.7498 25.7805 34.198 26.1272C34.6463 26.4571 35.0607 26.2795 35.8642 27.2183C36.6677 28.1571 37.2936 27.9372 37.9786 28.8252" stroke="#85340A" stroke-width="0.241524"/>
<path d="M40.8774 29.8039L34.8901 24.2571C34.8901 24.2571 34.7799 24.1474 34.7052 24.2172C34.6351 24.298 34.7453 24.4077 34.7453 24.4077L40.2937 30.3952M39.2634 27.689C38.8773 26.6319 37.9984 26.3228 37.6912 25.3625C37.3906 24.3866 36.6671 24.0778 36.3835 23.768C36.1219 23.4491 36.2781 23.1385 36.1557 23.1244C36.0223 23.1149 35.9203 23.4938 36.2018 23.9857C36.4897 24.462 36.9405 24.4565 37.3236 25.6313C37.7066 26.8061 38.369 26.8425 38.6621 27.9251" fill="#F6B40E"/>
<path d="M40.8774 29.8039L34.8901 24.2571C34.8901 24.2571 34.7799 24.1474 34.7052 24.2172C34.6351 24.298 34.7453 24.4077 34.7453 24.4077L40.2937 30.3952M39.2634 27.689C38.8773 26.6319 37.9984 26.3228 37.6912 25.3625C37.3906 24.3866 36.6671 24.0778 36.3835 23.768C36.1219 23.4491 36.2781 23.1385 36.1557 23.1244C36.0223 23.1149 35.9203 23.4938 36.2018 23.9857C36.4897 24.462 36.9405 24.4565 37.3236 25.6313C37.7066 26.8061 38.369 26.8425 38.6621 27.9251" stroke="#85340A" stroke-width="0.241524"/>
<path d="M37.6645 30.6083C36.588 30.6681 36.1096 31.2781 35.1168 31.1585C35.8943 31.4216 36.5043 30.7877 37.6526 30.8236M40.4993 29.9026L35.4039 32.235L40.6548 30.2853" fill="#85340A"/>
<path d="M37.6905 29.4525C36.673 29.0958 35.9976 29.4763 35.1261 28.9858C35.7437 29.5265 36.5499 29.1742 37.597 29.6468M40.5795 29.8853L34.9794 30.0903L40.5767 30.2984" fill="#85340A"/>
<path d="M38.1561 28.3931C37.3526 27.6742 36.583 27.7673 35.9656 26.9807C36.3292 27.7165 37.2088 27.6996 37.9954 28.5369M40.6596 29.8986L35.4073 27.9449L40.4989 30.2792" fill="#85340A"/>
<path d="M38.9918 27.5939C38.5246 26.6222 37.7779 26.4136 37.5085 25.4506C37.5629 26.2696 38.382 26.5906 38.7883 27.6652M40.7286 29.9428L36.6238 26.1278L40.4345 30.2329" fill="#85340A"/>
<path d="M40.9663 29.9378L37.5574 22.522C37.5574 22.522 37.4976 22.3784 37.4019 22.4143C37.3062 22.4622 37.366 22.6057 37.366 22.6057L40.2008 30.2607M40.2845 27.3662C40.3324 26.2418 39.6386 25.6199 39.7224 24.6152C39.818 23.5985 39.2678 23.0363 39.1243 22.6416C39.0047 22.2469 39.2678 22.0196 39.1602 21.9598C39.0406 21.9 38.8014 22.211 38.8731 22.7732C38.9569 23.3234 39.3755 23.4908 39.2798 24.7228C39.1841 25.9548 39.7822 26.2418 39.6386 27.3542" fill="#F6B40E"/>
<path d="M40.9663 29.9378L37.5574 22.522C37.5574 22.522 37.4976 22.3784 37.4019 22.4143C37.3062 22.4622 37.366 22.6057 37.366 22.6057L40.2008 30.2607M40.2845 27.3662C40.3324 26.2418 39.6386 25.6199 39.7224 24.6152C39.818 23.5985 39.2678 23.0363 39.1243 22.6416C39.0047 22.2469 39.2678 22.0196 39.1602 21.9598C39.0406 21.9 38.8014 22.211 38.8731 22.7732C38.9569 23.3234 39.3755 23.4908 39.2798 24.7228C39.1841 25.9548 39.7822 26.2418 39.6386 27.3542" stroke="#85340A" stroke-width="0.241524"/>
<path d="M40.9966 30.0964L40.6851 21.9406C40.6851 21.9406 40.6848 21.7851 40.5827 21.7816C40.476 21.7892 40.4763 21.9447 40.4763 21.9447L40.1658 30.1018M41.3509 27.4596C41.8253 26.4392 41.4224 25.5991 41.8843 24.7029C42.3617 23.8002 42.0685 23.0703 42.087 22.6507C42.1275 22.2403 42.4576 22.131 42.381 22.0345C42.2934 21.9335 41.9534 22.1293 41.8046 22.6761C41.6714 23.2165 41.9941 23.5314 41.4342 24.633C40.8743 25.7346 41.317 26.2287 40.7587 27.2014" fill="#F6B40E"/>
<path d="M40.9966 30.0964L40.6851 21.9406C40.6851 21.9406 40.6848 21.7851 40.5827 21.7816C40.476 21.7892 40.4763 21.9447 40.4763 21.9447L40.1658 30.1018M41.3509 27.4596C41.8253 26.4392 41.4224 25.5991 41.8843 24.7029C42.3617 23.8002 42.0685 23.0703 42.087 22.6507C42.1275 22.2403 42.4576 22.131 42.381 22.0345C42.2934 21.9335 41.9534 22.1293 41.8046 22.6761C41.6714 23.2165 41.9941 23.5314 41.4342 24.633C40.8743 25.7346 41.317 26.2287 40.7587 27.2014" stroke="#85340A" stroke-width="0.241524"/>
<path d="M40.9642 30.2541L43.7975 22.5998C43.7975 22.5998 43.8567 22.4561 43.7637 22.4138C43.6622 22.3799 43.603 22.5237 43.603 22.5237L40.1945 29.9411M42.3005 27.9536C43.1294 27.1924 43.0786 26.262 43.8483 25.6108C44.6348 24.9595 44.6433 24.173 44.8209 23.7924C45.0154 23.4287 45.3622 23.4541 45.3284 23.3357C45.2861 23.2088 44.897 23.2595 44.5503 23.7078C44.2204 24.1561 44.398 24.5705 43.4592 25.374C42.5204 26.1775 42.7403 26.8033 41.8523 27.4884" fill="#F6B40E"/>
<path d="M40.9642 30.2541L43.7975 22.5998C43.7975 22.5998 43.8567 22.4561 43.7637 22.4138C43.6622 22.3799 43.603 22.5237 43.603 22.5237L40.1945 29.9411M42.3005 27.9536C43.1294 27.1924 43.0786 26.262 43.8483 25.6108C44.6348 24.9595 44.6433 24.173 44.8209 23.7924C45.0154 23.4287 45.3622 23.4541 45.3284 23.3357C45.2861 23.2088 44.897 23.2595 44.5503 23.7078C44.2204 24.1561 44.398 24.5705 43.4592 25.374C42.5204 26.1775 42.7403 26.8033 41.8523 27.4884" stroke="#85340A" stroke-width="0.241524"/>
<path d="M40.874 30.3874L46.4208 24.4001C46.4208 24.4001 46.5306 24.2899 46.4608 24.2152C46.38 24.1451 46.2703 24.2553 46.2703 24.2553L40.2827 29.8038M42.989 28.7734C44.0461 28.3873 44.3552 27.5084 45.3155 27.2013C46.2914 26.9006 46.6002 26.1771 46.91 25.8935C47.2289 25.6319 47.5395 25.7881 47.5536 25.6657C47.5631 25.5323 47.1842 25.4303 46.6923 25.7118C46.216 25.9997 46.2215 26.4505 45.0467 26.8336C43.8719 27.2166 43.8355 27.879 42.7529 28.1721" fill="#F6B40E"/>
<path d="M40.874 30.3874L46.4208 24.4001C46.4208 24.4001 46.5306 24.2899 46.4608 24.2152C46.38 24.1451 46.2703 24.2553 46.2703 24.2553L40.2827 29.8038M42.989 28.7734C44.0461 28.3873 44.3552 27.5084 45.3155 27.2013C46.2914 26.9006 46.6002 26.1771 46.91 25.8935C47.2289 25.6319 47.5395 25.7881 47.5536 25.6657C47.5631 25.5323 47.1842 25.4303 46.6923 25.7118C46.216 25.9997 46.2215 26.4505 45.0467 26.8336C43.8719 27.2166 43.8355 27.879 42.7529 28.1721" stroke="#85340A" stroke-width="0.241524"/>
<path d="M40.0687 27.1753C40.0089 26.0988 39.3989 25.6203 39.5185 24.6276C39.2554 25.405 39.8893 26.0151 39.8534 27.1633M40.7744 30.01L38.442 24.9146L40.3917 30.1655" fill="#85340A"/>
<path d="M41.2248 27.2005C41.5815 26.183 41.201 25.5076 41.6914 24.6361C41.1508 25.2537 41.503 26.0599 41.0304 27.107M40.7919 30.0895L40.587 24.4894L40.3788 30.0867" fill="#85340A"/>
<path d="M42.2829 27.6661C43.0018 26.8626 42.9088 26.093 43.6953 25.4756C42.9595 25.8392 42.9764 26.7188 42.1391 27.5054M40.7774 30.1696L42.7312 24.9174L40.3968 30.0089" fill="#85340A"/>
<path d="M43.0824 28.5011C44.0541 28.0339 44.2627 27.2872 45.2256 27.0178C44.4066 27.0722 44.0857 27.8913 43.0111 28.2976M40.7335 30.2379L44.5485 26.1331L40.4434 29.9437" fill="#85340A"/>
<path d="M40.739 30.4758L48.1548 27.0669C48.1548 27.0669 48.2983 27.0071 48.2624 26.9115C48.2146 26.8158 48.0711 26.8756 48.0711 26.8756L40.416 29.7103M43.3106 29.7941C44.4349 29.8419 45.0569 29.1482 46.0616 29.2319C47.0783 29.3276 47.6405 28.7774 48.0352 28.6338C48.4299 28.5142 48.6571 28.7774 48.7169 28.6697C48.7768 28.5501 48.4658 28.3109 47.9036 28.3827C47.3534 28.4664 47.1859 28.885 45.954 28.7893C44.722 28.6936 44.4349 29.2917 43.3225 29.1482" fill="#F6B40E"/>
<path d="M40.739 30.4758L48.1548 27.0669C48.1548 27.0669 48.2983 27.0071 48.2624 26.9115C48.2146 26.8158 48.0711 26.8756 48.0711 26.8756L40.416 29.7103M43.3106 29.7941C44.4349 29.8419 45.0569 29.1482 46.0616 29.2319C47.0783 29.3276 47.6405 28.7774 48.0352 28.6338C48.4299 28.5142 48.6571 28.7774 48.7169 28.6697C48.7768 28.5501 48.4658 28.3109 47.9036 28.3827C47.3534 28.4664 47.1859 28.885 45.954 28.7893C44.722 28.6936 44.4349 29.2917 43.3225 29.1482" stroke="#85340A" stroke-width="0.241524"/>
<path d="M40.5811 30.5069L48.7369 30.1954C48.7369 30.1954 48.8924 30.1951 48.8959 30.0929C48.8883 29.9862 48.7328 29.9866 48.7328 29.9866L40.5757 29.6761M43.2178 30.8611C44.2383 31.3356 45.0784 30.9327 45.9746 31.3945C46.8773 31.872 47.6072 31.5788 48.0268 31.5972C48.4372 31.6378 48.5465 31.9679 48.6429 31.8913C48.744 31.8037 48.5482 31.4637 48.0014 31.3148C47.461 31.1816 47.1461 31.5043 46.0445 30.9445C44.9429 30.3846 44.4488 30.8273 43.4761 30.269" fill="#F6B40E"/>
<path d="M40.5811 30.5069L48.7369 30.1954C48.7369 30.1954 48.8924 30.1951 48.8959 30.0929C48.8883 29.9862 48.7328 29.9866 48.7328 29.9866L40.5757 29.6761M43.2178 30.8611C44.2383 31.3356 45.0784 30.9327 45.9746 31.3945C46.8773 31.872 47.6072 31.5788 48.0268 31.5972C48.4372 31.6378 48.5465 31.9679 48.6429 31.8913C48.744 31.8037 48.5482 31.4637 48.0014 31.3148C47.461 31.1816 47.1461 31.5043 46.0445 30.9445C44.9429 30.3846 44.4488 30.8273 43.4761 30.269" stroke="#85340A" stroke-width="0.241524"/>
<path d="M40.4227 30.4749L48.0769 33.3083C48.0769 33.3083 48.2207 33.3675 48.263 33.2744C48.2968 33.1729 48.153 33.1137 48.153 33.1137L40.7356 29.7053M42.7232 31.8113C43.4844 32.6401 44.4147 32.5894 45.066 33.359C45.7172 34.1456 46.5038 34.154 46.8844 34.3316C47.2481 34.5262 47.2227 34.8729 47.3411 34.8391C47.468 34.7968 47.4172 34.4078 46.969 34.061C46.5207 33.7312 46.1063 33.9088 45.3028 32.97C44.4993 32.0312 43.8734 32.2511 43.1884 31.363" fill="#F6B40E"/>
<path d="M40.4227 30.4749L48.0769 33.3083C48.0769 33.3083 48.2207 33.3675 48.263 33.2744C48.2968 33.1729 48.153 33.1137 48.153 33.1137L40.7356 29.7053M42.7232 31.8113C43.4844 32.6401 44.4147 32.5894 45.066 33.359C45.7172 34.1456 46.5038 34.154 46.8844 34.3316C47.2481 34.5262 47.2227 34.8729 47.3411 34.8391C47.468 34.7968 47.4172 34.4078 46.969 34.061C46.5207 33.7312 46.1063 33.9088 45.3028 32.97C44.4993 32.0312 43.8734 32.2511 43.1884 31.363" stroke="#85340A" stroke-width="0.241524"/>
<path d="M40.2896 30.3838L46.2769 35.9306C46.2769 35.9306 46.3871 36.0403 46.4618 35.9706C46.5319 35.8897 46.4217 35.78 46.4217 35.78L40.8733 29.7925M41.9036 32.4988C42.2897 33.5558 43.1686 33.865 43.4757 34.8253C43.7764 35.8012 44.4999 36.11 44.7835 36.4197C45.0451 36.7386 44.8889 37.0493 45.0113 37.0633C45.1447 37.0728 45.2467 36.694 44.9652 36.2021C44.6773 35.7258 44.2265 35.7313 43.8434 34.5564C43.4604 33.3816 42.798 33.3453 42.5049 32.2626" fill="#F6B40E"/>
<path d="M40.2896 30.3838L46.2769 35.9306C46.2769 35.9306 46.3871 36.0403 46.4618 35.9706C46.5319 35.8897 46.4217 35.78 46.4217 35.78L40.8733 29.7925M41.9036 32.4988C42.2897 33.5558 43.1686 33.865 43.4757 34.8253C43.7764 35.8012 44.4999 36.11 44.7835 36.4197C45.0451 36.7386 44.8889 37.0493 45.0113 37.0633C45.1447 37.0728 45.2467 36.694 44.9652 36.2021C44.6773 35.7258 44.2265 35.7313 43.8434 34.5564C43.4604 33.3816 42.798 33.3453 42.5049 32.2626" stroke="#85340A" stroke-width="0.241524"/>
<path d="M43.5025 29.5792C44.5789 29.5194 45.0574 28.9094 46.0502 29.029C45.2727 28.7659 44.6627 29.3998 43.5144 29.3639M40.6677 30.2849L45.7631 27.9525L40.5122 29.9022" fill="#85340A"/>
<path d="M43.4765 30.735C44.494 31.0917 45.1694 30.7112 46.0409 31.2017C45.4233 30.661 44.6171 31.0133 43.57 30.5407M40.5875 30.3022L46.1876 30.0972L40.5903 29.8891" fill="#85340A"/>
<path d="M43.0109 31.7939C43.8144 32.5128 44.584 32.4198 45.2014 33.2063C44.8378 32.4705 43.9582 32.4874 43.1716 31.6501M40.5074 30.2884L45.7596 32.2421L40.6681 29.9078" fill="#85340A"/>
<path d="M42.1752 32.5932C42.6424 33.5648 43.3891 33.7734 43.6585 34.7364C43.6041 33.9174 42.785 33.5964 42.3787 32.5218M40.4384 30.2442L44.5432 34.0592L40.7325 29.9541" fill="#85340A"/>
<path d="M40.5835 33.4202C42.4208 33.4202 43.9101 31.9308 43.9101 30.0935C43.9101 28.2562 42.4208 26.7668 40.5835 26.7668C38.7462 26.7668 37.2568 28.2562 37.2568 30.0935C37.2568 31.9308 38.7462 33.4202 40.5835 33.4202Z" fill="#F6B40E" stroke="#85340A" stroke-width="0.320202"/>
<path d="M41.7042 29.3835C41.4924 29.3835 41.2681 29.4832 41.1436 29.6826C41.3927 29.9193 41.9659 29.9318 42.3521 29.6577C42.2705 29.571 42.172 29.502 42.0627 29.4549C41.9535 29.4077 41.8357 29.3835 41.7167 29.3835H41.7042ZM41.7042 29.4334C41.9285 29.4334 42.1403 29.5331 42.1652 29.6327C41.916 29.9193 41.5049 29.8819 41.2432 29.6826C41.3678 29.5081 41.5423 29.4334 41.7167 29.4334H41.7042Z" fill="#843511"/>
<path d="M41.7546 29.2219C41.4181 29.2219 41.3434 29.2967 41.1939 29.4337C41.0444 29.5583 40.9572 29.5334 40.9447 29.5583C40.9073 29.5832 40.9447 29.658 40.9821 29.6331C41.0444 29.6082 41.144 29.5583 41.2936 29.4337C41.4431 29.3091 41.605 29.3091 41.7546 29.3091C42.2155 29.3091 42.4647 29.6829 42.5146 29.658C42.5769 29.6331 42.2654 29.2219 41.7546 29.2219Z" fill="#85340A"/>
<path d="M42.6763 29.3831C42.0907 28.8722 41.3431 28.785 40.932 29.1713C40.8373 29.2959 40.7732 29.441 40.7451 29.5949C40.6952 29.8939 40.7824 30.2054 41.0067 30.5293L40.907 30.5792C40.7077 30.1929 40.6329 29.7942 40.7077 29.408L40.7824 29.1214C41.3431 28.6604 42.1156 28.6231 42.6763 29.3706V29.3831Z" fill="#85340A"/>
<path d="M41.703 29.8539C41.8261 29.8539 41.926 29.7541 41.926 29.6309C41.926 29.5078 41.8261 29.408 41.703 29.408C41.5798 29.408 41.48 29.5078 41.48 29.6309C41.48 29.7541 41.5798 29.8539 41.703 29.8539Z" fill="#85340A"/>
<path d="M42.3657 29.7823C41.9296 30.1187 41.4936 30.0937 41.2444 29.9442C40.9952 29.7823 40.9952 29.7324 41.045 29.7324C41.0949 29.7324 41.1447 29.7823 41.3441 29.8944C41.5559 29.9941 41.8549 29.9941 42.3657 29.7823Z" fill="#85340A"/>
<path d="M40.0857 30.5547C40.0511 30.5629 40.0189 30.5792 39.9918 30.6022C39.9647 30.6253 39.9435 30.6545 39.9299 30.6873C39.9164 30.7202 39.9108 30.7558 39.9137 30.7913C39.9166 30.8267 39.9279 30.861 39.9467 30.8912C39.9654 30.9214 39.9911 30.9468 40.0216 30.9651C40.0521 30.9834 40.0865 30.9943 40.122 30.9967C40.1575 30.9991 40.193 30.9931 40.2257 30.979C40.2584 30.965 40.2873 30.9434 40.3099 30.916C40.3921 30.967 40.4874 30.993 40.5841 30.9908H40.609C40.6837 30.9908 40.8083 30.9783 40.8955 30.916C40.9329 30.9783 41.0077 31.0032 41.0824 31.0032C41.1419 31.0082 41.2009 30.9893 41.2465 30.9508C41.292 30.9122 41.3204 30.8571 41.3254 30.7976C41.3303 30.7382 41.3115 30.6792 41.2729 30.6336C41.2344 30.588 41.1793 30.5596 41.1198 30.5547C41.1821 30.5796 41.2195 30.6294 41.2195 30.7042C41.2195 30.7439 41.2037 30.7819 41.1757 30.8099C41.1477 30.838 41.1096 30.8537 41.07 30.8537C41.0303 30.8537 40.9923 30.838 40.9642 30.8099C40.9362 30.7819 40.9205 30.7439 40.9205 30.7042C40.8909 30.7657 40.8451 30.818 40.788 30.8553C40.7309 30.8926 40.6647 30.9136 40.5965 30.916C40.5305 30.9114 40.4669 30.8894 40.4121 30.8522C40.3574 30.815 40.3135 30.7639 40.285 30.7042C40.285 30.7914 40.2103 30.8537 40.1231 30.8537C40.0483 30.8537 39.9735 30.779 39.9735 30.7042C39.9735 30.6294 40.0109 30.5796 40.0732 30.5547H40.0857ZM40.3349 31.2275C40.0732 31.2275 39.9611 31.4767 39.7368 31.6137C39.8614 31.5639 39.9611 31.4642 40.148 31.3645C40.3224 31.2649 40.4719 31.3895 40.5841 31.3895C40.6837 31.3895 40.8332 31.2649 41.0201 31.3645C41.1946 31.4642 41.3067 31.5639 41.4313 31.6137C41.1946 31.4642 41.0949 31.24 40.8332 31.24C40.7834 31.24 40.6837 31.2649 40.5841 31.3147L40.3349 31.2275Z" fill="#85340A"/>
<path d="M40.2351 31.5389C40.1355 31.5389 40.0109 31.5638 39.8115 31.6136C40.2725 31.514 40.3722 31.6759 40.584 31.6759C40.7834 31.6759 40.8955 31.514 41.344 31.6136C40.8457 31.4641 40.7335 31.5638 40.584 31.5638C40.4843 31.5638 40.4096 31.5264 40.2351 31.5389Z" fill="#85340A"/>
<path d="M39.8365 31.6137H39.7368C40.2726 31.676 40.0234 31.9875 40.5841 31.9875C41.1447 31.9875 40.8955 31.676 41.4313 31.6137C40.8706 31.5638 41.045 31.9002 40.5841 31.9002C40.148 31.9002 40.285 31.6137 39.8365 31.6137Z" fill="#85340A"/>
<path d="M41.0436 32.4483C41.0436 32.326 40.995 32.2088 40.9086 32.1223C40.8221 32.0359 40.7048 31.9873 40.5826 31.9873C40.4603 31.9873 40.3431 32.0359 40.2566 32.1223C40.1702 32.2088 40.1216 32.326 40.1216 32.4483C40.1459 32.3443 40.2047 32.2516 40.2884 32.1852C40.3721 32.1189 40.4758 32.0827 40.5826 32.0827C40.6894 32.0827 40.7931 32.1189 40.8768 32.1852C40.9604 32.2516 41.0192 32.3443 41.0436 32.4483Z" fill="#85340A"/>
<path d="M38.5156 29.3831C39.1012 28.8722 39.8488 28.785 40.2599 29.1713C40.3546 29.2959 40.4186 29.441 40.4468 29.5949C40.4967 29.8939 40.4094 30.2054 40.1852 30.5293L40.2849 30.5792C40.4842 30.1929 40.559 29.7942 40.4842 29.408L40.4095 29.1214C39.8488 28.6604 39.0763 28.6231 38.5156 29.3706V29.3831Z" fill="#85340A"/>
<path d="M39.4373 29.2219C39.7737 29.2219 39.8485 29.2967 39.998 29.4337C40.1475 29.5583 40.2347 29.5334 40.2472 29.5583C40.2846 29.5832 40.2472 29.658 40.2098 29.6331C40.1475 29.6082 40.0479 29.5583 39.8983 29.4337C39.7488 29.3091 39.5869 29.3091 39.4373 29.3091C38.9763 29.3091 38.7272 29.6829 38.6773 29.658C38.615 29.6331 38.9265 29.2219 39.4373 29.2219Z" fill="#85340A"/>
<path d="M39.4127 29.3835C39.2009 29.3835 38.9766 29.4832 38.8521 29.6826C39.1012 29.9193 39.6744 29.9318 40.0606 29.6577C39.979 29.571 39.8805 29.502 39.7712 29.4549C39.662 29.4077 39.5442 29.3835 39.4252 29.3835H39.4127ZM39.4127 29.4334C39.637 29.4334 39.8488 29.5331 39.8737 29.6327C39.6245 29.9193 39.2134 29.8819 38.9517 29.6826C39.0763 29.5081 39.2508 29.4334 39.4252 29.4334H39.4127Z" fill="#843511"/>
<path d="M39.4481 29.8539C39.5712 29.8539 39.6711 29.7541 39.6711 29.6309C39.6711 29.5078 39.5712 29.408 39.4481 29.408C39.3249 29.408 39.2251 29.5078 39.2251 29.6309C39.2251 29.7541 39.3249 29.8539 39.4481 29.8539Z" fill="#85340A"/>
<path d="M38.8262 29.7823C39.2622 30.1187 39.6983 30.0937 39.9475 29.9442C40.1967 29.7823 40.1967 29.7324 40.1469 29.7324C40.097 29.7324 40.0472 29.7823 39.8478 29.8944C39.636 29.9941 39.337 29.9941 38.8262 29.7823Z" fill="#85340A"/>
</g>
<defs>
<clipPath id="clip0_238_7017">
<rect width="79.74" height="59.805" fill="white" transform="translate(0.713379 0.190918)"/>
</clipPath>
</defs>
</svg>
