<svg width="81" height="61" viewBox="0 0 81 61" fill="none" xmlns="http://www.w3.org/2000/svg">
<g clip-path="url(#clip0_238_9705)">
<path d="M0.713867 0.803467H80.4498V60.6054H0.713867V0.803467Z" fill="#00008B"/>
<path d="M5.3859 0.803467L20.5856 12.0786L35.7229 0.803467H40.5818V4.66568L25.6314 15.8163L40.5818 26.9045V30.7044H35.5983L20.6479 19.5539L5.75966 30.7044H0.713867V26.9668L15.6021 15.8785L0.713867 4.79026V0.803467H5.3859Z" fill="white"/>
<path d="M27.1264 18.308L40.5818 28.2127V30.7044L23.7002 18.308H27.1264ZM15.6644 19.5539L16.0381 21.7342L4.07773 30.7044H0.713867L15.6644 19.5539ZM40.5818 0.803467V0.990348L25.0707 12.7016L25.1953 9.96064L37.4672 0.803467H40.5818ZM0.713867 0.803467L15.6021 11.7672H11.8644L0.713867 3.4198V0.803467Z" fill="#FF0000"/>
<path d="M15.7267 0.803467V30.7044H25.6936V0.803467H15.7267ZM0.713867 10.7705V20.7375H40.5818V10.7705H0.713867Z" fill="white"/>
<path d="M0.713867 12.8262V18.8063H40.5818V12.8262H0.713867ZM17.7201 0.803467V30.7044H23.7002V0.803467H17.7201Z" fill="#FF0000"/>
<path d="M66.371 50.2271L63.817 50.551L64.0911 53.105L62.2472 51.311L60.4157 53.1175L60.6649 50.5635L58.1109 50.2645L60.2662 48.8691L58.9082 46.6888L61.3501 47.4986L62.2098 45.0692L63.0944 47.4862L65.5238 46.6514L64.1907 48.8442L66.3586 50.2271H66.371ZM65.91 35.6254L66.2464 34.0058L65.0255 32.8845L66.67 32.6976L67.3553 31.1901L68.0405 32.6976L69.685 32.8845L68.4641 34.0058L68.8005 35.6254L67.3553 34.8032L65.91 35.6254ZM52.9405 28.1502L50.4114 28.4243L50.6356 30.9534L48.8416 29.1469L46.9977 30.9036L47.2967 28.3744L44.78 28.0381L46.9354 26.6925L45.6272 24.5122L48.0317 25.3594L48.9288 22.9798L49.7635 25.3843L52.1805 24.5994L50.8225 26.7548L52.953 28.1502H52.9405ZM78.3314 24.0637L75.7275 24.4001L76.0141 27.004L74.1328 25.1726L72.264 27.0164L72.5256 24.4001L69.9218 24.1011L72.127 22.6683L70.744 20.4382L73.2358 21.273L74.1079 18.8061L75.0049 21.273L77.4842 20.4133L76.1138 22.6559L78.3314 24.0637ZM66.3586 13.6607L63.7796 13.9472L64.0163 16.5386L62.1849 14.6947L60.3036 16.4888L60.6026 13.9098L58.0237 13.561L60.2289 12.1905L58.8958 9.96043L61.3501 10.8201L62.2596 8.39062L63.1068 10.845L65.5737 10.0352L64.1907 12.2279L66.3586 13.6607ZM29.8669 48.8566L24.1608 49.5294L24.7339 55.248L20.6474 51.2113L16.5361 55.223L17.1465 49.5045L11.4404 48.7819L16.2869 45.6921L13.2968 40.7834L18.7288 42.6522L20.6973 37.2451L22.6284 42.6646L28.0728 40.8332L25.0454 45.717L29.8794 48.8442L29.8669 48.8566Z" fill="white"/>
</g>
<defs>
<clipPath id="clip0_238_9705">
<rect width="79.736" height="59.802" fill="white" transform="translate(0.713867 0.803467)"/>
</clipPath>
</defs>
</svg>
