<svg width="81" height="60" viewBox="0 0 81 60" fill="none" xmlns="http://www.w3.org/2000/svg">
<g clip-path="url(#clip0_333_8230)">
<path fill-rule="evenodd" clip-rule="evenodd" d="M0.713379 0.190918H80.4534V59.9959H0.713379V0.190918Z" fill="#229E45"/>
<path fill-rule="evenodd" clip-rule="evenodd" d="M40.7576 54.5141L78.3226 30.1311L40.5334 5.67334L2.84375 30.1809L40.7576 54.5141Z" fill="#F8E509"/>
<path fill-rule="evenodd" clip-rule="evenodd" d="M57.1293 30.0932C57.1293 38.8521 50.015 45.954 41.2311 45.954C38.0922 45.9491 35.0253 45.0136 32.4179 43.2659C29.8106 41.5182 27.78 39.0367 26.5828 36.135C25.3855 33.2334 25.0755 30.042 25.6918 26.9642C26.3081 23.8864 27.8231 21.0604 30.0452 18.8435C32.2673 16.6266 35.0969 15.1182 38.1761 14.5092C41.2554 13.9001 44.4461 14.2177 47.3449 15.4218C50.2436 16.6258 52.7204 18.6623 54.462 21.2737C56.2035 23.8851 57.1318 26.9543 57.1293 30.0932Z" fill="#2B49A3"/>
<path fill-rule="evenodd" clip-rule="evenodd" d="M36.0109 39.6003L35.5126 39.3137L35.0142 39.5629L35.1263 39.0022L34.7276 38.5786L35.2883 38.5163L35.5624 38.018L35.7991 38.5412L36.3473 38.6409L35.9362 39.0147M46.6513 42.2915L46.1653 42.005L45.667 42.2541L45.7666 41.6935L45.3804 41.2823L45.9411 41.22L46.2027 40.7092L46.4519 41.2325L47.0001 41.3321L46.5765 41.7184M42.0662 37.9806L41.6426 37.7314L41.2065 37.9557L41.3062 37.4697L40.9573 37.1084L41.4557 37.0586L41.68 36.61L41.8793 37.071L42.3652 37.1583L41.9914 37.4947M52.8311 36.4356L52.4075 36.1864L51.9714 36.4107L52.0711 35.9248L51.7347 35.5759L52.2206 35.5261L52.4449 35.09L52.6442 35.5385L53.1177 35.6257L52.7563 35.9497M41.8793 33.2086L41.3809 32.9345L40.8826 33.1837L40.9822 32.6106L40.596 32.1994L41.1567 32.1371L41.4183 31.6263L41.6675 32.1496L42.2157 32.2493L41.7921 32.648M28.7596 28.2872L28.2612 28.0131L27.7628 28.2623L27.8874 27.6891L27.4763 27.278L28.0494 27.2157L28.2986 26.7048L28.5478 27.2281L29.096 27.3278L28.6848 27.714M30.3419 34.8408L29.8436 34.5542L29.3452 34.8034L29.4573 34.2428L29.0586 33.8316L29.6193 33.7568L29.8809 33.2585L30.1301 33.7818L30.6783 33.8814L30.2672 34.2677M46.7135 25.8825L46.265 25.6333L45.8165 25.8576L45.9161 25.3592L45.5673 24.9854L46.0657 24.9231L46.3024 24.4746L46.5142 24.9481L47.0126 25.0353L46.6388 25.3717M45.804 30.1436L45.4676 29.9443L45.1063 30.1187L45.181 29.72L44.9069 29.4334L45.3056 29.3836L45.4925 29.0347L45.6545 29.4085L46.0283 29.4708L45.7542 29.7449M28.0369 36.0245L27.7005 35.8376L27.3641 35.9995L27.4389 35.6257L27.1772 35.3516L27.551 35.3018L27.7255 34.9654L27.8874 35.3143L28.2612 35.389L27.9746 35.6382M52.9183 37.5445L52.6442 37.4074L52.3701 37.532L52.4324 37.2455L52.2206 37.0461L52.5196 37.0087L52.6691 36.7596L52.7937 37.0087L53.1052 37.071L52.8685 37.2579" fill="#FFFFEF"/>
<path fill-rule="evenodd" clip-rule="evenodd" d="M28.0369 36.0239L27.7005 35.837L27.3641 35.999L27.4389 35.6252L27.1772 35.3511L27.551 35.3012L27.7255 34.9648L27.8874 35.3137L28.2612 35.3885L27.9746 35.6376" fill="#FFFFEF"/>
<path fill-rule="evenodd" clip-rule="evenodd" d="M28.0369 36.0242L27.7005 35.8373L27.3641 35.9993L27.4389 35.6255L27.1772 35.3514L27.551 35.3015L27.7255 34.9651L27.8874 35.314L28.2612 35.3887L27.9746 35.6379M33.245 36.0117L32.921 35.8373L32.5846 35.9993L32.6594 35.6255L32.3977 35.3514L32.7715 35.3015L32.9459 34.9651L33.1079 35.314L33.4817 35.3763L33.1951 35.6379M32.5971 37.756L32.2731 37.5691L31.9367 37.7436L32.0115 37.3698L31.7498 37.0832L32.1236 37.0334L32.298 36.697L32.46 37.0458L32.8338 37.1206L32.5472 37.3698M43.4367 34.6038L43.1128 34.4045L42.7639 34.5789L42.8387 34.2051L42.5895 33.9185L42.9633 33.8812L43.1377 33.5448L43.2872 33.8936L43.661 33.9559L43.3869 34.2176M40.2596 34.5914L39.9232 34.4045L39.5868 34.5789L39.6615 34.2051L39.4124 33.9185L39.7861 33.8812L39.9606 33.5323L40.1101 33.8936L40.4839 33.9559L40.2098 34.2176M31.6377 33.4949L31.4259 33.3703L31.2141 33.47L31.2639 33.2333L31.1019 33.0588L31.3387 33.0339L31.4384 32.8221L31.538 33.0464L31.7748 33.0838L31.6003 33.2457M52.5072 38.9023L52.1832 38.7154L51.8468 38.8898L51.9216 38.5161L51.6599 38.2295L52.0337 38.1796L52.2081 37.8432L52.3701 38.1921L52.7439 38.2669L52.4573 38.5161M49.8658 39.2636L49.5917 39.0892L49.3051 39.2387L49.3674 38.9148L49.1556 38.6905L49.4671 38.6531L49.6166 38.3665L49.7412 38.6656L50.0527 38.7154L49.8159 38.9397M51.1117 39.2262L50.8625 39.0767L50.6009 39.2013L50.6507 38.9148L50.4514 38.7029L50.7379 38.6656L50.875 38.4164L50.9996 38.6656L51.2861 38.7279L51.0743 38.9272M54.7 36.0865L54.4508 35.9619L54.2016 36.0865L54.2639 35.7999L54.0646 35.5881L54.3511 35.5507L54.4757 35.3015L54.6003 35.5632L54.862 35.613L54.6626 35.8124M49.8284 41.0204L49.5169 40.846L49.1805 40.9955L49.2553 40.6466L49.0061 40.3974L49.3799 40.36L49.5418 40.0486L49.6913 40.3725L50.0651 40.4348L49.7786 40.6715M49.8533 42.4408L49.5543 42.2663L49.2553 42.4283L49.33 42.0794L49.0933 41.8302L49.4297 41.7804L49.5792 41.4689L49.7163 41.7929L50.0527 41.8552L49.8035 42.1044M47.4362 39.2262L47.1995 39.0767L46.9503 39.2013L47.0001 38.9272L46.8132 38.7154L47.0873 38.6905L47.2119 38.4413L47.3365 38.6905L47.6106 38.7403L47.4113 38.9397M45.1935 39.2262L44.9443 39.0767L44.6951 39.2013L44.7574 38.9272L44.5581 38.7154L44.8446 38.6905L44.9692 38.4413L45.0938 38.6905L45.3555 38.7403L45.1561 38.9397M41.3685 35.8747L41.1193 35.7376L40.8701 35.8622L40.9324 35.5756L40.733 35.3763L41.0072 35.3389L41.1317 35.0897L41.2563 35.3389L41.5304 35.4012L41.3311 35.5881M41.7921 42.6899L41.5927 42.5778L41.3685 42.6899L41.4183 42.4408L41.2563 42.2663L41.4931 42.2414L41.6052 42.0296L41.7049 42.2539L41.9416 42.2912L41.7672 42.4532M36.0109 31.6634L35.5126 31.3768L35.0142 31.626L35.1263 31.0653L34.7276 30.6542L35.2883 30.5794L35.5624 30.0811L35.7991 30.6044L36.3473 30.704L35.9362 31.0903" fill="#FFFFEF"/>
<path fill-rule="evenodd" clip-rule="evenodd" d="M56.0828 35.7996C56.3915 34.9987 56.6332 34.1735 56.8054 33.3326C48.358 25.9193 38.9512 22.1192 27.0649 22.9041C26.6338 23.7383 26.2793 24.6099 26.0059 25.5081C40.085 24.1625 50.4262 30.3922 56.0828 35.7996Z" fill="white"/>
<path d="M52.2956 31.6383L52.5821 31.8002C52.5394 31.8848 52.5262 31.9814 52.5448 32.0743C52.574 32.1645 52.6363 32.2402 52.7192 32.2861C52.8064 32.3484 52.8936 32.3858 52.9684 32.3734C53.0431 32.3734 53.093 32.336 53.1304 32.2861C53.1521 32.2531 53.1609 32.2132 53.1553 32.174C53.1451 32.128 53.1237 32.0852 53.093 32.0494C53.0681 32.012 53.0058 31.9248 52.9061 31.8251C52.8036 31.7194 52.7269 31.5915 52.6818 31.4514C52.6507 31.3453 52.6588 31.2316 52.7045 31.131C52.7503 31.0303 52.8306 30.9495 52.931 30.9032C53.0216 30.8653 53.1218 30.8566 53.2176 30.8782C53.3347 30.9052 53.445 30.9561 53.5415 31.0277C53.7159 31.1523 53.8281 31.2769 53.8655 31.4264C53.8827 31.4964 53.8849 31.5692 53.872 31.64C53.8592 31.7109 53.8314 31.7782 53.7907 31.8376L53.4917 31.6507C53.5291 31.576 53.5415 31.5012 53.5166 31.4389C53.5041 31.3766 53.4543 31.3143 53.3671 31.2645C53.3031 31.213 53.2248 31.1825 53.1428 31.1773C53.1202 31.1765 53.0979 31.1819 53.0781 31.1929C53.0584 31.2038 53.042 31.22 53.0307 31.2396C53.0058 31.2769 53.0058 31.3143 53.0182 31.3642C53.0307 31.414 53.093 31.5137 53.2176 31.6383C53.3422 31.7629 53.4169 31.875 53.4668 31.9497C53.5113 32.0314 53.5314 32.1241 53.5248 32.2169C53.5181 32.3096 53.485 32.3985 53.4294 32.473C53.3711 32.5577 53.2886 32.6229 53.1927 32.6599C53.0992 32.7029 52.9948 32.716 52.8936 32.6973C52.7815 32.6724 52.6694 32.6225 52.5448 32.5353C52.3579 32.4107 52.2457 32.2737 52.2084 32.1242C52.1678 31.9546 52.1946 31.776 52.2831 31.6258L52.2956 31.6383ZM50.8503 30.6913L51.1618 30.8533C51.1232 30.9394 51.1144 31.0358 51.1369 31.1274C51.1687 31.2129 51.2308 31.2838 51.3113 31.3268C51.411 31.3891 51.4857 31.414 51.5605 31.4015C51.6352 31.4015 51.6851 31.3642 51.7224 31.3019C51.7413 31.2722 51.7501 31.2372 51.7474 31.2022C51.7474 31.1648 51.7224 31.115 51.6851 31.0776C51.6212 31.0005 51.5547 30.9257 51.4857 30.8533C51.3487 30.7163 51.2614 30.6041 51.2365 30.5045C51.2161 30.4403 51.21 30.3725 51.2187 30.3058C51.2273 30.2391 51.2504 30.1751 51.2864 30.1182C51.3337 30.0413 51.4032 29.9805 51.4857 29.9438C51.5713 29.9043 51.6668 29.8913 51.7598 29.9064C51.8751 29.9258 51.9852 29.9682 52.0838 30.031C52.2707 30.1556 52.3828 30.2802 52.4202 30.4172C52.4429 30.4873 52.4502 30.5614 52.4416 30.6345C52.433 30.7076 52.4087 30.778 52.3703 30.8409L52.0588 30.6664C52.0962 30.5792 52.1087 30.5169 52.0838 30.4546C52.0588 30.3923 52.009 30.33 51.9218 30.2802C51.8529 30.2307 51.7699 30.2045 51.6851 30.2054C51.6646 30.2068 51.6448 30.2132 51.6274 30.2241C51.61 30.235 51.5956 30.2499 51.5854 30.2677C51.5605 30.3051 51.5605 30.3425 51.5729 30.3923C51.5854 30.4422 51.6601 30.5418 51.7847 30.6664C51.9093 30.791 51.9965 30.8907 52.0339 30.9655C52.0839 31.0436 52.1104 31.1344 52.1104 31.2271C52.1104 31.3198 52.0839 31.4106 52.0339 31.4887C51.9802 31.5757 51.9023 31.645 51.8097 31.6881C51.7162 31.7311 51.6118 31.7442 51.5106 31.7255C51.3824 31.7038 51.2597 31.6572 51.1493 31.5884C50.9883 31.5026 50.8642 31.3608 50.8005 31.1897C50.7523 31.0234 50.7702 30.8449 50.8503 30.6913ZM49.0811 30.2179L49.9906 28.7228L51.087 29.408L50.9375 29.6572L50.1401 29.1588L49.9408 29.4952L50.6883 29.9562L50.5263 30.2054L49.7788 29.7444L49.5296 30.1556L50.3644 30.654L50.2149 30.9032L49.0935 30.2179H49.0811ZM46.502 28.0998L46.639 27.8506L47.3118 28.187L47.0003 28.81C46.9007 28.8349 46.7761 28.8474 46.6266 28.8349C46.483 28.8191 46.3436 28.7768 46.2154 28.7103C46.0646 28.6368 45.9358 28.5252 45.8416 28.3864C45.7559 28.2574 45.7124 28.105 45.717 27.9503C45.7234 27.7892 45.7659 27.6316 45.8416 27.4893C45.9165 27.3395 46.0279 27.2109 46.1656 27.1155C46.2973 27.0244 46.454 26.9765 46.6141 26.9785C46.7387 26.9785 46.8633 27.0158 47.0128 27.103C47.2122 27.1903 47.3367 27.3149 47.399 27.4519C47.4638 27.588 47.4771 27.7429 47.4364 27.888L47.1 27.7883C47.1206 27.7049 47.1118 27.6168 47.0751 27.5391C47.0377 27.4644 46.9754 27.4145 46.8757 27.3647C46.8177 27.3315 46.7532 27.3111 46.6866 27.3046C46.6201 27.2982 46.5529 27.3059 46.4895 27.3273C46.3649 27.3647 46.2528 27.4768 46.1656 27.6513C46.0783 27.8257 46.041 27.9877 46.0783 28.1247C46.0956 28.1897 46.1268 28.2502 46.1698 28.3018C46.2129 28.3535 46.2667 28.3951 46.3275 28.4237C46.3898 28.4611 46.4646 28.486 46.5393 28.486C46.6137 28.4973 46.6893 28.4973 46.7636 28.486L46.8633 28.2867L46.502 28.0998ZM35.2636 25.3214L35.5128 23.577L36.0361 23.6643L36.1731 24.8853L36.6591 23.7639L37.1824 23.8387L36.9332 25.5581L36.5968 25.5082L36.8086 24.1502L36.2604 25.4584L35.924 25.4086L35.7869 24.0007L35.5875 25.3712L35.2636 25.3214ZM33.5068 25.1095L33.6688 23.3652L34.9521 23.4898L34.9272 23.7889L33.9928 23.7016L33.9554 24.0754L34.8275 24.1626L34.7902 24.4617L33.918 24.3744L33.8806 24.8479L34.8524 24.9351L34.8275 25.2341L33.5068 25.1095Z" fill="#309E3A"/>
<path d="M27.688 24.026C27.688 23.8391 27.7254 23.702 27.7752 23.5774C27.8189 23.4888 27.878 23.4087 27.9497 23.3407C28.0136 23.2763 28.0899 23.2254 28.1739 23.1912C28.2985 23.1538 28.4231 23.1289 28.5477 23.1289C28.8094 23.1289 29.0087 23.2286 29.1707 23.3781C29.2478 23.4733 29.3051 23.583 29.3394 23.7007C29.3736 23.8183 29.384 23.9416 29.37 24.0634C29.37 24.3375 29.2828 24.5617 29.1209 24.7237C29.0376 24.8006 28.9392 24.8592 28.8318 24.8957C28.7245 24.9322 28.6108 24.9458 28.4979 24.9355C28.3865 24.9366 28.2761 24.9151 28.1733 24.8723C28.0705 24.8295 27.9774 24.7662 27.8998 24.6863C27.7448 24.5028 27.6686 24.2654 27.688 24.026Z" fill="#309E3A"/>
<path d="M28.0493 24.0255C28.0493 24.2124 28.0867 24.3619 28.1739 24.4741C28.2611 24.5737 28.3733 24.636 28.5228 24.636C28.5875 24.6406 28.6523 24.6306 28.7127 24.6069C28.773 24.5832 28.8273 24.5463 28.8716 24.499C28.9589 24.3993 28.9962 24.2498 29.0087 24.038C29.0087 23.8386 28.9838 23.6891 28.8841 23.5894C28.8435 23.5392 28.7923 23.4986 28.7341 23.4706C28.6759 23.4426 28.6123 23.4279 28.5477 23.4275C28.4821 23.4254 28.4169 23.4377 28.3567 23.4635C28.2964 23.4893 28.2425 23.5281 28.1988 23.577C28.0992 23.6767 28.0618 23.8262 28.0493 24.0255Z" fill="#F7FFFF"/>
<path d="M29.7437 24.9225L29.7686 23.1782H30.5161C30.703 23.1782 30.8276 23.2031 30.9148 23.2405C31.002 23.2654 31.0643 23.3277 31.1142 23.4025C31.164 23.4772 31.1889 23.5769 31.1889 23.6891C31.1899 23.8089 31.1454 23.9247 31.0643 24.013C30.9722 24.0993 30.8537 24.152 30.7279 24.1625L30.9148 24.312C30.9647 24.3619 31.027 24.4615 31.1017 24.5986L31.3135 24.9475H30.8899L30.6407 24.5488L30.4663 24.2996C30.4361 24.2653 30.3974 24.2395 30.3542 24.2248C30.2975 24.2083 30.2388 24.1999 30.1797 24.1999H30.105V24.9225H29.7437Z" fill="#309E3A"/>
<path d="M30.1177 23.9256H30.3669C30.5413 23.9256 30.6534 23.9256 30.6908 23.9007C30.7282 23.9007 30.7656 23.8633 30.7905 23.8384C30.8154 23.8135 30.8279 23.7512 30.8279 23.7138C30.8279 23.639 30.8154 23.5892 30.778 23.5643C30.7531 23.5269 30.7033 23.502 30.6534 23.4895H30.4042L30.1177 23.4771V23.9131V23.9256Z" fill="white"/>
<path d="M31.7376 23.2656L32.3855 23.303C32.5225 23.303 32.6347 23.3155 32.7094 23.3404C32.8064 23.3756 32.8924 23.4357 32.9586 23.5148C33.0304 23.6019 33.0815 23.7042 33.1081 23.8138C33.1455 23.926 33.158 24.063 33.1455 24.225C33.1454 24.3522 33.1244 24.4784 33.0832 24.5988C33.0334 24.7234 32.9586 24.823 32.8714 24.8978C32.7988 24.9576 32.7136 25.0002 32.6222 25.0224C32.5475 25.0473 32.4353 25.0473 32.3107 25.0473L31.6504 25.0099L31.7376 23.2656Z" fill="#309E3A"/>
<path d="M32.074 23.5771L32.0117 24.7359H32.4852C32.5475 24.7359 32.5973 24.711 32.6347 24.6736C32.6721 24.6362 32.7094 24.5864 32.7344 24.5116C32.7593 24.4368 32.7842 24.3247 32.7842 24.1877L32.7717 23.8762C32.7539 23.8105 32.7196 23.7504 32.6721 23.7017C32.6307 23.6601 32.5791 23.6301 32.5226 23.6145C32.4283 23.5936 32.3324 23.581 32.236 23.5771H32.074Z" fill="white"/>
<path d="M40.2842 26.3805L40.6953 24.686L41.2436 24.8106L41.6423 24.9352C41.7295 24.9851 41.8042 25.0598 41.8416 25.1719C41.8914 25.2716 41.8914 25.3838 41.8665 25.5208C41.8416 25.6205 41.8042 25.7077 41.7419 25.77C41.6962 25.8247 41.6391 25.8687 41.5745 25.8988C41.5099 25.929 41.4394 25.9446 41.3681 25.9444C41.2809 25.9444 41.1563 25.9195 40.9944 25.8821L40.7826 25.8198L40.633 26.4677L40.2842 26.3805Z" fill="#309E3A"/>
<path d="M40.9566 25.0596L40.8569 25.533L41.0438 25.5829C41.1684 25.6078 41.2681 25.6327 41.3179 25.6202C41.3664 25.6135 41.4116 25.5919 41.4473 25.5585C41.483 25.525 41.5074 25.4813 41.5173 25.4334C41.5173 25.3711 41.5173 25.3212 41.4924 25.2714C41.465 25.2207 41.421 25.1811 41.3678 25.1592L41.131 25.0969L40.9691 25.0596H40.9566Z" fill="white"/>
<path d="M41.9043 26.8663L42.4899 25.2217L43.1752 25.4709C43.362 25.5332 43.4742 25.5955 43.5489 25.6453C43.6112 25.7076 43.6611 25.7699 43.6735 25.8696C43.686 25.9692 43.6984 26.0565 43.6735 26.1561C43.6237 26.2807 43.5489 26.3679 43.4493 26.4302C43.3496 26.4801 43.225 26.4925 43.0755 26.4676C43.1253 26.5299 43.1752 26.5922 43.2001 26.667L43.2997 27.0034L43.3745 27.3896L42.9883 27.2526L42.8637 26.804C42.841 26.7026 42.8119 26.6027 42.7765 26.505C42.7599 26.4662 42.7343 26.432 42.7017 26.4053C42.6768 26.3679 42.6269 26.343 42.5397 26.3181L42.4774 26.2932L42.2282 26.9909L41.9043 26.8663Z" fill="#309E3A"/>
<path d="M42.5774 26.0318L42.8141 26.119C42.9761 26.1813 43.0758 26.2062 43.1256 26.2062C43.163 26.2062 43.2004 26.2062 43.2377 26.1688C43.2751 26.1439 43.3 26.1065 43.3125 26.0567C43.3374 26.0068 43.3374 25.957 43.3125 25.9072C43.2941 25.8589 43.2586 25.819 43.2128 25.795L42.9636 25.7078L42.7145 25.6206L42.5649 26.0318H42.5774Z" fill="white"/>
<path d="M43.9474 26.8042C43.9902 26.6583 44.0623 26.5226 44.1592 26.4055C44.2222 26.3303 44.2982 26.267 44.3835 26.2186C44.4607 26.1749 44.5451 26.1454 44.6326 26.1313C44.7572 26.1313 44.8818 26.1313 45.0189 26.1812C45.1303 26.2087 45.2345 26.2596 45.3247 26.3305C45.4149 26.4014 45.4891 26.4907 45.5422 26.5923C45.6419 26.7917 45.6419 27.0284 45.5671 27.3025C45.5054 27.538 45.3532 27.7396 45.1435 27.8632C44.9566 27.9753 44.7323 27.9878 44.4956 27.913C44.3845 27.8848 44.2806 27.8336 44.1905 27.7628C44.1004 27.692 44.0261 27.6031 43.9723 27.5019C43.9224 27.393 43.8945 27.2752 43.8902 27.1555C43.886 27.0358 43.9054 26.9164 43.9474 26.8042Z" fill="#309E3A"/>
<path d="M44.2961 26.9035C44.2462 27.0904 44.2338 27.2524 44.2961 27.377C44.3584 27.5016 44.4456 27.5763 44.5827 27.6261C44.7072 27.6635 44.8318 27.6511 44.9564 27.5763C45.081 27.514 45.1558 27.377 45.2181 27.1776C45.2804 26.9907 45.2804 26.8412 45.2181 26.7166C45.1935 26.6575 45.1562 26.6045 45.1088 26.5615C45.0614 26.5184 45.0052 26.4863 44.944 26.4674C44.8827 26.4463 44.8175 26.4386 44.753 26.4451C44.6885 26.4516 44.6261 26.4719 44.5702 26.5048C44.4456 26.5796 44.3584 26.7042 44.2961 26.9035Z" fill="white"/>
<path d="M47.3491 29.2334L48.1465 27.6885L48.8069 28.0249C48.9313 28.0846 49.045 28.1646 49.1433 28.2616C49.2056 28.3239 49.2429 28.3987 49.2429 28.4983C49.2429 28.598 49.2429 28.6852 49.1931 28.7724C49.1452 28.8845 49.056 28.9737 48.9439 29.0216C48.8193 29.0465 48.6947 29.0465 48.5577 28.9967C48.6075 29.0715 48.6324 29.1462 48.6574 29.2085C48.6823 29.2833 48.6947 29.3954 48.7072 29.5574L48.7321 29.9561L48.3583 29.7692L48.3085 29.3082C48.3026 29.2037 48.2901 29.0997 48.2711 28.9967C48.2626 28.9501 48.241 28.9069 48.2088 28.8721L48.0593 28.7849L47.997 28.7475L47.6606 29.3954L47.3491 29.2334Z" fill="#309E3A"/>
<path d="M48.1216 28.4983L48.3583 28.6229C48.5078 28.6977 48.6075 28.7475 48.6449 28.7475C48.6823 28.7475 48.7321 28.7475 48.7695 28.7226C48.8069 28.7101 48.8318 28.6727 48.8567 28.6229C48.8816 28.5731 48.8941 28.5232 48.8816 28.4734C48.8662 28.4238 48.8357 28.3802 48.7944 28.3488C48.7215 28.304 48.6466 28.2625 48.5701 28.2242L48.3209 28.0996L48.1216 28.4983Z" fill="white"/>
<path d="M53.8027 32.4231C53.8833 32.295 53.9893 32.1847 54.1142 32.0991C54.198 32.0455 54.2909 32.0075 54.3883 31.987C54.4787 31.9685 54.572 31.9685 54.6624 31.987C54.787 32.0119 54.8991 32.0617 55.0113 32.1365C55.1082 32.1969 55.1915 32.2768 55.2559 32.3712C55.3203 32.4656 55.3642 32.5724 55.385 32.6847C55.4224 32.8965 55.3601 33.1333 55.2106 33.37C55.0855 33.5759 54.8839 33.7237 54.6499 33.7811C54.5384 33.8052 54.423 33.8055 54.3113 33.7819C54.1997 33.7582 54.0943 33.7113 54.0021 33.6441C53.9051 33.5837 53.8218 33.5037 53.7574 33.4094C53.6931 33.315 53.6491 33.2082 53.6283 33.0959C53.5909 32.8716 53.6532 32.6473 53.8027 32.4231Z" fill="#309E3A"/>
<path d="M54.1146 32.6231C53.99 32.7851 53.9526 32.9346 53.9775 33.0716C53.9867 33.1347 54.0092 33.1952 54.0436 33.2489C54.078 33.3026 54.1234 33.3483 54.1769 33.3831C54.3014 33.4703 54.426 33.4952 54.5506 33.4579C54.6752 33.4205 54.7998 33.3333 54.912 33.1588C55.0241 32.9844 55.0739 32.8349 55.049 32.7103C55.0365 32.5857 54.9618 32.4736 54.8497 32.3864C54.7375 32.2991 54.6005 32.2867 54.4759 32.3241C54.3513 32.349 54.2267 32.4487 54.1021 32.6231H54.1146Z" fill="white"/>
<path d="M38.3159 25.6702L38.6025 24.4492L39.4996 24.661L39.4622 24.8604L38.8018 24.7109L38.7395 24.985L39.35 25.122L39.3002 25.3338L38.6897 25.1843L38.6149 25.5207L39.3002 25.6827L39.2504 25.882L38.3159 25.6702Z" fill="#309E3A"/>
</g>
<defs>
<clipPath id="clip0_333_8230">
<rect width="79.74" height="59.805" fill="white" transform="translate(0.713379 0.190918)"/>
</clipPath>
</defs>
</svg>
