<svg width="81" height="61" viewBox="0 0 81 61" fill="none" xmlns="http://www.w3.org/2000/svg">
<g clip-path="url(#clip0_238_12306)">
<path d="M19.4146 0.803223H61.7369V60.6052H19.4021L19.4146 0.803223Z" fill="white"/>
<path d="M-1.74048 0.803223H19.4145V60.6052H-1.74048V0.803223ZM61.7368 0.803223H82.8918V60.6052H61.7493L61.7368 0.803223ZM25.756 29.7075L24.099 30.2557L31.7486 36.9834C32.3342 38.6903 31.5493 39.2011 31.0509 40.0981L39.3485 39.0516L39.1491 47.3989L40.8809 47.3615L40.4947 39.064L48.8047 40.0607C48.2938 38.9768 47.8329 38.4037 48.3063 36.6719L55.9435 30.318L54.6104 29.8196C53.5141 28.9724 55.0839 25.7581 55.3081 23.7273C55.3081 23.7273 50.8603 25.2597 50.5738 24.4499L49.4276 22.2696L45.366 26.7299C44.93 26.842 44.7431 26.6676 44.631 26.2938L46.4998 16.9747L43.5346 18.6441C43.2854 18.7563 43.0363 18.6566 42.8867 18.37L40.0212 12.639L37.081 18.5943C36.8567 18.8061 36.6325 18.831 36.458 18.6815L33.605 17.0993L35.3118 26.3312C35.1748 26.7049 34.8509 26.8046 34.4771 26.6053L30.59 22.2073C30.0916 23.0172 29.7428 24.3378 29.07 24.6368C28.3972 24.9233 26.1422 24.0762 24.6347 23.7647C25.158 25.6086 26.7527 28.6983 25.756 29.7075Z" fill="#D52B1E"/>
</g>
<defs>
<clipPath id="clip0_238_12306">
<rect width="79.736" height="59.802" fill="white" transform="translate(0.713867 0.803223)"/>
</clipPath>
</defs>
</svg>
