<svg width="81" height="60" viewBox="0 0 81 60" fill="none" xmlns="http://www.w3.org/2000/svg">
<g clip-path="url(#clip0_333_8381)">
<path d="M0.713379 0.0283203H27.2879V59.8303H0.713379V0.0283203Z" fill="#007A5E"/>
<path d="M27.2881 0.0283203H53.875V59.8303H27.2881V0.0283203Z" fill="#CE1126"/>
<path d="M53.875 0.0283203H80.4495V59.8303H53.875V0.0283203Z" fill="#FCD116"/>
<path d="M40.5816 22.8418L38.3667 29.575L41.7333 30.7268L40.5816 22.8418Z" fill="#FCD116"/>
<path d="M40.5815 22.8413L42.7964 29.5746L39.4298 30.7263L40.5815 22.8413Z" fill="#FCD116"/>
<path d="M47.3221 27.7388L40.234 27.713L40.179 31.2708L47.3221 27.7388Z" fill="#FCD116"/>
<path d="M47.3219 27.7387L41.6026 31.9259L39.4669 29.08L47.3219 27.7387Z" fill="#FCD116"/>
<path d="M44.7472 35.6637L42.5814 28.9145L39.1807 29.9616L44.7472 35.6637Z" fill="#FCD116"/>
<path d="M44.7474 35.6639L38.9979 31.5185L41.0445 28.6079L44.7474 35.6639Z" fill="#FCD116"/>
<path d="M36.4156 35.6635L42.1652 31.518L40.1185 28.6074L36.4156 35.6635Z" fill="#FCD116"/>
<path d="M36.4154 35.6632L38.5812 28.914L41.9819 29.9611L36.4154 35.6632Z" fill="#FCD116"/>
<path d="M33.8407 27.7387L39.5599 31.9259L41.6957 29.08L33.8407 27.7387Z" fill="#FCD116"/>
<path d="M33.841 27.7388L40.9291 27.713L40.9841 31.2708L33.841 27.7388Z" fill="#FCD116"/>
</g>
<defs>
<clipPath id="clip0_333_8381">
<rect width="79.736" height="59.802" fill="white" transform="translate(0.713379 0.0283203)"/>
</clipPath>
</defs>
</svg>
