<svg width="81" height="61" viewBox="0 0 81 61" fill="none" xmlns="http://www.w3.org/2000/svg">
<g clip-path="url(#clip0_238_5309)">
<path fill-rule="evenodd" clip-rule="evenodd" d="M0.713745 0.803467H80.4497V60.6054H0.713745V0.803467Z" fill="#FFE800"/>
<path fill-rule="evenodd" clip-rule="evenodd" d="M0.713745 30.7043H80.4497V60.6053H0.713745V30.7043Z" fill="#00148E"/>
<path fill-rule="evenodd" clip-rule="evenodd" d="M0.713745 45.655H80.4497V60.6055H0.713745V45.655Z" fill="#DA0010"/>
<path fill-rule="evenodd" clip-rule="evenodd" d="M34.3023 37.0331L25.2573 46.564L25.1078 46.3647L34.1279 36.8337L34.2774 37.0331H34.3023ZM40.5815 38.5904L28.7707 51.0492L28.5713 50.8498L40.3697 38.3911L40.5815 38.5904Z" fill="black"/>
<path fill-rule="evenodd" clip-rule="evenodd" d="M28.8076 50.9033L27.7038 52.0072L26.4456 52.9566L27.395 51.6984L28.4989 50.5946L28.8076 50.9033Z" fill="#808080" stroke="black" stroke-width="0.0613628"/>
<path fill-rule="evenodd" clip-rule="evenodd" d="M25.7675 46.0325L24.6636 47.1363L23.4054 48.0858L24.3549 46.8276L25.4587 45.7237L25.7675 46.0325Z" fill="#808080" stroke="black" stroke-width="0.0613628"/>
<path fill-rule="evenodd" clip-rule="evenodd" d="M26.6205 15.105C26.6205 15.105 25.6282 41.9441 29.5975 41.9441C33.5669 41.9441 35.5572 39.1214 35.5572 39.1214L35.5123 24.3703L26.6205 15.105Z" fill="#FFDF00" stroke="black" stroke-width="0.0905091"/>
<path fill-rule="evenodd" clip-rule="evenodd" d="M29.0482 17.6082C29.0482 19.0195 28.6053 39.1209 30.5899 39.1209C32.5746 39.1209 35.5572 37.7096 35.5572 37.7096L35.5124 24.3698L29.0482 17.6082Z" fill="#0000C4" stroke="black" stroke-width="0.0905091"/>
<path fill-rule="evenodd" clip-rule="evenodd" d="M30.3376 18.9644C30.3376 20.3757 30.5899 36.299 32.5802 36.299H35.5572L35.5124 24.3705L30.3376 18.9644Z" fill="#E10000" stroke="black" stroke-width="0.0905091"/>
<path fill-rule="evenodd" clip-rule="evenodd" d="M26.4037 15.2552L35.4238 24.7862L35.5858 24.5868L26.5657 15.0559L26.4037 15.2552Z" fill="black"/>
<path fill-rule="evenodd" clip-rule="evenodd" d="M23.6748 20.605C23.6748 20.605 21.1168 46.6054 28.7908 46.6054C35.1859 46.6054 35.1859 42.5037 36.4649 42.5037L35.1859 32.9254L23.6676 20.605H23.6748Z" fill="#FFDF00" stroke="black" stroke-width="0.101136"/>
<path d="M30.0143 24.9273C30.0691 24.9232 32.0102 20.7226 36.8616 18.0638" stroke="black" stroke-width="0.10956"/>
<path fill-rule="evenodd" clip-rule="evenodd" d="M29.2202 20.9678C29.8967 21.2835 30.3248 21.6468 30.7145 22.0704C29.9403 21.9082 29.5409 21.8426 28.8644 21.5269C28.1879 21.2112 27.6711 20.7283 27.2605 20.3376C27.7641 20.4909 28.54 20.6503 29.2202 20.9678Z" fill="#005B00" stroke="black" stroke-width="0.0495537"/>
<path fill-rule="evenodd" clip-rule="evenodd" d="M30.9144 23.541C30.964 23.6253 30.9214 23.7439 30.8166 23.8022C30.7118 23.8604 30.5862 23.838 30.5354 23.7516C30.4846 23.6653 30.5297 23.5508 30.6345 23.4926C30.7393 23.4344 30.8649 23.4568 30.9144 23.541Z" fill="#FF0000" stroke="black" stroke-width="0.0339879"/>
<path fill-rule="evenodd" clip-rule="evenodd" d="M33.0434 18.2792C32.7502 19.0233 32.4268 19.5137 32.054 19.9712C32.2216 19.1433 32.2927 18.7183 32.5859 17.9742C32.879 17.23 33.3069 16.6327 33.6527 16.1573C33.5035 16.7015 33.3381 17.5309 33.0434 18.2792Z" fill="#005B00" stroke="black" stroke-width="0.0467173"/>
<path fill-rule="evenodd" clip-rule="evenodd" d="M32.0536 18.2402C31.986 18.9844 31.8377 19.5607 31.6429 20.1453C31.5919 19.422 31.5539 19.0606 31.6216 18.3165C31.6892 17.5723 31.8968 16.8479 32.0662 16.2679C32.0686 16.7691 32.1217 17.4919 32.0536 18.2402Z" fill="#005B00" stroke="black" stroke-width="0.0403367"/>
<path fill-rule="evenodd" clip-rule="evenodd" d="M32.6999 19.0916C32.3165 19.5426 31.9941 19.7382 31.6552 19.8652C31.9967 19.2398 32.164 18.9072 32.5474 18.4562C32.9308 18.0052 33.3416 17.7934 33.6716 17.6289C33.4261 18.0095 33.0854 18.6381 32.6999 19.0916Z" fill="#005B00" stroke="black" stroke-width="0.0438128"/>
<path fill-rule="evenodd" clip-rule="evenodd" d="M29.4338 19.7218C29.8848 20.263 30.1091 20.7843 30.2785 21.3604C29.688 20.9587 29.3765 20.7713 28.9255 20.2301C28.4745 19.6889 28.2204 19.0111 28.021 18.4649C28.3873 18.7784 28.9803 19.1776 29.4338 19.7218Z" fill="#005B00" stroke="black" stroke-width="0.0501338"/>
<path fill-rule="evenodd" clip-rule="evenodd" d="M28.526 23.8926C29.0897 24.3436 29.3872 24.8086 29.6244 25.3338C28.9072 25.0363 28.5306 24.9028 27.9668 24.4518C27.403 24.0008 27.0599 23.3908 26.7898 22.8984C27.2391 23.1443 27.9591 23.4391 28.526 23.8926Z" fill="#005B00" stroke="black" stroke-width="0.0532287"/>
<path fill-rule="evenodd" clip-rule="evenodd" d="M31.166 23.6459C30.715 24.3675 30.2271 24.8524 29.6679 25.3099C29.9375 24.5185 30.0541 24.1134 30.5051 23.3918C30.9562 22.6702 31.6 22.0771 32.1203 21.6047C31.8858 22.1277 31.6195 22.9203 31.166 23.6459Z" fill="#005B00" stroke="black" stroke-width="0.0546813"/>
<path fill-rule="evenodd" clip-rule="evenodd" d="M31.6373 23.6173C30.9157 24.1134 30.2875 24.3716 29.6182 24.5749C30.2352 23.9392 30.5345 23.6051 31.2561 23.109C31.9777 22.6129 32.7825 22.3164 33.4294 22.0831C32.978 22.4803 32.3629 23.1185 31.6373 23.6173Z" fill="#005B00" stroke="black" stroke-width="0.0525492"/>
<path fill-rule="evenodd" clip-rule="evenodd" d="M36.5022 18.4312C36.1865 18.792 35.9034 19.0058 35.5984 19.1922C35.8583 18.7616 35.9832 18.5379 36.2989 18.1771C36.6146 17.8163 36.9789 17.5621 37.2719 17.3608C37.0785 17.6366 36.8197 18.0684 36.5022 18.4312Z" fill="#005B00" stroke="black" stroke-width="0.0278286"/>
<path fill-rule="evenodd" clip-rule="evenodd" d="M35.818 17.3672C35.6376 17.7505 35.4447 18.0386 35.2244 18.3266C35.3351 17.9432 35.3834 17.7505 35.5638 17.3672C35.7442 16.9838 35.9984 16.6237 36.2037 16.3357C36.1087 16.5983 35.9994 16.9817 35.818 17.3672Z" fill="#005B00" stroke="black" stroke-width="0.0231174"/>
<path fill-rule="evenodd" clip-rule="evenodd" d="M36.8744 18.0551C36.5587 18.2355 36.3215 18.2908 36.0843 18.3077C36.4 18.0297 36.5587 17.8797 36.8744 17.6993C37.1901 17.5189 37.4867 17.468 37.7239 17.4302C37.5076 17.5939 37.1919 17.8737 36.8744 18.0551Z" fill="#005B00" stroke="black" stroke-width="0.0253398"/>
<path fill-rule="evenodd" clip-rule="evenodd" d="M32.5179 20.0761C31.9541 20.4144 31.4904 20.6112 31.0075 20.7807C31.5224 20.3727 31.7762 20.1602 32.34 19.822C32.9037 19.4837 33.4925 19.2507 33.965 19.0664C33.5988 19.3267 33.0847 19.736 32.5179 20.0761Z" fill="#005B00" stroke="black" stroke-width="0.0318161"/>
<path fill-rule="evenodd" clip-rule="evenodd" d="M34.1632 20.5817C33.4191 21.0327 32.7854 21.2455 32.1161 21.398C32.7696 20.7935 33.0887 20.4736 33.8328 20.0226C34.577 19.5716 35.3861 19.3343 36.0359 19.149C35.5634 19.521 34.9115 20.1282 34.1632 20.5817Z" fill="#005B00" stroke="black" stroke-width="0.05296"/>
<path d="M29.1061 27.8808C29.154 27.8534 28.7005 23.8965 31.7276 19.7807" stroke="black" stroke-width="0.107842"/>
<path fill-rule="evenodd" clip-rule="evenodd" d="M33.7426 19.5413C33.7921 19.6255 33.7495 19.7442 33.6447 19.8024C33.5399 19.8606 33.4143 19.8382 33.3635 19.7519C33.3127 19.6655 33.3578 19.5511 33.4626 19.4929C33.5674 19.4346 33.693 19.4571 33.7426 19.5413Z" fill="#FF0000" stroke="black" stroke-width="0.0339879"/>
<path fill-rule="evenodd" clip-rule="evenodd" d="M35.0881 18.7561C35.1377 18.8404 35.0951 18.959 34.9903 19.0173C34.8855 19.0755 34.7599 19.0531 34.7091 18.9667C34.6583 18.8804 34.7034 18.7659 34.8082 18.7077C34.913 18.6495 35.0386 18.6719 35.0881 18.7561Z" fill="#FF0000" stroke="black" stroke-width="0.0339879"/>
<path fill-rule="evenodd" clip-rule="evenodd" d="M31.3333 21.3945C31.368 21.4589 31.3034 21.5608 31.1869 21.619C31.0705 21.6772 30.9477 21.6711 30.9122 21.6051C30.8766 21.5391 30.943 21.4405 31.0595 21.3823C31.1759 21.324 31.2987 21.3301 31.3333 21.3945Z" fill="#FF0000" stroke="black" stroke-width="0.0306445"/>
<path fill-rule="evenodd" clip-rule="evenodd" d="M31.7322 21.2197C31.7668 21.2841 31.7022 21.386 31.5857 21.4442C31.4693 21.5024 31.3465 21.4963 31.311 21.4303C31.2754 21.3643 31.3418 21.2657 31.4583 21.2075C31.5747 21.1492 31.6975 21.1553 31.7322 21.2197Z" fill="#FF0000" stroke="black" stroke-width="0.0306445"/>
<path fill-rule="evenodd" clip-rule="evenodd" d="M31.4953 21.594C31.53 21.6584 31.4654 21.7602 31.3489 21.8184C31.2325 21.8767 31.1097 21.8706 31.0742 21.8046C31.0386 21.7385 31.105 21.6399 31.2214 21.5817C31.3379 21.5235 31.4607 21.5296 31.4953 21.594Z" fill="#FF0000" stroke="black" stroke-width="0.0306445"/>
<path fill-rule="evenodd" clip-rule="evenodd" d="M32.1948 21.6461C32.2443 21.7452 32.1948 21.8691 32.0709 21.931C31.947 21.9929 31.8232 21.9558 31.7736 21.8443C31.7241 21.7328 31.7736 21.6213 31.8975 21.5594C32.0214 21.4974 32.1452 21.5346 32.1824 21.6461H32.1948Z" fill="#FF0000" stroke="black" stroke-width="0.0379471"/>
<path fill-rule="evenodd" clip-rule="evenodd" d="M32.4838 21.3474C32.5212 21.447 32.4838 21.5716 32.3592 21.6339C32.2346 21.6962 32.11 21.6588 32.0478 21.5592C31.9855 21.4595 32.0478 21.3224 32.1723 21.2601C32.2969 21.1978 32.4215 21.2477 32.4713 21.3474H32.4838Z" fill="#FF0000" stroke="black" stroke-width="0.0379471"/>
<path fill-rule="evenodd" clip-rule="evenodd" d="M32.5436 21.484C32.5931 21.5831 32.5436 21.7194 32.4197 21.7689C32.2958 21.8185 32.1719 21.7937 32.1224 21.6946C32.0728 21.5955 32.1224 21.4716 32.2463 21.4097C32.3701 21.3477 32.494 21.3849 32.5436 21.484Z" fill="#FF0000" stroke="black" stroke-width="0.0379471"/>
<path fill-rule="evenodd" clip-rule="evenodd" d="M26.2327 23.3472C26.2327 24.7144 23.6747 39.7693 30.077 43.871C32.635 45.2382 36.472 42.5037 36.472 43.871L35.193 32.9254L26.2327 23.3472Z" fill="#0000C4" stroke="black" stroke-width="0.101136"/>
<path fill-rule="evenodd" clip-rule="evenodd" d="M28.7909 26.0811C28.7909 27.4483 27.5118 38.3938 31.3561 41.1359C33.9141 43.8704 40.3164 43.1289 40.3164 43.1289L35.1932 32.9249L28.7909 26.0811Z" fill="#E10000" stroke="black" stroke-width="0.101136"/>
<path fill-rule="evenodd" clip-rule="evenodd" d="M23.6129 20.4879L35.4238 32.9467L35.6356 32.7473L23.8247 20.301L23.6254 20.5004L23.6129 20.4879Z" fill="black"/>
<path fill-rule="evenodd" clip-rule="evenodd" d="M21.7956 19.0114L22.5454 19.1438L22.7659 19.3643C22.7357 19.362 22.9864 19.5848 22.6777 19.8935C22.369 20.2023 21.9297 19.7595 21.9297 19.7595C21.9297 19.7595 22.062 20.5092 22.5043 20.9515C22.9465 21.3938 23.4745 21.3044 23.4745 21.3044C23.4745 21.3044 22.972 20.8925 23.3422 20.5546C23.713 20.2137 23.8715 20.4664 23.8715 20.4664L24.3125 20.9074L24.623 20.5969L22.8576 18.8315L22.7253 18.0818L21.588 17.8934L21.7961 19.0085L21.7956 19.0114Z" fill="#CECECC" stroke="black" stroke-width="0.0282212"/>
<path fill-rule="evenodd" clip-rule="evenodd" d="M23.5353 13.7755L24.4425 15.1819L25.591 15.4918L24.8412 15.977L26.2084 15.9329L26.8276 16.3752L27.0494 16.0203L26.4285 15.5768L25.9446 14.2076L25.811 15.1358L25.1048 14.1181L23.5348 13.7723L23.5353 13.7755Z" fill="#CECECC" stroke="black" stroke-width="0.0303866"/>
<path fill-rule="evenodd" clip-rule="evenodd" d="M27.2261 14.6202C27.2261 14.6949 27.1265 14.7585 27.0118 14.7585C26.8972 14.7585 26.7926 14.6949 26.7926 14.6202C26.7926 14.5454 26.8922 14.4781 27.0118 14.4781C27.1314 14.4781 27.2261 14.5417 27.2261 14.6202ZM26.9172 14.9154C26.9172 16.2535 27.9587 21.9347 28.0434 22.073C28.0484 22.2412 27.8042 22.3122 27.6896 22.1066C27.3607 21.4563 26.653 16.1264 26.6281 14.8818C26.6132 14.3698 26.8125 14.3286 27.0417 14.3399C27.2261 14.3473 27.4554 14.4781 27.4554 14.6351C27.4554 14.822 27.1663 14.9603 26.9172 14.9154Z" fill="#E10000" stroke="black" stroke-width="0.0584234"/>
<path fill-rule="evenodd" clip-rule="evenodd" d="M27.6246 15.9469C27.5873 16.0216 27.4608 16.0603 27.3519 16.0316C27.243 16.0029 27.1754 15.9132 27.2127 15.8385C27.2501 15.7637 27.3784 15.7214 27.4921 15.7513C27.6057 15.7812 27.6639 15.8684 27.6246 15.9469ZM27.1835 16.1649C27.5273 18.8523 26.3738 23.0023 26.3832 23.1655C26.3057 23.3312 26.0364 23.3449 26.0322 23.1069C25.9755 22.9524 27.3034 19.2036 26.9257 16.059C27.1675 15.5432 27.3774 15.5519 27.5896 15.6205C27.7611 15.674 27.9134 15.8622 27.8349 16.0191C27.7415 16.206 27.3978 16.2721 27.1835 16.1649Z" fill="#0000C4" stroke="black" stroke-width="0.0612274"/>
<path fill-rule="evenodd" clip-rule="evenodd" d="M23.9743 19.6786C23.9743 19.8032 23.8497 19.9277 23.7002 19.9277C23.5507 19.9277 23.4261 19.8032 23.4261 19.6786C23.4261 19.554 23.5507 19.4543 23.7002 19.4543C23.8497 19.4543 23.9618 19.554 23.9618 19.6786H23.9743ZM23.5756 20.1769C23.5756 22.407 24.8838 31.8757 24.9835 32.1124C24.9835 32.3865 24.6969 32.5111 24.5474 32.1622C24.1363 31.0783 23.2517 22.1952 23.2143 20.1271C23.2019 19.2674 23.451 19.2051 23.7376 19.2176C23.9743 19.2301 24.2484 19.4543 24.2484 19.7159C24.2484 20.015 23.8871 20.2517 23.5756 20.1769Z" fill="#E10000" stroke="black" stroke-width="0.0885432"/>
<path fill-rule="evenodd" clip-rule="evenodd" d="M24.647 20.829C24.5972 20.9486 24.4352 21.0129 24.2977 20.9699C24.1602 20.9269 24.0769 20.786 24.1268 20.6664C24.1766 20.5468 24.3411 20.4765 24.4846 20.5214C24.6281 20.5662 24.6994 20.7034 24.647 20.829ZM24.0794 21.1856C24.4332 25.4461 22.838 32.0647 22.845 32.3237C22.7414 32.5887 22.3985 32.6167 22.4005 32.2388C22.3332 31.9948 24.1377 26.0093 23.755 21.0233C24.0784 20.1985 24.345 20.2074 24.6127 20.3113C24.8289 20.3924 25.0168 20.6877 24.9122 20.9389C24.7876 21.2379 24.3485 21.3508 24.0794 21.1856Z" fill="#0000C4" stroke="black" stroke-width="0.0862452"/>
<path fill-rule="evenodd" clip-rule="evenodd" d="M46.8609 37.0331L55.8935 46.564L56.0554 46.3647L47.0228 36.8337L46.8609 37.0331ZM40.5817 38.5904L52.3926 51.0492L52.5919 50.8498L40.7935 38.3911L40.5817 38.5904Z" fill="black"/>
<path fill-rule="evenodd" clip-rule="evenodd" d="M52.3562 50.9033L53.46 52.0072L54.7183 52.9566L53.7688 51.6984L52.6649 50.5946L52.3562 50.9033Z" fill="#808080" stroke="black" stroke-width="0.0613628"/>
<path fill-rule="evenodd" clip-rule="evenodd" d="M55.3962 46.0325L56.5001 47.1363L57.7583 48.0858L56.8088 46.8276L55.705 45.7237L55.3962 46.0325Z" fill="#808080" stroke="black" stroke-width="0.0613628"/>
<path fill-rule="evenodd" clip-rule="evenodd" d="M54.5433 15.1045C54.5433 15.1045 55.5356 41.9436 51.5663 41.9436C47.5969 41.9436 45.6067 39.121 45.6067 39.121L45.6515 24.3698L54.5433 15.1045Z" fill="#FFDF00" stroke="black" stroke-width="0.0905091"/>
<path fill-rule="evenodd" clip-rule="evenodd" d="M52.1157 17.6089C52.1157 19.0202 52.5586 39.1216 50.5739 39.1216C48.5892 39.1216 45.6066 37.7103 45.6066 37.7103L45.6514 24.3705L52.1157 17.6089Z" fill="#0000C4" stroke="black" stroke-width="0.0905091"/>
<path fill-rule="evenodd" clip-rule="evenodd" d="M50.8265 18.9644C50.8265 20.3757 50.5742 36.299 48.584 36.299H45.6069L45.6518 24.3705L50.8265 18.9644Z" fill="#E10000" stroke="black" stroke-width="0.0905091"/>
<path fill-rule="evenodd" clip-rule="evenodd" d="M54.7601 15.2552L45.74 24.7862L45.578 24.5868L54.5981 15.0559L54.7601 15.2552Z" fill="black"/>
<path fill-rule="evenodd" clip-rule="evenodd" d="M47.64 22.6151C47.64 22.6151 50.1686 25.8593 51.3886 28.3666C52.6076 30.8792 54.0308 34.7078 54.0308 34.7078C54.0308 34.7078 53.2175 30.9385 51.6826 27.9166C49.6713 24.1151 47.639 22.8313 47.64 22.6151Z" fill="#005B00" stroke="black" stroke-width="0.0422313"/>
<path fill-rule="evenodd" clip-rule="evenodd" d="M47.5525 20.0385C47.5525 20.0385 50.3743 24.0509 51.6623 27.0266C52.9486 30.008 54.3809 34.477 54.3809 34.477C54.3809 34.477 53.6857 30.1774 52.0548 26.58C49.9054 22.0406 47.5344 20.2771 47.5525 20.0385Z" fill="#005B00" stroke="black" stroke-width="0.0487976"/>
<path fill-rule="evenodd" clip-rule="evenodd" d="M49.9879 16.0712C49.9879 16.0712 51.9842 22.0127 52.5926 25.6868C53.1977 29.3641 53.5672 34.4249 53.5672 34.4249C53.5672 34.4249 53.9517 30.1775 53.1363 25.6686C52.0082 19.896 49.9051 16.2553 49.9879 16.0712Z" fill="#005B00" stroke="black" stroke-width="0.0554268"/>
<path fill-rule="evenodd" clip-rule="evenodd" d="M48.1954 15.799C48.1954 15.799 50.9598 21.0757 52.0367 24.6614C53.1106 28.2523 54.1205 33.4329 54.1205 33.4329C54.1205 33.4329 53.9747 28.7267 52.5837 24.3618C50.7178 18.8168 48.1349 16.0371 48.1954 15.799Z" fill="#005B00" stroke="black" stroke-width="0.0561654"/>
<path fill-rule="evenodd" clip-rule="evenodd" d="M51.5151 17.4783C51.5151 17.4783 52.8908 23.1595 53.2364 26.5489C53.5793 29.9406 53.6775 34.5167 53.6775 34.5167C53.6775 34.5167 54.1554 30.8132 53.6757 26.6401C52.9937 21.2807 51.4411 17.6258 51.5151 17.4783Z" fill="#005B00" stroke="black" stroke-width="0.0498086"/>
<path fill-rule="evenodd" clip-rule="evenodd" d="M47.8798 17.6348C47.8798 17.6348 50.5542 22.1548 51.6365 25.3143C52.7163 28.4789 53.7795 33.1035 53.7795 33.1035C53.7795 33.1035 53.5211 28.8177 52.1301 24.9804C50.2724 20.1165 47.8307 17.859 47.8798 17.6348Z" fill="#005B00" stroke="black" stroke-width="0.051227"/>
<path fill-rule="evenodd" clip-rule="evenodd" d="M47.3781 20.783C47.3781 20.783 50.1998 24.3663 51.4878 27.1106C52.7742 29.8605 54.2064 34.0359 54.2064 34.0359C54.2064 34.0359 53.5112 29.9452 51.8804 26.6355C49.731 22.4692 47.36 21.0161 47.3781 20.783Z" fill="#005B00" stroke="black" stroke-width="0.0482584"/>
<path fill-rule="evenodd" clip-rule="evenodd" d="M47.7444 19.1368C47.7444 19.1368 50.3402 23.3522 51.4702 26.4015C52.5983 29.4561 53.7993 33.9874 53.7993 33.9874C53.7993 33.9874 53.3184 29.6933 51.8794 25.9999C49.9733 21.3308 47.7151 19.3696 47.7444 19.1368Z" fill="#005B00" stroke="black" stroke-width="0.0481549"/>
<path fill-rule="evenodd" clip-rule="evenodd" d="M50.5555 16.1616C50.5555 16.1616 52.2244 21.9787 52.638 25.5315C53.0483 29.0873 53.1554 33.9479 53.1554 33.9479C53.1554 33.9479 53.7515 29.9175 53.1759 25.5526C52.3558 19.9582 50.4645 16.3316 50.5555 16.1616Z" fill="#005B00" stroke="black" stroke-width="0.0538782"/>
<path fill-rule="evenodd" clip-rule="evenodd" d="M48.2651 14.7112C48.2651 14.7112 50.7021 20.191 51.5841 23.8502C52.4632 27.5143 53.2108 32.7572 53.2108 32.7572C53.2108 32.7572 53.2765 28.0565 52.1253 23.5957C50.5675 17.9209 48.1964 14.9436 48.2651 14.7112Z" fill="#005B00" stroke="black" stroke-width="0.0553912"/>
<path fill-rule="evenodd" clip-rule="evenodd" d="M52.1453 17.8948C52.1453 17.8948 53.1935 23.35 53.3444 26.5814C53.4924 29.8149 53.3282 34.1597 53.3282 34.1597C53.3282 34.1597 54.0176 30.6705 53.7778 26.6893C53.4039 21.5732 52.063 18.0311 52.1453 17.8948Z" fill="#005B00" stroke="black" stroke-width="0.0478924"/>
<path fill-rule="evenodd" clip-rule="evenodd" d="M47.9536 16.9701C47.9536 16.9701 50.3905 21.6932 51.2726 24.9262C52.1517 28.164 52.8992 32.851 52.8992 32.851C52.8992 32.851 52.965 28.5707 51.8138 24.6375C50.256 19.6437 47.8848 17.1886 47.9536 16.9701Z" fill="#005B00" stroke="black" stroke-width="0.0523459"/>
<path fill-rule="evenodd" clip-rule="evenodd" d="M57.489 20.605C57.489 20.605 60.0471 46.6054 52.373 46.6054C45.9779 46.6054 45.9779 42.5037 44.6989 42.5037L45.9779 32.9254L57.4963 20.605H57.489Z" fill="#FFDF00" stroke="black" stroke-width="0.101136"/>
<path fill-rule="evenodd" clip-rule="evenodd" d="M54.9311 23.3472C54.9311 24.7144 57.4892 39.7693 51.0869 43.871C48.5288 45.2382 44.6918 42.5037 44.6918 43.871L45.9708 32.9254L54.9311 23.3472Z" fill="#0000C4" stroke="black" stroke-width="0.101136"/>
<path fill-rule="evenodd" clip-rule="evenodd" d="M52.3732 26.0811C52.3732 27.4483 53.6522 38.3938 49.808 41.136C47.2499 43.8704 40.8476 43.1289 40.8476 43.1289L45.9709 32.9249L52.3732 26.0811Z" fill="#E10000" stroke="black" stroke-width="0.101136"/>
<path fill-rule="evenodd" clip-rule="evenodd" d="M57.551 20.4879L45.7401 32.9467L45.5283 32.7473L57.3392 20.301L57.551 20.5004V20.4879Z" fill="black"/>
<path fill-rule="evenodd" clip-rule="evenodd" d="M59.3682 19.0114L58.6184 19.1438L58.3979 19.3643C58.4281 19.362 58.1774 19.5848 58.4861 19.8935C58.7949 20.2023 59.2342 19.7595 59.2342 19.7595C59.2342 19.7595 59.1018 20.5092 58.6596 20.9515C58.2173 21.3938 57.6893 21.3044 57.6893 21.3044C57.6893 21.3044 58.1919 20.8925 57.8216 20.5546C57.4508 20.2137 57.2923 20.4664 57.2923 20.4664L56.8513 20.9074L56.5408 20.5969L58.3062 18.8315L58.4385 18.0818L59.5758 17.8934L59.3677 19.0085L59.3682 19.0114Z" fill="#CECECC" stroke="black" stroke-width="0.0282212"/>
<path fill-rule="evenodd" clip-rule="evenodd" d="M57.6285 13.7755L56.7213 15.1819L55.5728 15.4918L56.3226 15.977L54.9554 15.9329L54.3362 16.3752L54.1144 16.0203L54.7354 15.5768L55.2193 14.2076L55.3528 15.1358L56.059 14.1181L57.629 13.7723L57.6285 13.7755Z" fill="#CECECC" stroke="black" stroke-width="0.0303866"/>
<path fill-rule="evenodd" clip-rule="evenodd" d="M53.9501 14.6202C53.9501 14.6949 54.0498 14.7585 54.1644 14.7585C54.2791 14.7585 54.3837 14.6949 54.3837 14.6202C54.3837 14.5454 54.284 14.4781 54.1644 14.4781C54.0448 14.4781 53.9501 14.5417 53.9501 14.6202ZM54.2591 14.9154C54.2591 16.2535 53.2176 21.9347 53.1328 22.073C53.1279 22.2412 53.3721 22.3122 53.4867 22.1066C53.8156 21.4563 54.5232 16.1264 54.5482 14.8818C54.5631 14.3698 54.3638 14.3286 54.1345 14.3399C53.9501 14.3473 53.7209 14.4781 53.7209 14.6351C53.7209 14.822 54.0099 14.9603 54.2591 14.9154Z" fill="#E10000" stroke="black" stroke-width="0.0584234"/>
<path fill-rule="evenodd" clip-rule="evenodd" d="M53.5392 15.9471C53.5766 16.0219 53.703 16.0605 53.8119 16.0318C53.9208 16.0032 53.9885 15.9135 53.9511 15.8387C53.9137 15.764 53.7854 15.7216 53.6718 15.7515C53.5581 15.7814 53.4999 15.8686 53.5392 15.9471ZM53.9804 16.1651C53.6365 18.8525 54.79 23.0025 54.7806 23.1657C54.8581 23.3314 55.1274 23.3451 55.1317 23.1072C55.1884 22.9527 53.8604 19.2038 54.2381 16.0593C53.9963 15.5435 53.7864 15.5522 53.5742 15.6207C53.4028 15.6743 53.2504 15.8624 53.3289 16.0194C53.4223 16.2063 53.7661 16.2723 53.9804 16.1651Z" fill="#0000C4" stroke="black" stroke-width="0.0612274"/>
<path fill-rule="evenodd" clip-rule="evenodd" d="M57.202 19.6781C57.202 19.8027 57.3266 19.9273 57.4637 19.9273C57.6132 19.9273 57.7378 19.8027 57.7378 19.6781C57.7378 19.5535 57.6132 19.4538 57.4637 19.4538C57.3142 19.4538 57.202 19.5535 57.202 19.6781ZM57.5758 20.1764C57.2775 24.1727 56.812 28.1546 56.1804 32.1119C56.1804 32.386 56.467 32.5106 56.6165 32.1617C57.0276 31.0778 57.9122 22.1947 57.9496 20.1266C57.962 19.2669 57.7128 19.2046 57.4263 19.2171C57.1896 19.2296 56.9155 19.4538 56.9155 19.7155C56.9155 20.0145 57.2768 20.2512 57.5883 20.1764H57.5758Z" fill="#E10000" stroke="black" stroke-width="0.0885432"/>
<path fill-rule="evenodd" clip-rule="evenodd" d="M56.5168 20.829C56.5666 20.9486 56.7286 21.0129 56.8661 20.9699C57.0037 20.9269 57.0869 20.786 57.0371 20.6664C56.9872 20.5468 56.8228 20.4765 56.6792 20.5214C56.5357 20.5662 56.4644 20.7034 56.5168 20.829ZM57.0844 21.1856C56.7306 25.4461 58.3258 32.0647 58.3188 32.3237C58.4225 32.5887 58.7653 32.6167 58.7633 32.2388C58.8306 31.9948 57.0261 26.0093 57.4088 21.0233C57.0854 20.1985 56.8188 20.2074 56.5512 20.3113C56.3349 20.3924 56.147 20.6877 56.2517 20.9389C56.3762 21.2379 56.8153 21.3508 57.0844 21.1856Z" fill="#0000C4" stroke="black" stroke-width="0.0862452"/>
<path fill-rule="evenodd" clip-rule="evenodd" d="M36.4793 53.4489C37.0631 53.8074 37.7245 53.9961 38.3978 53.9961C39.071 53.9961 39.7325 53.8074 40.3163 53.4489V42.5034H37.7583C39.0373 46.6051 39.0373 50.7145 36.472 53.4489H36.4793Z" fill="#E10000" stroke="black" stroke-width="0.101136"/>
<path fill-rule="evenodd" clip-rule="evenodd" d="M38.5048 42.7456C38.5048 50.4637 36.6516 52.1818 36.6516 53.7342C37.4234 53.7342 37.938 53.0103 38.5048 52.0161C39.2767 50.4637 39.3508 42.6235 39.2767 42.7456H38.5048Z" fill="#0000C4" stroke="black" stroke-width="0.0834794"/>
<path fill-rule="evenodd" clip-rule="evenodd" d="M36.9612 42.7453C36.922 47.2541 35.0077 51.4315 35.3696 52.356C35.7795 53.1845 36.9612 50.4635 38.5049 52.0071C39.2767 50.4635 39.3508 42.6232 39.2767 42.7366H36.9612V42.7453Z" fill="#0000C4" stroke="black" stroke-width="0.0834794"/>
<path fill-rule="evenodd" clip-rule="evenodd" d="M37.1342 42.0881C37.1342 47.16 35.3595 47.4982 35.3595 48.8507C36.1313 48.8507 37.1299 48.1114 37.1342 48.1802C37.9061 47.16 37.9802 42.0079 37.9061 42.0881H37.1342Z" fill="#FFDF00" stroke="black" stroke-width="0.067672"/>
<path fill-rule="evenodd" clip-rule="evenodd" d="M35.5907 42.0881C35.5514 45.051 33.6807 47.5727 34.0427 48.1802C34.4569 48.7189 35.5907 47.16 37.1343 48.1802C37.9061 47.16 37.9803 42.0079 37.9061 42.0881H35.5907Z" fill="#FFDF00" stroke="black" stroke-width="0.067672"/>
<path fill-rule="evenodd" clip-rule="evenodd" d="M44.6842 53.4489C44.1004 53.8074 43.4389 53.9961 42.7657 53.9961C42.0924 53.9961 41.4309 53.8074 40.8471 53.4489V42.5034H43.4052C42.1262 46.6051 42.1262 50.7145 44.6914 53.4489H44.6842Z" fill="#E10000" stroke="black" stroke-width="0.101136"/>
<path fill-rule="evenodd" clip-rule="evenodd" d="M42.6586 42.7456C42.6586 50.4637 44.5118 52.1818 44.5118 53.7342C43.74 53.7342 43.2255 53.0103 42.6586 52.0161C41.8868 50.4637 41.8127 42.6235 41.8868 42.7456H42.6586Z" fill="#0000C4" stroke="black" stroke-width="0.0834794"/>
<path fill-rule="evenodd" clip-rule="evenodd" d="M44.202 42.7453C44.2412 47.2541 46.1555 51.4315 45.7936 52.356C45.3837 53.1845 44.202 50.4635 42.6584 52.0071C41.8865 50.4635 41.8124 42.6232 41.8865 42.7366H44.202V42.7453Z" fill="#0000C4" stroke="black" stroke-width="0.0834794"/>
<path fill-rule="evenodd" clip-rule="evenodd" d="M44.029 42.0881C44.029 47.16 45.8037 47.4982 45.8037 48.8507C45.0319 48.8507 44.0333 48.1114 44.029 48.1802C43.2571 47.16 43.183 42.0079 43.2571 42.0881H44.029Z" fill="#FFDF00" stroke="black" stroke-width="0.067672"/>
<path fill-rule="evenodd" clip-rule="evenodd" d="M45.5724 42.0881C45.6117 45.051 47.4823 47.5727 47.1204 48.1802C46.7062 48.7189 45.5724 47.16 44.0288 48.1802C43.257 47.16 43.1828 42.0079 43.257 42.0881H45.5724Z" fill="#FFDF00" stroke="black" stroke-width="0.067672"/>
<path fill-rule="evenodd" clip-rule="evenodd" d="M30.8181 43.3567L29.4771 44.327L30.8181 45.2973L31.4879 44.8121L31.8228 45.2973L32.1577 46.2675L32.4941 45.2973L32.829 44.8121H50.7979V43.8418H32.8275L32.4926 43.3539C32.4926 42.8688 32.5628 42.3837 32.829 42.3837H34.1685C34.1685 41.8985 33.4987 40.9282 32.1577 40.9282C30.8181 40.9282 30.1468 41.8985 30.1468 42.3837H31.4879C31.7525 42.3837 31.8228 42.8688 31.8228 43.3567L31.4879 43.8418L30.8166 43.3539L30.8181 43.3567Z" fill="#908F8A" stroke="black" stroke-width="0.0924851"/>
<path fill-rule="evenodd" clip-rule="evenodd" d="M34.7515 45.7088H46.4971V46.3042H34.755L34.7515 45.7088ZM34.7515 45.1101H46.4971V45.7088H34.755L34.7515 45.1101ZM34.7515 44.5147H46.4971V45.1134H34.755L34.7515 44.5147ZM34.7515 43.9193H46.4971V44.5147H34.755L34.7515 43.9193ZM34.7515 43.3239H46.4971V43.9193H34.755L34.7515 43.3239ZM34.7515 42.7251H46.4971V43.3239H34.755L34.7515 42.7251ZM34.7515 42.1331H46.4971V42.7251H34.755L34.7515 42.1331Z" fill="#B74D00" stroke="black" stroke-width="0.0626023"/>
<path fill-rule="evenodd" clip-rule="evenodd" d="M35.3116 42.0979L39.6037 46.2691H40.2173L35.9284 42.1013H35.3148L35.3116 42.0979Z" fill="#908F8A" stroke="black" stroke-width="0.108448"/>
<path fill-rule="evenodd" clip-rule="evenodd" d="M35.3116 46.3953L39.6037 42.2241H40.2173L35.9284 46.3919H35.3148L35.3116 46.3953Z" fill="#908F8A" stroke="black" stroke-width="0.108448"/>
<path fill-rule="evenodd" clip-rule="evenodd" d="M35.4309 42.0979V46.2691H36.0484V42.0979H35.4309Z" fill="#908F8A" stroke="black" stroke-width="0.107815"/>
<path fill-rule="evenodd" clip-rule="evenodd" d="M40.8307 42.0979L45.1227 46.2691H45.7363L41.4474 42.1013H40.8338L40.8307 42.0979Z" fill="#908F8A" stroke="black" stroke-width="0.108448"/>
<path fill-rule="evenodd" clip-rule="evenodd" d="M40.8307 46.3953L45.1227 42.2241H45.7363L41.4474 46.3919H40.8338L40.8307 46.3953Z" fill="#908F8A" stroke="black" stroke-width="0.108448"/>
<path fill-rule="evenodd" clip-rule="evenodd" d="M45.2483 42.0979V46.2691H45.8657V42.0979H45.2483Z" fill="#908F8A" stroke="black" stroke-width="0.107815"/>
<path fill-rule="evenodd" clip-rule="evenodd" d="M40.9626 42.0979V46.2691H41.5801V42.0979H40.9626Z" fill="#908F8A" stroke="black" stroke-width="0.107815"/>
<path fill-rule="evenodd" clip-rule="evenodd" d="M39.7166 42.0979V46.2691H40.334V42.0979H39.7166Z" fill="#908F8A" stroke="black" stroke-width="0.107815"/>
<path fill-rule="evenodd" clip-rule="evenodd" d="M49.2767 30.1908C49.2767 36.9883 45.259 42.5035 40.3164 42.5035C35.3738 42.5035 31.3561 36.9883 31.3561 30.1908C31.3561 23.3933 35.3665 17.8704 40.3164 17.8704C45.2663 17.8704 49.2767 23.3856 49.2767 30.1831V30.1908ZM47.9977 30.1908C47.9977 36.2313 44.5581 41.1363 40.3164 41.1363C36.0747 41.1363 32.6351 36.2313 32.6351 30.1908C32.6351 24.1426 36.0747 19.2376 40.3164 19.2376C44.5581 19.2376 47.9977 24.1426 47.9977 30.1908Z" fill="#FFDF00" stroke="black" stroke-width="0.101136"/>
<path fill-rule="evenodd" clip-rule="evenodd" d="M43.8067 18.8436C42.73 18.218 41.5521 17.8704 40.3165 17.8704C39.0808 17.8704 37.903 18.218 36.8263 18.8359L37.3321 20.1027C38.2408 19.5428 39.2712 19.2481 40.3201 19.2481C41.369 19.2481 42.3994 19.5428 43.3081 20.1027L43.8067 18.8359V18.8436Z" fill="#FFDF00" stroke="black" stroke-width="0.101136"/>
<path fill-rule="evenodd" clip-rule="evenodd" d="M43.8315 41.2069C42.7548 41.8326 41.5769 42.1802 40.3413 42.1802C39.1056 42.1802 37.9278 41.8326 36.8511 41.2146L37.3569 39.9478C38.2656 40.5077 39.296 40.8025 40.3449 40.8025C41.3937 40.8025 42.4242 40.5077 43.3329 39.9478L43.8315 41.2146V41.2069Z" fill="#FFDF00" stroke="black" stroke-width="0.101136"/>
<path fill-rule="evenodd" clip-rule="evenodd" d="M48.0071 30.1937C48.0071 36.2362 44.5561 41.1325 40.3201 41.1325C36.0841 41.1325 32.6455 36.2362 32.6455 30.1937C32.6455 24.1512 36.0841 19.23 40.3201 19.23C44.5561 19.23 48.0071 24.1387 48.0071 30.1937Z" fill="#A7CFFF"/>
<path fill-rule="evenodd" clip-rule="evenodd" d="M47.9976 30.1905C48.0771 32.2452 47.6652 33.2494 47.1377 35.389C47.0004 35.6208 46.3429 34.8869 45.9527 34.5239C45.5625 34.1608 45.389 34.8483 44.8977 34.2921C44.4135 33.7205 44.1028 34.4466 43.7415 33.9677C43.3802 33.4888 40.0345 33.427 40.0345 33.3807C40.3669 33.2107 42.0723 33.3961 41.7977 32.5233C41.487 31.6118 39.5576 32.4924 39.2975 31.3337C39.1168 30.175 35.4243 30.1287 35.1569 29.8506C35.2653 30.2832 38.0329 30.4686 37.9679 31.5886C37.9028 32.0521 35.2436 32.1834 34.9835 32.5696C34.7667 33.0562 37.079 32.4383 37.1585 33.0331C37.1585 33.2803 36.8189 33.0331 35.6194 33.4193C35.0124 33.6124 36.7322 34.2149 36.0818 34.5471C35.4315 34.8792 34.0369 35.026 34.0947 35.165C34.3115 35.8602 37.3247 36.679 37.0285 36.7949C35.959 37.3047 35.3954 37.6368 34.8823 37.9304C33.379 35.6732 32.5915 32.9608 32.635 30.1905C34.9257 29.3099 34.4415 29.1245 38.676 29.1245C42.9105 29.1245 44.3123 29.3022 47.9976 30.1905Z" fill="#AFFF7B" stroke="black" stroke-width="0.101136"/>
<path fill-rule="evenodd" clip-rule="evenodd" d="M47.9975 30.1902C47.4194 30.1902 46.8124 30.4528 46.191 30.4528C45.5623 30.4528 44.9264 30.1824 44.2761 30.1824C43.6257 30.1824 42.8815 30.5378 42.2167 30.5378C41.5446 30.5378 40.9593 30.1902 40.2873 30.1902C39.6153 30.1902 38.9432 30.4528 38.2784 30.4528C37.6136 30.4528 36.9561 30.1824 36.313 30.1824C35.6698 30.1824 35.0339 30.4528 34.4197 30.4528C33.8055 30.4528 33.2057 30.1824 32.6349 30.1824C32.6349 28.6762 32.8517 27.2394 33.2419 25.9263C35.1929 26.0808 34.0367 24.7136 35.1929 24.7136C35.5304 24.694 35.868 24.7514 36.1832 24.8819C36.4983 25.0124 36.784 25.2131 37.0211 25.4705C37.1945 25.4705 38.0617 24.59 39.0372 24.7136C40.0055 24.8371 39.6514 26.8223 40.9449 26.9227C41.5952 27.448 41.9782 27.7801 42.8742 27.9964C44.1532 28.12 47.8169 27.8033 47.8385 27.981C47.944 28.712 47.9972 29.4505 47.9975 30.1902Z" fill="white" stroke="black" stroke-width="0.101136"/>
<path fill-rule="evenodd" clip-rule="evenodd" d="M41.4765 36.5621C41.4765 36.2212 41.8129 35.994 41.8129 35.4498C41.8129 34.9056 41.5139 34.8936 41.5039 34.3853C41.4989 34.176 41.7606 33.9667 41.8752 33.9428C41.9898 33.9189 42.087 34.3853 42.087 34.487C42.087 34.5886 41.9699 34.2358 41.8727 34.2298C41.7755 34.2239 41.5662 34.2657 41.5662 34.3674C41.5662 34.5707 41.935 34.8219 41.9076 35.5036C41.8802 36.1734 41.5911 36.3767 41.5911 36.58C41.5911 36.7834 41.7157 37.3455 41.7157 37.3455C41.7157 37.3455 41.474 36.897 41.474 36.5561L41.4765 36.5621Z" fill="black" stroke="black" stroke-width="0.0522555"/>
<path fill-rule="evenodd" clip-rule="evenodd" d="M42.5527 36.5123C42.5527 36.1714 42.2163 35.9441 42.2163 35.3999C42.2163 34.8557 42.5153 34.8438 42.5253 34.3355C42.5502 34.0963 42.2312 33.9408 42.1166 33.9228C42.002 33.9049 41.8675 34.4013 41.8675 34.4969C41.8675 34.5926 42.002 34.186 42.0992 34.18C42.1964 34.174 42.463 34.2159 42.463 34.3175C42.463 34.5209 42.0942 34.772 42.1216 35.4538C42.149 36.1235 42.4381 36.3269 42.4381 36.5302C42.4381 36.7335 42.3135 37.2957 42.3135 37.2957C42.3135 37.2957 42.5552 36.8472 42.5552 36.5063L42.5527 36.5123Z" fill="black" stroke="black" stroke-width="0.0522555"/>
<path fill-rule="evenodd" clip-rule="evenodd" d="M42.2016 33.8066C42.2016 33.9685 42.1144 34.1056 42.0148 34.1056C41.9151 34.1056 41.8403 33.9685 41.8403 33.7941C41.8403 33.6197 41.9151 33.4951 42.0148 33.4951C42.1144 33.4951 42.2016 33.6322 42.2016 33.8066ZM44.3196 34.9279H44.3695V37.3573H44.3072L44.3196 34.9279ZM44.8304 34.7285H44.8927V37.1829H44.8304V34.7285Z" fill="black"/>
<path fill-rule="evenodd" clip-rule="evenodd" d="M44.6433 35.8372V35.7749L45.1417 35.8621V35.9244L44.6433 35.8372Z" fill="black"/>
<path fill-rule="evenodd" clip-rule="evenodd" d="M37.5213 36.5426C37.5213 36.5426 39.4 37.4232 39.8119 37.9485C40.2166 38.4737 40.0576 38.4737 40.0576 38.4737L44.2271 38.6514C44.2271 38.3888 44.9641 38.3888 45.1303 37.7708C45.2965 37.1606 45.2965 36.9829 45.2965 36.9829L43.9886 37.4232L44.0609 36.6353H42.9191L42.7529 37.4232L40.2961 37.3383L40.4623 35.2295L39.9709 35.3145L39.8986 37.3228C39.8119 37.3228 37.6008 36.7126 37.514 36.5426H37.5213Z" fill="#B74D00" stroke="black" stroke-width="0.101136"/>
<path fill-rule="evenodd" clip-rule="evenodd" d="M33.7405 23.9648C33.7405 23.9648 36.4647 23.0996 40.3957 23.1614C44.3267 23.2232 47.0509 24.1502 46.9931 24.1502C46.9353 24.1502 46.2416 22.7289 46.2416 22.7289C46.2416 22.7289 43.4668 21.9178 40.3379 21.856C37.2162 21.7942 34.492 22.474 34.557 22.5358L33.7405 23.9648Z" fill="#FEDE00" stroke="#FEDE00" stroke-width="0.101136"/>
<path fill-rule="evenodd" clip-rule="evenodd" d="M38.8374 21.958L40.5318 21.9331L40.5567 22.9174L38.8624 22.9547L38.8374 21.958ZM34.9503 22.4938L34.3523 23.478L36.3706 23.2288L36.2086 22.2695L34.9503 22.5187V22.4938ZM36.6572 22.12L38.3516 21.983L38.4263 22.9547L36.7444 23.1042L36.6572 22.12ZM42.7495 22.0328L41.0676 21.9082L41.0053 22.9049L42.6872 23.0046L42.7495 22.0328ZM46.3874 22.6557L46.9979 23.8518L45.1789 23.4033L45.3783 22.4439L46.375 22.6433L46.3874 22.6557ZM44.9173 22.282L43.2478 22.0702L43.1233 23.0419L44.8052 23.2662L44.9173 22.282Z" fill="#38A9F9"/>
<path fill-rule="evenodd" clip-rule="evenodd" d="M40.396 24.5208L40.2153 23.478L39.6661 24.3663L39.8685 23.3235L39.0519 23.9183L39.6011 23.0454L38.6328 23.2617L39.4638 22.6747L38.4883 22.4815L39.4638 22.2807L38.6328 21.6936L39.6011 21.9099L39.0447 21.0371L39.8685 21.6319L39.6661 20.5891L40.2153 21.4774L40.396 20.4346L40.5838 21.4774L41.1258 20.5891L40.9307 21.6319L41.7472 21.0371L41.1908 21.9099L42.1663 21.6936L41.3353 22.2807L42.3109 22.4815L41.3353 22.6747L42.1663 23.2617L41.1908 23.0454L41.7472 23.9183L40.9307 23.3235L41.133 24.3663L40.5838 23.478L40.396 24.5208Z" fill="#FFDF00" stroke="black" stroke-width="0.101136"/>
<path fill-rule="evenodd" clip-rule="evenodd" d="M41.8389 21.8274C41.8389 22.4068 41.3702 22.874 40.7878 22.874C40.2055 22.874 39.7368 22.4068 39.7368 21.8274C39.7368 21.2481 40.2055 20.7747 40.7878 20.7747C41.3702 20.7747 41.8389 21.2481 41.8389 21.8337V21.8274Z" fill="#FFDF00" stroke="black" stroke-width="0.0900365"/>
<path fill-rule="evenodd" clip-rule="evenodd" d="M40.6691 22.0577C40.6691 22.12 40.5072 22.1823 40.3203 22.1823C40.1334 22.1823 39.9714 22.12 39.9714 22.0577C39.9714 21.9954 40.1209 21.9331 40.3203 21.9331C40.5196 21.9331 40.6691 21.9829 40.6691 22.0577ZM41.4167 22.0577C41.4167 22.12 41.3045 22.1823 41.1675 22.1823C41.0304 22.1823 40.8934 22.12 40.8934 22.0577C40.8934 21.9829 41.018 21.9331 41.155 21.9331C41.2921 21.9331 41.4167 21.9829 41.4167 22.0577Z" fill="black"/>
<path d="M40.6326 22.4873L40.7053 22.5292C40.5304 22.4223 40.6101 22.4619 40.8847 22.7325C41.0416 22.6413 41.0714 22.5583 41.1688 22.4454" stroke="black" stroke-width="0.102147"/>
<path d="M39.9367 23.0377L39.9945 23.0994C39.8573 22.945 39.9223 23.0222 40.2258 23.223C40.5148 23.2617 40.8111 23.1303 40.9845 22.9141" stroke="black" stroke-width="0.101136"/>
<path fill-rule="evenodd" clip-rule="evenodd" d="M35.7727 25.0725C35.7727 25.0725 35.8973 26.0692 35.1373 27.3151C34.3898 28.5485 34.5019 28.1124 34.5019 28.1124C34.5019 28.1124 34.8508 28.7977 34.7885 28.7977C34.7262 28.7977 34.2029 28.1747 34.2029 28.1747L33.58 28.86C33.58 28.86 34.1531 27.801 34.0908 27.801C34.0285 27.801 33.9164 27.4272 33.9164 27.4272L34.3773 27.2403C34.3773 27.2403 35.075 25.9446 35.075 26.0069C35.075 26.0692 32.9944 27.4272 32.9944 27.4272L35.7727 25.085V25.0725ZM36.2337 25.4463C36.1714 25.4463 36.5202 26.443 36.8192 26.9413C37.1058 27.4397 37.1058 28.0501 37.1058 28.0501L38.09 28.5485L36.8192 26.6299L37.6291 26.9289L36.2337 25.4463ZM36.2337 28.0501C36.2337 28.0501 36.9314 28.7977 36.9812 29.0468C37.031 29.296 37.0435 29.8442 37.0435 29.8442L36.7569 29.2213L36.3458 29.7819C36.3458 29.7819 36.6448 28.9098 36.5825 28.8475C36.5202 28.7852 36.1216 29.159 36.1216 29.159C36.1216 29.159 36.296 28.6606 36.296 28.6108C36.296 28.561 36.296 28.237 36.2337 28.0501ZM32.7577 29.7819C32.9944 29.595 33.4554 29.4704 33.4554 29.4704C33.4554 29.4704 33.1688 29.9688 33.1065 29.9688C33.0442 29.9688 32.8823 29.9688 32.7577 29.7819ZM40.7437 27.0659C40.7437 27.0659 42.2512 27.9879 42.2512 28.0501C42.2512 28.1124 41.267 27.6141 41.267 27.6141L40.7437 27.0659ZM38.0277 25.1348C38.1523 25.1971 40.2329 26.9289 40.1706 26.9289C40.1083 26.9289 39.2487 26.4305 39.2487 26.5053V26.9289L38.7753 25.9446L38.6631 26.3184L38.0402 25.1348H38.0277ZM38.551 27.9256L39.1241 29.0967L39.7097 28.9721C39.7097 28.9721 38.6133 27.9256 38.551 27.9256ZM40.3451 27.178L40.4074 28.2993C40.4074 28.2993 40.7437 28.6108 40.7437 28.5485C40.7437 28.4862 40.4074 27.2403 40.3451 27.178Z" fill="#B7E1FF"/>
<path fill-rule="evenodd" clip-rule="evenodd" d="M23.4634 11.954C23.4634 11.954 26.0797 10.5088 29.0574 9.43737C31.2481 8.63243 33.5086 8.03186 35.81 7.64331C36.6821 7.64331 38.2021 9.86097 38.4512 9.86097C38.7004 9.86097 39.7096 9.23803 40.9804 9.23803C42.2512 9.23803 42.9862 10.2347 43.2479 10.2347H45.5154C45.7645 10.2347 44.7554 7.7679 45.5154 7.89249C45.8891 7.95478 49.1035 8.45313 52.0936 9.41245C55.0837 10.3842 59.3196 12.1035 59.3196 12.1035C59.3196 12.1035 52.405 13.013 50.5487 12.7514C50.2995 12.876 50.5487 14.371 50.1749 13.7107C49.6018 13.5861 47.4714 13.2497 47.0976 13.2497C46.7239 13.2497 46.0137 13.6733 45.0045 13.9225C44.0078 14.1717 42.7371 14.5455 42.7371 14.5455L44.3816 17.1244L42.3633 18.1211C42.3633 18.1211 41.105 15.1559 40.5942 15.1559C40.0833 15.1559 39.8466 17.249 39.2112 17.1244C38.5883 16.9998 38.3391 15.1559 37.8283 14.6576C37.33 14.1717 34.6638 13.9848 33.6546 13.7481C32.6579 13.4989 31.0258 13.312 30.1413 13.0629C29.2692 12.8137 28.3721 13.6858 27.9984 13.6858C27.6246 13.6858 28.4967 12.9383 28.1229 12.8137C27.7492 12.6891 27.5 13.1875 27.2508 13.1875C27.0017 13.1875 24.3479 12.6891 24.0988 12.5645C23.8496 12.4399 24.7217 11.954 24.4725 11.954H23.4634Z" fill="#984000"/>
<path fill-rule="evenodd" clip-rule="evenodd" d="M42.2589 10.7204C42.2589 11.4071 41.6943 11.9643 41.0008 11.9643C40.3074 11.9643 39.7455 11.4071 39.7455 10.7204C39.7455 10.0337 40.3074 9.47974 41.0008 9.47974C41.6943 9.47974 42.2589 10.0369 42.2589 10.7204Z" fill="#808080" stroke="#772600" stroke-width="0.111933"/>
<path fill-rule="evenodd" clip-rule="evenodd" d="M35.881 10.9574C36.1064 10.6942 36.3856 10.2956 37.1155 10.2956C37.2837 10.2278 37.2837 9.8291 37.6739 9.8291C38.0675 9.8291 37.9531 10.2278 38.2357 10.3633C38.5149 10.4949 40.8124 10.2278 40.8124 10.2278C40.8124 10.2278 41.0344 10.4271 41.0344 10.6942C41.0344 10.9614 40.8662 11.1567 40.8124 11.1567C40.7586 11.1567 38.5149 10.9574 38.3467 11.0251C38.1785 11.0929 38.0675 11.1567 37.6739 11.1567C37.2837 11.1567 37.1693 10.6942 36.8901 10.6942C36.6109 10.6942 36.3317 10.6265 35.881 10.9614V10.9574Z" fill="#984000" stroke="#772600" stroke-width="0.197056"/>
<path d="M42.7164 10.8184H43.6112C43.9341 10.8224 44.0451 10.938 44.3411 10.9499H45.1249C45.4108 10.938 45.5622 10.8582 45.8515 10.8184C46.3393 10.8104 46.1744 10.7665 46.0769 10.4197C45.9894 10.1605 45.976 10.037 45.8515 9.88944C45.8044 9.5705 45.6968 9.45887 45.6833 9.09208C45.6328 8.813 45.5387 8.62562 45.6295 8.29472C45.7573 8.52197 45.8078 8.61366 46.1341 8.62961C46.4704 8.62961 46.6016 8.61765 46.8068 8.76118C46.9616 8.95653 47.1701 8.89274 47.4796 8.89274C47.7353 8.94856 47.779 9.10404 47.9808 9.22364C48.2197 9.38312 48.3744 9.42298 48.7074 9.42298C48.9765 9.48279 49.212 9.52664 49.3802 9.62232C49.5248 9.82565 49.7502 9.87748 50.053 9.88944C50.2212 9.88944 50.3557 9.86951 50.5004 9.82166C50.7594 9.83761 51.0218 9.82166 51.3413 9.82166C51.5499 10.1087 51.597 10.2164 51.9569 10.2203C52.2058 10.4277 52.4144 10.4596 52.6297 10.5512H53.4706C53.7734 10.5792 53.8676 10.7267 54.1434 10.8184C54.38 10.9451 54.6226 11.0556 54.87 11.1493C55.1108 11.2009 55.3553 11.2236 55.6 11.217C55.8052 11.3446 56.0575 11.3526 56.2156 11.4802C56.4477 11.54 56.7639 11.6117 56.9421 11.6795C57.2382 11.7274 57.3525 11.839 57.6149 11.8789C57.8403 11.9586 57.5409 12.0224 57.3895 12.0782C57.0599 12.0662 57.0363 11.9187 56.7168 11.8789C56.5486 11.7632 56.2929 11.7792 56.044 11.6795H55.9902C56.2122 11.839 56.4275 11.9387 56.3266 12.2137C56.0406 12.2137 55.8085 12.1699 55.5428 12.146C55.2602 12.0822 55.1324 12.0144 54.8162 12.0144C55.1324 11.9227 55.2131 12.0224 55.4318 12.146C55.5125 12.4649 55.3376 12.3453 55.0382 12.3453C54.7825 12.2377 54.6278 12.1061 54.3116 12.0782H53.6388C53.9719 12.0941 54.0425 12.2416 54.2544 12.4131C54.2712 12.5167 54.2511 12.5088 54.0862 12.5446C53.9113 12.3652 53.6859 12.3054 53.4135 12.2137C53.1477 12.2018 52.8685 12.1739 52.6297 12.0782C52.4648 12.0662 52.4918 11.835 52.8551 12.2137C53.0737 12.3652 53.1511 12.4928 53.1343 12.6124C52.845 12.5247 52.7037 12.3892 52.5187 12.2775C52.267 12.1741 52.0009 12.1294 51.7349 12.146C51.4456 12.0543 51.7652 12.0024 51.9569 12.3453C52.374 12.6961 51.9031 12.5446 51.7349 12.4769C51.4826 12.3931 51.2202 12.2696 51.0049 12.2137C50.8367 12.1539 50.6887 12.0981 50.5004 12.0782C50.793 12.1101 50.8906 12.2337 51.0049 12.4769C51.301 12.7161 50.9915 12.6005 50.7257 12.5446C50.5575 12.3692 50.3389 12.2775 50.2212 12.0782C49.942 11.9147 49.9319 11.7194 50.1101 12.146C50.1539 12.2815 50.1438 12.5765 50.164 12.6124C49.9588 12.3453 50.0025 12.2775 49.7738 12.2775C49.6157 12.15 49.3869 12.0503 49.2692 11.8789C49.0539 11.8549 49.0404 11.7632 48.8218 11.6795C49.0001 11.9307 49.2389 12.1779 49.3802 12.4131C49.6358 12.5805 49.7065 12.732 49.8848 12.8756C49.9554 13.0231 50.1539 13.1427 49.942 12.9433C49.6998 12.6643 49.5215 12.5965 49.1582 12.4131C48.9496 12.2137 48.8756 12.134 48.6536 11.9466C48.3508 11.831 48.4686 11.7672 48.6536 12.146C48.8655 12.3772 49.027 12.6324 49.212 12.8118C49.3571 13.0172 49.5271 13.1959 49.7166 13.342C49.767 13.4297 49.9184 13.4457 49.7166 13.4736C49.5484 13.2902 49.2995 13.1746 49.101 13.0071C48.8218 12.9154 48.6906 12.744 48.4854 12.5446C48.3508 12.3094 48.1356 12.13 47.9808 11.9466C47.6579 11.7951 48.0447 12.0902 48.149 12.2775C48.2197 12.5207 48.3105 12.7161 48.371 12.9433C48.4652 13.1626 48.0885 12.8915 47.9808 12.8118C47.7595 12.6418 47.511 12.5278 47.2509 12.4769C47.0279 12.424 46.8035 12.3801 46.5781 12.3453C46.3258 12.2656 46.716 12.5367 46.8607 12.8118C47.1432 13.1267 46.5815 12.8676 46.4133 12.8118C46.1356 12.7558 45.8538 12.7331 45.5723 12.744C45.2124 12.7679 45.4714 12.8237 45.5723 13.0071C45.6833 13.1108 45.7607 13.3261 45.7405 13.4058C45.505 13.3659 45.3032 13.2862 45.0105 13.2742C44.7751 13.3659 44.4959 13.342 44.2268 13.342C44.2167 13.5095 44.2772 13.3659 44.3949 13.5413C44.59 13.633 44.7179 13.7447 44.6775 13.8723H43.0528C42.8745 13.9281 43.0898 13.9002 43.221 14.1394C43.147 14.3547 43.0528 14.2709 42.8274 14.2709C42.676 14.1992 42.3699 14.1673 42.2118 14.0716C42.0537 14.0716 42.0672 14.0237 41.9326 14.0038C42.4035 14.4025 42.1681 14.3028 42.4372 14.6018C42.4809 14.6218 42.5886 14.6696 42.491 14.6696M38.7941 16.7946C38.7605 16.7946 38.6865 16.5793 38.5721 16.3959C38.4914 16.1567 38.3905 16.2922 38.2895 15.9294C38.303 15.5547 38.3131 15.4909 38.2895 15.1321C38.0608 14.9407 37.9632 14.8849 37.785 14.5341C37.5024 14.255 37.8287 13.7766 37.8825 13.4257C37.6336 13.3619 37.5125 13.8842 37.1324 14.0716C36.8565 14.2909 37.0987 13.6171 36.9642 13.2264C36.8734 12.6722 36.6009 13.5055 36.5 13.7407C36.315 13.8882 36.2578 14.0796 35.9954 13.8045C35.9954 13.6011 36.1602 13.027 36.0896 12.9154C35.8272 13.0709 35.4841 13.5334 35.2116 13.6051C34.9358 13.5374 35.2688 13.0151 35.2688 12.6284C35.1679 12.5885 34.7743 13.657 34.6128 13.6649C34.4514 13.6729 34.522 12.6284 34.4446 12.6523C34.3269 12.8516 34.0881 13.2663 33.9232 13.4098C33.6037 13.358 33.9703 12.7121 34.0174 12.4729C34.0713 12.1858 33.7181 13.0231 33.5297 13.0749C33.3918 13.2184 33.1193 13.3141 33.0251 13.342C33.1327 13.0948 33.6642 12.5965 33.6306 12.453C33.3178 12.4649 32.8434 12.9513 32.5777 13.0111C32.4028 13.0111 32.1606 13.0789 32.1303 13.0749C32.1438 12.7559 32.7829 12.4928 32.8838 12.2975C32.571 12.3573 31.9688 12.6842 31.7939 12.9433C31.5854 12.9952 31.323 13.0629 31.1212 12.9433C31.1514 12.6443 31.6224 12.0662 31.7266 11.8749C31.4407 12.0224 31.2994 12.138 30.9967 12.2058C30.9395 12.2735 30.778 12.4171 30.8285 12.2735C30.9193 11.9945 31.0539 11.8749 31.1649 11.6755C30.9126 11.7313 30.8184 11.9028 30.5493 12.0742C30.3777 12.0822 29.8866 12.6682 29.7218 12.6762C29.4428 12.9368 29.1172 13.1182 28.7698 13.2065C28.5142 13.2623 28.3897 13.3261 28.2652 13.4736C28.3931 13.2065 28.5882 12.9553 28.7698 12.8118C28.8807 12.5698 29.059 12.3809 29.2744 12.2775C29.3383 12.1858 29.5132 12.1619 29.3282 12.146C29.1701 12.3134 28.901 12.5048 28.7698 12.6124C28.5983 12.74 28.3998 12.8676 28.3191 12.8118C28.4099 12.5247 28.5713 12.453 28.7126 12.2137C29.0086 11.9905 28.7126 12.134 28.4872 12.2137C28.3426 12.3652 28.0836 12.4809 27.8717 12.6124C27.6362 12.6842 27.4781 12.8516 27.1989 12.9433C27.1989 13.039 27.2796 12.7719 27.3133 12.6762C27.542 12.3812 27.6026 12.2975 27.8717 12.2137C27.9389 12.0981 28.0197 12.146 27.8178 12.146C27.6631 12.3054 27.4545 12.3931 27.2561 12.5446C27.0576 12.5965 26.7986 12.6124 26.5295 12.6124C26.1796 12.6603 26.2099 12.6922 26.5295 12.4769C26.7078 12.2775 26.8558 12.3294 26.8659 12.0782C26.6539 12.2616 26.3949 12.3971 26.1359 12.5446C25.9206 12.5526 25.8634 12.6124 25.6313 12.6124C25.7423 12.4769 25.8096 12.3054 25.9677 12.2137C26.2032 11.9068 25.8197 12.1539 25.7423 12.2137H24.9014C24.7534 12.437 24.8946 12.2137 25.0157 12.0782C25.1604 11.9905 25.3118 11.8749 25.2949 11.8151C25.1268 11.9865 24.935 12.0662 24.7904 12.2137C24.6356 12.2696 24.454 12.2935 24.454 12.3453C24.5784 12.134 24.7769 12.0024 24.9047 11.8151C25.0931 11.7672 25.2546 11.6955 25.2949 11.6157H24.5112H25.0696C25.3555 11.6157 25.5977 11.5838 25.8567 11.5479C26.3007 11.4602 25.8163 11.4164 25.5741 11.4164C25.5304 11.3127 25.7154 11.2569 25.9105 11.217C26.0787 11.1214 26.2906 11.0376 26.4723 10.9499C26.6326 10.892 26.7838 10.8031 26.9197 10.6868C26.7515 10.6948 26.7515 10.7426 26.5833 10.7506C26.8356 10.7307 27.0139 10.6868 27.3133 10.6868C27.5598 10.5905 27.8023 10.48 28.0399 10.3559C28.1408 10.2124 28.1811 10.2203 27.9288 10.2203C28.1542 10.1366 28.4738 10.0928 28.6554 10.021C28.8873 9.96344 29.113 9.87518 29.3282 9.75788C29.493 9.62631 29.5872 9.47083 29.7756 9.3592C29.9943 9.53461 29.9976 9.55854 30.3912 9.55854C30.7074 9.55455 30.9025 9.46285 31.064 9.29142C31.3062 9.21168 31.3499 9.07613 31.6257 9.02829C31.8849 9.07655 32.1472 9.09789 32.4095 9.09208C32.6786 9.00836 32.9376 8.85287 33.1361 8.6934C33.3077 8.59373 33.5129 8.45021 33.6979 8.3625C33.8997 8.48609 34.0612 8.58576 34.3135 8.62961C34.5725 8.58177 34.7104 8.43027 34.929 8.3625C35.0639 8.19238 35.2404 8.07666 35.4336 8.03159C35.7599 7.84023 35.7364 8.09139 35.881 8.29472C36.0492 8.50203 36.2645 8.40236 36.4966 8.49406C36.6278 8.73327 36.722 8.89274 36.8902 9.0243C37.0214 9.21567 37.1761 9.26351 37.4519 9.29142C37.5529 9.45089 37.4721 9.56252 37.674 9.62232C37.7547 9.72598 37.8926 9.76585 38.0103 9.82166" stroke="#772600" stroke-width="0.130131"/>
<path d="M42.0707 15.1005V15.1324C42.0707 15.0407 42.0707 15.0925 42.1279 15.2679C42.1481 15.4114 42.101 15.3955 42.0438 15.4991C42.0337 15.6467 42.0169 15.7543 42.0169 15.9297C41.9967 16.0732 41.9294 16.2088 41.8756 16.3284C41.8218 16.452 41.5897 16.5237 41.5964 16.6952C41.4618 16.739 41.4585 16.6354 41.4551 16.46C41.3744 16.3523 41.3475 16.2048 41.2869 16.0613C41.2533 15.9257 41.1726 15.8221 41.1187 15.6626C41.038 15.5151 40.9674 15.4712 40.8967 15.2998C40.8664 15.2201 40.8732 15.1164 40.8126 15.0686C40.7218 14.929 40.6612 14.9091 40.5031 14.9011C40.382 14.933 40.3349 14.9968 40.2239 15.0327C40.1365 15.0686 39.9683 15.0566 39.8606 15.1005C39.8337 15.1523 39.9145 15.1802 39.9447 15.2998C39.8707 15.3716 39.8438 15.4952 39.8035 15.5988C39.7362 15.6985 39.6925 15.7463 39.6622 15.8978C39.7093 15.9895 39.6689 16.1131 39.6084 16.1968C39.5882 16.3483 39.5243 16.4321 39.494 16.5596C39.4065 16.6354 39.3729 16.7032 39.2989 16.8267C39.235 16.9344 39.1778 16.9264 39.0197 16.9264C38.8952 16.8865 38.8784 16.8068 38.7674 16.759C38.7573 16.7191 38.7472 16.7071 38.7102 16.6952" stroke="#782600" stroke-width="0.115259"/>
<path fill-rule="evenodd" clip-rule="evenodd" d="M39.0368 16.4386C39.0368 16.4386 38.9869 17.0616 38.5883 17.4727C38.1896 17.8839 37.3673 18.3573 37.3673 18.3573C37.3673 18.3573 38.4761 17.834 38.5883 17.9461C38.7129 18.0707 37.8781 18.9802 37.8781 18.9802C37.8781 18.9802 38.962 18.0209 39.0991 18.0209C39.2361 18.0209 39.5476 18.9553 39.6722 18.9304C39.7843 18.9055 39.423 17.7468 39.4728 17.5599C39.5227 17.3855 39.4728 16.4013 39.4728 16.4013L39.0492 16.4386H39.0368ZM41.5908 16.3639C41.5908 16.3639 41.541 17.0242 41.1423 17.4603C40.7436 17.8963 39.9214 18.4071 39.9214 18.4071C39.9214 18.4071 41.0302 17.8465 41.1423 17.9711C41.2669 18.0957 40.4322 19.0674 40.4322 19.0674C40.4322 19.0674 41.5161 18.0458 41.6531 18.0458C41.7902 18.0458 42.1016 19.0425 42.2262 19.0176C42.3383 18.9927 41.977 17.7468 42.0269 17.5599C42.0767 17.3606 42.0269 16.314 42.0269 16.314L41.5908 16.3639ZM38.0152 10.3837C38.0152 10.4958 37.8906 10.5955 37.7535 10.5955C37.6165 10.5955 37.4794 10.4958 37.4794 10.3712C37.4794 10.2466 37.604 10.147 37.7535 10.147C37.903 10.147 38.0152 10.2466 38.0152 10.3712V10.3837Z" fill="#812E00"/>
</g>
<defs>
<clipPath id="clip0_238_5309">
<rect width="79.736" height="59.802" fill="white" transform="translate(0.713745 0.803467)"/>
</clipPath>
</defs>
</svg>
