<svg width="81" height="61" viewBox="0 0 81 61" fill="none" xmlns="http://www.w3.org/2000/svg">
<g clip-path="url(#clip0_238_5554)">
<path fill-rule="evenodd" clip-rule="evenodd" d="M-11.7449 0.803955H92.9086V60.6059H-11.7449V0.803955Z" fill="white"/>
<path fill-rule="evenodd" clip-rule="evenodd" d="M-11.7449 40.9597H92.9086V60.6056H-11.7449V40.9597Z" fill="#DA0000"/>
<path fill-rule="evenodd" clip-rule="evenodd" d="M8.1582 41.801H13.8814V42.1865H8.1582V41.801ZM9.01085 43.7633H9.40797V44.1487H9.01085V43.7633ZM13.9048 43.7633V44.1487H12.7602V43.7516L13.9048 43.7633ZM14.5122 41.801H14.9093V44.137H14.5122V41.801Z" fill="white"/>
<path fill-rule="evenodd" clip-rule="evenodd" d="M16.8018 43.7511V44.1482H14.6293V43.7511H16.8018ZM12.7605 42.8284H13.1342V44.1482H12.7488L12.7605 42.8284Z" fill="white"/>
<path fill-rule="evenodd" clip-rule="evenodd" d="M16.4744 41.801H16.8715V44.137H16.4744V41.801ZM15.4933 41.801H15.8787V44.137H15.4933V41.801ZM10.2606 42.7354V43.1326H8.1582V42.7354H10.2606ZM14.8509 42.7354V43.1326H12.7485V42.7354H14.8509Z" fill="white"/>
<path fill-rule="evenodd" clip-rule="evenodd" d="M12.7605 42.8403H13.1342V44.1368H12.7488L12.7605 42.8403Z" fill="white"/>
<path fill-rule="evenodd" clip-rule="evenodd" d="M12.7605 42.8403H13.1342V44.1368H12.7488L12.7605 42.8403Z" fill="white"/>
<path fill-rule="evenodd" clip-rule="evenodd" d="M12.7599 42.8403H13.1337V44.1368H12.7483L12.7599 42.8403ZM8.16968 42.8403H8.55512V44.1368H8.16968V42.8403ZM11.5335 42.8403H11.9307V44.1368H11.5335V42.8403ZM9.86329 42.8403H10.2604V44.1368H9.86329V42.8403Z" fill="white"/>
<path fill-rule="evenodd" clip-rule="evenodd" d="M11.8023 43.7523V44.1494H10.0386V43.7523H11.8023ZM11.9191 42.7361V43.1332H10.7978V42.7361H11.9191Z" fill="white"/>
<path fill-rule="evenodd" clip-rule="evenodd" d="M-1.2561 41.801H4.46713V42.1865H-1.2561V41.801ZM-0.403459 43.7633H-0.00633621V44.1487H-0.415139L-0.403459 43.7633ZM4.49049 43.7633V44.1487H3.34584V43.7516L4.49049 43.7633ZM5.09786 41.801H5.49498V44.137H5.09786V41.801Z" fill="white"/>
<path fill-rule="evenodd" clip-rule="evenodd" d="M7.3875 43.7511V44.1482H5.215V43.7511H7.3875ZM3.34619 42.8284H3.73163V44.1482H3.34619V42.8284Z" fill="white"/>
<path fill-rule="evenodd" clip-rule="evenodd" d="M7.06011 41.801H7.45723V44.137H7.06011V41.801ZM6.07898 41.801H6.46442V44.137H6.07898V41.801ZM0.846309 42.7354V43.1326H-1.2561V42.7354H0.846309ZM5.43658 42.7354V43.1326H3.33416V42.7354H5.43658Z" fill="white"/>
<path fill-rule="evenodd" clip-rule="evenodd" d="M3.34619 42.8403H3.73163V44.1368H3.34619V42.8403Z" fill="white"/>
<path fill-rule="evenodd" clip-rule="evenodd" d="M3.34619 42.8403H3.73163V44.1368H3.34619V42.8403Z" fill="white"/>
<path fill-rule="evenodd" clip-rule="evenodd" d="M3.34613 42.8403H3.73157V44.1368H3.34613V42.8403ZM-1.24414 42.8403H-0.858699V44.1368H-1.24414V42.8403ZM2.11972 42.8403H2.50516V44.1368H2.11972V42.8403ZM0.44947 42.8403H0.846592V44.1368H0.44947V42.8403Z" fill="white"/>
<path fill-rule="evenodd" clip-rule="evenodd" d="M2.388 43.7523V44.1494H0.635986V43.7523H2.388ZM2.5048 42.7361V43.1332H1.38351V42.7361H2.5048Z" fill="white"/>
<path fill-rule="evenodd" clip-rule="evenodd" d="M17.4905 41.801H23.2137V42.1865H17.4905V41.801ZM18.3431 43.7633H18.7402V44.1487H18.3431V43.7633ZM23.2371 43.7633V44.1487H22.0924V43.7516L23.2371 43.7633ZM23.8561 41.801H24.2532V44.137H23.8561V41.801Z" fill="white"/>
<path fill-rule="evenodd" clip-rule="evenodd" d="M26.1341 43.7511V44.1482H23.9616V43.7511H26.1341ZM22.0928 42.8284H22.4899V44.1482H22.0928V42.8284Z" fill="white"/>
<path fill-rule="evenodd" clip-rule="evenodd" d="M25.8067 41.801H26.2038V44.137H25.8067V41.801ZM24.8256 41.801H25.2227V44.137H24.8139L24.8256 41.801ZM19.5929 42.7354V43.1326H17.4905V42.7354H19.5929ZM24.1832 42.7354V43.1326H22.0807V42.7354H24.1832Z" fill="white"/>
<path fill-rule="evenodd" clip-rule="evenodd" d="M22.0928 42.8403H22.4899V44.1368H22.0928V42.8403Z" fill="white"/>
<path fill-rule="evenodd" clip-rule="evenodd" d="M22.0928 42.8403H22.4899V44.1368H22.0928V42.8403Z" fill="white"/>
<path fill-rule="evenodd" clip-rule="evenodd" d="M22.0927 42.8403H22.4898V44.1368H22.0927V42.8403ZM17.5024 42.8403H17.8996V44.1368H17.5024V42.8403ZM20.8663 42.8403H21.2634V44.1368H20.8663V42.8403ZM19.1961 42.8403H19.5932V44.1368H19.1961V42.8403Z" fill="white"/>
<path fill-rule="evenodd" clip-rule="evenodd" d="M21.1465 43.7523V44.1494H19.3711V43.7523H21.1465ZM21.2633 42.7361V43.1332H20.142V42.7361H21.2633Z" fill="white"/>
<path fill-rule="evenodd" clip-rule="evenodd" d="M26.8816 41.801H32.6165V42.1865H26.8933L26.8816 41.801ZM27.7459 43.7633H28.1314V44.1487H27.7459V43.7633ZM32.6282 43.7633V44.1487H31.4835V43.7516L32.6282 43.7633ZM33.2472 41.801H33.6444V44.137H33.2472V41.801Z" fill="white"/>
<path fill-rule="evenodd" clip-rule="evenodd" d="M35.5364 43.7511V44.1482H33.3639V43.7511H35.5364ZM31.4834 42.8284H31.8805V44.1482H31.4834V42.8284Z" fill="white"/>
<path fill-rule="evenodd" clip-rule="evenodd" d="M35.2081 41.801H35.6052V44.137H35.2081V41.801ZM34.2153 41.801H34.6124V44.137H34.2153V41.801ZM28.9826 42.7354V43.1326H26.8918V42.7354H28.9826ZM33.5728 42.7354V43.1326H31.4821V42.7354H33.5728Z" fill="white"/>
<path fill-rule="evenodd" clip-rule="evenodd" d="M31.4834 42.8403H31.8805V44.1368H31.4834V42.8403Z" fill="white"/>
<path fill-rule="evenodd" clip-rule="evenodd" d="M31.4834 42.8403H31.8805V44.1368H31.4834V42.8403Z" fill="white"/>
<path fill-rule="evenodd" clip-rule="evenodd" d="M31.4831 42.8403H31.8802V44.1368H31.4831V42.8403ZM26.8928 42.8403H27.2899V44.1368H26.8928V42.8403ZM30.2567 42.8403H30.6538V44.1368H30.2567V42.8403ZM28.5981 42.8403H28.9836V44.1368H28.5981V42.8403Z" fill="white"/>
<path fill-rule="evenodd" clip-rule="evenodd" d="M30.5374 43.7523V44.1494H28.7737V43.7523H30.5374ZM30.6542 42.7361V43.1332H29.5329V42.7361H30.6542Z" fill="white"/>
<path fill-rule="evenodd" clip-rule="evenodd" d="M36.3191 41.801H42.0423V42.1865H36.3191V41.801ZM37.1717 43.7633H37.5689V44.1487H37.1717V43.7633ZM42.0657 43.7633V44.1487H40.921V43.7516L42.0657 43.7633ZM42.6847 41.801H43.0702V44.137H42.6847V41.801Z" fill="white"/>
<path fill-rule="evenodd" clip-rule="evenodd" d="M44.9627 43.7511V44.1482H42.7902V43.7511H44.9627ZM40.9214 42.8284H41.3185V44.1482H40.9214V42.8284Z" fill="white"/>
<path fill-rule="evenodd" clip-rule="evenodd" d="M44.6353 41.801H45.0324V44.137H44.6353V41.801ZM43.6542 41.801H44.0513V44.137H43.6542V41.801ZM38.4215 42.7354V43.1326H36.3191V42.7354H38.4215ZM43.0118 42.7354V43.1326H40.9094V42.7354H43.0118Z" fill="white"/>
<path fill-rule="evenodd" clip-rule="evenodd" d="M40.9214 42.8403H41.3185V44.1368H40.9214V42.8403Z" fill="white"/>
<path fill-rule="evenodd" clip-rule="evenodd" d="M40.9214 42.8403H41.3185V44.1368H40.9214V42.8403Z" fill="white"/>
<path fill-rule="evenodd" clip-rule="evenodd" d="M40.9213 42.8403H41.3184V44.1368H40.9213V42.8403ZM36.3311 42.8403H36.7165V44.1368H36.3311V42.8403ZM39.6949 42.8403H40.092V44.1368H39.6949V42.8403ZM38.0247 42.8403H38.4218V44.1368H38.013L38.0247 42.8403Z" fill="white"/>
<path fill-rule="evenodd" clip-rule="evenodd" d="M39.9753 43.7523V44.1494H38.2V43.7523H39.9753ZM40.0921 42.7361V43.1332H38.9475V42.7361H40.0921Z" fill="white"/>
<path fill-rule="evenodd" clip-rule="evenodd" d="M-11.7449 0.803955H92.9086V20.4498H-11.7449V0.803955Z" fill="#239F40"/>
<path fill-rule="evenodd" clip-rule="evenodd" d="M45.8032 41.801H51.5265V42.1865H45.8032V41.801ZM46.6559 43.7633H47.053V44.1487H46.6559V43.7633ZM51.5498 43.7633V44.1487H50.3935V43.7516L51.5498 43.7633ZM52.1689 41.801H52.5543V44.137H52.1689V41.801Z" fill="white"/>
<path fill-rule="evenodd" clip-rule="evenodd" d="M54.4465 43.7511V44.1482H52.274V43.7511H54.4465ZM50.4052 42.8284H50.8024V44.1482H50.3936L50.4052 42.8284Z" fill="white"/>
<path fill-rule="evenodd" clip-rule="evenodd" d="M54.1311 41.801H54.5166V44.137H54.1311V41.801ZM53.1383 41.801H53.5354V44.137H53.1383V41.801ZM47.9056 42.7354V43.1326H45.8032V42.7354H47.9056ZM52.4959 42.7354V43.1326H50.3935V42.7354H52.4959Z" fill="white"/>
<path fill-rule="evenodd" clip-rule="evenodd" d="M50.3936 42.8403H50.8024V44.1368H50.3936V42.8403Z" fill="white"/>
<path fill-rule="evenodd" clip-rule="evenodd" d="M50.3936 42.8403H50.8024V44.1368H50.3936V42.8403Z" fill="white"/>
<path fill-rule="evenodd" clip-rule="evenodd" d="M50.3933 42.8403H50.8021V44.1368H50.3933V42.8403ZM45.8147 42.8403H46.2118V44.1368H45.8147V42.8403ZM49.1786 42.8403H49.5757V44.1368H49.1786V42.8403ZM47.5083 42.8403H47.9054V44.1368H47.5083V42.8403Z" fill="white"/>
<path fill-rule="evenodd" clip-rule="evenodd" d="M49.4587 43.7523V44.1494H47.6833V43.7523H49.4587ZM49.5755 42.7361V43.1332H48.4542V42.7361H49.5755Z" fill="white"/>
<path fill-rule="evenodd" clip-rule="evenodd" d="M55.229 41.801H60.9522V42.1865H55.229V41.801ZM56.0817 43.7633H56.4788V44.1487H56.0817V43.7633ZM60.9873 43.7633V44.1487H59.831V43.7516L60.9873 43.7633ZM61.5946 41.801H61.9918V44.137H61.5946V41.801Z" fill="white"/>
<path fill-rule="evenodd" clip-rule="evenodd" d="M63.8721 43.7511V44.1482H61.6996V43.7511H63.8721ZM59.8308 42.8284H60.2279V44.1482H59.8308V42.8284Z" fill="white"/>
<path fill-rule="evenodd" clip-rule="evenodd" d="M63.5555 41.801H63.9409V44.137H63.5555V41.801ZM62.5627 41.801H62.9598V44.137H62.5627V41.801ZM57.33 42.7354V43.1326H55.2393V42.7354H57.33ZM61.9203 42.7354V43.1326H59.8295V42.7354H61.9203Z" fill="white"/>
<path fill-rule="evenodd" clip-rule="evenodd" d="M59.8308 42.8403H60.2279V44.1368H59.8308V42.8403Z" fill="white"/>
<path fill-rule="evenodd" clip-rule="evenodd" d="M59.8308 42.8403H60.2279V44.1368H59.8308V42.8403Z" fill="white"/>
<path fill-rule="evenodd" clip-rule="evenodd" d="M59.8312 42.8403H60.2284V44.1368H59.8312V42.8403ZM55.241 42.8403H55.6381V44.1368H55.241V42.8403ZM58.6048 42.8403H59.002V44.1368H58.6048V42.8403ZM56.9346 42.8403H57.3317V44.1368H56.9463L56.9346 42.8403Z" fill="white"/>
<path fill-rule="evenodd" clip-rule="evenodd" d="M58.8848 43.7523V44.1494H57.1211V43.7523H58.8848ZM59.0016 42.7361V43.1332H57.8686V42.7361H59.0016Z" fill="white"/>
<path fill-rule="evenodd" clip-rule="evenodd" d="M64.6665 41.801H70.3897V42.1865H64.6665V41.801ZM65.5191 43.7633H65.9163V44.1487H65.5191V43.7633ZM70.4131 43.7633V44.1487H69.2685V43.7516L70.4131 43.7633ZM71.0205 41.801H71.4176V44.137H71.0205V41.801Z" fill="white"/>
<path fill-rule="evenodd" clip-rule="evenodd" d="M73.3101 43.7511V44.1482H71.1376V43.7511H73.3101ZM69.2571 42.8284H69.6542V44.1482H69.2571V42.8284Z" fill="white"/>
<path fill-rule="evenodd" clip-rule="evenodd" d="M72.9827 41.801H73.3798V44.137H72.9827V41.801ZM72.0016 41.801H72.387V44.137H72.0016V41.801ZM66.7689 42.7354V43.1326H64.6665V42.7354H66.7689ZM71.3592 42.7354V43.1326H69.2568V42.7354H71.3592Z" fill="white"/>
<path fill-rule="evenodd" clip-rule="evenodd" d="M69.2683 42.8403H69.6538V44.1368H69.2683V42.8403Z" fill="white"/>
<path fill-rule="evenodd" clip-rule="evenodd" d="M69.2683 42.8403H69.6538V44.1368H69.2683V42.8403Z" fill="white"/>
<path fill-rule="evenodd" clip-rule="evenodd" d="M69.2685 42.8403H69.6539V44.1368H69.2685V42.8403ZM64.6665 42.8403H65.0636V44.1368H64.6665V42.8403ZM68.042 42.8403H68.4275V44.1368H68.042V42.8403ZM66.3718 42.8403H66.7689V44.1368H66.3718V42.8403Z" fill="white"/>
<path fill-rule="evenodd" clip-rule="evenodd" d="M68.3103 43.7523V44.1494H66.5466V43.7523H68.3103ZM68.4271 42.7361V43.1332H67.3058V42.7361H68.4271Z" fill="white"/>
<path fill-rule="evenodd" clip-rule="evenodd" d="M74.1506 41.801H79.8739V42.1865H74.1506V41.801ZM75.0033 43.7633H75.4004V44.1487H75.0033V43.7633ZM79.8972 43.7633V44.1487H78.7526V43.7516L79.8972 43.7633ZM80.5046 41.801H80.9017V44.137H80.5046V41.801Z" fill="white"/>
<path fill-rule="evenodd" clip-rule="evenodd" d="M82.7938 43.7511V44.1482H80.6213V43.7511H82.7938ZM78.7524 42.8284H79.1379V44.1482H78.7524V42.8284Z" fill="white"/>
<path fill-rule="evenodd" clip-rule="evenodd" d="M82.4668 41.801H82.864V44.137H82.4668V41.801ZM81.4857 41.801H81.8712V44.137H81.4857V41.801ZM76.253 42.7354V43.1326H74.1506V42.7354H76.253ZM80.8433 42.7354V43.1326H78.7409V42.7354H80.8433Z" fill="white"/>
<path fill-rule="evenodd" clip-rule="evenodd" d="M78.7524 42.8403H79.1379V44.1368H78.7524V42.8403Z" fill="white"/>
<path fill-rule="evenodd" clip-rule="evenodd" d="M78.7524 42.8403H79.1379V44.1368H78.7524V42.8403Z" fill="white"/>
<path fill-rule="evenodd" clip-rule="evenodd" d="M78.7524 42.8403H79.1378V44.1368H78.7524V42.8403ZM74.1621 42.8403H74.5476V44.1368H74.1621V42.8403ZM77.526 42.8403H77.9231V44.1368H77.526V42.8403ZM75.8557 42.8403H76.2528V44.1368H75.8557V42.8403Z" fill="white"/>
<path fill-rule="evenodd" clip-rule="evenodd" d="M77.7944 43.7523V44.1494H76.0308V43.7523H77.7944ZM77.9112 42.7361V43.1332H76.79V42.7361H77.9112Z" fill="white"/>
<path fill-rule="evenodd" clip-rule="evenodd" d="M8.1582 17.553H13.8814V17.9501H8.1582V17.553ZM9.01085 19.5386H9.40797V19.9124H9.01085V19.5386ZM13.9048 19.5152V19.9124H12.7602V19.5152H13.9048ZM14.5122 17.553H14.9093V19.9124H14.5122V17.553Z" fill="white"/>
<path fill-rule="evenodd" clip-rule="evenodd" d="M16.8018 19.5155V19.9126H14.6293V19.5155H16.8018ZM12.7605 18.5928H13.1342V19.9126H12.7488L12.7605 18.5928Z" fill="white"/>
<path fill-rule="evenodd" clip-rule="evenodd" d="M16.4744 17.553H16.8715V19.9124H16.4744V17.553ZM15.4933 17.553H15.8787V19.9124H15.4933V17.553ZM10.2606 18.4874V18.8845H8.1582V18.4991L10.2606 18.4874ZM14.8509 18.4874V18.8845H12.7485V18.4991L14.8509 18.4874Z" fill="white"/>
<path fill-rule="evenodd" clip-rule="evenodd" d="M12.7605 18.5928H13.1342V19.9126H12.7488L12.7605 18.5928Z" fill="white"/>
<path fill-rule="evenodd" clip-rule="evenodd" d="M12.7605 18.5928H13.1342V19.9126H12.7488L12.7605 18.5928Z" fill="white"/>
<path fill-rule="evenodd" clip-rule="evenodd" d="M12.7599 18.5928H13.1337V19.9126H12.7483L12.7599 18.5928ZM8.16968 18.5928H8.55512V19.9126H8.16968V18.5928ZM11.5335 18.5928H11.9307V19.9126H11.5335V18.5928ZM9.86329 18.5928H10.2604V19.9126H9.86329V18.5928Z" fill="white"/>
<path fill-rule="evenodd" clip-rule="evenodd" d="M11.8023 19.5149V19.9121H10.0386V19.5149H11.8023ZM11.9191 18.4988V18.8842H10.7978V18.4988H11.9191Z" fill="white"/>
<path fill-rule="evenodd" clip-rule="evenodd" d="M-1.2561 17.553H4.46713V17.9501H-1.2561V17.553ZM-0.403459 19.5386H-0.00633621V19.9124H-0.415139L-0.403459 19.5386ZM4.49049 19.5152V19.9124H3.34584V19.5152H4.49049ZM5.09786 17.553H5.49498V19.9124H5.09786V17.553Z" fill="white"/>
<path fill-rule="evenodd" clip-rule="evenodd" d="M7.3875 19.5155V19.9126H5.215V19.5155H7.3875ZM3.34619 18.5928H3.73163V19.9126H3.34619V18.5928Z" fill="white"/>
<path fill-rule="evenodd" clip-rule="evenodd" d="M7.06011 17.553H7.45723V19.9124H7.06011V17.553ZM6.07898 17.553H6.46442V19.9124H6.07898V17.553ZM0.846309 18.4874V18.8845H-1.2561V18.4991L0.846309 18.4874ZM5.43658 18.4874V18.8845H3.33416V18.4991L5.43658 18.4874Z" fill="white"/>
<path fill-rule="evenodd" clip-rule="evenodd" d="M3.34619 18.5928H3.73163V19.9126H3.34619V18.5928Z" fill="white"/>
<path fill-rule="evenodd" clip-rule="evenodd" d="M3.34619 18.5928H3.73163V19.9126H3.34619V18.5928Z" fill="white"/>
<path fill-rule="evenodd" clip-rule="evenodd" d="M3.34613 18.5928H3.73157V19.9126H3.34613V18.5928ZM-1.24414 18.5928H-0.858699V19.9126H-1.24414V18.5928ZM2.11972 18.5928H2.50516V19.9126H2.11972V18.5928ZM0.44947 18.5928H0.846592V19.9126H0.44947V18.5928Z" fill="white"/>
<path fill-rule="evenodd" clip-rule="evenodd" d="M2.388 19.5149V19.9121H0.635986V19.5149H2.388ZM2.5048 18.4988V18.8842H1.38351V18.4988H2.5048Z" fill="white"/>
<path fill-rule="evenodd" clip-rule="evenodd" d="M17.4905 17.553H23.2137V17.9501H17.4905V17.553ZM18.3431 19.5386H18.7402V19.9124H18.3431V19.5386ZM23.2371 19.5152V19.9124H22.0924V19.5152H23.2371ZM23.8561 17.553H24.2532V19.9124H23.8561V17.553Z" fill="white"/>
<path fill-rule="evenodd" clip-rule="evenodd" d="M26.1341 19.5155V19.9126H23.9616V19.5155H26.1341ZM22.0928 18.5928H22.4899V19.9126H22.0928V18.5928Z" fill="white"/>
<path fill-rule="evenodd" clip-rule="evenodd" d="M25.8067 17.553H26.2038V19.9124H25.8067V17.553ZM24.8256 17.553H25.2227V19.9124H24.8139L24.8256 17.553ZM19.5929 18.4874V18.8845H17.4905V18.4991L19.5929 18.4874ZM24.1832 18.4874V18.8845H22.0807V18.4991L24.1832 18.4874Z" fill="white"/>
<path fill-rule="evenodd" clip-rule="evenodd" d="M22.0928 18.5928H22.4899V19.9126H22.0928V18.5928Z" fill="white"/>
<path fill-rule="evenodd" clip-rule="evenodd" d="M22.0928 18.5928H22.4899V19.9126H22.0928V18.5928Z" fill="white"/>
<path fill-rule="evenodd" clip-rule="evenodd" d="M22.0927 18.5928H22.4898V19.9126H22.0927V18.5928ZM17.5024 18.5928H17.8996V19.9126H17.5024V18.5928ZM20.8663 18.5928H21.2634V19.9126H20.8663V18.5928ZM19.1961 18.5928H19.5932V19.9126H19.1961V18.5928Z" fill="white"/>
<path fill-rule="evenodd" clip-rule="evenodd" d="M21.1465 19.5149V19.9121H19.3711V19.5149H21.1465ZM21.2633 18.4988V18.8842H20.142V18.4988H21.2633Z" fill="white"/>
<path fill-rule="evenodd" clip-rule="evenodd" d="M26.8816 17.553H32.6165V17.9501H26.8933L26.8816 17.553ZM27.7459 19.5386H28.1314V19.9124H27.7459V19.5386ZM32.6282 19.5152V19.9124H31.4835V19.5152H32.6282ZM33.2472 17.553H33.6444V19.9124H33.2472V17.553Z" fill="white"/>
<path fill-rule="evenodd" clip-rule="evenodd" d="M35.5364 19.5155V19.9126H33.3639V19.5155H35.5364ZM31.4834 18.5928H31.8805V19.9126H31.4834V18.5928Z" fill="white"/>
<path fill-rule="evenodd" clip-rule="evenodd" d="M35.2081 17.553H35.6052V19.9124H35.2081V17.553ZM34.2153 17.553H34.6124V19.9124H34.2153V17.553ZM28.9826 18.4874V18.8845H26.8918V18.4991L28.9826 18.4874ZM33.5728 18.4874V18.8845H31.4821V18.4991L33.5728 18.4874Z" fill="white"/>
<path fill-rule="evenodd" clip-rule="evenodd" d="M31.4834 18.5928H31.8805V19.9126H31.4834V18.5928Z" fill="white"/>
<path fill-rule="evenodd" clip-rule="evenodd" d="M31.4834 18.5928H31.8805V19.9126H31.4834V18.5928Z" fill="white"/>
<path fill-rule="evenodd" clip-rule="evenodd" d="M31.4831 18.5928H31.8802V19.9126H31.4831V18.5928ZM26.8928 18.5928H27.2899V19.9126H26.8928V18.5928ZM30.2567 18.5928H30.6538V19.9126H30.2567V18.5928ZM28.5981 18.5928H28.9836V19.9126H28.5981V18.5928Z" fill="white"/>
<path fill-rule="evenodd" clip-rule="evenodd" d="M30.5374 19.5149V19.9121H28.7737V19.5149H30.5374ZM30.6542 18.4988V18.8842H29.5329V18.4988H30.6542Z" fill="white"/>
<path fill-rule="evenodd" clip-rule="evenodd" d="M36.3191 17.553H42.0423V17.9501H36.3191V17.553ZM37.1717 19.5386H37.5689V19.9124H37.1717V19.5386ZM42.0657 19.5152V19.9124H40.921V19.5152H42.0657ZM42.6847 17.553H43.0702V19.9124H42.6847V17.553Z" fill="white"/>
<path fill-rule="evenodd" clip-rule="evenodd" d="M44.9627 19.5155V19.9126H42.7902V19.5155H44.9627ZM40.9214 18.5928H41.3185V19.9126H40.9214V18.5928Z" fill="white"/>
<path fill-rule="evenodd" clip-rule="evenodd" d="M44.6353 17.553H45.0324V19.9124H44.6353V17.553ZM43.6542 17.553H44.0513V19.9124H43.6542V17.553ZM38.4215 18.4874V18.8845H36.3191V18.4991L38.4215 18.4874ZM43.0118 18.4874V18.8845H40.9094V18.4991L43.0118 18.4874Z" fill="white"/>
<path fill-rule="evenodd" clip-rule="evenodd" d="M40.9214 18.5928H41.3185V19.9126H40.9214V18.5928Z" fill="white"/>
<path fill-rule="evenodd" clip-rule="evenodd" d="M40.9214 18.5928H41.3185V19.9126H40.9214V18.5928Z" fill="white"/>
<path fill-rule="evenodd" clip-rule="evenodd" d="M40.9213 18.5928H41.3184V19.9126H40.9213V18.5928ZM36.3311 18.5928H36.7165V19.9126H36.3311V18.5928ZM39.6949 18.5928H40.092V19.9126H39.6949V18.5928ZM38.0247 18.5928H38.4218V19.9126H38.013L38.0247 18.5928Z" fill="white"/>
<path fill-rule="evenodd" clip-rule="evenodd" d="M39.9753 19.5149V19.9121H38.2V19.5149H39.9753ZM40.0921 18.4988V18.8842H38.9475V18.4988H40.0921Z" fill="white"/>
<path fill-rule="evenodd" clip-rule="evenodd" d="M45.8032 17.553H51.5265V17.9501H45.8032V17.553ZM46.6559 19.5386H47.053V19.9124H46.6559V19.5386ZM51.5498 19.5152V19.9124H50.3935V19.5152H51.5498ZM52.1689 17.553H52.5543V19.9124H52.1689V17.553Z" fill="white"/>
<path fill-rule="evenodd" clip-rule="evenodd" d="M54.4465 19.5155V19.9126H52.274V19.5155H54.4465ZM50.4052 18.5928H50.8024V19.9126H50.3936L50.4052 18.5928Z" fill="white"/>
<path fill-rule="evenodd" clip-rule="evenodd" d="M54.1311 17.553H54.5166V19.9124H54.1311V17.553ZM53.1383 17.553H53.5354V19.9124H53.1383V17.553ZM47.9056 18.4874V18.8845H45.8032V18.4991L47.9056 18.4874ZM52.4959 18.4874V18.8845H50.3935V18.4991L52.4959 18.4874Z" fill="white"/>
<path fill-rule="evenodd" clip-rule="evenodd" d="M50.3936 18.5928H50.8024V19.9126H50.3936V18.5928Z" fill="white"/>
<path fill-rule="evenodd" clip-rule="evenodd" d="M50.3936 18.5928H50.8024V19.9126H50.3936V18.5928Z" fill="white"/>
<path fill-rule="evenodd" clip-rule="evenodd" d="M50.3933 18.5928H50.8021V19.9126H50.3933V18.5928ZM45.8147 18.5928H46.2118V19.9126H45.8147V18.5928ZM49.1786 18.5928H49.5757V19.9126H49.1786V18.5928ZM47.5083 18.5928H47.9054V19.9126H47.5083V18.5928Z" fill="white"/>
<path fill-rule="evenodd" clip-rule="evenodd" d="M49.4587 19.5149V19.9121H47.6833V19.5149H49.4587ZM49.5755 18.4988V18.8842H48.4542V18.4988H49.5755Z" fill="white"/>
<path fill-rule="evenodd" clip-rule="evenodd" d="M55.229 17.553H60.9522V17.9501H55.229V17.553ZM56.0817 19.5386H56.4788V19.9124H56.0817V19.5386ZM60.9873 19.5152V19.9124H59.831V19.5152H60.9873ZM61.5946 17.553H61.9918V19.9124H61.5946V17.553Z" fill="white"/>
<path fill-rule="evenodd" clip-rule="evenodd" d="M63.8721 19.5155V19.9126H61.6996V19.5155H63.8721ZM59.8308 18.5928H60.2279V19.9126H59.8308V18.5928Z" fill="white"/>
<path fill-rule="evenodd" clip-rule="evenodd" d="M63.5555 17.553H63.9409V19.9124H63.5555V17.553ZM62.5627 17.553H62.9598V19.9124H62.5627V17.553ZM57.33 18.4874V18.8845H55.2393V18.4991L57.33 18.4874ZM61.9203 18.4874V18.8845H59.8295V18.4991L61.9203 18.4874Z" fill="white"/>
<path fill-rule="evenodd" clip-rule="evenodd" d="M59.8308 18.5928H60.2279V19.9126H59.8308V18.5928Z" fill="white"/>
<path fill-rule="evenodd" clip-rule="evenodd" d="M59.8308 18.5928H60.2279V19.9126H59.8308V18.5928Z" fill="white"/>
<path fill-rule="evenodd" clip-rule="evenodd" d="M59.8312 18.5928H60.2284V19.9126H59.8312V18.5928ZM55.241 18.5928H55.6381V19.9126H55.241V18.5928ZM58.6048 18.5928H59.002V19.9126H58.6048V18.5928ZM56.9346 18.5928H57.3317V19.9126H56.9463L56.9346 18.5928Z" fill="white"/>
<path fill-rule="evenodd" clip-rule="evenodd" d="M58.8848 19.5149V19.9121H57.1211V19.5149H58.8848ZM59.0016 18.4988V18.8842H57.8686V18.4988H59.0016Z" fill="white"/>
<path fill-rule="evenodd" clip-rule="evenodd" d="M64.6665 17.553H70.3897V17.9501H64.6665V17.553ZM65.5191 19.5386H65.9163V19.9124H65.5191V19.5386ZM70.4131 19.5152V19.9124H69.2685V19.5152H70.4131ZM71.0205 17.553H71.4176V19.9124H71.0205V17.553Z" fill="white"/>
<path fill-rule="evenodd" clip-rule="evenodd" d="M73.3101 19.5155V19.9126H71.1376V19.5155H73.3101ZM69.2571 18.5928H69.6542V19.9126H69.2571V18.5928Z" fill="white"/>
<path fill-rule="evenodd" clip-rule="evenodd" d="M72.9827 17.553H73.3798V19.9124H72.9827V17.553ZM72.0016 17.553H72.387V19.9124H72.0016V17.553ZM66.7689 18.4874V18.8845H64.6665V18.4991L66.7689 18.4874ZM71.3592 18.4874V18.8845H69.2568V18.4991L71.3592 18.4874Z" fill="white"/>
<path fill-rule="evenodd" clip-rule="evenodd" d="M69.2683 18.5928H69.6538V19.9126H69.2683V18.5928Z" fill="white"/>
<path fill-rule="evenodd" clip-rule="evenodd" d="M69.2683 18.5928H69.6538V19.9126H69.2683V18.5928Z" fill="white"/>
<path fill-rule="evenodd" clip-rule="evenodd" d="M69.2685 18.5928H69.6539V19.9126H69.2685V18.5928ZM64.6665 18.5928H65.0636V19.9126H64.6665V18.5928ZM68.042 18.5928H68.4275V19.9126H68.042V18.5928ZM66.3718 18.5928H66.7689V19.9126H66.3718V18.5928Z" fill="white"/>
<path fill-rule="evenodd" clip-rule="evenodd" d="M68.3103 19.5149V19.9121H66.5466V19.5149H68.3103ZM68.4271 18.4988V18.8842H67.3058V18.4988H68.4271Z" fill="white"/>
<path fill-rule="evenodd" clip-rule="evenodd" d="M74.1506 17.553H79.8739V17.9501H74.1506V17.553ZM75.0033 19.5386H75.4004V19.9124H75.0033V19.5386ZM79.8972 19.5152V19.9124H78.7526V19.5152H79.8972ZM80.5046 17.553H80.9017V19.9124H80.5046V17.553Z" fill="white"/>
<path fill-rule="evenodd" clip-rule="evenodd" d="M82.7938 19.5155V19.9126H80.6213V19.5155H82.7938ZM78.7524 18.5928H79.1379V19.9126H78.7524V18.5928Z" fill="white"/>
<path fill-rule="evenodd" clip-rule="evenodd" d="M82.4668 17.553H82.864V19.9124H82.4668V17.553ZM81.4857 17.553H81.8712V19.9124H81.4857V17.553ZM76.253 18.4874V18.8845H74.1506V18.4991L76.253 18.4874ZM80.8433 18.4874V18.8845H78.7409V18.4991L80.8433 18.4874Z" fill="white"/>
<path fill-rule="evenodd" clip-rule="evenodd" d="M78.7524 18.5928H79.1379V19.9126H78.7524V18.5928Z" fill="white"/>
<path fill-rule="evenodd" clip-rule="evenodd" d="M78.7524 18.5928H79.1379V19.9126H78.7524V18.5928Z" fill="white"/>
<path fill-rule="evenodd" clip-rule="evenodd" d="M78.7524 18.5928H79.1378V19.9126H78.7524V18.5928ZM74.1621 18.5928H74.5476V19.9126H74.1621V18.5928ZM77.526 18.5928H77.9231V19.9126H77.526V18.5928ZM75.8557 18.5928H76.2528V19.9126H75.8557V18.5928Z" fill="white"/>
<path fill-rule="evenodd" clip-rule="evenodd" d="M77.7944 19.5149V19.9121H76.0308V19.5149H77.7944ZM77.9112 18.4988V18.8842H76.79V18.4988H77.9112Z" fill="white"/>
<path fill-rule="evenodd" clip-rule="evenodd" d="M2.64498 40.4585H3.34578V41.6849H2.64498V40.4585ZM21.3915 40.4585H22.0923V41.6849H21.3915V40.4585ZM-11.7449 40.4585H-11.0441V41.6849H-11.7449V40.4585ZM-2.22561 40.4585H-1.52481V41.6849H-2.22561V40.4585ZM7.22356 40.4585H7.92437V41.6849H7.22356V40.4585ZM11.8956 40.4585H12.5964V41.6849H11.8956V40.4585ZM16.6727 40.4585H17.3735V41.6849H16.6727V40.4585ZM26.0635 40.4585H26.7643V41.6849H26.0635V40.4585ZM49.7741 40.4585H50.4866V41.6849H49.7857L49.7741 40.4585ZM30.8407 40.4585H31.5415V41.6849H30.8407V40.4585ZM35.5127 40.4585H36.2135V41.6849H35.5127V40.4585ZM40.2431 40.4585H40.9439V41.6849H40.2431V40.4585ZM44.9619 40.4585H45.6627V41.6849H44.9619V40.4585ZM82.7119 40.4585H83.4127V41.6849H82.7119V40.4585ZM54.3643 40.4585H55.0651V41.6849H54.3643V40.4585ZM59.1298 40.4585H59.8306V41.6849H59.1298V40.4585ZM63.9537 40.4585H64.6545V41.6849H63.9537V40.4585ZM68.4855 40.4585H69.1864V41.6849H68.4855V40.4585ZM73.3094 40.4585H74.0102V41.6849H73.3094V40.4585ZM78.0282 40.4585H78.729V41.6849H78.0282V40.4585ZM92.0092 40.4585H92.71V41.6849H92.0092V40.4585ZM87.4773 40.4585H88.1781V41.6849H87.4773V40.4585ZM-7.00276 40.4585H-6.30196V41.6849H-7.00276V40.4585Z" fill="#D90000"/>
<path fill-rule="evenodd" clip-rule="evenodd" d="M2.64498 19.7954H3.34578V21.0218H2.64498V19.7954ZM21.3915 19.7954H22.0923V21.0218H21.3915V19.7954ZM-11.7449 19.7954H-11.0441V21.0218H-11.7449V19.7954ZM-2.22561 19.7954H-1.52481V21.0218H-2.22561V19.7954ZM7.22356 19.7954H7.92437V21.0218H7.22356V19.7954ZM11.8956 19.7954H12.5964V21.0218H11.8956V19.7954ZM16.6727 19.7954H17.3735V21.0218H16.6727V19.7954ZM26.0635 19.7954H26.7643V21.0218H26.0635V19.7954ZM49.7741 19.7954H50.4866V21.0218H49.7857L49.7741 19.7954ZM30.8407 19.7954H31.5415V21.0218H30.8407V19.7954ZM35.5127 19.7954H36.2135V21.0218H35.5127V19.7954ZM40.2431 19.7954H40.9439V21.0218H40.2431V19.7954ZM44.9619 19.7954H45.6627V21.0218H44.9619V19.7954ZM82.7119 19.7954H83.4127V21.0218H82.7119V19.7954ZM54.3643 19.7954H55.0651V21.0218H54.3643V19.7954ZM59.1298 19.7954H59.8306V21.0218H59.1298V19.7954ZM63.9537 19.7954H64.6545V21.0218H63.9537V19.7954ZM68.4855 19.7954H69.1864V21.0218H68.4855V19.7954ZM73.3094 19.7954H74.0102V21.0218H73.3094V19.7954ZM78.0282 19.7954H78.729V21.0218H78.0282V19.7954ZM92.0092 19.7954H92.71V21.0218H92.0092V19.7954ZM87.4773 19.7954H88.1781V21.0218H87.4773V19.7954ZM-7.00276 19.7954H-6.30196V21.0218H-7.00276V19.7954Z" fill="#239E3F"/>
<path fill-rule="evenodd" clip-rule="evenodd" d="M43.3619 23.8716C44.343 25.0863 47.3915 31.7673 41.5282 36.159C38.76 38.2381 40.4769 38.3315 40.5587 38.6819C44.9971 36.3342 46.4338 33.1339 46.3987 30.2723C46.3754 27.4223 44.857 24.8994 43.3619 23.8716Z" fill="#DA0000"/>
<path fill-rule="evenodd" clip-rule="evenodd" d="M43.946 23.5564C45.0297 24.2158 45.9534 25.1078 46.6501 26.1679C47.3469 27.2279 47.7993 28.4296 47.9748 29.6859C48.1503 30.9423 48.0444 32.2219 47.6648 33.4323C47.2852 34.6427 46.6413 35.7537 45.7798 36.6848C48.9568 35.984 53.0215 26.5932 43.946 23.5564ZM37.2183 23.5564C36.1355 24.2168 35.2129 25.1095 34.5173 26.1701C33.8217 27.2306 33.3703 28.4325 33.196 29.6888C33.0216 30.9451 33.1286 32.2244 33.5091 33.4343C33.8896 34.6442 34.5342 35.7545 35.3962 36.6848C32.2076 35.984 28.1546 26.5932 37.2183 23.5564Z" fill="#DA0000"/>
<path fill-rule="evenodd" clip-rule="evenodd" d="M37.8018 23.8716C36.8207 25.0863 33.7722 31.7673 39.6356 36.159C42.3921 38.2381 40.6868 38.3315 40.6051 38.6819C36.1666 36.3342 34.73 33.1339 34.765 30.2723C34.7884 27.4223 36.3068 24.8994 37.8018 23.8716Z" fill="#DA0000"/>
<path fill-rule="evenodd" clip-rule="evenodd" d="M46.212 38.075C44.4717 38.0984 42.2875 37.8414 40.664 36.9888C40.9326 37.5144 41.1546 37.8414 41.4232 38.3553C42.965 38.5072 45.1024 38.6824 46.212 38.075ZM35.116 38.075C36.8563 38.0984 39.0405 37.8414 40.664 36.9888C40.3954 37.5144 40.1734 37.8414 39.9048 38.3553C38.363 38.5072 36.2256 38.6824 35.116 38.075ZM38.3046 21.8748C38.655 22.8092 39.5778 22.9493 40.5589 22.4004C41.283 22.8208 42.3927 22.8559 42.7781 21.9215C43.0701 24.2341 40.6406 23.6735 40.5589 23.2296C39.6478 24.1057 37.9659 23.6034 38.3046 21.8748Z" fill="#DA0000"/>
<path fill-rule="evenodd" clip-rule="evenodd" d="M40.6291 39.5348L41.5401 38.4836L41.6686 24.4558L40.5823 23.498L39.4961 24.4091L39.718 38.542L40.6291 39.5348Z" fill="#DA0000"/>
</g>
<defs>
<clipPath id="clip0_238_5554">
<rect width="79.736" height="59.802" fill="white" transform="translate(0.713867 0.803467)"/>
</clipPath>
</defs>
</svg>
