<svg width="81" height="61" viewBox="0 0 81 61" fill="none" xmlns="http://www.w3.org/2000/svg">
<g clip-path="url(#clip0_333_11471)">
<path fill-rule="evenodd" clip-rule="evenodd" d="M0.711914 0.722656H80.4634V60.5246H0.711914V0.722656Z" fill="white"/>
<path fill-rule="evenodd" clip-rule="evenodd" d="M9.44824 18.8862L17.7434 6.4481L19.8165 7.83064L11.5213 20.2688L9.44824 18.8862ZM12.5578 20.96L20.853 8.5219L22.926 9.90444L14.6308 22.3426L12.5578 20.96ZM15.6673 23.0338L23.9625 10.5957L26.0355 11.9782L17.7403 24.4164L15.6673 23.0338Z" fill="black"/>
<path fill-rule="evenodd" clip-rule="evenodd" d="M55.0547 49.3018L63.3499 36.8636L65.4229 38.2462L57.1277 50.6843L55.0547 49.3018ZM58.1642 51.3756L66.4594 38.9374L68.5324 40.32L60.2372 52.7581L58.1642 51.3756ZM61.2737 53.4494L69.5689 41.0112L71.642 42.3938L63.3468 54.8319L61.2737 53.4494Z" fill="black"/>
<path fill-rule="evenodd" clip-rule="evenodd" d="M58.167 42.3921L68.5321 49.3048L58.167 42.3921Z" fill="black"/>
<path d="M58.167 42.3921L68.5321 49.3048" stroke="white" stroke-width="1.0491"/>
<path fill-rule="evenodd" clip-rule="evenodd" d="M28.1074 22.3447C30.3074 19.0459 33.7278 16.7562 37.6161 15.9793C41.5043 15.2023 45.5419 16.0018 48.8407 18.2018C52.1395 20.4018 54.4293 23.8222 55.2062 27.7104C55.9832 31.5987 55.1837 35.6363 52.9837 38.9351L28.1074 22.3447Z" fill="#CD2E3A"/>
<path fill-rule="evenodd" clip-rule="evenodd" d="M28.1077 22.3456C25.9077 25.6444 25.1082 29.682 25.8852 33.5703C26.6621 37.4585 28.9518 40.8789 32.2506 43.0789C35.5494 45.2789 39.5871 46.0784 43.4753 45.3014C47.3636 44.5245 50.7839 42.2348 52.984 38.936C54.084 37.2866 54.4837 35.2677 54.0952 33.3236C53.7068 31.3795 52.5619 29.6693 50.9125 28.5693C49.2631 27.4693 47.2443 27.0696 45.3001 27.458C43.356 27.8465 41.6458 28.9914 40.5458 30.6408L28.1077 22.3456Z" fill="#0047A0"/>
<path d="M40.5457 30.6401C42.8363 27.2054 41.9089 22.5641 38.4742 20.2734C35.0395 17.9828 30.3982 18.9102 28.1076 22.3449C25.8169 25.7796 26.7443 30.4209 30.179 32.7116C33.6137 35.0022 38.255 34.0748 40.5457 30.6401Z" fill="#CD2E3A"/>
<path fill-rule="evenodd" clip-rule="evenodd" d="M17.7783 54.8369L9.48312 42.3988L11.5561 41.0163L19.8513 53.4544L17.7783 54.8369ZM20.8879 52.7631L12.5927 40.325L14.6657 38.9425L22.9609 51.3806L20.8879 52.7631ZM23.9974 50.6893L15.7022 38.2512L17.7752 36.8687L26.0704 49.3068L23.9974 50.6893Z" fill="black"/>
<path fill-rule="evenodd" clip-rule="evenodd" d="M63.3848 24.4214L55.0896 11.9833L57.1626 10.6007L65.4578 23.0389L63.3848 24.4214ZM66.4943 22.3476L58.1991 9.90946L60.2721 8.52693L68.5673 20.9651L66.4943 22.3476ZM69.6038 20.2738L61.3086 7.83566L63.3816 6.45313L71.6768 18.8913L69.6038 20.2738Z" fill="black"/>
<path fill-rule="evenodd" clip-rule="evenodd" d="M16.2217 46.8896L19.3312 44.8158L16.2217 46.8896ZM58.2004 18.8934L61.8281 16.4739L58.2004 18.8934ZM64.9377 14.4001L68.0472 12.3263L64.9377 14.4001Z" fill="black"/>
<path d="M16.2217 46.8896L19.3312 44.8158M58.2004 18.8934L61.8281 16.4739M64.9377 14.4001L68.0472 12.3263" stroke="white" stroke-width="1.0491"/>
</g>
<defs>
<clipPath id="clip0_333_11471">
<rect width="79.736" height="59.802" fill="white" transform="translate(0.713867 0.719238)"/>
</clipPath>
</defs>
</svg>
