<svg width="81" height="61" viewBox="0 0 81 61" fill="none" xmlns="http://www.w3.org/2000/svg">
<g clip-path="url(#clip0_238_7021)">
<path fill-rule="evenodd" clip-rule="evenodd" d="M-4.27002 0.803467H85.4329V60.6054H-4.27002V0.803467Z" fill="#199D00"/>
<path fill-rule="evenodd" clip-rule="evenodd" d="M18.3307 17.7512C18.2373 19.1528 18.0971 21.6056 19.3001 21.8625C20.7368 22.0027 19.9425 19.4331 20.4681 18.9659C20.5616 18.7323 20.7368 18.7323 20.7485 19.0243V21.2085C20.7485 21.9093 21.2157 22.1195 21.5661 22.2597C21.9398 22.2363 22.1968 22.2597 22.337 22.6101L22.5238 26.3827C22.5238 26.3827 23.3882 26.6397 23.4349 24.2686C23.4699 22.867 23.1546 21.7107 23.3414 21.4421C23.3414 21.1734 23.6918 21.1617 23.9254 21.2902C24.2992 21.5472 24.4627 21.8742 25.0467 21.7574C25.9344 21.5005 26.4717 21.0683 26.4834 20.3909C26.4659 19.7251 26.3273 19.0681 26.0746 18.452C26.1213 18.3352 25.9111 18.0198 25.9578 17.903C26.1096 18.16 26.3549 18.1366 26.4016 17.903C26.2498 17.4124 26.0162 16.9336 25.6424 16.735C25.3271 16.4547 24.8599 16.5014 24.708 17.0854C24.6146 17.7512 24.9416 18.5337 25.4205 19.1878C25.5256 19.4331 25.6658 19.8536 25.6074 20.2273C25.3504 20.3792 25.0935 20.3091 24.8715 20.0872C24.8715 20.0872 24.1707 19.5616 24.1707 19.4331C24.3576 18.2417 24.2058 18.1016 24.1006 17.7628C24.0306 17.3073 23.8086 17.1555 23.6334 16.8518C23.4582 16.6649 23.2246 16.6649 23.1078 16.8518C22.7925 17.3891 22.9443 18.5454 23.1662 19.071C23.3298 19.5499 23.575 19.8536 23.4582 19.8536C23.3648 20.1222 23.1662 20.0521 23.0144 19.7368C22.8435 19.0731 22.761 18.3897 22.7691 17.7044C22.7107 17.1672 22.6406 16.0225 22.2786 15.7188C22.0683 15.4385 21.753 15.5787 21.6362 15.8356C21.6053 16.3574 21.617 16.8809 21.6712 17.4008C21.9048 18.2651 21.9866 19.036 22.1034 19.912C22.1384 21.0917 21.4259 20.4259 21.461 19.8302C21.6142 19.0813 21.6022 18.3081 21.4259 17.5643C21.3091 17.2606 21.1806 17.1905 20.8886 17.2372C20.6667 17.2372 20.0944 17.8563 19.9309 18.9075C19.9309 18.9075 19.7907 19.4448 19.7323 19.9237C19.6505 20.4609 19.3001 20.8581 19.0432 19.8536C18.8329 19.1177 18.6928 17.3307 18.3424 17.7512H18.3307Z" fill="white"/>
<path fill-rule="evenodd" clip-rule="evenodd" d="M22.2435 23.4858L18.5059 25.2846C18.5409 24.4319 20.2696 22.9018 21.4609 22.8901C22.2201 22.9018 22.0332 23.1821 22.2318 23.4858H22.2435Z" fill="white"/>
<path fill-rule="evenodd" clip-rule="evenodd" d="M21.5775 24.6541C19.6153 29.735 26.1912 30.4474 26.927 24.8644C26.9971 24.6308 27.2774 24.4089 27.3241 24.7826C27.1723 29.8401 22.2316 30.1788 21.3906 28.5903C21.1928 28.0437 21.0939 27.4663 21.0986 26.885C20.9818 25.8922 20.4562 26.2777 20.3745 27.2588C20.2927 27.8078 20.3161 27.9596 20.3161 28.4852C20.573 32.4798 26.9387 30.7628 27.9782 27.469C28.5272 25.6469 27.8848 24.3037 28.1768 24.3037C28.8075 24.9812 29.6952 24.3972 29.8937 24.1636C29.9755 24.0468 30.1857 23.965 30.3259 24.1168C30.8165 24.4673 31.6808 24.3037 31.8677 23.6847C31.9728 23.0656 32.0545 22.4349 32.0779 21.7925C31.6691 21.9093 31.3771 21.9911 31.3421 22.1663L31.2603 22.7036C31.2253 22.8788 30.8865 22.8788 30.8632 22.6568C30.7113 21.956 30.0806 21.8743 29.6952 22.9488C29.4499 23.1591 28.9827 23.2058 28.936 22.8904C28.9944 22.1663 28.7024 22.0728 28.1184 22.4116L27.5577 18.1834C27.7913 18.1834 28.0249 18.3586 28.2468 18.0783C28.0132 17.319 27.4876 15.7773 27.1956 15.6605C27.0672 15.497 26.9504 15.6021 26.7635 15.6488C26.4598 15.7422 26.1795 15.9992 26.2729 16.5131C26.6233 18.709 26.8569 20.3792 27.219 22.5868C27.2774 22.832 27.0672 23.1708 26.7868 23.1357C26.3196 22.8204 26.2028 22.178 25.3852 22.2013C24.8012 22.2013 24.1471 22.8437 24.0654 23.4511C23.9603 23.9416 23.9252 24.4673 24.0654 24.8877C24.4742 25.3783 24.9647 25.3316 25.3969 25.2265C25.7473 25.0746 26.0393 24.7242 26.1678 24.806C26.2496 24.9111 26.1795 26.0791 24.4975 26.9668C23.4814 27.434 22.6638 27.5274 22.2316 26.6981C21.963 26.1725 22.255 24.1986 21.5775 24.6541Z" fill="white"/>
<path fill-rule="evenodd" clip-rule="evenodd" d="M29.9519 19.4918C30.3374 19.3516 32.2062 17.2025 32.2062 17.2025L31.9259 16.9689C31.8207 16.8871 31.8324 16.7937 31.9259 16.7119C32.3931 16.4316 32.2412 15.8476 32.0076 15.5673C31.849 15.49 31.6746 15.4508 31.4982 15.4528C31.3217 15.4548 31.1482 15.498 30.9915 15.579C30.6644 15.8943 30.5943 16.3966 30.8513 16.7002C31.0966 16.817 31.3419 17.074 31.1783 17.2142C30.4075 18.0318 28.3167 19.4451 28.562 19.4918C28.6087 19.5619 29.9052 19.5619 29.9403 19.4918H29.9519ZM18.6223 27.0838C17.9215 28.2051 17.8631 29.8754 18.2485 30.3776C18.4587 30.6112 18.7975 30.7163 19.0427 30.6346C19.4866 30.4477 19.6851 29.5483 19.58 29.233C19.4282 28.9994 19.3114 28.9643 19.1595 29.1512C18.8559 29.7819 18.7274 29.3498 18.6923 28.9994C18.6589 28.4059 18.6902 27.8106 18.7858 27.224C18.8675 26.7334 18.7858 26.8736 18.6223 27.0838ZM48.6517 25.2968C47.9743 23.8251 47.0282 22.3768 46.7362 21.8278C45.826 20.3889 44.8597 18.9862 43.8395 17.623C43.1154 16.7586 45.0309 17.985 43.6059 16.2564L42.5664 15.3804C42.3328 15.2169 41.7722 14.9132 41.6787 15.4038C41.632 15.8476 41.6554 16.0812 41.7254 16.4433C41.7838 16.6769 42.1342 17.0857 42.3094 17.3193C44.704 20.491 46.8072 23.8725 48.5933 27.4225C48.897 27.2707 48.8269 25.5421 48.6517 25.2968Z" fill="white"/>
<path fill-rule="evenodd" clip-rule="evenodd" d="M45.6744 30.1794C45.5343 30.3313 46.0015 30.9737 46.6088 30.9737C47.6133 30.8569 48.501 30.2962 49.3186 28.8012C49.6509 28.3038 49.8628 27.736 49.9377 27.1426C50.0366 24.3072 49.8093 21.4698 49.2602 18.6862C49.2252 18.4526 49.2602 18.1723 49.2836 18.1022C49.3537 18.0205 49.5756 18.1022 49.6924 17.9037C49.8676 17.7285 49.2252 16.2685 48.8748 15.7195C48.758 15.4625 48.6996 15.299 48.4893 15.7429C48.2356 16.2326 48.1148 16.7803 48.1389 17.3314C48.6178 20.6602 48.7697 23.5685 49.0733 26.8973C49.1084 27.2244 49.0617 27.6916 48.8397 27.8785C47.9584 28.8597 46.8798 29.6438 45.6744 30.1794ZM59.2817 30.1678C58.5576 30.5882 58.5576 31.0671 59.1416 31.0788C60.1461 30.962 61.3374 30.8802 62.155 29.6422C62.4438 29.059 62.6107 28.4231 62.6456 27.7733C62.7926 24.9816 62.6084 22.1822 62.0966 19.4338C62.0733 19.2002 61.9681 18.6512 62.0032 18.5811C62.0733 18.4176 62.4003 18.5928 62.5171 18.4059C62.6806 18.2307 61.6645 16.9226 61.3024 16.3619C61.1856 16.105 61.1389 15.9414 60.9169 16.3853C60.6817 16.8795 60.6081 17.4353 60.7067 17.9738C61.244 21.5946 61.6411 24.3044 61.7229 27.5047C61.6761 27.8084 61.6645 27.9719 61.5243 28.3573C61.2089 28.7545 60.8585 29.2684 60.5315 29.5137C60.2045 29.7473 59.5036 29.9809 59.2817 30.1678Z" fill="white"/>
<path fill-rule="evenodd" clip-rule="evenodd" d="M59.818 26.9319C59.818 26.0793 59.8297 25.3551 59.8063 24.7127C59.7988 24.1686 59.6795 23.6319 59.4559 23.1359C59.2457 22.657 59.3742 22.2716 59.269 21.7576C59.1756 21.2437 59.199 20.4728 59.0588 19.8771C59.0121 19.6435 58.8953 18.8843 58.9303 18.8026C58.9887 18.6391 59.2106 18.8026 59.3274 18.6157C59.491 18.4405 58.7434 16.5133 58.3697 15.9643C58.2412 15.719 57.9842 15.8008 57.6922 16.1979C57.4002 16.4666 57.5053 17.0622 57.6221 17.6346C58.3346 21.4072 58.8836 24.8295 58.7668 28.4153C58.7201 28.719 59.818 27.5042 59.818 26.9319ZM54.4802 22.2599C54.0247 22.2365 53.0786 21.3605 52.7983 20.8583C52.7524 20.7355 52.7328 20.6045 52.7409 20.4737C52.7489 20.3429 52.7844 20.2153 52.845 20.0991C53.0202 19.9823 53.2772 19.8655 53.4757 19.9823C53.4757 19.9823 53.6743 20.2626 53.6392 20.2976C53.8728 20.4144 53.9896 20.356 54.013 20.2509C54.0247 20.0757 53.9429 19.9706 53.9429 19.7837C54.048 19.2464 54.6437 19.1647 54.8773 19.5034C55.0409 19.7136 55.1109 20.1458 55.1226 20.4378C55.1226 20.5896 54.889 20.4144 54.7372 20.4378C54.6087 20.4845 54.5737 20.648 54.562 20.7882C54.5386 21.1736 54.4919 21.7927 54.4802 22.2482V22.2599ZM46.0939 27.8663C46.2107 26.7217 46.0472 24.6777 46.0355 24.0002C45.973 22.258 45.8288 20.5196 45.6034 18.7909C45.4632 17.8098 46.0005 18.896 45.9304 18.3237C45.7552 17.3543 45.2179 16.6885 44.5755 15.8125C44.3769 15.5205 44.3769 15.4621 44.0616 15.8826C43.7112 16.6651 44.0149 17.2141 44.1083 17.8331C44.5638 19.8421 44.8325 21.6876 44.9609 23.5213C45.0954 25.4262 45.111 27.3377 45.0077 29.2446C45.3581 29.2562 45.8954 28.6956 46.0939 27.8663Z" fill="white"/>
<path fill-rule="evenodd" clip-rule="evenodd" d="M61.3715 26.0325C60.5656 24.6777 59.3626 23.2293 59.0355 22.6804C57.9525 21.1679 56.8149 19.6952 55.6249 18.2653C54.6321 17.2141 56.0922 18.0901 55.4381 17.2725C54.8891 16.6768 54.7373 16.4782 54.2584 16.1162C54.0248 15.9643 53.8846 15.6723 53.7912 16.1746C53.7539 16.6096 53.7461 17.0466 53.7678 17.4827C53.7678 17.6813 53.9781 18.0667 54.1649 18.3003C56.5827 21.2788 59.2341 24.3156 61.3599 28.135C61.6635 27.9831 61.5584 26.2661 61.3599 26.0325H61.3715Z" fill="white"/>
<path fill-rule="evenodd" clip-rule="evenodd" d="M25.0003 23.5447C24.9419 23.6498 24.8134 23.7783 24.8601 23.9068C24.9419 24.0236 25.0236 24.0586 25.1638 24.0586C25.2923 24.0586 25.4792 24.0936 25.5142 24.0236C25.5843 23.9418 25.631 23.79 25.5843 23.6381C25.4441 23.2877 25.0704 23.4279 25.0003 23.5447Z" fill="#1BA400"/>
<path fill-rule="evenodd" clip-rule="evenodd" d="M52.0512 43.1441C53.1258 43.1908 53.8266 43.2025 54.7726 43.3076L55.8939 43.1908C57.132 43.074 57.1787 44.9545 57.1787 44.9545C57.1787 46.0641 56.7466 46.1225 56.1976 46.2393C55.8823 46.286 55.7304 46.0524 55.5552 45.8188C55.2911 45.9035 55.0097 45.9196 54.7376 45.8656C54.2821 45.8422 53.8382 45.8422 53.3944 45.8072C52.9272 45.7721 52.6702 45.8656 52.1914 45.8188C52.0979 45.9707 51.9578 46.1809 51.6774 46.1225C51.4438 46.0875 51.1518 45.4217 51.2336 44.8961C51.4088 44.5223 51.3504 44.6508 51.3504 44.4873C46.9587 44.3705 42.5319 44.1719 38.2337 44.2303C34.8698 44.242 31.5527 44.3822 28.2238 44.5223C26.4485 44.499 25.0936 44.2187 24.1592 42.8521C24.2526 42.8521 28.691 43.0974 29.9875 43.0156C32.3819 42.9923 34.5778 42.7937 37.0189 42.7236C41.8311 42.8054 46.6083 42.8054 51.4205 43.1441C50.9533 42.8287 50.9533 42.0929 51.6541 41.906C51.7125 41.8593 51.7475 42.2681 51.8526 42.2564C52.425 42.2214 52.168 42.9923 52.0512 43.1441ZM32.709 16.607C31.9848 18.686 33.1295 20.9753 33.9237 20.7534C34.5077 20.987 34.8581 19.8891 35.0917 18.6977C35.2669 18.359 35.3837 18.3239 35.4655 18.4992C35.4421 20.0876 35.5823 20.4497 35.9911 20.9286C36.9021 21.6294 37.6613 21.022 37.7197 20.9636L38.4205 20.2512C38.5841 20.076 38.7943 20.076 39.0162 20.2161C39.2382 20.4147 39.2031 20.7534 39.6703 20.987C40.0674 21.1505 40.8967 21.0337 41.0953 20.695C41.3522 20.2395 41.4223 20.0876 41.5391 19.9241C41.726 19.6788 42.0414 19.784 42.0414 19.8657C42.0063 20.0059 41.8194 20.1344 41.9479 20.3913C42.1815 20.5548 42.2283 20.4497 42.3567 20.4147C42.8239 20.1811 43.1743 19.1766 43.1743 19.1766C43.186 18.8028 42.9758 18.8262 42.8356 18.9196L42.4735 19.1649C42.2399 19.2 41.8078 19.3518 41.5858 19.0131C41.3639 18.616 41.3639 18.0436 41.2004 17.6348C41.2004 17.6115 40.8967 16.9924 41.177 16.9574C41.3172 16.9807 41.6092 17.0625 41.6559 16.8172C41.7961 16.5719 41.3522 15.8828 41.0369 15.5324C40.7682 15.2404 40.3945 15.2054 40.0324 15.5091C39.7754 15.7427 39.8105 15.9996 39.7638 16.2449C39.7194 16.4207 39.7175 16.6045 39.7581 16.7811C39.7987 16.9578 39.8807 17.1223 39.9974 17.2611C40.2543 17.7516 40.7098 18.394 40.558 19.3051C40.558 19.3051 40.2894 19.7256 39.8222 19.6672C39.6236 19.6321 39.3082 19.5504 39.1447 18.2889C39.0162 17.3545 39.1681 16.023 38.7709 15.4039C38.6191 15.0185 38.514 14.6564 38.1636 15.2988C38.0701 15.5558 37.6613 15.9412 37.9533 16.7238C38.2297 17.429 38.3104 18.1957 38.1869 18.943C38.0117 19.2 37.9767 19.2817 37.7548 19.527C37.4511 19.8774 37.1124 19.784 36.8554 19.6555C36.6218 19.5036 36.4349 19.4219 36.3181 18.8963C36.3415 18.0787 36.3882 16.7355 36.2364 16.4551C36.0145 16.0113 35.6524 16.1748 35.5005 16.315C34.8057 17.0868 34.3405 18.0375 34.1573 19.0598C33.9471 19.7372 33.7252 19.5387 33.5733 19.27C33.1996 18.9196 33.1645 16.1515 32.709 16.607Z" fill="white"/>
<path fill-rule="evenodd" clip-rule="evenodd" d="M34.9043 21.1384C35.2431 20.9048 35.0912 20.7413 35.5818 21.2319C36.215 22.3522 36.5826 23.6029 36.6564 24.8877C36.633 25.1914 36.8432 25.3783 36.9484 25.3082C36.9951 24.6074 38.7121 23.6263 40.2889 23.4861C40.5225 23.4277 40.4057 22.9722 40.4407 22.7386C40.3473 21.8626 40.9313 21.0684 41.7489 21.01C42.8702 21.1735 43.2439 21.7692 43.2673 22.6685C43.1388 24.4205 41.3167 24.7125 40.3005 24.8527C40.1487 24.9111 40.0786 24.9812 40.3005 25.0629L44.5754 25.0863L44.7974 25.2031C44.8207 25.3199 44.7273 25.2265 44.5638 25.5068C44.3286 25.9199 44.1815 26.3772 44.1316 26.85C42.8585 27.2705 41.5386 27.434 40.2071 27.6092C39.7399 27.8428 39.5063 28.1582 39.5997 28.5086C39.7633 28.894 40.7911 29.2911 40.7911 29.3028C40.9897 29.4196 41.2116 29.7116 40.7327 30.3073C38.6537 30.2138 37.0301 29.3262 36.4695 28.0764C36.306 27.9479 36.1191 28.0764 36.0023 28.2399C35.1847 29.2911 34.3904 30.2255 33.0005 30.7394C32.1829 30.9497 31.3302 30.611 30.9331 30.0737C30.6645 29.7583 30.6762 29.4196 30.5827 29.3495C30.1272 29.5481 26.2728 31.1833 26.7633 30.4124C27.6977 29.4196 29.333 28.6721 30.7579 27.691C30.863 27.3522 31.0499 26.2309 31.6106 25.8689C31.6456 25.8689 31.5288 26.5229 31.5405 26.8033C31.5405 27.0369 31.5171 27.1186 31.5638 27.0602C31.669 27.0018 33.3976 25.6353 33.5495 25.2148C33.713 24.9812 33.5845 24.3738 33.5845 24.3505C33.2575 23.5095 32.8019 23.4394 32.6384 23.0189C32.4866 22.47 32.5567 21.8392 32.872 21.6524C33.1523 21.4071 33.4794 21.4304 33.7947 21.7108C34.1451 22.0261 34.4488 22.6452 34.5423 23.1007C34.4839 23.2759 34.0751 22.9839 33.9583 23.0656C34.1831 23.324 34.3326 23.6391 34.3904 23.9767C34.624 24.9345 34.5539 25.3082 34.3203 25.9273C33.5495 27.5508 32.5683 28.0297 31.704 28.637C31.6806 28.637 31.669 29.0458 31.9843 29.2678C32.1011 29.3846 32.5567 29.443 33.0823 29.2678C34.2052 28.6442 35.1131 27.6955 35.6869 26.5463C35.7862 25.6719 35.6904 24.7863 35.4066 23.9533C35.0679 23.1708 34.6707 22.0612 34.6707 22.0378C34.6591 21.5472 34.6941 21.3837 34.9043 21.1384ZM23.7148 16.6299C24.2054 16.8635 25.1398 16.7584 25.0931 15.9642L25.0697 15.6021C24.9763 15.3685 24.696 15.4269 24.6376 15.6605C24.6142 15.7422 24.6726 15.8707 24.6025 15.9058C24.5558 15.9525 24.404 15.9291 24.404 15.7072C24.404 15.6371 24.3572 15.567 24.3222 15.5203C24.2988 15.497 24.2755 15.497 24.2171 15.497C24.147 15.497 24.147 15.5086 24.112 15.567C24.1003 15.6254 24.0769 15.6838 24.0769 15.7539C24.0769 15.8357 24.0302 15.859 23.9835 15.8707C23.9134 15.8707 23.9251 15.8707 23.8667 15.8474C23.8433 15.8123 23.8083 15.8006 23.8083 15.7306L23.7732 15.5437C23.7499 15.5086 23.7032 15.4853 23.6564 15.4736C23.3878 15.4736 23.3644 15.789 23.3878 15.9058C23.3644 15.9291 23.3528 16.4781 23.7148 16.6299Z" fill="white"/>
<path fill-rule="evenodd" clip-rule="evenodd" d="M38.1406 22.7274C38.6312 22.961 39.8109 22.8326 39.5189 22.0734L39.4955 21.6996C39.3904 21.466 39.1218 21.5244 39.0634 21.7697C39.04 21.8398 39.0984 21.9682 39.0166 22.0033C38.9816 22.05 38.8181 22.0266 38.8298 21.8164C38.8298 21.7463 38.783 21.6646 38.748 21.6178C38.713 21.6062 38.7013 21.5945 38.6312 21.5945C38.5728 21.5945 38.5728 21.6178 38.5378 21.6762C38.5144 21.7346 38.5027 21.793 38.5027 21.8631C38.491 21.9332 38.456 21.9566 38.3976 21.9799C38.3392 21.9799 38.3509 21.9799 38.3042 21.9449C38.2691 21.9098 38.2341 21.8982 38.2341 21.8398L38.199 21.6529C38.1757 21.6178 38.129 21.5945 38.0822 21.5828C37.8136 21.5828 37.7902 21.8865 37.8019 22.0033C37.7902 22.0266 37.7786 22.5873 38.1523 22.7274H38.1406ZM46.5503 20.2046C47.0409 20.4382 47.9636 20.333 47.9285 19.5505L47.9052 19.1767C47.8001 18.9431 47.5314 19.0015 47.473 19.2351C47.4497 19.3169 47.5081 19.4453 47.4263 19.4921C47.3913 19.5271 47.2277 19.5037 47.2394 19.2818C47.2394 19.2117 47.1927 19.1417 47.1577 19.0949C47.1226 19.0716 47.1109 19.0716 47.0409 19.0716C46.9825 19.0716 46.9825 19.0949 46.9474 19.1533L46.9124 19.3285C46.9007 19.4103 46.8657 19.4453 46.8073 19.4453C46.7489 19.4453 46.7605 19.4453 46.7138 19.422C46.6788 19.3869 46.6437 19.3753 46.6437 19.3169C46.6437 19.2585 46.6321 19.165 46.6087 19.1183C46.5853 19.0833 46.5386 19.0716 46.4919 19.0599C46.2233 19.0599 46.1999 19.3636 46.2116 19.4804C46.1999 19.5037 46.1882 20.0527 46.562 20.2046H46.5503ZM50.907 26.5468C50.0543 27.5163 50.4281 29.1164 50.6266 29.4668C50.907 30.0275 51.1289 30.3896 51.6778 30.6699C52.1801 31.032 52.5772 30.8101 52.7874 30.5531C53.2897 30.0275 53.3014 28.6843 53.535 28.4273C53.6985 27.9368 54.119 28.0185 54.3175 28.2404C54.5033 28.5041 54.7523 28.717 55.0417 28.8595C55.5089 29.2683 56.0695 29.35 56.6302 28.9763C57.004 28.7544 57.2492 28.4857 57.4712 27.9368C57.7048 27.2827 57.588 24.2459 57.5296 22.4471L57.039 19.9359C57.039 19.9126 56.9806 18.7445 56.9222 18.4759C56.9222 18.3591 56.8872 18.3241 57.004 18.3357C57.1324 18.4525 57.1441 18.4525 57.2376 18.4876C57.3544 18.5109 57.4712 18.289 57.3894 18.1021L56.2214 15.9296C56.128 15.8362 55.9995 15.7428 55.8476 15.953C55.7581 16.0341 55.6867 16.1333 55.6384 16.2441C55.5901 16.3548 55.5658 16.4746 55.5673 16.5954C55.6023 17.1093 55.6841 17.6349 55.7191 18.1489L56.1864 20.7886C56.3382 22.6574 56.3732 24.1991 56.5251 26.0796C56.5017 26.8739 56.2564 27.563 56.0228 27.6681C56.0228 27.6681 55.6724 27.8667 55.4388 27.6448C55.2636 27.5747 54.5745 26.4884 54.5745 26.4884C54.2241 26.1731 53.9905 26.2548 53.7452 26.4884C53.0444 27.1659 52.7407 28.404 52.2618 29.2683C52.145 29.4668 51.7946 29.6187 51.4209 29.2566C50.4631 27.9368 51.0238 26.0679 50.907 26.5468ZM46.7722 15.6026C47.2161 15.7778 47.5197 16.6772 47.4263 17.121C47.3329 17.6466 47.0993 18.2306 46.9357 18.1605C46.7489 18.0905 47.0525 17.6233 46.8773 17.1327C46.7839 16.8057 46.1765 16.2217 46.2466 16.0581C46.1298 15.696 46.5036 15.5325 46.7722 15.5909V15.6026Z" fill="white"/>
<path fill-rule="evenodd" clip-rule="evenodd" d="M52.3315 27.0833C52.4132 26.0087 52.2614 25.3546 52.238 24.7239C52.2147 24.0932 51.5256 19.281 51.3854 18.8138C51.2102 17.9028 52.0512 18.697 51.9577 18.1597C51.6657 17.5056 50.9532 16.5362 50.7313 15.9639C50.5912 15.7303 50.6496 15.4967 50.3459 15.9055C50.0844 16.6222 49.9924 17.3898 50.0772 18.148C50.8014 21.9207 51.5372 25.051 51.4204 28.6367C51.7708 28.6367 52.1563 27.8542 52.3315 27.0833ZM59.8534 17.1202C60.2623 17.3188 60.4959 18.44 60.4491 18.7554C60.3674 19.3394 60.1571 19.9701 60.0053 19.8884C59.8301 19.8183 60.0403 19.024 59.9586 18.7788C59.8651 18.4284 59.3162 17.7976 59.3746 17.6108C59.2578 17.2136 59.6082 17.0501 59.8534 17.1202ZM29.9875 25.051C30.373 25.2028 30.6066 26.0204 30.5715 26.254C30.4781 26.6862 30.2795 27.1534 30.1277 27.0833C29.9758 27.0366 30.1627 26.4526 30.0926 26.2657C30.0576 25.8335 29.5203 25.5999 29.532 25.413C29.4385 25.0626 29.7656 25.0042 29.9992 25.051H29.9875Z" fill="white"/>
<path fill-rule="evenodd" clip-rule="evenodd" d="M39.2849 26.2896C39.7755 26.3129 40.0207 26.7101 39.5652 26.8736C39.098 27.0254 38.6659 27.1539 38.6542 27.808C38.8294 28.7424 38.4206 28.4154 38.187 28.2986C37.9067 28.0883 37.1124 27.5978 36.9956 26.5465C36.9839 26.3013 37.1825 26.0793 37.4978 26.0793C37.9651 26.2078 38.6659 26.2195 39.2849 26.2896Z" fill="#1B9D00"/>
<path fill-rule="evenodd" clip-rule="evenodd" d="M19.7209 15.3335C20.2815 15.497 20.3165 16.338 20.2815 16.5832C20.1997 17.0271 20.0012 17.506 19.861 17.4476C19.6975 17.3892 19.861 16.7818 19.7793 16.5949C19.6975 16.338 19.2186 15.8474 19.2653 15.7072C19.1602 15.4152 19.4989 15.2751 19.7209 15.3335ZM30.922 19.258C30.4782 19.4916 30.3147 20.1924 30.5833 20.6129C30.8403 20.9633 31.2374 20.8348 31.2841 20.8348C31.7163 20.8815 31.9733 20.0289 31.9733 20.0289C31.9733 20.0289 31.9849 19.7953 31.4827 20.2508C31.2608 20.2858 31.2491 20.2041 31.1907 20.0873C31.1372 19.8649 31.1577 19.6312 31.2491 19.4215C31.3308 19.2113 31.1673 19.1178 30.922 19.258ZM34.1925 15.0064C33.9589 15.1583 33.5267 15.6138 33.515 16.1277C33.5033 16.4197 33.4449 16.4197 33.6318 16.5949C33.7837 16.8052 33.9121 16.7935 34.1925 16.6416C34.2623 16.5977 34.3223 16.5397 34.3685 16.4713C34.4147 16.4029 34.4463 16.3257 34.4611 16.2445C34.5312 15.9175 34.1107 16.408 34.064 16.0343C33.9705 15.6839 34.2392 15.5437 34.4961 15.2167C34.4961 14.9831 34.4961 14.8312 34.1808 15.0064H34.1925ZM36.8088 15.4736C36.7058 15.8989 36.6433 16.333 36.6219 16.7701C36.5518 17.0972 36.9723 17.2373 37.1475 16.8168C37.4278 16.0576 37.4278 15.7306 37.4512 15.4152C37.3694 14.913 37.0307 14.9247 36.8088 15.4736ZM53.3945 23.9183C53.4412 23.8599 55.7305 22.2364 55.7305 22.2364C55.9641 22.1546 55.9057 23.0774 55.8006 23.0657C55.0906 23.7499 54.274 24.314 53.3828 24.7359C53.266 24.8177 53.1609 24.1169 53.3828 23.9183H53.3945ZM55.4619 23.895C55.8707 24.0935 56.0342 25.2732 55.9875 25.5886C55.9875 26.2193 55.602 26.7099 55.4385 26.6398C55.275 26.558 55.4619 25.8572 55.3801 25.6119C55.2867 25.2615 54.9479 24.6191 55.0063 24.4322C54.8895 24.0351 55.2166 23.8249 55.4736 23.895H55.4619ZM41.913 28.9641C42.1024 28.743 42.3227 28.5502 42.5671 28.3918C42.8007 28.275 43.0109 28.4852 42.9992 28.4735C43.0343 28.7071 42.8591 28.9057 42.9175 29.2094C42.9642 29.3262 42.9992 29.4664 43.2212 29.4196C43.5832 29.1276 43.922 29.1043 44.2724 29.0926C44.5644 29.1043 44.576 29.5832 44.3892 29.5832C43.7234 29.7233 43.4314 29.9102 42.9525 30.0854C42.7189 30.2256 42.532 30.0504 42.532 30.0387C42.532 30.027 42.4036 29.9102 42.4853 29.6065C42.5087 29.3729 42.4152 29.2328 42.205 29.2561C42.0648 29.3496 41.9247 29.3963 41.8546 29.2211C41.8195 29.1043 41.8079 29.0342 41.913 28.9641ZM57.868 29.5948C57.9614 29.7116 58.0315 29.8284 57.8563 30.0387L57.4241 30.4124C57.354 30.5292 57.3073 30.7395 57.5409 30.7979C57.9614 30.9147 58.9425 30.2723 58.9425 30.2606C59.1061 30.1438 59.0593 29.9102 59.036 29.9102C58.9425 29.8051 58.7323 29.8752 58.5921 29.8518C58.5221 29.8518 58.3001 29.8284 58.4053 29.6182C58.4837 29.515 58.5467 29.4009 58.5921 29.2795C58.6505 29.1393 58.5921 29.0459 58.3585 28.9641C58.1133 28.9174 58.0081 28.9408 57.7395 28.9641C57.5993 28.9875 57.5526 29.0576 57.5176 29.2328C57.5292 29.5014 57.6928 29.4897 57.868 29.5832V29.5948Z" fill="white"/>
<path fill-rule="evenodd" clip-rule="evenodd" d="M41.995 22.9607C41.9366 23.0775 41.7264 23.0775 41.5278 22.9607C41.3292 22.8439 41.2124 22.657 41.2825 22.5519C41.3526 22.4468 41.5512 22.4468 41.7497 22.5519C41.9483 22.657 42.0534 22.8556 41.995 22.9607ZM31.5997 16.7002C31.4829 16.7352 31.3194 16.6301 31.2493 16.4666C31.1793 16.303 31.2143 16.1629 31.3311 16.1278C31.4479 16.0928 31.5997 16.2096 31.6815 16.3614C31.7633 16.5133 31.7165 16.6768 31.5881 16.7118L31.5997 16.7002Z" fill="#259F00"/>
<path fill-rule="evenodd" clip-rule="evenodd" d="M52.1676 44.6038C53.2655 44.6505 54.2933 44.6038 55.3796 44.6622C55.5781 44.8374 55.438 45.2462 55.3095 45.2228L54.3985 45.1878C54.3868 44.8374 53.4991 44.8958 53.5224 45.1994C53.0436 45.2578 52.6114 45.1878 52.1208 45.1644C51.9807 44.9892 52.004 44.6738 52.1676 44.6038Z" fill="#209000"/>
</g>
<defs>
<clipPath id="clip0_238_7021">
<rect width="79.736" height="59.802" fill="white" transform="translate(0.713379 0.803467)"/>
</clipPath>
</defs>
</svg>
