<svg width="81" height="61" viewBox="0 0 81 61" fill="none" xmlns="http://www.w3.org/2000/svg">
<g clip-path="url(#clip0_333_10908)">
<path d="M32.6084 0.719238H80.45V60.5212H32.6084V0.719238Z" fill="#FF0000"/>
<path d="M0.713867 0.719238H32.6082V60.5212H0.713867V0.719238Z" fill="#006600"/>
<path fill-rule="evenodd" clip-rule="evenodd" d="M43.0122 38.8678C38.9881 38.7433 20.5865 27.2563 20.4619 25.4124L21.4711 23.7305C23.3025 26.3842 42.1152 37.5597 43.9716 37.161L43.0122 38.8678Z" fill="#FFFF00" stroke="black" stroke-width="0.062742" stroke-linecap="round" stroke-linejoin="round"/>
<path fill-rule="evenodd" clip-rule="evenodd" d="M21.259 23.4941C20.8977 24.4659 26.0681 27.6553 32.2726 31.4428C38.4895 35.2178 43.8467 37.5475 44.233 37.2236L44.4198 36.8748C44.3451 36.9994 44.1707 37.0367 43.8841 36.9495C42.2022 36.4636 37.8292 34.4578 32.4096 31.1687C26.9776 27.8796 22.2682 24.8521 21.5331 23.5688C21.4758 23.4485 21.4501 23.3156 21.4584 23.1826H21.4335L21.284 23.4567L21.259 23.4941ZM43.0992 38.918C43.0369 39.0426 42.8999 39.0426 42.6632 39.0177C41.1681 38.8557 36.6082 36.6381 31.2136 33.4112C24.9344 29.6487 19.7515 26.235 20.3246 25.338L20.4741 25.0639L20.4991 25.0763C20.0007 26.5963 30.7277 32.726 31.3631 33.1247C37.5675 36.962 42.8002 39.217 43.2612 38.6315L43.0992 38.918Z" fill="#FFFF00" stroke="black" stroke-width="0.062742" stroke-linecap="round" stroke-linejoin="round"/>
<path fill-rule="evenodd" clip-rule="evenodd" d="M32.6341 26.5335C36.6458 26.4961 41.6044 25.9853 44.4699 24.8391L43.847 23.8424C42.165 24.7768 37.1815 25.3997 32.5967 25.487C27.1896 25.4371 23.3648 24.9263 21.4461 23.6431L20.873 24.7145C24.3864 26.2096 27.9994 26.521 32.6341 26.5335Z" fill="#FFFF00"/>
<path d="M32.6341 26.5335C36.6458 26.4961 41.6044 25.9853 44.4699 24.8391L43.847 23.8424C42.165 24.7768 37.1815 25.3997 32.5967 25.487C27.1896 25.4371 23.3648 24.9263 21.4461 23.6431L20.873 24.7145C24.3864 26.2096 27.9994 26.521 32.6341 26.5335" stroke="black" stroke-width="0.062742" stroke-linecap="round" stroke-linejoin="round"/>
<path fill-rule="evenodd" clip-rule="evenodd" d="M44.6318 24.8643C44.5321 25.0263 42.6633 25.6617 39.9224 26.1351C37.5062 26.5013 35.0653 26.6804 32.6215 26.6709C30.2802 26.6796 27.9409 26.5298 25.6197 26.2223C22.7418 25.7738 21.2592 25.1509 20.6985 24.9266L20.8356 24.6525C22.4178 25.2755 23.9129 25.6492 25.6571 25.9233C27.9613 26.2345 30.284 26.3885 32.6091 26.3843C35.0402 26.3869 37.4681 26.2078 39.8725 25.8486C42.6757 25.3876 44.2082 24.802 44.4324 24.5404L44.6318 24.8768V24.8643ZM44.0836 23.8552C43.7846 24.1044 42.2646 24.6401 39.5984 25.0637C37.2961 25.3968 34.9728 25.5633 32.6465 25.562C29.9055 25.562 27.6505 25.3627 25.9437 25.1135C23.2277 24.7647 21.7824 24.1168 21.2592 23.9424L21.4211 23.6683C21.8323 23.8801 23.2152 24.4407 25.9686 24.827C28.182 25.1234 30.4133 25.265 32.6465 25.2506C34.9562 25.2513 37.2629 25.0847 39.5486 24.7522C42.2272 24.3784 43.6724 23.7057 43.8967 23.5312L44.0836 23.8552ZM19.4402 31.3678C21.907 32.7009 27.4013 33.3612 32.5966 33.411C37.3309 33.4235 43.4856 32.6884 45.7904 31.4675L45.7281 30.1344C45.0055 31.2557 38.4024 32.3396 32.5468 32.3022C26.6912 32.2524 21.2467 31.3553 19.4277 30.1842V31.3678" fill="#FFFF00"/>
<path d="M19.4402 31.3678C21.907 32.7009 27.4013 33.3612 32.5966 33.411C37.3309 33.4235 43.4856 32.6884 45.7904 31.4675L45.7281 30.1344C45.0055 31.2557 38.4024 32.3396 32.5468 32.3022C26.6912 32.2524 21.2467 31.3553 19.4277 30.1842V31.3678M44.6318 24.8643C44.5321 25.0263 42.6633 25.6617 39.9224 26.1351C37.5062 26.5013 35.0653 26.6804 32.6215 26.6709C30.2802 26.6796 27.9409 26.5298 25.6197 26.2223C22.7418 25.7738 21.2592 25.1509 20.6985 24.9266L20.8356 24.6525C22.4178 25.2755 23.9129 25.6492 25.6571 25.9233C27.9613 26.2345 30.284 26.3885 32.6091 26.3843C35.0402 26.3869 37.4681 26.2078 39.8725 25.8486C42.6757 25.3876 44.2082 24.802 44.4324 24.5404L44.6318 24.8768V24.8643ZM44.0836 23.8552C43.7846 24.1044 42.2646 24.6401 39.5984 25.0637C37.2961 25.3968 34.9728 25.5633 32.6465 25.562C29.9055 25.562 27.6505 25.3627 25.9437 25.1135C23.2277 24.7647 21.7824 24.1168 21.2592 23.9424L21.4211 23.6683C21.8323 23.8801 23.2152 24.4407 25.9686 24.827C28.182 25.1234 30.4133 25.265 32.6465 25.2506C34.9562 25.2513 37.2629 25.0847 39.5486 24.7522C42.2272 24.3784 43.6724 23.7057 43.8967 23.5312L44.0836 23.8552V23.8552Z" stroke="black" stroke-width="0.062742" stroke-linecap="round" stroke-linejoin="round"/>
<path fill-rule="evenodd" clip-rule="evenodd" d="M45.9151 31.1809V31.4924C45.5663 31.916 43.3984 32.5389 40.6824 32.9874C37.9841 33.3753 35.2604 33.5585 32.5344 33.5356C29.9496 33.5576 27.367 33.3785 24.81 32.9999C22.902 32.7794 21.0376 32.2755 19.2783 31.5048V31.1435C20.4868 31.9409 23.751 32.5389 24.8474 32.7133C26.8159 33.0123 29.345 33.2366 32.5344 33.2366C35.8858 33.2366 38.5645 32.9999 40.6326 32.6884C42.5886 32.4018 45.3669 31.6668 45.9151 31.1809ZM45.9151 30.0596V30.3711C45.5663 30.7822 43.3984 31.4051 40.6824 31.8537C37.9844 32.2457 35.2607 32.4331 32.5344 32.4143C29.9498 32.4295 27.3677 32.2504 24.81 31.8786C22.902 31.6581 21.0376 31.1542 19.2783 30.3835V30.0098C20.4868 30.8196 23.7635 31.4051 24.8474 31.5796C27.3925 31.9524 29.9622 32.1315 32.5344 32.1153C35.8858 32.1153 38.5769 31.8661 40.6326 31.5546C42.5886 31.2806 45.3669 30.5455 45.9151 30.0596ZM32.5843 38.6312C26.9031 38.6063 22.0317 37.0863 20.9976 36.8372L21.7452 38.0083C25.2397 39.246 28.9273 39.8493 32.6341 39.7899C36.9573 39.6653 40.7323 39.3289 43.386 38.0332L44.1584 36.8122C42.3519 37.6719 36.1848 38.6312 32.5718 38.6312" fill="#FFFF00"/>
<path d="M32.5843 38.6312C26.9031 38.6063 22.0317 37.0863 20.9976 36.8372L21.7452 38.0083C25.2397 39.246 28.9273 39.8493 32.6341 39.7899C36.9573 39.6653 40.7323 39.3289 43.386 38.0332L44.1584 36.8122C42.3519 37.6719 36.1848 38.6312 32.5718 38.6312M45.9151 31.1809V31.4924C45.5663 31.916 43.3984 32.5389 40.6824 32.9874C37.9841 33.3753 35.2604 33.5585 32.5344 33.5356C29.9496 33.5576 27.367 33.3785 24.81 32.9999C22.902 32.7794 21.0376 32.2755 19.2783 31.5048V31.1435C20.4868 31.9409 23.751 32.5389 24.8474 32.7133C26.8159 33.0123 29.345 33.2366 32.5344 33.2366C35.8858 33.2366 38.5645 32.9999 40.6326 32.6884C42.5886 32.4018 45.3669 31.6668 45.9151 31.1809V31.1809ZM45.9151 30.0596V30.3711C45.5663 30.7822 43.3984 31.4051 40.6824 31.8537C37.9844 32.2457 35.2607 32.4331 32.5344 32.4143C29.9498 32.4295 27.3677 32.2504 24.81 31.8786C22.902 31.6581 21.0376 31.1542 19.2783 30.3835V30.0098C20.4868 30.8196 23.7635 31.4051 24.8474 31.5796C27.3925 31.9524 29.9622 32.1315 32.5344 32.1153C35.8858 32.1153 38.5769 31.8661 40.6326 31.5546C42.5886 31.2806 45.3669 30.5455 45.9151 30.0596V30.0596Z" stroke="black" stroke-width="0.062742" stroke-linecap="round" stroke-linejoin="round"/>
<path fill-rule="evenodd" clip-rule="evenodd" d="M43.6851 37.7592C43.5716 37.9273 43.4553 38.0934 43.3362 38.2576C42.0903 38.7061 40.0969 39.1795 39.2747 39.3041C37.0682 39.7153 34.8288 39.9238 32.5843 39.927C27.551 39.8523 23.4272 38.868 21.496 38.0209L21.3341 37.7592L21.359 37.7094L21.6206 37.8215C25.1664 38.9949 28.8744 39.6045 32.6092 39.628C34.9515 39.628 37.2813 39.3664 39.1625 39.03C42.053 38.4445 43.2241 38.0084 43.5854 37.8091L43.6726 37.7592H43.6851ZM44.3454 36.6629C44.2633 36.8088 44.1803 36.9541 44.0962 37.0989C43.4234 37.3481 41.6045 37.8714 38.9507 38.2451C37.2065 38.4818 36.1226 38.7185 32.6466 38.7808C28.6731 38.7409 24.7239 38.154 20.9105 37.0366L20.7734 36.7251C24.6479 37.796 28.6403 38.3818 32.6591 38.4694C35.8361 38.4071 37.1941 38.1704 38.9258 37.9336C42.0156 37.4602 43.5729 36.9369 44.0339 36.7999C44.0342 36.7916 44.0342 36.7833 44.0339 36.775L44.3578 36.6504L44.3454 36.6629Z" fill="#FFFF00" stroke="black" stroke-width="0.062742" stroke-linecap="round" stroke-linejoin="round"/>
<path fill-rule="evenodd" clip-rule="evenodd" d="M44.42 30.3208C44.4324 34.0584 42.5138 37.4222 40.9814 38.8924C38.7181 41.0998 35.6955 42.357 32.5343 42.4057C28.7594 42.468 25.2086 40.0137 24.2493 38.9297C22.1032 36.6539 20.8817 33.6602 20.8231 30.5326C21.0474 26.4461 22.6546 23.6055 24.9719 21.6495C27.223 19.7963 30.0548 18.7951 32.9704 18.8213C34.6724 18.9039 36.3384 19.341 37.8617 20.1048C39.3849 20.8686 40.7318 21.9421 41.8161 23.2566C43.3735 25.1504 44.0587 27.2061 44.42 30.3208ZM32.5593 17.5381C36.0446 17.538 39.3886 18.9157 41.8624 21.3708C44.3363 23.8259 45.7392 27.1595 45.7655 30.6447C45.7655 32.374 45.4249 34.0865 44.7631 35.6842C44.1013 37.2819 43.1313 38.7337 41.9085 39.9565C40.6856 41.1793 39.2339 42.1494 37.6362 42.8111C36.0384 43.4729 34.326 43.8136 32.5966 43.8136C30.8673 43.8136 29.1549 43.4729 27.5571 42.8111C25.9594 42.1494 24.5077 41.1793 23.2848 39.9565C22.062 38.7337 21.092 37.2819 20.4302 35.6842C19.7684 34.0865 19.4278 32.374 19.4278 30.6447C19.4153 23.4186 25.3207 17.5381 32.5593 17.5381Z" fill="#FFFF00"/>
<path d="M32.5593 17.5381C36.0446 17.538 39.3886 18.9157 41.8624 21.3708C44.3363 23.8259 45.7392 27.1595 45.7655 30.6447C45.7655 32.374 45.4249 34.0865 44.7631 35.6842C44.1013 37.2819 43.1313 38.7336 41.9085 39.9565C40.6856 41.1793 39.2339 42.1494 37.6362 42.8111C36.0384 43.4729 34.326 43.8136 32.5966 43.8136C30.8673 43.8136 29.1549 43.4729 27.5571 42.8111C25.9594 42.1494 24.5077 41.1793 23.2848 39.9565C22.062 38.7336 21.092 37.2819 20.4302 35.6842C19.7684 34.0865 19.4278 32.374 19.4278 30.6447C19.4153 23.4186 25.3207 17.5381 32.5593 17.5381M44.42 30.3208C44.4324 34.0584 42.5138 37.4222 40.9814 38.8924C38.7181 41.0998 35.6955 42.357 32.5343 42.4057C28.7594 42.468 25.2086 40.0137 24.2493 38.9297C22.1032 36.6539 20.8817 33.6602 20.8231 30.5326C21.0474 26.4461 22.6546 23.6055 24.9719 21.6495C27.223 19.7963 30.0548 18.7951 32.9704 18.8213C34.6724 18.9039 36.3384 19.341 37.8617 20.1048C39.3849 20.8686 40.7318 21.9421 41.8161 23.2566C43.3735 25.1504 44.0587 27.2061 44.42 30.3208V30.3208Z" stroke="black" stroke-width="0.062742" stroke-linecap="round" stroke-linejoin="round"/>
<path fill-rule="evenodd" clip-rule="evenodd" d="M32.5961 17.4766C39.8471 17.4766 45.7526 23.382 45.7526 30.633C45.7526 37.884 39.8471 43.7894 32.6086 43.7894C25.3701 43.7894 19.4521 37.884 19.4521 30.633C19.4521 23.382 25.3576 17.4766 32.6086 17.4766H32.5961ZM19.7262 30.6205C19.7262 37.6971 25.5445 43.4904 32.5961 43.4904C39.6478 43.4904 45.466 37.6971 45.466 30.6205C45.466 23.544 39.6478 17.7507 32.5961 17.7507C25.5445 17.7507 19.7262 23.544 19.7262 30.6205Z" fill="#FFFF00" stroke="black" stroke-width="0.062742" stroke-linecap="round" stroke-linejoin="round"/>
<path fill-rule="evenodd" clip-rule="evenodd" d="M32.6091 18.5723C35.8013 18.5821 38.86 19.8546 41.1172 22.1118C43.3744 24.369 44.6469 27.4277 44.6567 30.6199C44.6469 33.8132 43.3748 36.8731 41.118 39.1324C38.8611 41.3916 35.8025 42.6668 32.6091 42.6799C26.006 42.6799 20.5615 37.2479 20.5615 30.6199C20.5746 27.4287 21.8482 24.3719 24.1047 22.1154C26.3612 19.8589 29.4179 18.5854 32.6091 18.5723ZM20.8481 30.6199C20.8481 37.0984 26.1555 42.3809 32.6091 42.3809C39.0628 42.3809 44.3702 37.086 44.3702 30.6199C44.3702 24.1413 39.0628 18.8588 32.6091 18.8588C29.4939 18.8719 26.5101 20.1153 24.3073 22.318C22.1045 24.5208 20.8612 27.5047 20.8481 30.6199Z" fill="#FFFF00" stroke="black" stroke-width="0.062742" stroke-linecap="round" stroke-linejoin="round"/>
<path fill-rule="evenodd" clip-rule="evenodd" d="M33.1455 17.4141H32.0117V43.864H33.133L33.1455 17.4141Z" fill="#FFFF00" stroke="black" stroke-width="0.062742" stroke-linecap="round" stroke-linejoin="round"/>
<path fill-rule="evenodd" clip-rule="evenodd" d="M33.0197 17.2646H33.3063V44.0136H33.0322V17.2646H33.0197ZM31.8984 17.2646H32.1974V44.0136H31.9109V17.2646H31.8984Z" fill="#FFFF00" stroke="black" stroke-width="0.062742" stroke-linecap="round" stroke-linejoin="round"/>
<path fill-rule="evenodd" clip-rule="evenodd" d="M45.7658 31.1435V30.1717L44.9684 29.4242L40.4459 28.2282L33.9424 27.5679L26.0934 27.9666L20.5119 29.2872L19.3906 30.1219V31.1062L22.2437 29.8229L29.0212 28.7639H35.5372L40.3213 29.2872L43.6353 30.0845L45.7658 31.1435Z" fill="#FFFF00" stroke="black" stroke-width="0.062742" stroke-linecap="round" stroke-linejoin="round"/>
<path fill-rule="evenodd" clip-rule="evenodd" d="M32.6092 28.6022C35.7114 28.6022 38.714 28.8888 41.1185 29.3498C43.5853 29.8481 45.3171 30.471 45.9151 31.1563V31.5051C45.1925 30.633 42.8627 30.0101 41.0562 29.6363C38.689 29.1878 35.6989 28.8888 32.5967 28.8888C29.345 28.8888 26.3051 29.2127 23.9628 29.6612C22.094 30.035 19.5898 30.7825 19.2783 31.5051V31.1438C19.4403 30.6455 21.3091 29.8979 23.9254 29.3622C26.2801 28.9012 29.3201 28.6022 32.5967 28.6022H32.6092ZM32.6092 27.4685C35.4623 27.4628 38.3101 27.7129 41.1185 28.216C43.5853 28.7144 45.3171 29.3373 45.9151 30.035V30.3714C45.1925 29.5117 42.8627 28.8763 41.0562 28.515C38.689 28.054 35.6989 27.7675 32.5967 27.7675C29.7052 27.7583 26.8191 28.0169 23.9753 28.5399C22.1687 28.8763 19.5649 29.6488 19.2783 30.3714V30.0225C19.4527 29.5242 21.3465 28.7393 23.9254 28.2409C26.2926 27.78 29.3201 27.4685 32.6092 27.4685ZM32.5344 21.7125C37.4307 21.6876 41.7041 22.3978 43.6601 23.3945L44.3702 24.6404C42.6758 23.7184 38.0661 22.7715 32.5469 22.8961C28.0493 22.9335 23.2402 23.3945 20.8357 24.6902L21.6829 23.2699C23.6638 22.2358 28.3234 21.7125 32.5344 21.7125Z" fill="#FFFF00"/>
<path d="M32.5344 21.7125C37.4307 21.6876 41.7041 22.3978 43.6601 23.3945L44.3702 24.6404C42.6758 23.7184 38.0661 22.7715 32.5469 22.8961C28.0493 22.9335 23.2402 23.3945 20.8357 24.6902L21.6829 23.2699C23.6638 22.2358 28.3234 21.7125 32.5344 21.7125M32.6092 28.6022C35.7114 28.6022 38.714 28.8888 41.1185 29.3498C43.5853 29.8481 45.3171 30.471 45.9151 31.1563V31.5051C45.1925 30.633 42.8627 30.0101 41.0562 29.6363C38.689 29.1878 35.6989 28.8888 32.5967 28.8888C29.345 28.8888 26.3051 29.2127 23.9628 29.6612C22.094 30.035 19.5898 30.7825 19.2783 31.5051V31.1438C19.4403 30.6455 21.3091 29.8979 23.9254 29.3622C26.2801 28.9012 29.3201 28.6022 32.5967 28.6022H32.6092ZM32.6092 27.4685C35.4623 27.4628 38.3101 27.7129 41.1185 28.216C43.5853 28.7144 45.3171 29.3373 45.9151 30.035V30.3714C45.1925 29.5117 42.8627 28.8763 41.0562 28.515C38.689 28.054 35.6989 27.7675 32.5967 27.7675C29.7052 27.7583 26.8191 28.0169 23.9753 28.5399C22.1687 28.8763 19.5649 29.6488 19.2783 30.3714V30.0225C19.4527 29.5242 21.3465 28.7393 23.9254 28.2409C26.2926 27.78 29.3201 27.4685 32.6092 27.4685V27.4685Z" stroke="black" stroke-width="0.062742" stroke-linecap="round" stroke-linejoin="round"/>
<path fill-rule="evenodd" clip-rule="evenodd" d="M32.6088 22.7336C35.1652 22.6904 37.7206 22.8697 40.246 23.2693C42.2394 23.643 44.1456 24.1912 44.4197 24.4902L44.6315 24.864C43.9711 24.4404 42.3141 23.9545 40.1961 23.5558C38.0782 23.1571 35.3746 23.0201 32.5963 23.0326C29.4442 23.0201 26.9899 23.1821 24.8968 23.5558C23.454 23.758 22.0531 24.1913 20.748 24.8391L20.9598 24.4529C21.7074 24.0791 22.866 23.6181 24.8345 23.2568C27.0148 22.8581 29.4941 22.746 32.6088 22.7336ZM32.6088 21.6123C35.2749 21.5873 37.9162 21.7369 39.9719 22.1106C41.3037 22.3084 42.5927 22.7296 43.7843 23.3565L44.0957 23.8548C43.5725 23.2693 41.604 22.7086 39.8473 22.4096C37.8041 22.0483 35.2749 21.9113 32.6088 21.8864C30.1269 21.8642 27.6474 22.0476 25.1958 22.4345C23.9139 22.6132 22.6689 22.9959 21.508 23.5683L21.7821 23.1572C22.5047 22.7834 23.6759 22.4345 25.146 22.148C27.6138 21.756 30.1102 21.5726 32.6088 21.5998V21.6123ZM39.1371 36.1018C36.9777 35.7279 34.7875 35.561 32.5963 35.6034C24.4358 35.7031 21.807 37.2854 21.4831 37.7588L20.8602 36.7621C22.9532 35.267 27.3886 34.4199 32.6461 34.4946C35.3746 34.5444 37.7293 34.7313 39.6978 35.1175L39.1371 36.1142" fill="#FFFF00"/>
<path d="M39.1371 36.1018C36.9777 35.7279 34.7875 35.561 32.5963 35.6034C24.4358 35.7031 21.807 37.2854 21.4831 37.7588L20.8602 36.7621C22.9532 35.267 27.3886 34.4199 32.6461 34.4946C35.3746 34.5444 37.7293 34.7313 39.6978 35.1175L39.1371 36.1142M32.6088 22.7336C35.1652 22.6904 37.7206 22.8697 40.246 23.2693C42.2394 23.643 44.1456 24.1912 44.4197 24.4902L44.6315 24.864C43.9711 24.4404 42.3141 23.9545 40.1961 23.5558C38.0782 23.1571 35.3746 23.0201 32.5963 23.0326C29.4442 23.0201 26.9899 23.1821 24.8968 23.5558C23.454 23.758 22.0531 24.1913 20.748 24.8391L20.9598 24.4529C21.7074 24.0791 22.866 23.6181 24.8345 23.2568C27.0148 22.8581 29.4941 22.746 32.6088 22.7336V22.7336ZM32.6088 21.6123C35.2749 21.5873 37.9162 21.7369 39.9719 22.1106C41.3037 22.3084 42.5927 22.7296 43.7843 23.3565L44.0957 23.8548C43.5725 23.2693 41.604 22.7086 39.8473 22.4096C37.8041 22.0483 35.2749 21.9113 32.6088 21.8864C30.1269 21.8642 27.6474 22.0476 25.1958 22.4345C23.9139 22.6132 22.6689 22.9959 21.508 23.5683L21.7821 23.1572C22.5047 22.7834 23.6759 22.4345 25.146 22.148C27.6138 21.756 30.1102 21.5726 32.6088 21.5998V21.6123Z" stroke="black" stroke-width="0.062742" stroke-linecap="round" stroke-linejoin="round"/>
<path fill-rule="evenodd" clip-rule="evenodd" d="M32.5592 35.4665C34.8267 35.5039 37.0443 35.5911 39.1997 35.9898L39.0502 36.2639C37.0568 35.8901 34.9139 35.7655 32.5716 35.7655C29.5442 35.7406 26.5042 36.0272 23.8505 36.7872C23.0158 37.0239 21.6329 37.5596 21.4833 38.0081L21.3338 37.7589C21.3837 37.4849 22.206 36.9367 23.7758 36.5131C26.8157 35.641 29.6563 35.479 32.5592 35.4665ZM32.6588 34.3203C35.0521 34.3179 37.441 34.5263 39.7977 34.9433L39.6357 35.2298C37.3344 34.8077 34.9985 34.6033 32.6588 34.6193C29.6438 34.6193 26.4419 34.8436 23.5266 35.6908C22.5922 35.9649 20.9601 36.5629 20.9102 37.0239L20.7607 36.7498C20.7857 36.3262 22.1935 35.7655 23.4643 35.4042C26.3921 34.5446 29.6064 34.3328 32.6588 34.3203Z" fill="#FFFF00" stroke="black" stroke-width="0.062742" stroke-linecap="round" stroke-linejoin="round"/>
<path fill-rule="evenodd" clip-rule="evenodd" d="M44.2458 36.9122L43.274 38.4446L40.4459 35.9404L33.1451 31.0192L24.8974 26.4966L20.624 25.039L21.5335 23.3446L21.845 23.1826L24.4987 23.8429L33.2696 28.3655L38.3279 31.5549L42.5763 34.6073L44.3081 36.6007L44.2458 36.9122Z" fill="#FFFF00" stroke="black" stroke-width="0.062742" stroke-linecap="round" stroke-linejoin="round"/>
<path fill-rule="evenodd" clip-rule="evenodd" d="M20.4745 25.0765C21.222 24.5781 26.7288 27.02 32.5096 30.5085C38.2531 33.9969 43.7598 37.9339 43.2615 38.669L43.0995 38.9306L43.0248 38.9929C43.0372 38.9804 43.1245 38.8683 43.0248 38.6067C42.7756 37.7968 38.8636 34.6822 32.3975 30.7701C26.0809 27.02 20.8233 24.7525 20.3125 25.4004L20.4745 25.0765ZM44.4451 36.8998C44.9185 35.9529 39.8104 32.1032 33.4689 28.3531C26.9904 24.6778 22.3059 22.51 21.4462 23.1578L21.2718 23.5191C21.2718 23.5316 21.2718 23.4942 21.3217 23.4568C21.4712 23.3322 21.7328 23.3322 21.8449 23.3322C23.3151 23.3572 27.5137 25.2883 33.4066 28.6646C35.9981 30.1596 44.3205 35.5169 44.2831 37.0119C44.2831 37.1365 44.2956 37.1614 44.2457 37.2362L44.4575 36.9123L44.4451 36.8998Z" fill="#FFFF00" stroke="black" stroke-width="0.062742" stroke-linecap="round" stroke-linejoin="round"/>
<path d="M24.7139 32.0863C24.7158 33.1179 24.9224 34.1389 25.3216 35.0901C25.7208 36.0413 26.3047 36.9039 27.0395 37.628C27.7654 38.365 28.6299 38.9511 29.5833 39.3525C30.5366 39.754 31.56 39.9628 32.5945 39.9669C34.688 39.9668 36.6957 39.135 38.176 37.6546C38.9082 36.9265 39.4894 36.061 39.8862 35.1077C40.2831 34.1544 40.4877 33.1322 40.4883 32.0996V21.5744L24.7139 21.5479V32.0863Z" fill="white" stroke="black" stroke-width="0.0780792"/>
<path d="M25.0059 32.0998C25.0087 33.0894 25.2074 34.0686 25.5906 34.9809C25.9738 35.8933 26.5338 36.7207 27.2385 37.4155C28.6533 38.8378 30.5746 39.6407 32.5808 39.6481C34.5834 39.6493 36.5047 38.8559 37.9231 37.4421C38.6253 36.7462 39.183 35.9183 39.5639 35.006C39.9447 34.0936 40.1414 33.115 40.1424 32.1264V21.8936H25.0324V32.0998M37.1258 24.9634V31.4619L37.1125 32.1397C37.1169 32.7333 37.0016 33.3218 36.7732 33.8699C36.5449 34.4179 36.2082 34.9142 35.7835 35.3291C34.9384 36.1771 33.7913 36.6551 32.5941 36.658C31.3449 36.658 30.2419 36.1265 29.4179 35.3025C28.5699 34.4574 28.0919 33.3103 28.089 32.1131V24.9368L37.1258 24.9634Z" fill="#FF0000"/>
<path d="M25.0059 32.0998C25.0087 33.0894 25.2074 34.0686 25.5906 34.9809C25.9738 35.8933 26.5338 36.7207 27.2385 37.4155C28.6533 38.8378 30.5746 39.6407 32.5808 39.6481C34.5834 39.6493 36.5047 38.8559 37.9231 37.4421C38.6253 36.7462 39.183 35.9183 39.5638 35.006C39.9447 34.0936 40.1414 33.115 40.1424 32.1264V21.8936H25.0324V32.0998M37.1258 24.9634V31.4619L37.1125 32.1397C37.1169 32.7333 37.0016 33.3218 36.7732 33.8699C36.5449 34.4179 36.2082 34.9142 35.7835 35.3291C34.9384 36.1771 33.7913 36.6551 32.5941 36.658C31.3449 36.658 30.2419 36.1265 29.4179 35.3025C28.5699 34.4574 28.0919 33.3103 28.089 32.1131V24.9368L37.1258 24.9634Z" stroke="black" stroke-width="0.0557709"/>
<path d="M25.9893 24.5643C26.0025 23.8334 26.5208 23.6606 26.5208 23.6606C26.5341 23.6606 27.0923 23.8467 27.0923 24.5776H25.9893" fill="#FFFF00"/>
<path d="M25.5378 23.6739L25.4448 24.5112H26.003C26.003 23.8201 26.5345 23.7138 26.5345 23.7138C26.5478 23.7138 27.0661 23.86 27.0794 24.5112H27.6375L27.5312 23.6606H25.5378V23.6739ZM25.4049 24.5245H27.6641C27.704 24.5245 27.7439 24.5643 27.7439 24.6175C27.7439 24.6839 27.704 24.7238 27.6641 24.7238H25.4049C25.3651 24.7238 25.3252 24.6839 25.3252 24.6175C25.3252 24.5643 25.3651 24.5245 25.4182 24.5245H25.4049Z" fill="#FFFF00" stroke="black" stroke-width="0.0557709"/>
<path d="M26.2284 24.511C26.2284 24.0724 26.5341 23.9528 26.5341 23.9528C26.5341 23.9528 26.8398 24.0857 26.8398 24.511H26.2284ZM25.4577 23.3149H27.6238C27.6637 23.3149 27.7036 23.3681 27.7036 23.4212C27.7036 23.4611 27.6637 23.501 27.6238 23.501H25.4577C25.4178 23.501 25.3779 23.4611 25.3779 23.4079C25.3779 23.3681 25.4178 23.3282 25.4577 23.3282V23.3149ZM25.5108 23.5142H27.5574C27.5973 23.5142 27.6371 23.5541 27.6371 23.6073C27.6371 23.6604 27.5973 23.7003 27.5574 23.7003H25.4975C25.4444 23.7003 25.4178 23.6604 25.4178 23.6073C25.4178 23.5541 25.4444 23.5142 25.4975 23.5142H25.5108ZM26.1753 22.1056H26.3348V22.2119H26.4544V22.1056H26.6271V22.2252H26.7467V22.0923H26.9062V22.3581C26.9062 22.4112 26.8796 22.4378 26.8398 22.4378H26.255C26.2152 22.4378 26.1753 22.4112 26.1753 22.3714V22.1056ZM26.7866 22.4644L26.8265 23.3149H26.255L26.2949 22.4511H26.7866" fill="#FFFF00"/>
<path d="M26.7866 22.4644L26.8265 23.3149H26.255L26.2949 22.4511H26.7866M26.2284 24.511C26.2284 24.0724 26.5341 23.9528 26.5341 23.9528C26.5341 23.9528 26.8398 24.0857 26.8398 24.511H26.2284ZM25.4577 23.3149H27.6238C27.6637 23.3149 27.7036 23.3681 27.7036 23.4212C27.7036 23.4611 27.6637 23.501 27.6238 23.501H25.4577C25.4178 23.501 25.3779 23.4611 25.3779 23.4079C25.3779 23.3681 25.4178 23.3282 25.4577 23.3282V23.3149ZM25.5108 23.5142H27.5574C27.5973 23.5142 27.6371 23.5541 27.6371 23.6073C27.6371 23.6604 27.5973 23.7003 27.5574 23.7003H25.4975C25.4444 23.7003 25.4178 23.6604 25.4178 23.6073C25.4178 23.5541 25.4444 23.5142 25.4975 23.5142H25.5108ZM26.1753 22.1056H26.3348V22.2119H26.4544V22.1056H26.6271V22.2252H26.7467V22.0923H26.9062V22.3581C26.9062 22.4112 26.8796 22.4378 26.8398 22.4378H26.255C26.2152 22.4378 26.1753 22.4112 26.1753 22.3714V22.1056Z" stroke="black" stroke-width="0.0557709"/>
<path d="M26.096 22.8633V23.3151H25.5645V22.8633H26.096Z" fill="#FFFF00" stroke="black" stroke-width="0.0557709"/>
<path d="M27.5042 22.8633V23.3151H26.9727V22.8633H27.5042Z" fill="#FFFF00" stroke="black" stroke-width="0.0557709"/>
<path d="M25.4707 22.5176H25.6302V22.6505H25.7498V22.5176H25.9093V22.6505H26.0289V22.5176H26.1883V22.7834C26.1883 22.8365 26.1617 22.8631 26.1219 22.8631H25.5504C25.5293 22.8631 25.509 22.8547 25.4941 22.8397C25.4791 22.8248 25.4707 22.8045 25.4707 22.7834V22.5176Z" fill="#FFFF00" stroke="black" stroke-width="0.0557709"/>
<path d="M26.8799 22.5176H27.0394V22.6505H27.159V22.5176H27.3184V22.6505H27.438V22.5176H27.5975V22.7834C27.5975 22.8365 27.5709 22.8631 27.5311 22.8631H26.9596C26.9385 22.8631 26.9182 22.8547 26.9032 22.8397C26.8883 22.8248 26.8799 22.8045 26.8799 22.7834V22.5176Z" fill="#FFFF00" stroke="black" stroke-width="0.0557709"/>
<path d="M26.4805 22.73C26.4805 22.6512 26.5986 22.6512 26.5986 22.73V22.9399H26.4805V22.73Z" fill="black"/>
<path d="M25.7764 23.0216C25.7764 22.9427 25.8816 22.9427 25.8816 23.0216V23.1795H25.7764V23.0216Z" fill="black"/>
<path d="M27.1855 23.0216C27.1855 22.9427 27.2908 22.9427 27.2908 23.0216V23.1795H27.1855V23.0216Z" fill="black"/>
<path d="M25.9893 30.7167C26.0025 29.9857 26.5208 29.813 26.5208 29.813C26.5341 29.813 27.0923 29.999 27.0923 30.73H25.9893" fill="#FFFF00"/>
<path d="M25.5378 29.8263L25.4448 30.6635H26.003C26.003 29.9725 26.5345 29.8661 26.5345 29.8661C26.5478 29.8661 27.0661 30.0123 27.0794 30.6635H27.6375L27.5312 29.813H25.5378V29.8263ZM25.4049 30.6768H27.6641C27.704 30.6768 27.7439 30.7167 27.7439 30.7698C27.7439 30.8363 27.704 30.8761 27.6641 30.8761H25.4049C25.3651 30.8761 25.3252 30.8363 25.3252 30.7698C25.3252 30.7167 25.3651 30.6768 25.4182 30.6768H25.4049Z" fill="#FFFF00" stroke="black" stroke-width="0.0557709"/>
<path d="M26.2284 30.6638C26.2284 30.2252 26.5341 30.1056 26.5341 30.1056C26.5341 30.1056 26.8398 30.2385 26.8398 30.6638H26.2284ZM25.4577 29.4677H27.6238C27.6637 29.4677 27.7036 29.5209 27.7036 29.5741C27.7036 29.6139 27.6637 29.6538 27.6238 29.6538H25.4577C25.4178 29.6538 25.3779 29.6139 25.3779 29.5608C25.3779 29.5209 25.4178 29.481 25.4577 29.481V29.4677ZM25.5108 29.6671H27.5574C27.5973 29.6671 27.6371 29.7069 27.6371 29.7601C27.6371 29.8133 27.5973 29.8531 27.5574 29.8531H25.4975C25.4444 29.8531 25.4178 29.8133 25.4178 29.7601C25.4178 29.7069 25.4444 29.6671 25.4975 29.6671H25.5108ZM26.1753 28.2584H26.3348V28.3647H26.4544V28.2584H26.6271V28.378H26.7467V28.2451H26.9062V28.5109C26.9062 28.5641 26.8796 28.5906 26.8398 28.5906H26.255C26.2152 28.5906 26.1753 28.5641 26.1753 28.5242V28.2584ZM26.7866 28.6172L26.8265 29.4677H26.255L26.2949 28.6039H26.7866" fill="#FFFF00"/>
<path d="M26.7866 28.6172L26.8265 29.4677H26.255L26.2949 28.6039H26.7866M26.2284 30.6638C26.2284 30.2252 26.5341 30.1056 26.5341 30.1056C26.5341 30.1056 26.8398 30.2385 26.8398 30.6638H26.2284ZM25.4577 29.4677H27.6238C27.6637 29.4677 27.7036 29.5209 27.7036 29.5741C27.7036 29.6139 27.6637 29.6538 27.6238 29.6538H25.4577C25.4178 29.6538 25.3779 29.6139 25.3779 29.5608C25.3779 29.5209 25.4178 29.481 25.4577 29.481V29.4677ZM25.5108 29.6671H27.5574C27.5973 29.6671 27.6371 29.7069 27.6371 29.7601C27.6371 29.8133 27.5973 29.8531 27.5574 29.8531H25.4975C25.4444 29.8531 25.4178 29.8133 25.4178 29.7601C25.4178 29.7069 25.4444 29.6671 25.4975 29.6671H25.5108ZM26.1753 28.2584H26.3348V28.3647H26.4544V28.2584H26.6271V28.378H26.7467V28.2451H26.9062V28.5109C26.9062 28.5641 26.8796 28.5906 26.8398 28.5906H26.255C26.2152 28.5906 26.1753 28.5641 26.1753 28.5242V28.2584Z" stroke="black" stroke-width="0.0557709"/>
<path d="M26.096 29.0161V29.468H25.5645V29.0161H26.096Z" fill="#FFFF00" stroke="black" stroke-width="0.0557709"/>
<path d="M27.5042 29.0161V29.468H26.9727V29.0161H27.5042Z" fill="#FFFF00" stroke="black" stroke-width="0.0557709"/>
<path d="M25.4707 28.6709H25.6302V28.8038H25.7498V28.6709H25.9093V28.8038H26.0289V28.6709H26.1883V28.9367C26.1883 28.9898 26.1617 29.0164 26.1219 29.0164H25.5504C25.5293 29.0164 25.509 29.008 25.4941 28.9931C25.4791 28.9781 25.4707 28.9578 25.4707 28.9367V28.6709Z" fill="#FFFF00" stroke="black" stroke-width="0.0557709"/>
<path d="M26.8799 28.6709H27.0394V28.8038H27.159V28.6709H27.3184V28.8038H27.438V28.6709H27.5975V28.9367C27.5975 28.9898 27.5709 29.0164 27.5311 29.0164H26.9596C26.9385 29.0164 26.9182 29.008 26.9032 28.9931C26.8883 28.9781 26.8799 28.9578 26.8799 28.9367V28.6709Z" fill="#FFFF00" stroke="black" stroke-width="0.0557709"/>
<path d="M26.4805 28.8823C26.4805 28.8036 26.5986 28.8036 26.5986 28.8823V29.0923H26.4805V28.8823Z" fill="black"/>
<path d="M25.7764 29.1754C25.7764 29.0965 25.8816 29.0965 25.8816 29.1754V29.3333H25.7764V29.1754Z" fill="black"/>
<path d="M27.1855 29.1754C27.1855 29.0965 27.2908 29.0965 27.2908 29.1754V29.3333H27.1855V29.1754Z" fill="black"/>
<path d="M28.3883 37.1299C27.879 36.6055 28.1216 36.116 28.1216 36.116C28.131 36.1065 28.6563 35.8416 29.1749 36.3566L28.3977 37.1393" fill="#FFFF00"/>
<path d="M27.4376 36.8228L27.9661 37.4788L28.3594 37.0827C27.869 36.5958 28.1682 36.1437 28.1682 36.1437C28.1775 36.1343 28.6465 35.8695 29.1179 36.3189L29.5112 35.9229L28.8328 35.399L27.4281 36.8135L27.4376 36.8228ZM27.9474 37.5164L29.5393 35.9134C29.5674 35.8851 29.6238 35.8849 29.6615 35.9224C29.7087 35.9692 29.7089 36.0256 29.6808 36.0539L28.0889 37.6569C28.0608 37.6852 28.0044 37.6854 27.9573 37.6386C27.9195 37.6011 27.9193 37.5447 27.9568 37.507L27.9474 37.5164Z" fill="#FFFF00" stroke="black" stroke-width="0.0557709"/>
<path d="M28.5186 36.923C28.2075 36.614 28.338 36.3129 28.338 36.3129C28.338 36.3129 28.6476 36.1896 28.9494 36.4893L28.5186 36.923ZM27.1268 36.6272L28.6532 35.0901C28.6813 35.0619 28.7471 35.071 28.7848 35.1085C28.8131 35.1366 28.8133 35.1929 28.7852 35.2212L27.2589 36.7583C27.2308 36.7866 27.1744 36.7868 27.1367 36.7493C27.1084 36.7212 27.1082 36.6648 27.1363 36.6366L27.1268 36.6272ZM27.3057 36.7299L28.7478 35.2778C28.7759 35.2495 28.8323 35.2493 28.87 35.2867C28.9077 35.3242 28.9079 35.3806 28.8798 35.4088L27.4284 36.8705C27.3909 36.9082 27.3439 36.8989 27.3062 36.8615C27.2685 36.824 27.2589 36.7771 27.2964 36.7394L27.3057 36.7299ZM26.7744 35.2658L26.8868 35.1527L26.9622 35.2276L27.0465 35.1427L26.971 35.0678L27.0928 34.9452L27.1777 35.0295L27.2619 34.9446L27.1676 34.851L27.28 34.7378L27.4686 34.9251C27.5063 34.9626 27.5064 35.0002 27.4784 35.0285L27.0663 35.4434C27.0382 35.4717 26.9913 35.4812 26.963 35.4531L26.7744 35.2658ZM27.4598 35.0849L28.0914 35.6559L27.6887 36.0614L27.1039 35.4244L27.4503 35.0755" fill="#FFFF00"/>
<path d="M27.4598 35.0849L28.0914 35.6559L27.6887 36.0614L27.1039 35.4244L27.4503 35.0755M28.5186 36.923C28.2075 36.614 28.338 36.3129 28.338 36.3129C28.338 36.3129 28.6476 36.1896 28.9494 36.4893L28.5186 36.923ZM27.1268 36.6272L28.6532 35.0901C28.6813 35.0619 28.7471 35.071 28.7848 35.1085C28.8131 35.1366 28.8133 35.1929 28.7852 35.2212L27.2589 36.7583C27.2308 36.7866 27.1744 36.7868 27.1367 36.7493C27.1084 36.7212 27.1082 36.6648 27.1363 36.6366L27.1268 36.6272ZM27.3057 36.7299L28.7478 35.2778C28.7759 35.2495 28.8323 35.2493 28.87 35.2867C28.9077 35.3242 28.9079 35.3806 28.8798 35.4088L27.4284 36.8705C27.3909 36.9082 27.3439 36.8989 27.3062 36.8615C27.2685 36.824 27.2589 36.7771 27.2964 36.7394L27.3057 36.7299ZM26.7744 35.2658L26.8868 35.1527L26.9622 35.2276L27.0465 35.1427L26.971 35.0678L27.0928 34.9452L27.1777 35.0295L27.2619 34.9446L27.1676 34.851L27.28 34.7378L27.4686 34.9251C27.5063 34.9626 27.5064 35.0002 27.4784 35.0285L27.0663 35.4434C27.0382 35.4717 26.9913 35.4812 26.963 35.4531L26.7744 35.2658Z" stroke="black" stroke-width="0.0557709"/>
<path d="M27.2554 35.8562L27.576 36.1746L27.2015 36.5518L26.8809 36.2334L27.2554 35.8562Z" fill="#FFFF00" stroke="black" stroke-width="0.0557709"/>
<path d="M28.2486 34.8562L28.5692 35.1746L28.1946 35.5518L27.874 35.2334L28.2486 34.8562Z" fill="#FFFF00" stroke="black" stroke-width="0.0557709"/>
<path d="M26.5703 36.0557L26.6827 35.9425L26.777 36.0361L26.8613 35.9513L26.767 35.8576L26.8793 35.7445L26.9736 35.8381L27.0579 35.7533L26.9636 35.6596L27.076 35.5465L27.2646 35.7337C27.3023 35.7712 27.3024 35.8088 27.2743 35.8371L26.8717 36.2426C26.8568 36.2576 26.8365 36.266 26.8154 36.2661C26.7942 36.2662 26.7739 36.2578 26.7589 36.2429L26.5703 36.0557Z" fill="#FFFF00" stroke="black" stroke-width="0.0557709"/>
<path d="M27.5635 35.0562L27.6758 34.943L27.7701 35.0366L27.8544 34.9518L27.7601 34.8581L27.8725 34.745L27.9668 34.8386L28.0511 34.7537L27.9568 34.6601L28.0691 34.5469L28.2577 34.7342C28.2955 34.7717 28.2956 34.8093 28.2675 34.8376L27.8648 35.243C27.8499 35.258 27.8297 35.2665 27.8085 35.2666C27.7874 35.2667 27.7671 35.2583 27.7521 35.2434L27.5635 35.0562Z" fill="#FFFF00" stroke="black" stroke-width="0.0557709"/>
<path d="M27.4325 35.4884C27.3767 35.4329 27.4599 35.3491 27.5158 35.4046L27.6648 35.5525L27.5815 35.6364L27.4325 35.4884Z" fill="black"/>
<path d="M27.1436 36.1941C27.0876 36.1384 27.1617 36.0638 27.2177 36.1194L27.3297 36.2306L27.2556 36.3053L27.1436 36.1941Z" fill="black"/>
<path d="M28.1358 35.1945C28.0797 35.1389 28.1539 35.0643 28.2099 35.1199L28.3219 35.2311L28.2478 35.3058L28.1358 35.1945Z" fill="black"/>
<path d="M32.0625 24.5643C32.0758 23.8334 32.5941 23.6606 32.5941 23.6606C32.6074 23.6606 33.1655 23.8467 33.1655 24.5776H32.0625" fill="#FFFF00"/>
<path d="M31.6111 23.6739L31.518 24.5112H32.0762C32.0762 23.8201 32.6078 23.7138 32.6078 23.7138C32.6211 23.7138 33.1393 23.86 33.1526 24.5112H33.7108L33.6045 23.6606H31.6111V23.6739ZM31.4782 24.5245H33.7374C33.7772 24.5245 33.8171 24.5643 33.8171 24.6175C33.8171 24.6839 33.7772 24.7238 33.7374 24.7238H31.4782C31.4383 24.7238 31.3984 24.6839 31.3984 24.6175C31.3984 24.5643 31.4383 24.5245 31.4915 24.5245H31.4782Z" fill="#FFFF00" stroke="black" stroke-width="0.0557709"/>
<path d="M32.3007 24.511C32.3007 24.0724 32.6064 23.9528 32.6064 23.9528C32.6064 23.9528 32.912 24.0857 32.912 24.511H32.3007ZM31.5299 23.3149H33.6961C33.736 23.3149 33.7758 23.3681 33.7758 23.4212C33.7758 23.4611 33.736 23.501 33.6961 23.501H31.5299C31.4901 23.501 31.4502 23.4611 31.4502 23.4079C31.4502 23.3681 31.4901 23.3282 31.5299 23.3282V23.3149ZM31.5831 23.5142H33.6296C33.6695 23.5142 33.7094 23.5541 33.7094 23.6073C33.7094 23.6604 33.6695 23.7003 33.6296 23.7003H31.5698C31.5166 23.7003 31.4901 23.6604 31.4901 23.6073C31.4901 23.5541 31.5166 23.5142 31.5698 23.5142H31.5831ZM32.2476 22.1056H32.407V22.2119H32.5266V22.1056H32.6994V22.2252H32.819V22.0923H32.9785V22.3581C32.9785 22.4112 32.9519 22.4378 32.912 22.4378H32.3273C32.2874 22.4378 32.2476 22.4112 32.2476 22.3714V22.1056ZM32.8589 22.4644L32.8987 23.3149H32.3273L32.3672 22.4511H32.8589" fill="#FFFF00"/>
<path d="M32.8589 22.4644L32.8987 23.3149H32.3273L32.3672 22.4511H32.8589M32.3007 24.511C32.3007 24.0724 32.6064 23.9528 32.6064 23.9528C32.6064 23.9528 32.912 24.0857 32.912 24.511H32.3007ZM31.5299 23.3149H33.6961C33.736 23.3149 33.7758 23.3681 33.7758 23.4212C33.7758 23.4611 33.736 23.501 33.6961 23.501H31.5299C31.4901 23.501 31.4502 23.4611 31.4502 23.4079C31.4502 23.3681 31.4901 23.3282 31.5299 23.3282V23.3149ZM31.5831 23.5142H33.6296C33.6695 23.5142 33.7094 23.5541 33.7094 23.6073C33.7094 23.6604 33.6695 23.7003 33.6296 23.7003H31.5698C31.5166 23.7003 31.4901 23.6604 31.4901 23.6073C31.4901 23.5541 31.5166 23.5142 31.5698 23.5142H31.5831ZM32.2476 22.1056H32.407V22.2119H32.5266V22.1056H32.6994V22.2252H32.819V22.0923H32.9785V22.3581C32.9785 22.4112 32.9519 22.4378 32.912 22.4378H32.3273C32.2874 22.4378 32.2476 22.4112 32.2476 22.3714V22.1056Z" stroke="black" stroke-width="0.0557709"/>
<path d="M32.1693 22.8633V23.3151H31.6377V22.8633H32.1693Z" fill="#FFFF00" stroke="black" stroke-width="0.0557709"/>
<path d="M33.5775 22.8633V23.3151H33.0459V22.8633H33.5775Z" fill="#FFFF00" stroke="black" stroke-width="0.0557709"/>
<path d="M31.5449 22.5176H31.7044V22.6505H31.824V22.5176H31.9835V22.6505H32.1031V22.5176H32.2625V22.7834C32.2625 22.8365 32.236 22.8631 32.1961 22.8631H31.6247C31.6035 22.8631 31.5832 22.8547 31.5683 22.8397C31.5533 22.8248 31.5449 22.8045 31.5449 22.7834V22.5176Z" fill="#FFFF00" stroke="black" stroke-width="0.0557709"/>
<path d="M32.9531 22.5176H33.1126V22.6505H33.2322V22.5176H33.3917V22.6505H33.5113V22.5176H33.6708V22.7834C33.6708 22.8365 33.6442 22.8631 33.6043 22.8631H33.0329C33.0117 22.8631 32.9914 22.8547 32.9765 22.8397C32.9615 22.8248 32.9531 22.8045 32.9531 22.7834V22.5176Z" fill="#FFFF00" stroke="black" stroke-width="0.0557709"/>
<path d="M32.5547 22.73C32.5547 22.6512 32.6728 22.6512 32.6728 22.73V22.9399H32.5547V22.73Z" fill="black"/>
<path d="M31.8496 23.0216C31.8496 22.9427 31.9548 22.9427 31.9548 23.0216V23.1795H31.8496V23.0216Z" fill="black"/>
<path d="M33.2588 23.0216C33.2588 22.9427 33.364 22.9427 33.364 23.0216V23.1795H33.2588V23.0216Z" fill="black"/>
<path d="M39.1992 24.5643C39.1859 23.8334 38.6676 23.6606 38.6676 23.6606C38.6544 23.6606 38.0962 23.8467 38.0962 24.5776H39.1992" fill="#FFFF00"/>
<path d="M39.6507 23.6739L39.7437 24.5112H39.1855C39.1855 23.8201 38.6539 23.7138 38.6539 23.7138C38.6407 23.7138 38.1224 23.86 38.1091 24.5112H37.5509L37.6572 23.6606H39.6507V23.6739ZM39.7835 24.5245H37.5244C37.4845 24.5245 37.4446 24.5643 37.4446 24.6175C37.4446 24.6839 37.4845 24.7238 37.5244 24.7238H39.7835C39.8234 24.7238 39.8633 24.6839 39.8633 24.6175C39.8633 24.5643 39.8234 24.5245 39.7703 24.5245H39.7835Z" fill="#FFFF00" stroke="black" stroke-width="0.0557709"/>
<path d="M38.96 24.511C38.96 24.0724 38.6544 23.9528 38.6544 23.9528C38.6544 23.9528 38.3487 24.0857 38.3487 24.511H38.96ZM39.7308 23.3149H37.5646C37.5248 23.3149 37.4849 23.3681 37.4849 23.4212C37.4849 23.4611 37.5248 23.501 37.5646 23.501H39.7308C39.7707 23.501 39.8105 23.4611 39.8105 23.4079C39.8105 23.3681 39.7707 23.3282 39.7308 23.3282V23.3149ZM39.6777 23.5142H37.6311C37.5912 23.5142 37.5514 23.5541 37.5514 23.6073C37.5514 23.6604 37.5912 23.7003 37.6311 23.7003H39.6909C39.7441 23.7003 39.7707 23.6604 39.7707 23.6073C39.7707 23.5541 39.7441 23.5142 39.6909 23.5142H39.6777ZM39.0132 22.1056H38.8537V22.2119H38.7341V22.1056H38.5613V22.2252H38.4417V22.0923H38.2823V22.3581C38.2823 22.4112 38.3088 22.4378 38.3487 22.4378H38.9335C38.9733 22.4378 39.0132 22.4112 39.0132 22.3714V22.1056ZM38.4019 22.4644L38.362 23.3149H38.9335L38.8936 22.4511H38.4019" fill="#FFFF00"/>
<path d="M38.4019 22.4644L38.362 23.3149H38.9335L38.8936 22.4511H38.4019M38.96 24.511C38.96 24.0724 38.6544 23.9528 38.6544 23.9528C38.6544 23.9528 38.3487 24.0857 38.3487 24.511H38.96ZM39.7308 23.3149H37.5646C37.5248 23.3149 37.4849 23.3681 37.4849 23.4212C37.4849 23.4611 37.5248 23.501 37.5646 23.501H39.7308C39.7707 23.501 39.8105 23.4611 39.8105 23.4079C39.8105 23.3681 39.7707 23.3282 39.7308 23.3282V23.3149ZM39.6777 23.5142H37.6311C37.5912 23.5142 37.5514 23.5541 37.5514 23.6073C37.5514 23.6604 37.5912 23.7003 37.6311 23.7003H39.6909C39.7441 23.7003 39.7707 23.6604 39.7707 23.6073C39.7707 23.5541 39.7441 23.5142 39.6909 23.5142H39.6777ZM39.0132 22.1056H38.8537V22.2119H38.7341V22.1056H38.5613V22.2252H38.4417V22.0923H38.2823V22.3581C38.2823 22.4112 38.3088 22.4378 38.3487 22.4378H38.9335C38.9733 22.4378 39.0132 22.4112 39.0132 22.3714V22.1056Z" stroke="black" stroke-width="0.0557709"/>
<path d="M39.0924 22.8633V23.3151H39.624V22.8633H39.0924Z" fill="#FFFF00" stroke="black" stroke-width="0.0557709"/>
<path d="M37.6833 22.8633V23.3151H38.2148V22.8633H37.6833Z" fill="#FFFF00" stroke="black" stroke-width="0.0557709"/>
<path d="M39.7178 22.5176H39.5583V22.6505H39.4387V22.5176H39.2792V22.6505H39.1596V22.5176H39.0001V22.7834C39.0001 22.8365 39.0267 22.8631 39.0666 22.8631H39.638C39.6592 22.8631 39.6795 22.8547 39.6944 22.8397C39.7094 22.8248 39.7178 22.8045 39.7178 22.7834V22.5176Z" fill="#FFFF00" stroke="black" stroke-width="0.0557709"/>
<path d="M38.3086 22.5176H38.1491V22.6505H38.0295V22.5176H37.87V22.6505H37.7504V22.5176H37.591V22.7834C37.591 22.8365 37.6175 22.8631 37.6574 22.8631H38.2289C38.25 22.8631 38.2703 22.8547 38.2852 22.8397C38.3002 22.8248 38.3086 22.8045 38.3086 22.7834V22.5176Z" fill="#FFFF00" stroke="black" stroke-width="0.0557709"/>
<path d="M38.707 22.73C38.707 22.6512 38.5889 22.6512 38.5889 22.73V22.9399H38.707V22.73Z" fill="black"/>
<path d="M39.4121 23.0216C39.4121 22.9427 39.3069 22.9427 39.3069 23.0216V23.1795H39.4121V23.0216Z" fill="black"/>
<path d="M38.0029 23.0216C38.0029 22.9427 37.8977 22.9427 37.8977 23.0216V23.1795H38.0029V23.0216Z" fill="black"/>
<path d="M39.1982 30.7167C39.185 29.9857 38.6667 29.813 38.6667 29.813C38.6534 29.813 38.0952 29.999 38.0952 30.73H39.1982" fill="#FFFF00"/>
<path d="M39.6497 29.8263L39.7427 30.6635H39.1845C39.1845 29.9725 38.653 29.8661 38.653 29.8661C38.6397 29.8661 38.1214 30.0123 38.1081 30.6635H37.55L37.6563 29.813H39.6497V29.8263ZM39.7826 30.6768H37.5234C37.4835 30.6768 37.4436 30.7167 37.4436 30.7698C37.4436 30.8363 37.4835 30.8761 37.5234 30.8761H39.7826C39.8224 30.8761 39.8623 30.8363 39.8623 30.7698C39.8623 30.7167 39.8224 30.6768 39.7693 30.6768H39.7826Z" fill="#FFFF00" stroke="black" stroke-width="0.0557709"/>
<path d="M38.9591 30.6638C38.9591 30.2252 38.6534 30.1056 38.6534 30.1056C38.6534 30.1056 38.3477 30.2385 38.3477 30.6638H38.9591ZM39.7298 29.4677H37.5637C37.5238 29.4677 37.4839 29.5209 37.4839 29.5741C37.4839 29.6139 37.5238 29.6538 37.5637 29.6538H39.7298C39.7697 29.6538 39.8096 29.6139 39.8096 29.5608C39.8096 29.5209 39.7697 29.481 39.7298 29.481V29.4677ZM39.6767 29.6671H37.6301C37.5902 29.6671 37.5504 29.7069 37.5504 29.7601C37.5504 29.8133 37.5902 29.8531 37.6301 29.8531H39.69C39.7431 29.8531 39.7697 29.8133 39.7697 29.7601C39.7697 29.7069 39.7431 29.6671 39.69 29.6671H39.6767ZM39.0122 28.2584H38.8527V28.3647H38.7331V28.2584H38.5604V28.378H38.4408V28.2451H38.2813V28.5109C38.2813 28.5641 38.3079 28.5906 38.3477 28.5906H38.9325C38.9723 28.5906 39.0122 28.5641 39.0122 28.5242V28.2584ZM38.4009 28.6172L38.361 29.4677H38.9325L38.8926 28.6039H38.4009" fill="#FFFF00"/>
<path d="M38.4009 28.6172L38.361 29.4677H38.9325L38.8926 28.6039H38.4009M38.9591 30.6638C38.9591 30.2252 38.6534 30.1056 38.6534 30.1056C38.6534 30.1056 38.3477 30.2385 38.3477 30.6638H38.9591ZM39.7298 29.4677H37.5637C37.5238 29.4677 37.4839 29.5209 37.4839 29.5741C37.4839 29.6139 37.5238 29.6538 37.5637 29.6538H39.7298C39.7697 29.6538 39.8096 29.6139 39.8096 29.5608C39.8096 29.5209 39.7697 29.481 39.7298 29.481V29.4677ZM39.6767 29.6671H37.6301C37.5902 29.6671 37.5504 29.7069 37.5504 29.7601C37.5504 29.8133 37.5902 29.8531 37.6301 29.8531H39.69C39.7431 29.8531 39.7697 29.8133 39.7697 29.7601C39.7697 29.7069 39.7431 29.6671 39.69 29.6671H39.6767ZM39.0122 28.2584H38.8527V28.3647H38.7331V28.2584H38.5604V28.378H38.4408V28.2451H38.2813V28.5109C38.2813 28.5641 38.3079 28.5906 38.3477 28.5906H38.9325C38.9723 28.5906 39.0122 28.5641 39.0122 28.5242V28.2584Z" stroke="black" stroke-width="0.0557709"/>
<path d="M39.0915 29.0161V29.468H39.623V29.0161H39.0915Z" fill="#FFFF00" stroke="black" stroke-width="0.0557709"/>
<path d="M37.6833 29.0161V29.468H38.2148V29.0161H37.6833Z" fill="#FFFF00" stroke="black" stroke-width="0.0557709"/>
<path d="M39.7168 28.6709H39.5573V28.8038H39.4377V28.6709H39.2782V28.8038H39.1586V28.6709H38.9992V28.9367C38.9992 28.9898 39.0257 29.0164 39.0656 29.0164H39.6371C39.6582 29.0164 39.6785 29.008 39.6934 28.9931C39.7084 28.9781 39.7168 28.9578 39.7168 28.9367V28.6709Z" fill="#FFFF00" stroke="black" stroke-width="0.0557709"/>
<path d="M38.3076 28.6709H38.1481V28.8038H38.0285V28.6709H37.8691V28.8038H37.7495V28.6709H37.59V28.9367C37.59 28.9898 37.6166 29.0164 37.6564 29.0164H38.2279C38.249 29.0164 38.2693 29.008 38.2843 28.9931C38.2992 28.9781 38.3076 28.9578 38.3076 28.9367V28.6709Z" fill="#FFFF00" stroke="black" stroke-width="0.0557709"/>
<path d="M38.7061 28.8823C38.7061 28.8036 38.5879 28.8036 38.5879 28.8823V29.0923H38.7061V28.8823Z" fill="black"/>
<path d="M39.4111 29.1754C39.4111 29.0965 39.3059 29.0965 39.3059 29.1754V29.3333H39.4111V29.1754Z" fill="black"/>
<path d="M38.002 29.1754C38.002 29.0965 37.8967 29.0965 37.8967 29.1754V29.3333H38.002V29.1754Z" fill="black"/>
<path d="M36.8002 37.1294C37.3095 36.605 37.0668 36.1155 37.0668 36.1155C37.0575 36.1061 36.5322 35.8411 36.0135 36.3561L36.7908 37.1388" fill="#FFFF00"/>
<path d="M37.7509 36.8224L37.2224 37.4783L36.8291 37.0823C37.3194 36.5953 37.0203 36.1432 37.0203 36.1432C37.0109 36.1338 36.542 35.869 36.0706 36.3184L35.6773 35.9224L36.3557 35.3985L37.7603 36.813L37.7509 36.8224ZM37.241 37.516L35.6491 35.9129C35.621 35.8846 35.5647 35.8844 35.5269 35.9219C35.4798 35.9687 35.4796 36.0251 35.5077 36.0534L37.0996 37.6564C37.1277 37.6847 37.1841 37.6849 37.2312 37.6381C37.2689 37.6006 37.2691 37.5442 37.2317 37.5065L37.241 37.516Z" fill="#FFFF00" stroke="black" stroke-width="0.0557709"/>
<path d="M36.6698 36.9225C36.981 36.6135 36.8505 36.3124 36.8505 36.3124C36.8505 36.3124 36.5408 36.1891 36.2391 36.4888L36.6698 36.9225ZM38.0616 36.6267L36.5353 35.0897C36.5072 35.0614 36.4414 35.0705 36.4037 35.108C36.3754 35.1361 36.3752 35.1925 36.4033 35.2207L37.9296 36.7578C37.9577 36.7861 38.0141 36.7863 38.0518 36.7488C38.0801 36.7207 38.0803 36.6644 38.0522 36.6361L38.0616 36.6267ZM37.8827 36.7294L36.4407 35.2773C36.4126 35.249 36.3562 35.2488 36.3185 35.2862C36.2807 35.3237 36.2805 35.3801 36.3086 35.4084L37.7601 36.87C37.7975 36.9077 37.8446 36.8985 37.8823 36.861C37.92 36.8235 37.9295 36.7766 37.8921 36.7389L37.8827 36.7294ZM38.4141 35.2654L38.3017 35.1522L38.2263 35.2271L38.142 35.1422L38.2174 35.0673L38.0957 34.9447L38.0108 35.029L37.9265 34.9442L38.0208 34.8505L37.9085 34.7374L37.7199 34.9246C37.6822 34.9621 37.682 34.9997 37.7101 35.028L38.1221 35.4429C38.1502 35.4712 38.1972 35.4807 38.2255 35.4526L38.4141 35.2654ZM37.7287 35.0844L37.0971 35.6554L37.4998 36.0609L38.0846 35.424L37.7382 35.0751" fill="#FFFF00"/>
<path d="M37.7287 35.0844L37.0971 35.6554L37.4998 36.0609L38.0846 35.424L37.7382 35.0751M36.6698 36.9225C36.981 36.6135 36.8505 36.3124 36.8505 36.3124C36.8505 36.3124 36.5408 36.1891 36.2391 36.4888L36.6698 36.9225ZM38.0616 36.6267L36.5353 35.0897C36.5072 35.0614 36.4414 35.0705 36.4037 35.108C36.3754 35.1361 36.3752 35.1925 36.4033 35.2207L37.9296 36.7578C37.9577 36.7861 38.0141 36.7863 38.0518 36.7488C38.0801 36.7207 38.0803 36.6644 38.0522 36.6361L38.0616 36.6267ZM37.8827 36.7294L36.4407 35.2773C36.4126 35.249 36.3562 35.2488 36.3185 35.2862C36.2807 35.3237 36.2805 35.3801 36.3086 35.4084L37.7601 36.87C37.7975 36.9077 37.8446 36.8985 37.8823 36.861C37.92 36.8235 37.9295 36.7766 37.8921 36.7389L37.8827 36.7294ZM38.4141 35.2654L38.3017 35.1522L38.2263 35.2271L38.142 35.1422L38.2174 35.0673L38.0957 34.9447L38.0108 35.029L37.9265 34.9442L38.0208 34.8505L37.9085 34.7374L37.7199 34.9246C37.6822 34.9621 37.682 34.9997 37.7101 35.028L38.1221 35.4429C38.1502 35.4712 38.1972 35.4807 38.2255 35.4526L38.4141 35.2654Z" stroke="black" stroke-width="0.0557709"/>
<path d="M37.9331 35.8557L37.6124 36.1741L37.987 36.5513L38.3076 36.2329L37.9331 35.8557Z" fill="#FFFF00" stroke="black" stroke-width="0.0557709"/>
<path d="M36.9399 34.8562L36.6193 35.1746L36.9938 35.5518L37.3145 35.2334L36.9399 34.8562Z" fill="#FFFF00" stroke="black" stroke-width="0.0557709"/>
<path d="M38.6172 36.0557L38.5048 35.9425L38.4105 36.0361L38.3262 35.9513L38.4205 35.8576L38.3082 35.7445L38.2139 35.8381L38.1296 35.7533L38.2239 35.6596L38.1115 35.5465L37.9229 35.7337C37.8852 35.7712 37.8851 35.8088 37.9132 35.8371L38.3158 36.2426C38.3307 36.2576 38.351 36.266 38.3721 36.2661C38.3933 36.2662 38.4136 36.2578 38.4286 36.2429L38.6172 36.0557Z" fill="#FFFF00" stroke="black" stroke-width="0.0557709"/>
<path d="M37.625 35.0557L37.5126 34.9425L37.4183 35.0361L37.3341 34.9513L37.4284 34.8576L37.316 34.7445L37.2217 34.8381L37.1374 34.7533L37.2317 34.6596L37.1193 34.5465L36.9307 34.7337C36.893 34.7712 36.8929 34.8088 36.921 34.8371L37.3236 35.2426C37.3385 35.2576 37.3588 35.266 37.3799 35.2661C37.4011 35.2662 37.4214 35.2578 37.4364 35.2429L37.625 35.0557Z" fill="#FFFF00" stroke="black" stroke-width="0.0557709"/>
<path d="M37.7559 35.4879C37.8118 35.4324 37.7286 35.3486 37.6727 35.4041L37.5237 35.5521L37.6069 35.6359L37.7559 35.4879Z" fill="black"/>
<path d="M38.0449 36.1936C38.1009 36.138 38.0268 36.0633 37.9708 36.1189L37.8588 36.2301L37.9329 36.3048L38.0449 36.1936Z" fill="black"/>
<path d="M37.0517 35.1941C37.1078 35.1384 37.0336 35.0638 36.9776 35.1194L36.8656 35.2306L36.9397 35.3053L37.0517 35.1941Z" fill="black"/>
<path d="M31.6241 30.9436C31.6217 31.224 31.7262 31.4949 31.9164 31.701C32.0052 31.8003 32.1137 31.8799 32.2349 31.9348C32.3562 31.9897 32.4876 32.0188 32.6208 32.02C32.8998 32.02 33.1523 31.8871 33.3251 31.701C33.5153 31.4949 33.6199 31.224 33.6175 30.9436V29.5083H31.6241V30.9436Z" fill="#003399"/>
<path d="M32.0884 30.2515C32.1982 30.2515 32.2872 30.1625 32.2872 30.0528C32.2872 29.943 32.1982 29.854 32.0884 29.854C31.9786 29.854 31.8896 29.943 31.8896 30.0528C31.8896 30.1625 31.9786 30.2515 32.0884 30.2515Z" fill="white"/>
<path d="M33.1919 30.2515C33.3017 30.2515 33.3907 30.1625 33.3907 30.0528C33.3907 29.943 33.3017 29.854 33.1919 29.854C33.0822 29.854 32.9932 29.943 32.9932 30.0528C32.9932 30.1625 33.0822 30.2515 33.1919 30.2515Z" fill="white"/>
<path d="M32.6333 30.7833C32.7431 30.7833 32.8321 30.6943 32.8321 30.5845C32.8321 30.4747 32.7431 30.3857 32.6333 30.3857C32.5236 30.3857 32.4346 30.4747 32.4346 30.5845C32.4346 30.6943 32.5236 30.7833 32.6333 30.7833Z" fill="white"/>
<path d="M32.0884 31.3414C32.1982 31.3414 32.2872 31.2524 32.2872 31.1426C32.2872 31.0328 32.1982 30.9438 32.0884 30.9438C31.9786 30.9438 31.8896 31.0328 31.8896 31.1426C31.8896 31.2524 31.9786 31.3414 32.0884 31.3414Z" fill="white"/>
<path d="M33.1919 31.3414C33.3017 31.3414 33.3907 31.2524 33.3907 31.1426C33.3907 31.0328 33.3017 30.9438 33.1919 30.9438C33.0822 30.9438 32.9932 31.0328 32.9932 31.1426C32.9932 31.2524 33.0822 31.3414 33.1919 31.3414Z" fill="white"/>
<path d="M31.6241 27.488C31.6217 27.7685 31.7262 28.0393 31.9164 28.2455C32.0052 28.3447 32.1137 28.4243 32.2349 28.4793C32.3562 28.5342 32.4876 28.5632 32.6208 28.5644C32.8998 28.5644 33.1523 28.4315 33.3251 28.2455C33.5153 28.0393 33.6199 27.7685 33.6175 27.488V26.0527H31.6241V27.488Z" fill="#003399"/>
<path d="M32.0884 26.796C32.1982 26.796 32.2872 26.707 32.2872 26.5972C32.2872 26.4874 32.1982 26.3984 32.0884 26.3984C31.9786 26.3984 31.8896 26.4874 31.8896 26.5972C31.8896 26.707 31.9786 26.796 32.0884 26.796Z" fill="white"/>
<path d="M33.1919 26.796C33.3017 26.796 33.3907 26.707 33.3907 26.5972C33.3907 26.4874 33.3017 26.3984 33.1919 26.3984C33.0822 26.3984 32.9932 26.4874 32.9932 26.5972C32.9932 26.707 33.0822 26.796 33.1919 26.796Z" fill="white"/>
<path d="M32.6333 27.3272C32.7431 27.3272 32.8321 27.2382 32.8321 27.1285C32.8321 27.0187 32.7431 26.9297 32.6333 26.9297C32.5236 26.9297 32.4346 27.0187 32.4346 27.1285C32.4346 27.2382 32.5236 27.3272 32.6333 27.3272Z" fill="white"/>
<path d="M32.0884 27.8853C32.1982 27.8853 32.2872 27.7963 32.2872 27.6866C32.2872 27.5768 32.1982 27.4878 32.0884 27.4878C31.9786 27.4878 31.8896 27.5768 31.8896 27.6866C31.8896 27.7963 31.9786 27.8853 32.0884 27.8853Z" fill="white"/>
<path d="M33.1919 27.8853C33.3017 27.8853 33.3907 27.7963 33.3907 27.6866C33.3907 27.5768 33.3017 27.4878 33.1919 27.4878C33.0822 27.4878 32.9932 27.5768 32.9932 27.6866C32.9932 27.7963 33.0822 27.8853 33.1919 27.8853Z" fill="white"/>
<path d="M28.8604 30.9436C28.858 31.224 28.9625 31.4949 29.1528 31.701C29.2415 31.8003 29.35 31.8799 29.4713 31.9348C29.5926 31.9897 29.724 32.0188 29.8571 32.02C30.1362 32.02 30.3887 31.8871 30.5614 31.701C30.7517 31.4949 30.8562 31.224 30.8538 30.9436V29.5083H28.8604V30.9436Z" fill="#003399"/>
<path d="M29.3247 30.2515C29.4345 30.2515 29.5235 30.1625 29.5235 30.0528C29.5235 29.943 29.4345 29.854 29.3247 29.854C29.215 29.854 29.126 29.943 29.126 30.0528C29.126 30.1625 29.215 30.2515 29.3247 30.2515Z" fill="white"/>
<path d="M30.4273 30.2515C30.5371 30.2515 30.6261 30.1625 30.6261 30.0528C30.6261 29.943 30.5371 29.854 30.4273 29.854C30.3175 29.854 30.2285 29.943 30.2285 30.0528C30.2285 30.1625 30.3175 30.2515 30.4273 30.2515Z" fill="white"/>
<path d="M29.8697 30.7833C29.9794 30.7833 30.0684 30.6943 30.0684 30.5845C30.0684 30.4747 29.9794 30.3857 29.8697 30.3857C29.7599 30.3857 29.6709 30.4747 29.6709 30.5845C29.6709 30.6943 29.7599 30.7833 29.8697 30.7833Z" fill="white"/>
<path d="M29.3247 31.3414C29.4345 31.3414 29.5235 31.2524 29.5235 31.1426C29.5235 31.0328 29.4345 30.9438 29.3247 30.9438C29.215 30.9438 29.126 31.0328 29.126 31.1426C29.126 31.2524 29.215 31.3414 29.3247 31.3414Z" fill="white"/>
<path d="M30.4273 31.3414C30.5371 31.3414 30.6261 31.2524 30.6261 31.1426C30.6261 31.0328 30.5371 30.9438 30.4273 30.9438C30.3175 30.9438 30.2285 31.0328 30.2285 31.1426C30.2285 31.2524 30.3175 31.3414 30.4273 31.3414Z" fill="white"/>
<path d="M34.3887 30.9436C34.3863 31.224 34.4909 31.4949 34.6811 31.701C34.7698 31.8003 34.8783 31.8799 34.9996 31.9348C35.1209 31.9897 35.2523 32.0188 35.3854 32.02C35.6645 32.02 35.917 31.8871 36.0898 31.701C36.28 31.4949 36.3845 31.224 36.3821 30.9436V29.5083H34.3887V30.9436Z" fill="#003399"/>
<path d="M34.8531 30.2515C34.9628 30.2515 35.0518 30.1625 35.0518 30.0528C35.0518 29.943 34.9628 29.854 34.8531 29.854C34.7433 29.854 34.6543 29.943 34.6543 30.0528C34.6543 30.1625 34.7433 30.2515 34.8531 30.2515Z" fill="white"/>
<path d="M35.9556 30.2515C36.0654 30.2515 36.1544 30.1625 36.1544 30.0528C36.1544 29.943 36.0654 29.854 35.9556 29.854C35.8458 29.854 35.7568 29.943 35.7568 30.0528C35.7568 30.1625 35.8458 30.2515 35.9556 30.2515Z" fill="white"/>
<path d="M35.398 30.7833C35.5078 30.7833 35.5968 30.6943 35.5968 30.5845C35.5968 30.4747 35.5078 30.3857 35.398 30.3857C35.2882 30.3857 35.1992 30.4747 35.1992 30.5845C35.1992 30.6943 35.2882 30.7833 35.398 30.7833Z" fill="white"/>
<path d="M34.8531 31.3414C34.9628 31.3414 35.0518 31.2524 35.0518 31.1426C35.0518 31.0328 34.9628 30.9438 34.8531 30.9438C34.7433 30.9438 34.6543 31.0328 34.6543 31.1426C34.6543 31.2524 34.7433 31.3414 34.8531 31.3414Z" fill="white"/>
<path d="M35.9556 31.3414C36.0654 31.3414 36.1544 31.2524 36.1544 31.1426C36.1544 31.0328 36.0654 30.9438 35.9556 30.9438C35.8458 30.9438 35.7568 31.0328 35.7568 31.1426C35.7568 31.2524 35.8458 31.3414 35.9556 31.3414Z" fill="white"/>
<path d="M31.6241 34.3718C31.6217 34.6523 31.7262 34.9231 31.9164 35.1293C32.0052 35.2285 32.1137 35.3081 32.2349 35.3631C32.3562 35.418 32.4876 35.447 32.6208 35.4482C32.8998 35.4482 33.1523 35.3153 33.3251 35.1293C33.5153 34.9231 33.6199 34.6523 33.6175 34.3718V32.9365H31.6241V34.3718Z" fill="#003399"/>
<path d="M32.0884 33.6798C32.1982 33.6798 32.2872 33.5908 32.2872 33.481C32.2872 33.3712 32.1982 33.2822 32.0884 33.2822C31.9786 33.2822 31.8896 33.3712 31.8896 33.481C31.8896 33.5908 31.9786 33.6798 32.0884 33.6798Z" fill="white"/>
<path d="M33.1919 33.6798C33.3017 33.6798 33.3907 33.5908 33.3907 33.481C33.3907 33.3712 33.3017 33.2822 33.1919 33.2822C33.0822 33.2822 32.9932 33.3712 32.9932 33.481C32.9932 33.5908 33.0822 33.6798 33.1919 33.6798Z" fill="white"/>
<path d="M32.6333 34.2115C32.7431 34.2115 32.8321 34.1225 32.8321 34.0127C32.8321 33.903 32.7431 33.814 32.6333 33.814C32.5236 33.814 32.4346 33.903 32.4346 34.0127C32.4346 34.1225 32.5236 34.2115 32.6333 34.2115Z" fill="white"/>
<path d="M32.0884 34.7691C32.1982 34.7691 32.2872 34.6801 32.2872 34.5703C32.2872 34.4606 32.1982 34.3716 32.0884 34.3716C31.9786 34.3716 31.8896 34.4606 31.8896 34.5703C31.8896 34.6801 31.9786 34.7691 32.0884 34.7691Z" fill="white"/>
<path d="M33.1919 34.7691C33.3017 34.7691 33.3907 34.6801 33.3907 34.5703C33.3907 34.4606 33.3017 34.3716 33.1919 34.3716C33.0822 34.3716 32.9932 34.4606 32.9932 34.5703C32.9932 34.6801 33.0822 34.7691 33.1919 34.7691Z" fill="white"/>
</g>
<defs>
<clipPath id="clip0_333_10908">
<rect width="79.736" height="59.802" fill="white" transform="translate(0.713867 0.719238)"/>
</clipPath>
</defs>
</svg>
