<svg width="81" height="60" viewBox="0 0 81 60" fill="none" xmlns="http://www.w3.org/2000/svg">
<g clip-path="url(#clip0_238_9713)">
<path fill-rule="evenodd" clip-rule="evenodd" d="M-4.26953 0.0283203H85.4334V59.8303H-4.26953V0.0283203Z" fill="#E70013"/>
<path fill-rule="evenodd" clip-rule="evenodd" d="M55.7419 29.9051C55.7419 33.9043 54.1533 37.7397 51.3254 40.5676C48.4975 43.3954 44.6621 44.9841 40.663 44.9841C36.6638 44.9841 32.8284 43.3954 30.0005 40.5676C27.1727 37.7397 25.584 33.9043 25.584 29.9051C25.584 25.906 27.1727 22.0706 30.0005 19.2427C32.8284 16.4148 36.6638 14.8262 40.663 14.8262C44.6621 14.8262 48.4975 16.4148 51.3254 19.2427C54.1533 22.0706 55.7419 25.906 55.7419 29.9051Z" fill="white"/>
<path fill-rule="evenodd" clip-rule="evenodd" d="M40.6631 39.903C38.069 39.8143 35.6108 38.7215 33.8071 36.8551C32.0033 34.9887 30.9951 32.4946 30.9951 29.899C30.9951 27.3034 32.0033 24.8093 33.8071 22.9429C35.6108 21.0765 38.069 19.9837 40.6631 19.895C42.0413 19.895 43.6181 20.2221 44.681 21.0046C37.3693 21.2733 35.5121 27.4871 35.5121 29.9866C35.5121 32.4861 36.6918 38.0575 44.681 38.8868C43.77 39.4708 42.0413 39.903 40.6631 39.903Z" fill="#E70013"/>
<path fill-rule="evenodd" clip-rule="evenodd" d="M49.4704 34.1106L44.9268 32.452L41.925 36.2364L42.1002 31.4125L37.5684 29.7189L42.217 28.3873L42.4156 23.5635L45.1254 27.5697L49.774 26.2849L46.7956 30.081L49.4704 34.1106Z" fill="#E70013"/>
</g>
<defs>
<clipPath id="clip0_238_9713">
<rect width="79.736" height="59.802" fill="white" transform="translate(0.713867 0.0283203)"/>
</clipPath>
</defs>
</svg>
