<svg width="81" height="61" viewBox="0 0 81 61" fill="none" xmlns="http://www.w3.org/2000/svg">
<path d="M0 0H81V61H0V0Z" fill="#272727"/>
<path d="M37.7427 37V36.8125C37.7636 34.8229 37.9719 33.2396 38.3677 32.0625C38.7636 30.8854 39.3261 29.9323 40.0552 29.2031C40.7844 28.474 41.6594 27.8021 42.6802 27.1875C43.2948 26.8125 43.8469 26.3698 44.3365 25.8594C44.8261 25.3385 45.2115 24.7396 45.4927 24.0625C45.7844 23.3854 45.9302 22.6354 45.9302 21.8125C45.9302 20.7917 45.6906 19.9062 45.2115 19.1562C44.7323 18.4062 44.0917 17.8281 43.2896 17.4219C42.4875 17.0156 41.5969 16.8125 40.6177 16.8125C39.7636 16.8125 38.9406 16.9896 38.149 17.3437C37.3573 17.6979 36.6958 18.2552 36.1646 19.0156C35.6333 19.776 35.3261 20.7708 35.2427 22H31.3052C31.3886 20.2292 31.8469 18.7135 32.6802 17.4531C33.524 16.1927 34.6333 15.2292 36.0083 14.5625C37.3938 13.8958 38.9302 13.5625 40.6177 13.5625C42.4511 13.5625 44.0448 13.9271 45.399 14.6562C46.7636 15.3854 47.8156 16.3854 48.5552 17.6562C49.3052 18.9271 49.6802 20.375 49.6802 22C49.6802 23.1458 49.5031 24.1823 49.149 25.1094C48.8052 26.0365 48.3052 26.8646 47.649 27.5937C47.0031 28.3229 46.2219 28.9687 45.3052 29.5312C44.3886 30.1042 43.6542 30.7083 43.1021 31.3437C42.55 31.9687 42.149 32.7135 41.899 33.5781C41.649 34.4427 41.5136 35.5208 41.4927 36.8125V37H37.7427ZM39.7427 46.25C38.9719 46.25 38.3104 45.974 37.7583 45.4219C37.2063 44.8698 36.9302 44.2083 36.9302 43.4375C36.9302 42.6667 37.2063 42.0052 37.7583 41.4531C38.3104 40.901 38.9719 40.625 39.7427 40.625C40.5136 40.625 41.175 40.901 41.7271 41.4531C42.2792 42.0052 42.5552 42.6667 42.5552 43.4375C42.5552 43.9479 42.425 44.4167 42.1646 44.8437C41.9146 45.2708 41.5761 45.6146 41.149 45.875C40.7323 46.125 40.2636 46.25 39.7427 46.25Z" fill="white"/>
</svg>
