<svg width="81" height="61" viewBox="0 0 81 61" fill="none" xmlns="http://www.w3.org/2000/svg">
<g clip-path="url(#clip0_333_8472)">
<path d="M0.713867 0.719238H80.4498V60.5212H0.713867V0.719238Z" fill="white"/>
<path d="M33.8541 7.35938H80.4498V14.0123H33.8541V7.35938ZM33.8541 20.6529H80.4498V27.2934H33.8541V20.6529ZM0.713867 33.9463H80.4498V40.5868H0.713867V33.9463ZM0.713867 47.2274H80.4498V53.8803H0.713867V47.2274Z" fill="#0038A8"/>
<path d="M16.5682 20.5747L17.668 22.2169C13.1488 25.4874 15.9078 27.4213 12.7052 28.4682C14.6971 26.5243 12.3916 26.3604 14.0699 22.3088" fill="#FCD116"/>
<path d="M16.5682 20.5747L17.668 22.2169C13.1488 25.4874 15.9078 27.4213 12.7052 28.4682C14.6971 26.5243 12.3916 26.3604 14.0699 22.3088" stroke="black" stroke-width="0.184043" stroke-miterlimit="20" stroke-linecap="square"/>
<path d="M15.7823 21.0404C13.289 25.15 14.9242 27.4096 12.7056 28.4684" stroke="black" stroke-width="0.184043" stroke-miterlimit="20"/>
<path d="M17.3207 17.3262H19.5134L17.3207 29.3862L15.1279 17.3262H17.3207V29.3862V17.3262Z" fill="#FCD116"/>
<path d="M17.3207 17.3262H19.5134L17.3207 29.3862L15.1279 17.3262H17.3207ZM17.3207 17.3262V29.3862" stroke="black" stroke-width="0.184043" stroke-miterlimit="20"/>
<path d="M14.4916 19.0911L14.1081 21.0301C8.59996 20.1471 9.18337 23.4655 6.17857 21.9412C8.96159 21.9751 7.4472 20.229 11.4988 18.5508" fill="#FCD116"/>
<path d="M14.4916 19.0911L14.1081 21.0301C8.59996 20.1471 9.18337 23.4655 6.17857 21.9412C8.96159 21.9751 7.4472 20.229 11.4988 18.5508" stroke="black" stroke-width="0.184043" stroke-miterlimit="20" stroke-linecap="square"/>
<path d="M13.6058 18.8649C8.93685 20.0077 8.49535 22.7617 6.17782 21.9417" stroke="black" stroke-width="0.184043" stroke-miterlimit="20"/>
<path d="M17.32 17.3264L18.8705 18.8769L8.79229 25.8541L15.7695 15.7759L17.32 17.3264L8.79229 25.8541L17.32 17.3264Z" fill="#FCD116"/>
<path d="M17.32 17.3264L18.8705 18.8769L8.79229 25.8541L15.7695 15.7759L17.32 17.3264ZM17.32 17.3264L8.79229 25.8541" stroke="black" stroke-width="0.184043" stroke-miterlimit="20"/>
<path d="M14.0718 16.5741L12.4296 17.6739C9.15912 13.1547 7.22516 15.9137 6.17832 12.7111C8.12221 14.703 8.28606 12.3975 12.3377 14.0757" fill="#FCD116"/>
<path d="M14.0718 16.5741L12.4296 17.6739C9.15912 13.1547 7.22516 15.9137 6.17832 12.7111C8.12221 14.703 8.28606 12.3975 12.3377 14.0757" stroke="black" stroke-width="0.184043" stroke-miterlimit="20" stroke-linecap="square"/>
<path d="M13.607 15.7877C9.49747 13.2943 7.23787 14.9296 6.17903 12.7109" stroke="black" stroke-width="0.184043" stroke-miterlimit="20"/>
<path d="M17.3203 17.3265V19.5193L5.26026 17.3265L17.3203 15.1338V17.3265H5.26026H17.3203Z" fill="#FCD116"/>
<path d="M17.3203 17.3265V19.5193L5.26026 17.3265L17.3203 15.1338V17.3265ZM17.3203 17.3265H5.26026" stroke="black" stroke-width="0.184043" stroke-miterlimit="20"/>
<path d="M15.5549 14.4995L13.6159 14.1159C14.4989 8.60777 11.1805 9.19119 12.7048 6.18638C12.6709 8.96941 14.417 7.45501 16.0952 11.5067" fill="#FCD116"/>
<path d="M15.5549 14.4995L13.6159 14.1159C14.4989 8.60777 11.1805 9.19119 12.7048 6.18638C12.6709 8.96941 14.417 7.45501 16.0952 11.5067" stroke="black" stroke-width="0.184043" stroke-miterlimit="20" stroke-linecap="square"/>
<path d="M15.7811 13.6141C14.6383 8.94515 11.8842 8.50365 12.7043 6.18612" stroke="black" stroke-width="0.184043" stroke-miterlimit="20"/>
<path d="M17.3206 17.3288L15.7701 18.8793L8.79285 8.80108L18.8711 15.7783L17.3206 17.3288L8.79285 8.80108L17.3206 17.3288Z" fill="#FCD116"/>
<path d="M17.3206 17.3288L15.7701 18.8793L8.79285 8.80108L18.8711 15.7783L17.3206 17.3288ZM17.3206 17.3288L8.79285 8.80108" stroke="black" stroke-width="0.184043" stroke-miterlimit="20"/>
<path d="M18.0724 14.0782L16.9726 12.4359C21.4918 9.16547 18.7328 7.23151 21.9354 6.18466C19.9435 8.12856 22.249 8.29241 20.5708 12.3441" fill="#FCD116"/>
<path d="M18.0724 14.0782L16.9726 12.4359C21.4918 9.16547 18.7328 7.23151 21.9354 6.18466C19.9435 8.12856 22.249 8.29241 20.5708 12.3441" stroke="black" stroke-width="0.184043" stroke-miterlimit="20" stroke-linecap="square"/>
<path d="M18.8583 13.6119C21.3517 9.50235 19.7164 7.24275 21.9351 6.18391" stroke="black" stroke-width="0.184043" stroke-miterlimit="20"/>
<path d="M17.32 17.3267H15.1272L17.32 5.26661L19.5127 17.3267H17.32V5.26661V17.3267Z" fill="#FCD116"/>
<path d="M17.32 17.3267H15.1272L17.32 5.26661L19.5127 17.3267H17.32ZM17.32 17.3267V5.26661" stroke="black" stroke-width="0.184043" stroke-miterlimit="20"/>
<path d="M20.148 15.5612L20.5316 13.6223C26.0397 14.5053 25.4563 11.1868 28.4611 12.7112C25.6781 12.6772 27.1925 14.4233 23.1408 16.1016" fill="#FCD116"/>
<path d="M20.148 15.5612L20.5316 13.6223C26.0397 14.5053 25.4563 11.1868 28.4611 12.7112C25.6781 12.6772 27.1925 14.4233 23.1408 16.1016" stroke="black" stroke-width="0.184043" stroke-miterlimit="20" stroke-linecap="square"/>
<path d="M21.0338 15.788C25.7028 14.6451 26.1443 11.8911 28.4618 12.7112" stroke="black" stroke-width="0.184043" stroke-miterlimit="20"/>
<path d="M17.3196 17.3265L15.7691 15.776L25.8474 8.79871L18.8701 18.877L17.3196 17.3265L25.8474 8.79871L17.3196 17.3265Z" fill="#FCD116"/>
<path d="M17.3196 17.3265L15.7691 15.776L25.8474 8.79871L18.8701 18.877L17.3196 17.3265ZM17.3196 17.3265L25.8474 8.79871" stroke="black" stroke-width="0.184043" stroke-miterlimit="20"/>
<path d="M20.5678 18.0788L22.2101 16.979C25.4805 21.4982 27.4145 18.7391 28.4613 21.9417C26.5174 19.9498 26.3536 22.2554 22.3019 20.5771" fill="#FCD116"/>
<path d="M20.5678 18.0788L22.2101 16.979C25.4805 21.4982 27.4145 18.7391 28.4613 21.9417C26.5174 19.9498 26.3536 22.2554 22.3019 20.5771" stroke="black" stroke-width="0.184043" stroke-miterlimit="20" stroke-linecap="square"/>
<path d="M21.0336 18.8651C25.1432 21.3585 27.4028 19.7233 28.4616 21.9419" stroke="black" stroke-width="0.184043" stroke-miterlimit="20"/>
<path d="M17.3193 17.3263V15.1336L29.3794 17.3263L17.3193 19.519V17.3263H29.3794H17.3193Z" fill="#FCD116"/>
<path d="M17.3193 17.3263V15.1336L29.3794 17.3263L17.3193 19.519V17.3263ZM17.3193 17.3263H29.3794" stroke="black" stroke-width="0.184043" stroke-miterlimit="20"/>
<path d="M19.0858 20.1553L21.0247 20.5389C20.1417 26.047 23.4601 25.4636 21.9358 28.4684C21.9697 25.6854 20.2236 27.1998 18.5454 23.1481" fill="#FCD116"/>
<path d="M19.0858 20.1553L21.0247 20.5389C20.1417 26.047 23.4601 25.4636 21.9358 28.4684C21.9697 25.6854 20.2236 27.1998 18.5454 23.1481" stroke="black" stroke-width="0.184043" stroke-miterlimit="20" stroke-linecap="square"/>
<path d="M18.8585 21.0402C20.0013 25.7091 22.7554 26.1506 21.9353 28.4682" stroke="black" stroke-width="0.184043" stroke-miterlimit="20"/>
<path d="M17.32 17.3265L18.8705 15.776L25.8478 25.8542L15.7695 18.877L17.32 17.3265L25.8478 25.8542L17.32 17.3265Z" fill="#FCD116"/>
<path d="M17.32 17.3265L18.8705 15.776L25.8478 25.8542L15.7695 18.877L17.32 17.3265ZM17.32 17.3265L25.8478 25.8542" stroke="black" stroke-width="0.184043" stroke-miterlimit="20"/>
<path d="M17.3198 21.3467C19.54 21.3467 21.3398 19.5469 21.3398 17.3267C21.3398 15.1065 19.54 13.3066 17.3198 13.3066C15.0996 13.3066 13.2998 15.1065 13.2998 17.3267C13.2998 19.5469 15.0996 21.3467 17.3198 21.3467Z" fill="#FCD116" stroke="black" stroke-width="0.184043" stroke-miterlimit="20"/>
<path d="M20.2815 15.7187C20.0257 16.011 19.8795 15.4994 18.9659 15.4994C18.0522 15.4994 17.906 16.0476 17.7599 15.938C17.6137 15.8283 18.5273 15.1705 18.8197 15.134C19.112 15.0974 19.9526 15.3898 20.2815 15.7187ZM19.2217 16.0476C19.4775 16.2669 19.2582 16.7419 19.0024 16.7419C18.7466 16.7419 18.2715 16.3034 18.4908 16.011" fill="black"/>
<path d="M18.0156 16.3764C18.0522 15.9378 18.4176 15.8647 19.0023 15.8647C19.5871 15.8647 19.8429 16.3033 20.0622 16.4129C19.8063 16.4129 19.5871 16.0475 19.0023 16.0475C18.4176 16.0475 18.4176 16.0475 18.0156 16.4129M18.1253 16.486C18.2714 16.2667 18.4542 16.7053 18.8562 16.7053C19.2582 16.7053 19.4774 16.5956 19.7333 16.4129C19.9891 16.2302 19.3678 16.8515 18.9658 16.8515C18.5638 16.8515 18.0156 16.6322 18.1253 16.486Z" fill="black"/>
<path d="M19.367 16.7051C19.842 16.4493 19.5497 16.0838 19.367 16.0107C19.44 16.0838 19.7324 16.4493 19.367 16.7051ZM17.3204 18.8978C17.5397 18.8978 17.6128 18.8247 17.9051 18.8247C18.1975 18.8247 18.8919 19.2267 19.2939 19.0805C18.4533 19.4094 18.7822 19.1902 17.3204 19.1902H17.1377M19.44 19.4094C19.2939 19.1536 19.3304 19.2267 19.038 18.8247C19.3304 19.044 19.4035 19.1536 19.44 19.4094ZM17.3204 19.7749C18.2341 19.7749 18.0879 19.5922 19.2939 19.0805C18.4168 19.1902 18.2341 19.4825 17.3204 19.4825H17.1377M17.3204 18.4227C17.5762 18.4227 17.6493 18.24 17.9417 18.24C18.2341 18.24 18.636 18.3496 18.8188 18.4958C18.8553 18.5324 18.7091 18.2035 18.4168 18.1669C18.1244 18.1304 18.2341 17.6553 17.9051 17.5822C17.9051 17.7284 18.0148 17.6918 18.0513 17.9111C18.0513 18.0938 17.7224 18.0938 17.6493 17.9111C17.7224 18.2035 17.5031 18.2035 17.3204 18.2035" fill="black"/>
<path d="M14.3611 15.7187C14.6169 16.011 14.7631 15.4994 15.6767 15.4994C16.5904 15.4994 16.7365 16.0476 16.8827 15.938C17.0289 15.8283 16.1153 15.1705 15.8229 15.134C15.5305 15.0974 14.69 15.3898 14.3611 15.7187ZM15.4209 16.0476C15.1651 16.2669 15.3844 16.7419 15.6402 16.7419C15.896 16.7419 16.3711 16.3034 16.1518 16.011" fill="black"/>
<path d="M16.626 16.3764C16.5894 15.9378 16.224 15.8647 15.6393 15.8647C15.0545 15.8647 14.7987 16.3033 14.5794 16.4129C14.8353 16.4129 15.0545 16.0475 15.6393 16.0475C16.224 16.0475 16.224 16.0475 16.626 16.4129M16.5163 16.486C16.3702 16.2667 16.1874 16.7053 15.7854 16.7053C15.3834 16.7053 15.1642 16.5956 14.9084 16.4129C14.6525 16.2302 15.2738 16.8515 15.6758 16.8515C16.0778 16.8515 16.626 16.6322 16.5163 16.486Z" fill="black"/>
<path d="M15.2746 16.7051C14.7996 16.4493 15.0919 16.0838 15.2746 16.0107C15.2016 16.0838 14.9092 16.4493 15.2746 16.7051ZM17.3212 18.8978C17.1019 18.8978 17.0288 18.8247 16.7365 18.8247C16.4441 18.8247 15.7497 19.2267 15.3477 19.0805C16.1883 19.4094 15.8594 19.1902 17.3212 19.1902H17.5039M15.2016 19.4094C15.3477 19.1536 15.3112 19.2267 15.6036 18.8247C15.3112 19.044 15.2381 19.1536 15.2016 19.4094ZM17.3212 19.7749C16.4075 19.7749 16.5537 19.5922 15.3477 19.0805C16.2248 19.1902 16.4075 19.4825 17.3212 19.4825H17.5039M17.3212 18.4227C17.0654 18.4227 16.9923 18.24 16.6999 18.24C16.4075 18.24 16.0056 18.3496 15.8228 18.4958C15.7863 18.5324 15.9325 18.2035 16.2248 18.1669C16.5172 18.1304 16.4075 17.6553 16.7365 17.5822C16.7365 17.7284 16.6268 17.6918 16.5903 17.9111C16.5903 18.0938 16.9192 18.0938 16.9923 17.9111C16.9192 18.2035 17.1385 18.2035 17.3212 18.2035" fill="black"/>
<path d="M17.3207 20.104C17.138 20.104 16.6629 20.2136 17.3207 20.2136C17.9786 20.2136 17.5035 20.104 17.3207 20.104Z" fill="black"/>
</g>
<defs>
<clipPath id="clip0_333_8472">
<rect width="79.736" height="59.802" fill="white" transform="translate(0.713867 0.719238)"/>
</clipPath>
</defs>
</svg>
