<svg width="81" height="61" viewBox="0 0 81 61" fill="none" xmlns="http://www.w3.org/2000/svg">
<g clip-path="url(#clip0_238_5558)">
<path fill-rule="evenodd" clip-rule="evenodd" d="M0.713867 0.416016H114.338V5.02575H0.713867V0.416016ZM0.713867 9.62303H114.338V14.2328H0.713867V9.62303ZM0.713867 18.8176H114.338V23.4273H0.713867V18.8176ZM0.713867 28.0121H114.338V32.6219H0.713867V28.0121ZM0.713867 37.2316H114.338V41.8164H0.713867V37.2316ZM0.713867 46.4137H114.338V51.0234H0.713867V46.4137ZM0.713867 55.6082H114.338V60.218H0.713867V55.6082Z" fill="#BD3D44"/>
<path fill-rule="evenodd" clip-rule="evenodd" d="M0.713867 5.02539H114.338V9.62267H0.713867V5.02539ZM0.713867 14.2199H114.338V18.8172H0.713867V14.2199ZM0.713867 23.4145H114.338V28.0242H0.713867V23.4145ZM0.713867 32.6215H114.338V37.2312H0.713867V32.6215ZM0.713867 41.8161H114.338V46.4258H0.713867V41.8161ZM0.713867 51.0106H114.338V55.6203H0.713867V51.0106Z" fill="white"/>
<path fill-rule="evenodd" clip-rule="evenodd" d="M0.713867 0.416016H46.1634V32.6219H0.713867V0.416016Z" fill="#192F5D"/>
<path fill-rule="evenodd" clip-rule="evenodd" d="M4.50107 1.78613L4.92466 3.06938H6.24529L5.17384 3.85428L5.58498 5.13754L4.50107 4.34018L3.42962 5.12508L3.8283 3.85428L2.74438 3.06938H4.10239L4.50107 1.78613ZM12.076 1.78613L12.4871 3.06938H13.8327L12.7488 3.85428L13.1474 5.13754L12.076 4.34018L10.9921 5.12508L11.4032 3.85428L10.3318 3.06938H11.6524L12.076 1.78613ZM19.6509 1.78613L20.062 3.06938H21.3951L20.3237 3.85428L20.7348 5.13754L19.6509 4.34018L18.567 5.12508L18.9781 3.85428L17.8942 3.06938H19.2398L19.6509 1.78613ZM27.2258 1.78613L27.637 3.06938H28.9825L27.8986 3.85428L28.3097 5.13754L27.2258 4.34018L26.1419 5.12508L26.5655 3.85428L25.4691 3.06938H26.8022L27.2258 1.78613ZM34.8007 1.78613L35.2119 3.06938H36.545L35.4735 3.85428L35.8846 5.13754L34.8007 4.34018L33.7168 5.12508L34.128 3.85428L33.0565 3.06938H34.3896L34.8007 1.78613ZM42.3756 1.78613L42.7868 3.06938H44.1323L43.036 3.85428L43.4596 5.13754L42.3756 4.34018L41.2917 5.12508L41.7153 3.85428L40.619 3.06938H41.9645L42.3756 1.78613ZM8.28853 5.02541L8.69966 6.2962H10.0577L8.97376 7.06864L9.37244 8.35189L8.31344 7.56699L7.22953 8.35189L7.61575 7.06864L6.56922 6.2962H7.9023L8.28853 5.02541ZM15.8634 5.02541L16.287 6.2962H17.6201L16.5238 7.06864L16.9474 8.35189L15.8634 7.56699L14.7795 8.35189L15.1907 7.06864L14.1068 6.2962H15.4523L15.8634 5.02541ZM23.4384 5.02541L23.8495 6.2962H25.195L24.1111 7.06864L24.5223 8.35189L23.4384 7.56699L22.3544 8.35189L22.7656 7.06864L21.6941 6.2962H23.0148L23.4384 5.02541ZM31.0133 5.02541L31.4369 6.2962H32.77L31.6736 7.06864L32.0972 8.35189L31.0133 7.56699L29.9418 8.35189L30.3405 7.06864L29.2566 6.2962H30.6146L31.0133 5.02541ZM38.5882 5.02541L38.9993 6.2962H40.3449L39.261 7.06864L39.6721 8.35189L38.5882 7.56699L37.5043 8.35189L37.9154 7.06864L36.844 6.2962H38.1771L38.5882 5.02541ZM4.50107 8.21484L4.92466 9.51055H6.24529L5.17384 10.2955L5.58498 11.5662L4.50107 10.7813L3.42962 11.5662L3.8283 10.2955L2.74438 9.51055H4.10239L4.50107 8.21484ZM12.076 8.21484L12.4871 9.51055H13.8327L12.7488 10.2955L13.1474 11.5662L12.076 10.7813L10.9921 11.5662L11.4032 10.283L10.3318 9.4981H11.6524L12.076 8.21484ZM19.6509 8.21484L20.062 9.4981H21.3951L20.3237 10.283L20.7348 11.5538L19.6509 10.7689L18.567 11.5538L18.9781 10.2705L17.8942 9.48564H19.2398L19.6509 8.21484ZM27.2258 8.21484L27.637 9.4981H28.9825L27.8986 10.283L28.3097 11.5538L27.2258 10.7689L26.1419 11.5538L26.5655 10.2705L25.4691 9.48564H26.8022L27.2258 8.21484ZM34.8007 8.21484L35.2119 9.4981H36.545L35.4735 10.283L35.8846 11.5538L34.8007 10.7689L33.7168 11.5538L34.128 10.2705L33.0565 9.48564H34.3896L34.8007 8.21484ZM42.3756 8.21484L42.7868 9.4981H44.1323L43.036 10.283L43.4596 11.5538L42.3756 10.7689L41.2917 11.5538L41.7153 10.2705L40.619 9.48564H41.9645L42.3756 8.21484ZM8.28853 11.4541L8.69966 12.7249H10.0577L8.97376 13.5098L9.38489 14.7931L8.30098 13.9957L7.21707 14.7806L7.62821 13.5098L6.55676 12.7249H7.88985L8.28853 11.4541ZM15.8634 11.4541L16.287 12.7249H17.6201L16.5238 13.5098L16.9474 14.7931L15.8634 13.9957L14.7795 14.7806L15.1907 13.5098L14.1068 12.7249H15.4523L15.8634 11.4541ZM23.4384 11.4541L23.8495 12.7249H25.195L24.1111 13.5098L24.5223 14.7931L23.4384 13.9957L22.3544 14.7806L22.7656 13.5098L21.6941 12.7249H23.0148L23.4384 11.4541ZM31.0133 11.4541L31.4369 12.7249H32.77L31.686 13.5098L32.0972 14.7931L31.0133 13.9957L29.9418 14.7806L30.3405 13.5098L29.2566 12.7249H30.6146L31.0133 11.4541ZM38.5882 11.4541L38.9993 12.7249H40.3449L39.261 13.5098L39.6721 14.7931L38.5882 13.9957L37.5043 14.7806L37.9154 13.5098L36.844 12.7249H38.1771L38.5882 11.4541ZM4.50107 14.6809L4.92466 15.9517H6.24529L5.17384 16.7366L5.58498 18.0199L4.50107 17.2225L3.42962 18.0074L3.8283 16.7366L2.74438 15.9517H4.10239L4.50107 14.6809ZM12.076 14.6809L12.4871 15.9517H13.8327L12.7488 16.7366L13.1474 18.0074L12.076 17.2225L10.9921 18.0074L11.4032 16.7366L10.3318 15.9517H11.6524L12.076 14.6809ZM19.6509 14.6809L20.062 15.9517H21.3951L20.3237 16.7366L20.7348 18.0199L19.6509 17.2225L18.567 18.0074L18.9781 16.7366L17.8942 15.9517H19.2398L19.6509 14.6809ZM27.2258 14.6809L27.637 15.9517H28.9825L27.8986 16.7366L28.3097 18.0199L27.2258 17.2225L26.1419 18.0074L26.5655 16.7366L25.4691 15.9517H26.8022L27.2258 14.6809ZM34.8007 14.6809L35.2119 15.9517H36.545L35.4735 16.7366L35.8846 18.0199L34.8007 17.2225L33.7168 18.0074L34.128 16.7366L33.0565 15.9517H34.3896L34.8007 14.6809ZM42.3756 14.6809L42.7868 15.9517H44.1323L43.036 16.7366L43.4596 18.0199L42.3756 17.2225L41.2917 18.0074L41.7029 16.7366L40.6065 15.9517H41.9521L42.3756 14.6809ZM8.28853 17.8953L8.69966 19.1785H10.0577L8.97376 19.951L9.38489 21.2342L8.30098 20.4369L7.21707 21.2342L7.62821 19.951L6.55676 19.1661H7.88985L8.28853 17.8953ZM15.8634 17.8953L16.287 19.1785H17.6201L16.5238 19.951L16.9474 21.2342L15.8634 20.4369L14.7795 21.2342L15.1907 19.951L14.1068 19.1661H15.4523L15.8634 17.8953ZM23.4384 17.8953L23.8495 19.1785H25.195L24.1111 19.951L24.5223 21.2342L23.4384 20.4369L22.3544 21.2342L22.7656 19.951L21.6941 19.1661H23.0148L23.4384 17.8953ZM31.0133 17.8953L31.4369 19.1785H32.77L31.686 19.951L32.0972 21.2342L31.0133 20.4369L29.9418 21.2342L30.3405 19.951L29.2566 19.1661H30.6146L31.0133 17.8953ZM38.5882 17.8953L38.9993 19.1785H40.3449L39.261 19.951L39.6721 21.2342L38.5882 20.4369L37.5043 21.2342L37.9154 19.951L36.844 19.1661H38.1771L38.5882 17.8953ZM4.50107 21.1096L4.92466 22.3929H6.24529L5.17384 23.1778L5.58498 24.4361L4.50107 23.6637L3.42962 24.4361L3.8283 23.1653L2.74438 22.3804H4.10239L4.50107 21.1096ZM12.076 21.1096L12.4871 22.3929H13.8327L12.7488 23.1778L13.1599 24.4361L12.076 23.6637L10.9921 24.4361L11.4157 23.1653L10.3318 22.3804H11.6524L12.076 21.1096ZM19.6509 21.1096L20.062 22.3929H21.3951L20.3237 23.1778L20.7348 24.4361L19.6509 23.6637L18.567 24.4361L18.9781 23.1653L17.8942 22.3804H19.2398L19.6509 21.1096ZM27.2258 21.1096L27.637 22.3929H28.9825L27.8986 23.1778L28.3097 24.4361L27.2258 23.6637L26.1419 24.4361L26.5655 23.1653L25.4691 22.3804H26.8022L27.2258 21.1096ZM34.8007 21.1096L35.2119 22.3929H36.545L35.4735 23.1778L35.8846 24.4361L34.8007 23.6637L33.7168 24.4361L34.128 23.1653L33.0565 22.3804H34.3896L34.8007 21.1096ZM42.3756 21.1096L42.7868 22.3929H44.1323L43.036 23.1778L43.4596 24.4361L42.3756 23.6637L41.2917 24.4361L41.7153 23.1653L40.619 22.3804H41.9645L42.3756 21.1096ZM8.28853 24.3365L8.69966 25.6073H10.0577L8.97376 26.3922L9.38489 27.6754L8.30098 26.878L7.21707 27.6629L7.62821 26.3922L6.55676 25.6073H7.88985L8.28853 24.3365ZM15.8634 24.3365L16.287 25.6073H17.6201L16.5238 26.3922L16.9474 27.6754L15.8634 26.878L14.7795 27.6629L15.1907 26.3922L14.1068 25.6073H15.4523L15.8634 24.3365ZM23.4384 24.3365L23.8495 25.6073H25.195L24.1111 26.3922L24.5223 27.6754L23.4384 26.878L22.3544 27.6629L22.7656 26.3922L21.6941 25.6073H23.0148L23.4384 24.3365ZM31.0133 24.3365L31.4369 25.6073H32.77L31.686 26.3922L32.0972 27.6754L31.0133 26.878L29.9418 27.6629L30.3405 26.3922L29.2566 25.6073H30.6146L31.0133 24.3365ZM38.5882 24.3365L38.9993 25.6073H40.3449L39.261 26.3922L39.6721 27.6754L38.5882 26.878L37.5043 27.6629L37.9154 26.3922L36.844 25.6073H38.1771L38.5882 24.3365ZM4.50107 27.5633L4.92466 28.8341H6.24529L5.17384 29.619L5.58498 30.8898L4.50107 30.1049L3.42962 30.8898L3.8283 29.6065L2.74438 28.8216H4.10239L4.50107 27.5633ZM12.076 27.5633L12.4871 28.8341H13.8327L12.7488 29.619L13.1599 30.8898L12.076 30.1049L10.9921 30.8898L11.4157 29.6065L10.3318 28.8216H11.6524L12.076 27.5633ZM19.6509 27.5633L20.062 28.8341H21.3951L20.3486 29.619L20.7597 30.8898L19.6758 30.1049L18.5919 30.8898L19.003 29.6065L17.9191 28.8216H19.2647L19.6509 27.5633ZM27.2258 27.5633L27.637 28.8341H28.9825L27.8986 29.619L28.3097 30.8898L27.2258 30.1049L26.1419 30.8898L26.5655 29.6065L25.4691 28.8216H26.8022L27.2258 27.5633ZM34.8007 27.5633L35.2119 28.8341H36.545L35.4735 29.619L35.8846 30.8898L34.8007 30.1049L33.7168 30.8898L34.128 29.6065L33.0565 28.8216H34.3896L34.8007 27.5633ZM42.3756 27.5633L42.7868 28.8341H44.1323L43.036 29.619L43.4596 30.8898L42.3756 30.1049L41.2917 30.8898L41.7153 29.6065L40.619 28.8216H41.9645L42.3756 27.5633Z" fill="white"/>
</g>
<defs>
<clipPath id="clip0_238_5558">
<rect width="79.736" height="59.802" fill="white" transform="translate(0.713867 0.416016)"/>
</clipPath>
</defs>
</svg>
