<svg width="81" height="60" viewBox="0 0 81 60" fill="none" xmlns="http://www.w3.org/2000/svg">
<g clip-path="url(#clip0_238_5562)">
<path d="M0.713867 29.9292H80.4498V59.8302H0.713867V29.9292Z" fill="#00AB39"/>
<path d="M0.713867 0.0283203H80.4498V29.9293H0.713867V0.0283203Z" fill="white"/>
<path d="M52.9154 8.84912H52.9029H52.9154ZM52.9029 8.84912C47.968 11.5049 43.3031 14.6343 38.974 18.1932C36.856 20.0495 37.4541 21.5197 37.3668 23.1767C37.4416 24.298 37.1301 25.3445 36.4449 25.9674L31.7355 26.9143L31.287 25.6186C31.424 24.9458 31.9722 24.6219 33.1433 25.033C33.2305 24.1858 32.5329 23.837 31.7355 23.538C31.4489 23.3137 31.1126 23.1642 31.1499 22.4167C31.0253 20.7348 33.7164 22.5413 33.7414 22.5413C33.7663 22.5413 33.6417 20.8344 32.4083 20.498C31.7355 20.2613 31.4489 19.5512 31.7106 19.0279C32.2463 17.944 33.2679 19.1027 34.0404 19.1525C34.0154 18.4424 33.8161 17.944 33.2056 17.3834C32.8817 17.1716 32.0843 17.0221 32.0594 16.6857C32.047 16.2372 32.8069 16.0378 33.8659 16.1624C33.6417 15.527 32.9315 15.1159 31.9598 14.8169L31.3867 13.8077C31.1126 13.3094 30.988 13.2844 31.6234 12.3376C32.184 11.9638 32.944 11.4405 33.5171 11.0792L32.8942 11.0045C32.9689 10.3193 32.9814 10.0825 33.1433 8.94879C32.5204 9.78353 31.7729 9.63402 31.0752 9.97041C31.0752 9.97041 29.1316 10.3193 28.4962 11.154L23.5875 10.9048C22.5409 11.0419 21.6564 11.3409 21.4819 12.35C19.1023 12.5992 16.6106 12.3874 14.7916 14.6549C16.0375 14.6051 17.1089 14.3061 18.5043 14.4805C18.5043 14.4805 19.6879 14.5054 19.9246 15.7637C19.9495 15.8136 20.3357 15.8136 20.3357 15.8136L20.7843 16.1624L20.9587 15.689L21.3574 15.9631L21.4819 15.4398L21.8806 15.7139L21.9055 15.091L22.4288 15.4647V14.63C22.4288 14.63 24.3724 14.63 24.9704 15.8759C24.9953 15.8883 19.5259 16.8726 14.2434 16.4116L15.7634 15.6641C13.8447 15.2654 12.0258 14.9165 10.3314 13.5834C10.9668 16.0004 14.2808 18.8286 14.966 18.8161L14.3182 17.645L20.0492 17.8942C20.261 18.5296 20.1738 19.2397 20.6721 19.8004C20.6721 19.8004 20.3607 20.8469 21.0708 21.2705C21.0957 21.3203 21.9055 19.1525 21.9055 19.1525C21.9055 19.1525 22.1547 19.7381 22.4039 20.1243C22.7777 18.2555 24.8209 17.944 24.8209 17.944L25.2445 18.9407C24.6091 19.0404 23.8117 20.3361 24.2478 21.0587C23.8117 21.0587 23.0518 22.317 23.2885 23.0023C22.9272 23.3636 22.0426 23.837 22.2544 25.3445C21.5567 25.494 21.1331 26.7773 21.3574 28.1477C20.261 29.1569 20.5351 31.0132 21.5069 31.7732C21.1082 32.147 20.859 32.4086 20.859 32.8571C20.4728 32.7201 20.1115 32.8322 19.9495 33.0814C19.4761 32.5955 18.8033 32.1843 18.3299 32.6329C18.2053 32.0598 17.4578 31.4368 16.648 31.5116C16.6812 31.1529 16.5871 30.7939 16.382 30.4977C16.177 30.2015 15.8741 29.987 15.5267 29.8919C15.5267 29.8919 15.3398 27.0763 14.4926 26.1543C14.4054 25.656 14.5424 25.3071 15.2401 24.8835C15.9503 24.5098 16.0998 24.2232 16.0375 23.1518C16.324 22.4416 16.5358 21.719 15.6637 21.2331C15.6886 22.0803 15.4395 22.479 15.0906 22.8527C14.6795 22.8029 14.5424 23.2763 14.2683 23.4757C13.8821 22.9649 15.0782 22.1551 14.1936 20.9964C14.1437 20.9466 13.5706 19.5013 12.1628 19.5263C12.8231 19.9125 13.1097 20.5728 13.1097 21.258C12.5904 22.4063 12.5106 23.7052 12.8854 24.9084C12.2999 24.0363 11.9635 22.3669 11.4776 22.0803C11.054 21.9931 10.8546 20.9964 9.19763 21.2829C9.90778 21.4698 10.1445 22.018 10.3189 22.5039C9.89532 22.7282 10.1071 23.3262 10.431 23.7373C10.3688 24.6966 10.9419 25.2573 11.8015 25.6061L11.3779 29.5556C11.0415 29.5182 10.5058 30.8513 10.3065 30.8886C9.97007 31.1004 9.38451 31.6611 10.0573 31.823C9.85794 32.5332 9.67106 32.9692 8.59961 33.1188C8.59961 33.1188 9.7209 33.7915 10.6678 32.6453C11.6645 32.6204 11.3405 31.4244 11.8264 30.9011C11.8264 30.8637 12.113 30.6893 12.5117 29.6303C12.6861 30.5772 13.6579 33.4676 15.8381 34.9004C17.7443 36.9436 19.3266 38.8747 19.3017 41.5907C20.0336 40.7858 20.5595 39.8153 20.8341 38.7626C22.0771 38.3897 23.3759 38.2378 24.6714 38.314C24.4471 38.7999 24.1855 39.2609 24.5094 39.5599C23.5875 39.8838 23.3881 40.5566 23.7619 41.2169C22.7901 41.8772 22.7278 42.3008 22.7154 43.3972C20.9088 45.7021 19.8 45.6273 18.0184 45.0168C17.4453 44.6805 16.5234 44.1946 16.1122 44.4562C15.3522 43.9329 14.2434 43.8582 14.0565 45.0293C14.6421 44.5434 14.9785 44.6431 15.4395 45.1041C15.3522 45.3408 15.2775 45.565 15.6139 45.7021L15.1654 46.2004C14.3431 46.0758 13.2218 46.0758 12.9353 47.2843C13.3588 46.923 14.3057 46.8483 15.0532 47.1847L15.4893 47.3342L15.5391 47.9073C15.5391 47.9073 14.4178 47.7329 14.1188 49.5643C15.1654 48.443 15.9129 48.7296 15.9129 48.7296C16.324 49.3276 17.8191 49.2404 18.903 48.2561C20.4105 47.4089 20.859 48.6299 21.8308 47.8325C22.6406 47.2345 23.5999 47.6332 24.2602 48.3309C25.0202 48.6174 25.8176 48.8541 26.4405 48.3309C26.4405 48.3309 27.213 47.845 27.973 48.6299C27.973 47.7578 27.35 47.2719 26.5028 47.2594L26.2536 47.0103C25.4438 46.8358 24.5468 46.9106 23.8367 46.5119C24.1121 45.2541 24.7185 44.0928 25.5933 43.148C26.752 41.9022 27.6117 41.3291 29.0818 39.4229C29.0195 40.5068 29.8418 41.7028 30.2778 42.7867C30.2778 42.7867 31.1499 41.4038 31.2745 40.2576C31.3119 40.2576 32.3833 39.7094 32.8319 39.2235C33.8036 39.834 35.3734 38.7501 36.3951 37.8531C37.018 38.1023 37.5039 38.0773 38.2265 37.8531C37.6409 39.0491 38.5629 40.1579 40.033 40.6189C40.1576 41.6654 41.2291 41.8897 42.8362 41.8897C42.911 42.5126 43.8703 42.5999 43.8703 42.5999C43.2474 42.874 42.9484 43.1605 42.9608 43.7959C42.3379 43.7959 41.8769 43.9579 41.715 44.668C40.8553 44.6929 39.9832 44.7552 39.2481 45.1664C38.4632 45.0542 37.5039 44.7303 36.8934 44.0949C36.5819 43.8333 36.4947 43.4471 35.9465 43.2975C35.5977 42.8864 35.1741 42.9736 35.0371 43.3723C34.6758 43.0857 33.3178 42.9612 33.081 44.2444C33.7289 43.7834 34.2895 43.609 34.7007 44.1821C34.4764 44.5683 35.2239 44.8051 35.8718 44.9546C36.3328 44.9795 37.1426 45.4031 37.3918 46.1008C37.0423 46.2019 36.675 46.2253 36.3156 46.1694C35.9561 46.1134 35.6133 45.9794 35.3112 45.7768C35.087 45.5899 34.809 45.4795 34.5177 45.4615C34.2263 45.4436 33.9369 45.5191 33.6915 45.6772C33.1433 45.3283 31.8601 45.9886 31.8102 47.0352C32.346 46.5368 32.8443 46.2876 33.3427 46.6116C33.0935 46.6614 33.1807 46.6863 33.2181 46.8358L34.464 47.5584C33.841 47.7204 33.2679 47.9696 33.542 49.1158C33.542 49.1158 34.0404 48.1191 35.1616 48.4928C35.1866 48.4555 35.3236 48.8417 35.6475 48.5801C36.1334 48.0319 37.2423 47.7827 38.2265 47.683C39.0114 47.5958 39.7963 47.3591 40.4691 47.8076C41.092 47.4961 41.7648 47.2843 42.4625 47.7827C43.2848 48.0319 43.8828 49.0037 44.9168 48.5676C45.4401 48.1938 46.0755 48.1938 46.7234 48.9164C46.7234 47.9945 46.0381 47.683 45.0664 47.4837L44.3936 47.085C43.7706 46.9853 43.1477 47.0975 42.5123 46.7985C44.002 46.4412 45.4053 45.7898 46.6398 44.8827C47.8743 43.9756 48.915 42.8309 49.701 41.5159L51.2584 42.0641C51.6321 42.089 51.657 42.2136 52.417 42.4379C52.4419 41.3291 51.956 40.1829 49.9502 40.0707L47.3338 39.074C46.7607 38.476 46.5116 37.2177 47.2217 36.4826C47.9194 35.8597 48.044 35.9344 48.505 35.1744C49.0656 35.1246 49.5889 35.6977 50.0997 35.6977C50.3489 36.4328 51.7692 37.0682 52.6662 36.8564C53.2268 37.3547 54.2858 37.6288 55.4694 37.2301C55.8066 37.5448 56.2317 37.7491 56.688 37.8159C57.1444 37.8827 57.6102 37.8087 58.0234 37.6039C58.2975 37.878 58.8706 38.1022 59.5185 37.9527C59.5808 37.9527 59.8673 38.6754 60.5775 38.937C60.266 39.236 60.4529 40.5566 60.7893 41.0425C60.5484 41.5355 60.5082 42.1027 60.6772 42.6248C59.9545 43.0857 59.805 43.4346 60.129 44.2195C59.1821 45.7519 58.0484 45.9263 56.9769 45.4654L55.8182 44.7178L54.5973 43.5218C54.3855 43.3225 53.9494 43.2726 53.8622 43.6962C53.8622 43.6962 52.2924 43.3474 52.1554 44.6805C52.8157 44.0451 53.7376 44.6057 53.7376 44.6306C53.7376 44.6556 53.5134 44.805 53.6878 45.0542C53.7252 45.0168 54.8465 45.4654 55.8307 45.889C56.3664 46.1008 56.491 46.1631 56.7277 46.2876C56.4303 46.1513 56.1312 46.0184 55.8307 45.889C55.3984 45.6896 54.9346 45.5674 54.4602 45.5277C53.9121 45.4778 53.314 45.4031 53.0399 45.8267C52.4419 46.0758 51.4951 46.2876 51.5449 47.4089C51.9436 46.7362 52.5042 46.7735 53.2144 46.8358L53.1645 46.9853C53.937 47.3342 53.7875 46.8857 54.5101 46.8234C55.1589 46.8136 55.8043 46.919 56.4163 47.1348C55.8556 47.2968 55.0832 47.222 54.7219 47.6332C54.6471 47.7578 54.4104 47.7079 54.5225 48.0319C54.5225 48.0319 53.4013 48.007 53.1147 49.5269C54.236 48.8168 55.0956 48.8417 55.1081 48.8417L55.4694 48.9164L56.8399 48.007C56.8772 48.007 58.1605 47.4339 58.7461 48.0817C59.2693 48.3309 59.8175 48.3558 60.3657 48.0319C61.4122 47.5709 62.3965 47.5335 63.3558 48.1814L64.2404 48.7046L64.6141 48.4555C64.6141 48.4555 65.6108 48.1814 66.3334 49.0659C66.0344 47.5335 64.938 47.4837 64.938 47.4837L64.6889 47.2594L63.144 46.649C62.9073 46.0883 62.3466 45.6522 62.9073 44.9795C63.4928 42.1015 64.1781 39.9461 63.0568 37.0308C64.1033 37.4793 64.8882 38.8747 66.1964 38.3888C66.1964 37.2177 61.8857 34.9876 58.5965 33.206C64.0036 32.9194 70.4822 28.9451 67.9904 23.8868L69.1616 20.224C69.7222 21.3452 70.8435 22.1924 71.8526 22.5537C71.0179 20.9715 70.5445 16.125 71.0179 12.7861C68.814 15.4319 66.4375 17.9291 63.904 20.2613C65.1498 20.5603 66.2587 20.3485 67.4672 20.199L66.4456 22.317C63.1315 20.361 59.2444 21.8187 59.2195 24.4101C59.3316 27.4251 63.0568 27.8612 65.2121 26.8022C64.7885 29.5556 58.4595 28.5464 58.4595 28.5464C56.2169 27.774 54.0865 27.8985 51.7318 27.9235C52.2177 26.4159 54.9337 25.0704 57.0143 25.6684C54.1114 22.4042 57.4254 18.3551 61.4247 17.1217C57.0641 15.6765 60.8142 12.35 64.0784 9.97041C64.0784 9.97041 54.697 13.9198 53.8373 13.9074C51.1711 13.708 51.8937 10.5435 52.9154 8.84912H52.9029ZM23.4504 12.6366C23.6747 12.6366 23.9239 12.6615 24.1357 12.7113C24.5593 12.8235 25.0701 12.8733 25.0701 13.0103C24.8707 13.3343 24.3848 13.7205 23.9114 13.708C23.438 13.6831 23.1639 13.3966 23.0144 12.6864C23.0642 12.6615 23.2386 12.6366 23.4504 12.6366ZM62.9446 23.7747C63.5676 23.7747 64.3026 24.0239 65.0128 24.7963C64.6764 25.793 61.6739 26.2914 61.4745 24.8212C61.4122 24.3727 62.0476 23.7872 62.9446 23.7747Z" fill="#D21034" stroke="black" stroke-width="0.324255"/>
<path d="M26.5527 21.3569L27.0137 22.0172M26.9888 22.0297C26.9888 22.0297 26.9888 22.9267 27.1757 22.9392M26.7645 23.4251L27.238 24.21M25.9298 24.4093C25.9547 24.4093 26.5154 25.0572 26.5154 25.0572M27.0012 24.5588C27.0012 24.5837 27.5245 25.568 27.5619 25.568M26.316 25.244C26.316 25.244 26.4904 26.4401 26.6524 26.4027M25.5311 27.4368L26.0544 28.2466M26.5154 26.5896C26.5154 26.5896 26.8019 27.7233 27.0262 27.6237M27.2629 25.9044C27.2753 25.9293 27.7986 26.6643 27.9356 26.5647M27.8111 26.8512L28.3094 27.8479M26.9888 27.6237L27.3999 28.7948M26.0295 28.2217C26.0295 28.2217 26.4032 29.48 26.7396 29.2807M25.8924 29.9036C25.8924 29.9036 25.9173 30.5639 26.2413 30.6013M26.4655 29.5672C26.4655 29.5921 26.8019 30.0407 26.8019 30.0407M27.4248 28.7823L27.6865 29.2184M28.2969 27.9725L28.7081 28.4833M26.3783 22.0421C26.3908 22.6028 27.2753 21.8428 27.6242 21.3694M26.0045 23.9857C26.0045 23.9857 26.9639 23.3005 27.7114 22.2664M25.6806 25.6178C26.3658 25.4309 27.6242 23.911 27.8734 23.1011M25.5436 27.1253C25.7304 27.2125 28.0727 25.5057 28.135 24.2723M25.4813 28.4335C25.4813 28.421 27.6242 27.8853 28.5087 25.5306M25.3816 30.2151C25.3816 30.2151 28.8078 28.1594 28.9946 26.6519M52.0931 33.6662C52.0931 33.6662 51.8689 35.4353 50.0997 35.7094M52.6538 36.8307C52.6662 36.8058 54.3482 34.9619 53.9121 34.4012M56.5409 35.0491C56.5409 35.0491 56.516 36.3323 55.4695 37.2169M58.634 35.4228C58.634 35.4228 58.6714 36.9677 58.011 37.5907M60.5526 36.3448C60.5526 36.3448 59.8051 37.8025 59.5435 37.952M60.5277 38.9237C60.5277 38.9237 61.4995 39.1729 61.811 38.5251M60.7769 41.0293C60.7769 41.0293 61.6739 41.1912 62.0975 40.3316M60.6772 42.6614C60.6772 42.6614 61.4123 43.2843 61.9106 42.462M50.1994 30.701C50.1994 30.701 50.1122 33.853 54.5351 34.4884C59.4812 35.8589 61.8234 35.1363 62.11 40.6804C61.9231 42.7984 61.6615 45.1656 60.1166 44.2561M45.49 33.6039C45.49 33.6039 46.2002 34.8622 47.0474 34.775C48.1686 34.4511 48.5798 35.1363 48.5798 35.1363M42.475 34.8622C42.475 34.8622 44.3438 35.7717 45.9261 34.3016M42.6868 33.554C42.8488 35.7343 40.1826 36.9802 39.1236 36.7684M42.8114 41.8765C42.8238 41.8765 44.2566 41.0293 43.9701 40.4313M39.9708 40.6181C40.0082 40.5683 42.3753 40.344 42.8114 39.4968M38.8744 37.1297C38.8744 37.1297 42.2258 37.1546 42.4501 37.7651M43.3222 35.1487C43.3222 35.1487 40.058 40.7427 46.088 40.7427M39.8587 35.074C39.8587 35.074 39.161 37.1546 38.1643 37.8648M36.3951 34.3514C36.3951 34.3514 37.6036 36.6936 36.3951 37.8523M33.2306 35.0117C33.2431 35.0491 33.6168 38.3382 32.7946 39.2726M31.6484 35.1114C31.6484 35.1114 31.7729 37.2044 31.15 37.952C30.5271 38.6995 31.2995 40.2444 31.2995 40.2444M23.762 41.2411C23.762 41.2411 24.2105 42.026 24.821 41.7519M24.5095 39.5342C24.5095 39.5342 25.5062 39.9703 25.8426 39.8083M25.5934 36.0209C25.5934 36.0209 24.1233 36.432 24.6839 38.1762C25.5311 38.8615 26.3534 38.7493 26.3534 38.7493M22.6905 43.4089C22.6781 43.4089 22.8649 44.7794 23.8118 43.7453C24.4721 42.3499 26.5527 38.4379 27.0386 37.0923M28.0104 36.4569C28.0104 36.4569 27.0012 35.672 27.0386 36.7684C27.0137 37.4536 27.3501 37.6156 27.3501 37.6156C27.3875 38.1139 27.8235 38.8116 28.1724 38.1762C28.3219 37.5533 28.0727 37.2792 28.0727 37.2792M28.6583 36.1579C27.7488 36.1081 27.2504 38.1139 29.0071 36.8556M29.6051 35.4851C29.6051 35.4851 29.3809 35.7966 29.0196 35.4602C28.8327 35.1363 28.1724 36.9553 29.331 37.0176C29.5428 36.4818 30.1782 36.3323 30.1782 36.3323M30.7264 34.613C30.7264 34.613 30.2031 34.8622 30.0163 34.8248C29.3933 34.9619 29.5179 36.4195 30.3028 36.3323C30.5769 36.0209 30.8635 35.5848 30.8635 35.5848M25.8426 32.7193C25.8177 32.7193 23.7869 35.9212 26.9763 36.7684M51.6446 27.9227C51.6446 27.9227 50.3988 28.9692 51.5574 30.6636C47.6952 30.6013 45.6395 32.3829 45.4776 33.5789C40.5688 33.2301 41.4658 34.6753 39.8711 35.1487C37.7407 33.3671 34.6135 34.3638 34.8129 36.1454C33.3926 34.1396 31.1998 35.1114 30.9257 35.6097C30.6641 36.1081 30.7638 33.1429 30.7638 33.1429C30.7638 33.1429 29.331 33.7907 28.3468 34.9619V32.4826C27.1507 32.7317 25.9921 32.7317 24.7587 32.7068M21.5319 31.7973C21.5319 31.7973 23.3135 32.794 25.5187 31.4485M21.3948 28.2217C21.3948 28.2217 22.7653 29.4676 25.3816 29.0689M22.2669 25.3686C22.2669 25.3686 22.5659 26.3778 25.5436 26.4401M23.2636 23.0264C23.2636 23.0264 24.3849 24.3968 25.9049 24.185M24.2229 21.0704C24.2229 21.0704 24.659 21.8179 26.316 21.9425M25.1947 18.8901C25.1947 18.8901 26.0668 19.8369 27.0635 19.675M30.3651 11.1532C30.3651 11.1532 30.7513 10.7794 31.3992 10.9663M30.091 13.184C30.091 13.184 28.895 13.1466 28.9697 12.6856C29.0694 12.1374 30.2405 11.7512 30.2405 11.7512C30.2405 11.7512 31.7979 10.7545 32.0346 10.4057M24.9829 15.8875L26.5029 18.7904L27.2255 17.694L27.5993 18.4416L28.2222 17.3577L29.2936 18.0429L28.895 16.7098L29.792 16.6475C29.792 16.6475 29.5428 16.0121 28.7455 15.8751C28.9573 15.7131 29.7048 15.2148 29.7048 15.2148C29.7048 15.2148 29.2812 14.7164 28.6084 14.7039C28.8327 14.4672 29.1317 13.8941 29.1068 13.8941L28.4465 13.7446C28.4465 13.7446 29.9664 14.243 31.1375 13.5453M28.2471 11.203C28.2596 11.2155 28.1599 11.8011 27.836 12.1374M22.3915 12.7978C22.3915 12.7978 23.3259 12.5486 24.0236 12.6856C24.7213 12.8351 25.6557 13.0843 25.6557 13.0843C25.6557 13.0843 26.777 12.9348 27.1383 12.6732M20.0617 13.4207C20.0617 13.4207 19.9371 13.8692 19.8873 14.1682C19.8873 14.38 19.2021 14.6666 19.2021 14.6666M20.4853 12.4987C20.4853 12.4987 21.0833 13.2463 21.1083 13.6823C21.1207 14.1059 20.6597 14.4299 20.6597 14.4299M14.2933 17.5944L13.6704 16.5977L14.231 16.3983M25.5062 31.4734C25.0078 30.8256 25.88 20.9832 27.7114 18.4167C27.076 23.0513 29.2064 27.7856 29.7422 27.7607M19.8998 15.6757C19.8998 15.6757 20.747 15.9872 22.4787 14.6043M24.8334 17.9432L26.0793 17.9557M63.4929 10.2313C63.4929 10.2313 42.7242 19.9242 42.4252 20.4474C45.9261 19.376 60.8018 16.8967 61.1631 17.1085C60.291 17.3203 42.2383 21.469 41.3911 22.4657C45.9012 22.3162 55.3324 23.911 56.815 25.4558C53.6007 24.7332 44.0199 23.3254 41.0796 23.9483C43.2225 24.4591 51.4453 29.779 51.4453 30.6262C50.1994 29.4426 40.3196 25.3686 39.9334 25.7673C42.2009 27.1253 45.4028 32.1711 45.4028 33.4045C44.7425 32.358 39.0239 26.2158 38.6875 26.6145C39.298 27.4492 40.4941 34.7002 39.8836 35.0366C39.8836 34.1645 37.6659 27.8105 37.479 27.6361C37.0305 27.7607 34.2024 35.3605 34.763 36.0832C34.3893 33.5416 34.8253 28.2341 35.5106 28.4459C34.2647 28.6328 30.3153 33.853 30.7389 34.6753C30.8635 33.3671 31.0379 32.5075 33.2804 28.1843C30.7887 28.3338 25.6557 31.5606 24.7836 32.7193C25.4813 30.6636 29.8294 27.1876 31.7356 26.9384M40.7059 19.376C42.8986 18.155 49.6762 15.6757 54.2111 13.8443M36.445 25.9293C36.445 25.9293 37.94 25.9044 39.4351 21.8428C40.9052 16.2862 52.604 10.0942 52.8407 8.93555M16.6605 31.5233C16.6605 31.5233 16.3116 32.2708 15.888 32.4701M18.3424 32.6445C18.3424 32.6445 17.8814 33.5416 17.7693 33.9652M19.9496 33.0931C19.9496 33.0931 20.3234 34.314 20.0119 34.8871M15.4769 29.8912C14.3058 30.5515 16.1497 34.7501 21.7187 35.1487M20.8217 32.8813C20.8217 32.8813 20.6722 33.6288 21.7187 35.1238C21.4197 36.7933 22.9895 38.1015 23.6125 38.3133M20.3732 17.856L20.5476 17.4075L20.7345 17.9058L21.046 17.8934L21.2453 17.395L21.4197 17.8934H21.7187L21.9056 17.3452L22.1922 17.8685H22.4413L22.6282 17.2455L23.002 17.694L23.1515 17.6442L23.2761 16.9964L23.6623 17.4449L23.7869 17.3826L23.9613 16.7596L24.2728 17.2206L24.4347 17.1708L24.5842 16.6351L24.8833 17.1334M20.0243 17.9058L22.3666 17.8685C23.1141 17.8685 24.3351 16.8344 25.6931 17.1583M15.1156 22.8893C15.1156 22.8893 15.5018 23.7365 16.0375 23.2631M14.2186 23.45C14.2186 23.45 13.471 25.4683 14.3681 25.9417M13.1471 21.2323C13.1471 21.2323 13.1471 21.7058 14.1438 20.9832M10.0947 31.7849C10.0947 31.7849 10.8796 32.0341 10.755 32.6196M10.3813 22.553C10.3813 22.553 10.8796 22.7897 11.3531 22.0546M15.6139 45.6888C16.3739 45.639 16.5484 45.9879 17.2336 45.9879C18.0559 46.0128 18.8408 45.6888 19.8499 45.4023M26.4655 47.2711C26.4406 47.2711 26.0918 47.9937 26.4032 48.355M15.5018 47.3334C15.5018 47.3334 16.7228 46.3367 17.3706 46.9472C17.9811 47.159 18.3175 47.1216 18.3175 47.1216M16.1372 44.4679C16.1372 44.4679 16.4362 45.2403 15.4395 45.1282M15.1405 46.2495C15.1405 46.2495 15.7759 46.6482 15.0533 47.1839M15.5267 47.9065C15.5267 47.9065 16.3989 48.0311 15.888 48.7412M42.9734 43.7702C43.8579 44.4803 43.4966 44.9039 46.2874 43.0351M41.7026 44.6548C41.7026 44.6548 43.0107 46.0751 43.9701 44.3558M39.1983 45.1656L37.4168 46.1M34.2273 47.4081C34.2273 47.4081 35.3112 46.4862 35.8096 46.9721C36.3204 47.4704 38.4633 46.5485 38.4633 46.5485M35.0371 43.384C35.0371 43.384 35.4109 44.1315 34.6883 44.2187M33.6293 45.7013C33.6293 45.7013 34.0031 46.399 33.2804 46.5734M34.464 47.5826C34.464 47.5826 35.5853 47.6449 35.1866 48.4921M44.9543 47.4331C44.9543 47.4331 44.3314 47.9563 44.7923 48.5544M53.8872 43.6954C53.8872 43.6954 54.5974 44.0443 53.7502 44.6299M53.04 45.8633C53.04 45.8633 53.5757 46.4239 53.2144 46.8849M54.5351 48.0062C54.5351 48.0062 55.2701 48.218 55.1829 48.8284M64.8758 47.458C64.8758 47.458 64.2529 47.919 64.5893 48.5045M53.9121 29.4676C55.3823 29.2931 57.5002 32.5822 58.5842 33.2176M65.0502 24.8204C65.0502 24.8204 65.7978 25.4808 65.1375 27.063M66.4332 22.3038C66.645 22.4657 67.4423 22.9018 67.9781 23.8985M68.4889 17.395L67.4548 20.1983M69.6475 17.258C69.6475 17.258 69.4482 19.7497 69.1492 20.2481M43.8205 42.5866C43.8205 42.5866 46.1877 42.8358 46.3123 43.0102C46.5864 42.7237 48.7044 40.9919 46.1005 40.7552C45.9805 41.2717 45.6906 41.733 45.2772 42.0651C44.8637 42.3972 44.3508 42.5808 43.8205 42.5866V42.5866ZM65.0004 24.7955C64.664 25.7922 61.6615 26.2906 61.4621 24.8204C61.35 24.0729 63.2313 22.9143 65.0004 24.7955Z" stroke="black" stroke-width="0.324255" stroke-linejoin="round"/>
<path d="M23.425 12.6494L24.5837 12.8612C24.5837 12.8612 23.7739 13.9576 23.425 12.6494Z" fill="black" stroke="black" stroke-width="0.324255" stroke-linejoin="round"/>
</g>
<defs>
<clipPath id="clip0_238_5562">
<rect width="79.736" height="59.802" fill="white" transform="translate(0.713867 0.0283203)"/>
</clipPath>
</defs>
</svg>
