<svg width="138" height="295" viewBox="0 0 138 295" fill="none" xmlns="http://www.w3.org/2000/svg">
<path d="M66.9303 144.655C57.2704 128.448 48.3503 113.445 42.6256 99.0377C40.7277 93.1951 39.2365 87.4415 38.3147 81.9281C35.0689 66.1465 36.4245 56.8773 42.4552 44.1042C42.583 43.837 42.7186 43.5621 42.858 43.2872C45.7281 41.6495 49.6827 40.124 54.2144 39.6787C64.312 38.6836 81.4589 41.2429 88.0163 59.6805C94.9339 79.1597 80.1652 117.138 66.9303 144.655ZM129.294 34.8079C128.635 33.5418 126.191 28.9615 125.351 27.3934C125.192 27.103 125.087 26.9133 125.064 26.8707C114.397 7.29089 114.037 11.0001 107.379 9.82306C107.131 9.78046 106.875 9.71466 106.627 9.65271C99.0434 7.90652 86.0099 2.96994 79.6423 0.631348C73.0617 -1.77692 55.7443 3.40356 44.5661 4.50317C41.7232 4.77808 39.5193 5.30078 37.7608 5.98608C32.621 7.98007 31.3428 11.3679 29.2203 14.144C27.9808 15.7702 27.1132 16.2619 25.9629 16.5329C25.9396 16.5368 25.9087 16.5368 25.8932 16.5446C17.1977 19.6614 -3.34604 44.9947 1.09271 79.9534C1.41032 83.3839 2.13075 86.7253 3.05645 89.9969C11.5505 123.546 39.9763 168.541 46.9559 181.31C41.8122 193.142 30.8354 217.438 27.334 240.321C27.1907 241.095 26.3425 246.353 26.2882 250.767C25.8234 262.398 28.0041 273.041 34.7513 280.684C34.7939 280.731 36.0759 282.105 36.134 282.167C39.5851 285.567 43.652 287.727 47.7461 289.024C53.5405 291.518 57.9482 290.124 62.2127 289.4C64.1144 290.554 66.1053 291.444 68.131 292.137C80.324 296.35 93.9656 292.97 100.356 289.4C108.928 286.616 112.836 281.586 115.284 273.789C117.751 266.444 121.528 251.456 112.979 229.274C109.141 219.695 101.418 204.704 89.5191 182.913L89.4417 182.785C98.9815 164.739 124.526 120.085 129.073 107.037C129.321 106.348 129.534 105.682 129.747 105.016C137.47 85.2617 142.513 59.1307 129.294 34.8079Z" fill="white"/>
<path d="M59.6801 205.167C56.9262 199.858 50.8995 188.293 49.6135 185.544C35.6078 212.825 32.1529 243.122 31.9321 251.927C32.0793 258.695 31.9321 268.959 41.5068 273.33C54.2111 256.035 31.9321 230.194 59.6801 205.167Z" fill="#ACA9A6"/>
<path d="M91.8337 114.186C95.1105 97.9206 103.279 84.0517 92.9066 61.4441C84.3622 42.8323 69.6555 36.1727 54.2089 39.6806H54.2128C64.3181 38.6855 81.4689 41.2371 88.0186 59.6824C94.9362 79.1616 80.1675 117.14 66.9326 144.657C66.6305 145.304 66.3012 145.951 65.9914 146.593C72.4248 157.756 77.6886 167.362 83.971 178.706C83.971 178.706 92.4379 165.046 95.9549 158.859C88.7429 142.156 89.7886 124.319 91.8337 114.186Z" fill="#ACA9A6"/>
<path d="M131.964 61.1375C131.957 60.576 131.957 60.003 131.945 59.4648V59.3719C131.941 59.128 131.93 58.9112 131.93 58.6711C131.841 56.2357 131.67 54.1294 131.438 52.3871C131.19 50.6719 130.892 49.3942 130.617 48.4805C129.393 44.8138 126.457 40.4309 123.095 36.2145C116.518 27.9636 108.307 20.3826 108.051 20.1426C107.532 20.371 107.001 20.6459 106.451 20.9634C99.4369 25.1604 99.5996 30.8598 75.2407 19.1978C71.5611 17.4362 65.8093 18.5512 62.5906 18.7642C87.2207 37.0508 114.252 36.2687 131.964 61.1375Z" fill="#BCBAB7"/>
<path d="M113.067 129.965C114.008 128.544 114.861 127.224 115.624 126.023C116.534 124.533 117.397 123.007 118.215 121.462C118.587 120.762 118.947 120.053 119.299 119.341C129.3 99.2187 132.104 75.7399 131.961 61.1354C119.427 24.7325 82.8829 40.9671 71.178 18.2704C70.9843 18.2821 62.2191 18.7931 62.0332 18.8125C62.6064 19.5443 63.1991 20.2644 63.8226 20.9846C68.4628 26.2812 79.3312 37.0294 91.0206 39.7707C102.718 42.5158 112.525 44.2194 122.394 58.913C132.263 73.6182 121.767 94.3363 112.525 114.683C108.838 122.798 108.47 130.952 107.931 139.002C109.434 136.926 109.759 134.51 111.541 132.118C112.06 131.413 112.568 130.693 113.067 129.965Z" fill="#CCC9C6"/>
<path d="M122.396 58.9173C112.523 44.216 102.72 42.5124 91.0223 39.7711C79.3289 37.0338 68.4645 26.2778 63.8243 20.9812C63.2007 20.2688 62.6081 19.5409 62.0349 18.8168C53.9708 19.6028 47.5024 26.061 43.1373 35.3069C41.6383 38.4857 40.3834 41.9897 39.3957 45.6989C42.626 42.9035 48.0911 40.2784 54.2148 39.6821C69.6536 36.1703 84.3681 42.8299 92.9086 61.4495C103.285 84.0493 95.1125 97.926 91.8318 114.184C89.7867 124.316 88.7448 142.154 95.953 158.857C98.459 154.447 101.166 148.349 107.933 139.006C108.471 130.949 108.835 122.795 112.523 114.687C121.768 94.3368 132.261 73.6148 122.396 58.9173Z" fill="#BBB8B5"/>
<path d="M62.5972 18.759C62.4036 18.7707 62.2176 18.7979 62.0279 18.8056C53.9637 19.6032 47.5031 26.0497 43.1302 35.3034C41.6352 38.486 40.3764 41.9861 39.3964 45.703C40.3686 44.8628 41.5267 44.0421 42.8514 43.2871C45.7292 41.6532 49.6838 40.1238 54.2155 39.6786C64.3131 38.6874 81.4677 41.2427 88.0135 59.6765C94.935 79.1595 80.1663 117.138 66.9314 144.655C73.3571 155.818 77.2962 162.896 84.5779 174.778C84.5779 174.778 116.064 126.791 116.42 126.078C126.417 105.956 131.987 81.2776 130.495 61.5041C128.117 29.7939 108.305 20.3815 108.05 20.1453C107.531 20.3698 106.996 20.6486 106.45 20.9622C99.4396 25.1632 99.2576 31.8653 74.8987 20.2072C72.292 18.9527 68.8177 18.6506 65.874 18.6506C64.6617 18.6506 63.5346 18.6971 62.5972 18.759Z" fill="url(#paint0_linear_152542_2309)"/>
<path d="M52.4125 182.692C41.5093 197.893 24.773 279.132 49.1048 276.286C87.3028 270.939 57.4749 193.053 52.4125 182.692Z" fill="#9A9794"/>
<path d="M62.5972 18.7591C62.4036 18.7707 62.2176 18.7979 62.0279 18.8056C53.9637 19.6032 47.5031 26.0498 43.1302 35.3034C41.6352 38.4861 40.3764 41.9861 39.3964 45.7031C40.3686 44.8629 41.5267 44.0422 42.8514 43.2872C45.7292 41.6533 49.6838 40.1239 54.2155 39.6786C64.3131 38.6874 81.4677 41.2428 88.0135 59.6765C94.935 79.1595 80.1663 117.138 66.9314 144.655C73.3571 155.818 78.892 167.217 85.186 178.557C85.186 178.557 118.949 120.058 119.298 119.341C129.302 99.2157 133.598 75.6556 131.967 61.1362C130.302 46.3807 127.416 41.0995 123.791 35.6596C122.524 33.7546 108.305 20.3815 108.05 20.1453C107.531 20.3699 106.996 20.6487 106.45 20.9623C99.4396 25.1632 99.2576 31.8653 74.8987 20.2072C72.292 18.9528 68.8177 18.6506 65.874 18.6506C64.6617 18.6506 63.5346 18.6971 62.5972 18.7591Z" fill="url(#paint1_linear_152542_2309)"/>
<g opacity="0.279999">
<path d="M77.9082 28.648C67.524 28.7564 59.9285 32.1364 59.6806 34.5486C108.189 36.136 112.082 70.0609 64.6616 155.787C46.682 188.291 39.5397 218.174 39.4506 238.249V239.004C39.5048 251.661 42.4214 260.284 47.201 262.998C48.8394 263.927 50.594 264.365 52.3292 264.392H52.6274C60.1299 264.287 67.0747 256.412 62.206 246.349C56.1482 233.835 61.2648 208.022 76.7617 179.823C92.2547 151.613 146.414 74.0683 113.066 42.5633C101.977 32.0861 89.1948 28.7525 78.9191 28.648H77.9082Z" fill="url(#paint2_linear_152542_2309)"/>
</g>
<g opacity="0.330002">
<path d="M55.3755 33.5103C58.1062 32.6237 60.9569 32.132 63.8076 31.8338C66.67 31.528 69.5594 31.4776 72.4334 31.6673C78.1851 32.0507 83.9524 33.4561 89.1077 36.2516C94.2708 39.0161 98.6475 43.2247 101.804 48.2C103.361 50.7012 104.639 53.3651 105.701 56.1102C106.677 58.8747 107.513 61.6856 108.094 64.5663C110.461 76.1198 109.376 88.0837 106.975 99.4708C104.535 110.9 100.774 121.974 96.3856 132.676C92.032 143.404 86.9581 153.762 81.8028 164.002L73.9594 179.261L66.2671 194.501C61.3171 204.692 56.5336 214.952 53.2259 225.63C52.3893 228.298 51.6998 230.993 51.1576 233.722C50.5766 236.433 50.1621 239.186 50.015 241.942C49.678 247.46 50.29 253.085 52.5055 258.336L51.8393 258.688C48.6167 253.813 47.0287 247.862 46.6646 241.954C46.2656 236.03 46.9822 230.098 48.1713 224.349C49.3139 218.576 51.0762 212.985 52.978 207.487C54.8798 201.981 57.1108 196.623 59.4115 191.318C68.7073 170.155 79.6492 150.056 89.3517 129.582C91.7454 124.448 94.1236 119.318 96.2268 114.087C98.3687 108.868 100.332 103.583 101.917 98.1969C105.108 87.4642 106.917 76.1508 105.279 65.0696C104.918 62.3051 104.167 59.5948 103.361 56.9272C102.463 54.2904 101.355 51.7273 99.9877 49.3035C97.1951 44.4947 93.2327 40.3596 88.3912 37.5061C83.569 34.6332 78.0147 33.0225 72.3714 32.4224C69.5439 32.1242 66.6893 32.0584 63.8425 32.2404C60.9995 32.4301 58.1527 32.8018 55.3949 33.5762L55.3755 33.5103Z" fill="#797775"/>
</g>
<g opacity="0.550003">
<path d="M26.727 245.435C26.727 262.107 34.4619 271.857 40.6281 275.814C42.5996 277.08 45.9267 277.966 49.4552 278.04H50.3887C51.8296 278.009 53.2859 277.843 54.6841 277.502C64.1891 275.186 71.3856 265.654 71.5522 247.917V246.639C71.4863 239.554 70.3282 231.206 67.799 221.546C66.9546 218.313 60.2074 203.685 58.8673 201.095C56.1134 195.791 49.7767 183.308 48.4869 180.559C37.4675 205.459 26.9478 236.615 26.727 245.435Z" fill="url(#paint3_linear_152542_2309)"/>
</g>
<g opacity="0.440002">
<path d="M43.1302 35.3035C41.6351 38.4862 40.384 41.9862 39.3964 45.7032C40.3608 44.863 41.5305 44.0423 42.8552 43.2873C45.7291 41.6534 49.6837 40.124 54.2077 39.6787C64.313 38.6875 81.4599 41.2429 88.0173 59.6766C94.935 79.1596 80.1662 117.138 66.9313 144.655C73.3571 155.818 79.3064 166.167 85.5849 177.508C85.5849 177.508 118.949 120.058 119.298 119.342C129.302 99.2197 138.66 61.5041 123.097 36.2134C117.566 27.2269 109.63 20.4861 109.367 20.2499C108.329 20.4048 106.996 20.6488 106.45 20.9624C99.4396 25.1633 101.876 28.5743 77.0521 17.9422C75.0226 17.0711 72.8845 16.6839 70.7155 16.6839C59.2507 16.6839 46.8059 27.5289 43.1302 35.3035Z" fill="url(#paint4_linear_152542_2309)"/>
</g>
<g opacity="0.440002">
<path d="M70.7621 18.4496C62.6863 18.5077 53.6423 25.1016 50.2764 28.8767C46.3644 33.2712 40.3841 41.9865 39.3964 45.7034C42.6267 42.9118 48.088 40.2791 54.2078 39.679C64.3131 38.6878 81.46 41.2431 88.0174 59.6769C94.935 79.1599 80.1663 117.139 66.9314 144.656C66.6216 145.302 66.304 145.953 65.9902 146.592C64.6617 148.95 49.037 178.987 48.487 180.559C38.8348 208.39 29.4964 236.906 29.2756 245.722C29.2756 260.818 34.6285 277.761 49.6412 277.998H50.2764C51.6669 277.978 53.131 277.816 54.6842 277.502C68.9687 274.587 72.5205 251.259 70.3747 239.241C70.3747 239.241 65.7656 219.711 65.5487 219.305C65.5487 219.305 93.9086 162.458 95.9537 158.858C98.4481 154.448 118.949 120.058 119.298 119.342C129.302 99.2199 132.924 75.7101 131.963 61.1366C131.626 56.0064 126.456 40.4339 123.097 36.2136C116.517 27.9628 106.996 20.649 106.45 20.9626C99.4396 25.1636 100.544 28.6289 75.2473 19.1971C73.8955 18.6938 72.474 18.4612 71.0177 18.4496H70.7621Z" fill="url(#paint5_linear_152542_2309)"/>
</g>
<path d="M53.9443 36.9531C52.6312 37.0886 48.0453 37.983 45.2565 38.9084L43.7498 41.2158L42.8513 43.2873C45.7291 41.6534 49.6837 40.124 54.2154 39.6788C64.313 38.6876 81.4676 41.2429 88.0134 59.6767C94.9349 79.1597 80.1662 117.138 66.9313 144.655C66.6447 145.256 66.3503 145.848 66.0637 146.444C68.194 148.233 69.8711 149.592 69.8711 149.592C70.27 148.934 70.514 148.392 70.8704 147.714C84.4965 119.326 97.836 79.121 90.6007 58.7669C87.7849 50.8567 82.9201 44.9329 76.138 41.1695C75.7119 40.9372 73.1362 39.6943 72.2415 39.3536C71.8077 39.1755 71.3739 39.0129 70.9362 38.858C70.088 38.5638 67.4503 37.8434 67.0165 37.7467C65.3665 37.3672 63.6545 37.0962 61.9193 36.9413C60.6256 36.8174 59.3048 36.7633 57.9995 36.7633C56.6323 36.7633 55.2612 36.8214 53.9443 36.9531Z" fill="url(#paint6_linear_152542_2309)"/>
<path d="M84.5807 174.778C83.5194 173 82.8881 172.025 82.8842 172.021C82.4853 171.347 82.1096 170.708 81.7223 170.062C67.0349 143.664 51.2204 120.677 42.6217 99.0408C40.7277 93.1982 39.2365 87.4408 38.3108 81.9351C35.0689 66.1458 36.4245 56.8766 42.4552 44.1073C48.2535 31.8181 65.7877 16.4818 75.5986 21.1784C96.7543 31.3032 99.5702 26.4169 104.671 22.2586C104.83 22.1386 105.229 21.8443 105.392 21.6933C105.504 21.6082 106.151 21.19 106.259 21.1125C161.724 63.7297 102.266 146.099 84.5807 174.778ZM50.7401 274.647C49.2799 274.876 47.8816 274.915 46.5454 274.775C44.3337 274.481 42.1182 273.614 39.9996 272.154C37.0326 270.11 34.8288 267.09 33.6939 263.671C30.2506 253.36 30.971 232.847 49.3922 186.397C51.3095 190.571 53.1144 194.497 53.9084 196.107C64.5676 217.67 67.1278 237.447 67.1395 249.256C65.9891 264.12 58.8236 273.134 50.7401 274.647ZM129.294 34.8072C128.635 33.545 126.195 28.9684 125.351 27.3926C125.192 27.0984 125.087 26.9087 125.064 26.8661C114.397 7.29013 114.037 11.0071 107.371 9.83005C107.135 9.78745 106.875 9.7139 106.627 9.65582C99.0434 7.91348 86.0022 2.96918 79.6346 0.638336C73.0617 -1.77383 55.7443 3.40283 44.5661 4.49854C41.7154 4.78119 39.5193 5.29999 37.7608 5.98145C32.621 7.97931 31.3428 11.3672 29.2203 14.1432C27.9808 15.7655 27.1055 16.265 25.959 16.5283C25.9396 16.536 25.9087 16.536 25.8932 16.5477C17.1977 19.6606 -3.34604 44.9978 1.09271 79.9488C1.40257 83.3792 2.13075 86.7245 3.05258 90.0001C11.5505 123.546 39.9763 168.548 46.9559 181.309C41.8122 193.146 30.8354 217.437 27.334 240.316C27.1907 241.09 26.3425 246.36 26.2882 250.758V250.766C25.8196 262.397 27.9963 273.048 34.7513 280.687C34.7939 280.73 36.0759 282.108 36.1379 282.17C39.5812 285.562 43.652 287.73 47.7499 289.031C53.5405 291.521 57.9482 290.123 62.2049 289.395C64.1144 290.557 66.1053 291.44 68.1349 292.136C80.324 296.353 93.9656 292.965 100.356 289.395C108.928 286.615 112.828 281.586 115.284 273.792C117.751 266.451 121.528 251.455 112.983 229.277C109.137 219.695 101.418 204.699 89.5191 182.912L89.4416 182.784C98.9776 164.738 124.522 120.088 129.077 107.036C129.321 106.351 129.534 105.685 129.747 105.023C137.47 85.2648 142.513 59.1261 129.294 34.8072Z" fill="#EFECE8"/>
<path d="M106.316 140.389C105.514 141.682 103.469 144.741 100.924 148.512C94.5796 159.241 88.5489 168.339 84.5866 174.767C85.8764 176.846 88.7504 181.527 89.9782 183.757C89.8194 183.474 89.6722 183.2 89.5211 182.913L89.4398 182.785C90.0518 181.631 90.7335 180.361 91.4694 178.995C91.4965 171.739 103.844 146.026 106.316 140.389Z" fill="#DAD7D3"/>
<path d="M79.5548 5.43026C74.872 2.92132 68.8956 3.12265 63.198 4.11771C61.4589 4.42359 57.3029 5.22118 57.3029 5.22118C57.3029 5.22118 65.704 7.28487 72.4125 9.65442C76.735 11.3077 83.9858 14.107 92.7238 9.49955L92.8865 9.12398C88.8583 8.69421 84.0051 7.81531 79.5548 5.43026Z" fill="#BBB8B5"/>
<path d="M52.2169 7.41464C50.2958 8.17739 48.6148 8.84713 47.4218 9.50534C31.6576 18.244 27.1802 26.8937 26.4326 27.5945C25.9833 30.6378 25.2939 32.9726 24.9531 36.6741C27.8696 38.1763 42.0109 35.4234 51.4113 28.0244C52.5771 27.0487 53.8049 26.1156 55.0831 25.229C55.5789 24.8456 56.0321 24.6132 56.4116 24.3267C56.4736 24.3035 56.5278 24.1836 56.5859 24.1603C61.962 19.3593 68.287 7.58895 74.2015 10.4967C74.674 10.729 75.1427 10.9419 75.5997 11.1355C74.9025 10.7328 74.2015 10.3341 73.4927 9.9508C69.2553 7.67803 64.7701 6.02084 59.8975 6.02084C57.4458 6.02084 54.8895 6.44281 52.2169 7.41464Z" fill="url(#paint7_linear_152542_2309)"/>
<path d="M28.9071 17.1806C28.2061 18.9268 27.6251 20.611 27.23 22.7715C26.955 24.2544 26.6916 25.8728 26.436 27.6035C36.3747 15.2756 46.391 10.0022 47.429 9.51048C48.591 8.93745 51.7825 6.74986 53.2002 6.28137C42.417 9.2046 36.398 13.5991 29.9568 15.5467C29.6701 15.8061 29.0737 16.7701 28.9071 17.1806Z" fill="#F6F2EE"/>
<path d="M81.7128 21.4537C65.2359 12.2194 56.7419 23.9627 56.738 23.9666C56.6877 23.982 56.6373 24.1447 56.5908 24.164C50.7345 29.3987 44.8742 36.6932 42.4496 44.1078C48.2556 31.8147 65.7898 16.4784 75.6008 21.1788C98.8016 32.2794 99.9674 25.3604 106.261 21.113C101.664 23.8891 97.8604 30.4983 81.7128 21.4537Z" fill="#EBE7E3"/>
<path d="M104.64 21.9307C93.8261 26.4529 86.525 17.5903 75.6025 11.1399C75.1415 10.9385 74.6768 10.7333 74.2042 10.4933C66.6165 6.71438 53.8464 26.7511 53.8774 26.7356C56.3175 24.9391 65.2376 12.2201 81.7145 21.4544C97.8582 30.499 100.263 25.3611 104.652 22.2714C104.873 22.1204 106.263 21.1137 106.263 21.1137C106.263 21.1137 104.861 21.7603 104.652 21.9229L104.64 21.9307Z" fill="#FFFBF7"/>
<path d="M51.4108 28.0241C42.0027 35.1753 27.8692 38.1721 24.9565 36.6776C23.6744 50.8059 20.5991 69.0731 23.7287 89.7138C25.0959 98.7275 26.9241 108.322 28.4424 117.816C24.5847 87.4914 23.7674 51.0885 51.4108 28.0241Z" fill="#EFECE8"/>
<path d="M37.7607 5.98476C32.6209 7.98263 31.3427 11.3666 29.2202 14.1427C27.973 15.7689 27.1054 16.2683 25.9589 16.5316C26.7452 16.3651 27.6748 16.1444 28.7322 15.885C31.6023 15.1649 34.0347 14.1001 36.8815 12.8456C39.4959 11.6918 42.4551 10.3832 46.2548 8.83443C48.3657 7.97488 52.8277 6.35259 55.1788 5.71761C57.5608 5.07101 63.7503 4.01788 64.0872 3.95205C64.0872 3.95205 66.4654 3.64618 67.2362 3.53003C67.0154 3.54551 41.0452 5.02842 37.7607 5.98476Z" fill="#EFECE8"/>
<path d="M66.5866 3.57024C66.0366 3.60896 41.0425 5.02977 37.7619 5.98611C32.6259 7.98397 31.3439 11.3719 29.2213 14.1402C27.9741 15.7703 27.1065 16.2697 25.9639 16.533C26.7463 16.3665 27.6759 16.1498 28.7256 15.8826C31.5995 15.1663 34.0358 14.0977 36.8826 12.8393C39.4932 11.6894 42.4563 10.3885 46.2598 8.83586C48.363 7.97632 52.825 6.34625 55.1722 5.71127C57.562 5.07242 63.5113 4.03863 64.0845 3.95733C64.8746 3.84504 66.4666 3.64367 67.2373 3.53526C67.0166 3.54301 66.7997 3.55088 66.5866 3.57024Z" fill="url(#paint8_linear_152542_2309)"/>
<path d="M104.008 283.044C103.753 283.582 103.551 284.051 103.288 284.515C102.386 286.285 101.406 287.927 100.356 289.398C108.978 286.595 112.836 281.666 115.283 273.787C106.15 283.373 104.008 283.044 104.008 283.044Z" fill="#D2CFCB"/>
<path d="M83.9725 285.673C77.1052 282.664 71.5858 288.565 68.1348 292.143C80.3278 296.351 93.9655 292.967 100.36 289.394C101.402 287.926 102.386 286.288 103.288 284.519C99.6824 290.513 90.6151 288.584 83.9725 285.673Z" fill="#DEDBD7"/>
<path d="M62.8671 275.451C66.3453 268.606 68.1889 256.205 67.1393 249.258C65.9734 264.076 58.8079 273.132 50.7438 274.646C49.2836 274.878 47.8776 274.913 46.5491 274.774C44.3336 274.48 42.1219 273.616 39.9955 272.156C39.643 271.913 39.3061 271.649 38.973 271.382C32.8184 269.551 27.8645 264.339 26.4081 257.958C26.3965 257.893 26.3694 257.838 26.3578 257.776C26.4198 258.814 26.5166 259.848 26.6405 260.866L26.6638 261.087C27.0434 264.169 27.6824 267.127 28.6353 269.911C35.4173 282.188 54.9347 291.063 62.8671 275.451Z" fill="#EBE7E3"/>
<path d="M50.7404 274.647C49.2802 274.879 47.8819 274.914 46.5457 274.774C44.3379 274.48 42.1185 273.617 39.9999 272.157C38.377 271.034 36.9787 269.625 35.8555 268.006C30.2896 262.245 27.222 251.969 26.7301 244.992L26.7107 244.737V244.741V244.737V244.748C26.5016 246.599 26.3118 248.771 26.2886 250.765V250.773C26.1181 254.997 26.3002 259.09 26.9199 262.961C26.9431 263.031 26.9548 263.105 26.9664 263.186C33.1287 274.898 50.2291 286.58 61.6126 266.853C58.6535 271.216 54.8112 273.884 50.7404 274.647Z" fill="#F2EFEA"/>
<path d="M125.067 26.868C114.4 7.28815 114.039 11.0012 107.374 9.82807C98.3489 10.312 88.263 16.6076 75.6013 11.1406C93.4222 21.8036 108.431 -1.19889 125.311 27.321C125.322 27.3442 125.52 27.7159 125.535 27.7391C125.462 27.6114 125.407 27.4952 125.346 27.3945C125.194 27.1003 125.09 26.9106 125.067 26.868Z" fill="#E7E4E0"/>
<path d="M106.261 21.1093C106.361 21.0473 106.474 20.9815 106.578 20.9157C110.579 18.2829 118.388 16.8929 125.352 27.3894C115.123 10.0746 105.59 11.6659 95.7021 13.2649C89.2453 14.3103 82.6376 15.3519 75.5999 11.1355C85.5115 17.5201 96.7827 26.9867 106.261 21.1093Z" fill="url(#paint9_linear_152542_2309)"/>
<path d="M47.7502 289.028C52.2316 286.228 56.0545 282.314 59.095 277.772C50.6242 285.555 32.2843 283.03 26.8966 262.815C27.9772 269.649 30.4251 275.786 34.7516 280.684C34.7942 280.734 36.0762 282.109 36.1382 282.167C39.5815 285.566 43.6523 287.727 47.7502 289.028Z" fill="#CCC9C6"/>
<path d="M79.6384 0.63563C73.0616 -1.77652 55.7482 3.40786 44.5661 4.49971C41.7192 4.77848 39.5154 5.30505 37.7646 5.98262C44.3763 4.54617 44.8333 5.97488 64.2035 3.81053C64.3003 3.79504 66.7443 3.55886 67.3679 3.52401C71.7215 3.24137 76.013 3.53563 79.5532 5.43282C84.0035 7.81399 88.2022 8.82067 92.2342 9.25431C97.2501 9.78863 102.006 9.42467 106.623 9.65698C99.0473 7.91079 86.006 2.96647 79.6384 0.63563Z" fill="#F2EFEA"/>
<path d="M74.5539 0.00776291C66.4007 0.131661 53.5222 3.62409 44.5672 4.50299C41.7165 4.77789 39.5165 5.30444 37.7619 5.98589C44.4471 4.64623 45.1211 5.97059 64.2085 3.81011C64.2975 3.79462 66.7493 3.55839 67.3613 3.51968C71.7226 3.24091 76.0064 3.53509 79.5504 5.42841C84.0008 7.81733 88.2033 8.81635 92.2315 9.24612C95.2565 9.57523 98.1808 9.57526 101.047 9.56751C102.933 9.56751 104.789 9.56741 106.628 9.65259C99.0407 7.91027 86.0033 2.97377 79.6434 0.635186C78.5124 0.224772 77.0832 0.0348654 75.4138 0.00776291H74.5539Z" fill="url(#paint10_linear_152542_2309)"/>
<path d="M92.2304 9.2505L91.7037 9.51766C84.4839 13.4127 77.8142 11.6046 73.4955 9.9513C74.2004 10.3307 74.9092 10.7257 75.5987 11.1438C88.2603 16.6108 98.3463 10.3075 107.371 9.82353C107.135 9.78094 106.875 9.71512 106.627 9.65317C102.01 9.42086 97.254 9.78869 92.2304 9.2505Z" fill="#EBE7E3"/>
<path d="M106.315 230.192C98.1157 194.025 80.2755 170.477 64.5617 151.184C51.2223 134.821 43.9677 117.174 40.6289 101.206C40.9581 104.869 41.2602 108.71 41.5081 112.62C44.5486 134.802 52.8219 161.15 77.1614 190.963C99.2777 218.046 103.96 221.74 106.315 230.192Z" fill="#FFFBF7"/>
<path d="M125.761 28.1587C125.761 28.1665 126.016 28.7511 126.016 28.7511C126.078 28.8905 127.55 32.3635 127.604 32.4991C131.714 42.1399 127.465 50.081 126.652 51.4478C132.582 72.4214 126.365 96.419 116.736 118.233C112.541 127.789 112.696 136.353 111.48 142.393C111.492 142.362 111.511 142.331 111.523 142.308C119.521 127.521 126.834 113.459 129.076 107.039C129.32 106.35 129.533 105.684 129.746 105.018C137.466 85.2643 142.513 59.1295 129.297 34.8105C128.72 33.7109 126.807 30.1179 125.761 28.1587Z" fill="#EBE7E3"/>
<path d="M106.262 21.114C112.103 25.6053 116.158 30.902 119.636 36.1638C118.455 27.82 116.348 19.5382 109.365 20.2467C108.485 20.3435 107.668 20.5023 106.831 20.8507C106.804 20.8585 106.731 20.7462 106.262 21.114Z" fill="#DEDBD7"/>
<path d="M127.785 32.3214C127.731 32.1859 123.633 26.2426 121.301 23.8692C118.737 21.0931 115.019 19.4398 111.765 19.525C108.767 19.6024 107.59 20.4039 106.66 20.8608C106.513 20.9266 106.343 21.0621 106.265 21.1163C116.258 18.2473 118.164 27.9075 119.639 36.1584C122.85 41.0175 125.155 46.1438 126.654 51.4714C127.223 50.4028 131.472 41.8112 127.785 32.3214Z" fill="#CCC9C6"/>
<path d="M68.1345 292.138C72.4764 288.592 76.0514 284.724 80.6257 284.875C77.3335 284.735 65.0514 287.372 62.2045 289.397C64.1179 290.551 66.1088 291.441 68.1345 292.138Z" fill="#D2CFCB"/>
<path d="M110.11 254.729C109.983 251.353 109.603 248.012 108.979 244.782C107.736 238.348 105.478 232.358 102.004 227.456C89.1949 209.398 58.4955 176.104 50.532 150.167C52.8444 166.424 48.9014 185.973 55.4162 195.575C57.6317 198.429 59.7736 201.244 61.8187 204.001C77.4434 222.64 95.6283 233.45 95.0551 259.89C94.7491 273.899 90.0354 278.897 83.1448 285.355C83.4121 285.444 83.6871 285.549 83.9737 285.673C90.6241 288.569 99.6836 290.509 103.286 284.519C107.938 275.424 110.587 267.003 110.11 254.729Z" fill="#EFECE8"/>
<path d="M96.2512 262.132C100.384 228.125 80.7426 209.908 62.031 188.474C59.8658 186.066 53.6144 183.324 56.0661 188.97C66.6285 205.568 73.674 221.671 75.3472 228.369C85.2124 267.905 74.375 280.411 62.2091 289.401C65.0521 287.372 77.3381 284.735 80.6226 284.879C81.4282 284.902 82.2648 285.053 83.1441 285.355C88.7487 280.097 92.6568 277.332 94.8645 268.962C95.1783 267.8 95.4571 266.507 95.7399 265.078C95.9219 264.157 96.1233 263.181 96.2512 262.132Z" fill="#E7E4E0"/>
<path d="M81.8205 237.278C77.2539 218.996 66.4282 190.456 47.2169 165.537C46.9225 166.428 45.226 171.806 43.82 175.805C45.0982 178.009 46.1672 179.867 46.9535 181.307C47.9411 183.22 48.5764 184.548 49.3897 186.399C51.307 190.573 53.1158 194.499 53.906 196.109C64.569 217.672 67.1254 237.445 67.137 249.258C67.931 264.064 60.5176 281.053 47.7475 289.025C53.5419 291.523 57.9496 290.125 62.2102 289.397C72.606 285.614 91.6857 276.818 81.8205 237.278Z" fill="#F2EFEA"/>
<path d="M16.9237 27.5097C4.03352 45.1226 0.845832 73.6813 5.99726 88.8395C12.5779 108.218 15.5216 117.801 31.7776 143.726C33.2727 146.108 23.3533 106.476 21.1843 96.8348C19.2012 88.0148 13.1821 51.9757 25.9097 23.5682C27.091 20.9314 28.4389 18.0276 29.9572 15.5497C24.8484 18.229 20.5103 22.6157 16.9237 27.5097Z" fill="url(#paint11_linear_152542_2309)"/>
<path d="M57.6057 18.813C51.6951 21.6588 46.5863 25.8868 42.287 30.6763C37.976 35.4812 34.6334 41.0644 32.294 47.0154C27.6306 58.9832 27.2742 72.2132 29.3155 84.8818C31.2366 97.6434 35.8458 109.979 38.4718 122.984C39.8042 129.466 40.5479 136.129 40.3349 142.762C40.1063 149.39 38.9405 155.965 36.9032 162.202C38.1775 155.763 38.8514 149.243 38.588 142.762C38.3944 136.28 37.2982 129.88 35.7683 123.581C34.1996 117.289 32.2824 111.052 30.3961 104.756C28.5679 98.4449 26.8598 92.0254 25.8218 85.4316C24.8225 78.8457 24.4235 72.1281 24.9619 65.4375C25.2834 62.1 25.7443 58.7703 26.5654 55.5102C27.344 52.2462 28.3859 49.0287 29.7609 45.9661C32.4412 39.8022 36.2873 34.1687 41.0437 29.4915C45.8233 24.8802 51.3736 20.9541 57.6057 18.813Z" fill="#CCC9C6"/>
<path d="M44.2084 175.29C45.5215 171.794 46.362 168.162 46.7609 164.476C47.0824 160.782 47.1637 157.073 46.8887 153.368C46.4975 145.953 45.3627 138.581 44.2511 131.209C43.1782 123.829 41.9387 116.465 40.9433 109.066C39.8936 101.675 39.545 94.2565 38.8362 86.8226L45.5835 131.008C46.6951 138.391 47.7292 145.814 47.981 153.321C48.1282 157.073 47.9074 160.836 47.4581 164.561C46.8229 168.27 45.8197 171.914 44.2084 175.29Z" fill="#CCC9C6"/>
<path d="M25.6487 24.1629C24.2078 28.8633 22.9064 33.5985 21.9536 38.3996C20.9311 43.1929 20.1797 48.0327 19.7071 52.8957C18.7272 62.6179 18.7272 72.4368 19.7381 82.1474C20.6871 91.8695 22.9568 101.414 25.3814 110.915C26.5783 115.677 27.8758 120.416 28.9642 125.225C29.9829 130.03 30.9551 134.92 30.8079 139.857C30.5832 134.936 29.46 130.146 28.1779 125.415C26.9075 120.68 25.4899 115.979 24.1342 111.256C21.392 101.816 19.1571 92.1599 18.0494 82.3255C17.542 77.4044 17.3212 72.4601 17.3832 67.5196C17.449 62.5792 17.7046 57.6387 18.3515 52.7447C18.9944 47.843 19.9163 42.9916 21.1015 38.206C22.3448 33.4398 23.8244 28.7355 25.6487 24.1629Z" fill="#CCC9C6"/>
<path d="M16.4373 28.2092C14.276 32.294 12.8119 36.6924 11.619 41.1373C10.4376 45.586 9.61261 50.1199 8.95803 54.6654C7.72634 63.7758 7.58303 73.0179 8.53197 82.1283C9.47705 91.2387 11.6577 100.229 15.3024 108.604C17.1655 112.754 19.2686 116.897 21.3408 120.978C23.3782 125.094 25.7292 129.047 27.9215 133.143C26.4496 131.347 25.0592 129.5 23.7074 127.607C22.3944 125.702 21.12 123.75 19.9232 121.76C18.7574 119.747 17.6341 117.714 16.5883 115.647C15.5271 113.602 14.52 111.488 13.5904 109.339C9.92247 100.744 7.78444 91.5523 6.89359 82.2948C5.97175 73.0217 6.47528 63.6674 7.89676 54.5067C8.63655 49.9302 9.65909 45.3885 11.0264 40.963C12.3975 36.5453 14.0397 32.1624 16.4373 28.2092Z" fill="#DEDBD7"/>
<path d="M26.4326 27.6016C30.6583 21.1821 36.4953 15.9319 42.8435 11.5645C46.0428 9.39624 49.4978 7.56487 53.2045 6.27942C54.5408 5.83416 55.8964 5.44698 57.3063 5.22241C57.8563 5.12949 58.4373 5.08302 58.9989 5.04431C60.0059 4.99784 61.0246 4.97849 62.0394 5.14885C63.0697 5.27275 64.0535 5.60185 64.9559 5.91159C72.3422 8.54056 78.7409 12.9544 85.2131 16.9386C88.455 18.9248 91.7627 20.8336 95.3532 21.9758C97.1349 22.5488 99.0096 22.9012 100.884 22.7734C102.759 22.6572 104.614 22.092 106.264 21.1163C104.711 22.2391 102.863 22.9825 100.927 23.2187C98.9864 23.4781 97.0149 23.2303 95.1286 22.7579C91.3483 21.7551 87.9127 19.9044 84.5585 18.0498C77.881 14.2902 71.5482 9.8957 64.4059 7.51066C63.4957 7.22414 62.6591 6.93763 61.7876 6.81373C60.9161 6.65499 60.0059 6.66273 59.0996 6.68596C57.2869 6.78663 55.4626 7.20091 53.6964 7.7662C50.1407 8.91613 46.7981 10.7281 43.5678 12.6912C40.3453 14.6774 37.2932 16.9579 34.4231 19.4475C31.5181 21.9022 28.8069 24.6009 26.4326 27.6016Z" fill="#CCC9C6"/>
<path d="M106.262 21.1141C107.788 19.8635 109.74 19.0349 111.801 18.8916C113.85 18.7445 115.945 19.2285 117.777 20.1616C121.035 21.811 123.444 24.1535 125.342 27.3942C125.396 27.4871 125.597 27.851 125.775 28.1918C125.892 28.4086 126 28.6215 126.062 28.7377C128.107 32.5205 129.42 36.1832 129.579 40.2022C129.784 44.2056 128.874 48.1936 126.659 51.4769C128.417 48.0504 129.033 44.105 128.684 40.2641C128.301 36.4194 127.038 32.687 125.082 29.3727C123.149 26.07 120.492 23.1352 117.196 21.2728C115.546 20.3591 113.71 19.7977 111.824 19.7396C109.93 19.6854 108.009 20.1693 106.262 21.1141Z" fill="#BBB8B5"/>
<path d="M48.5283 164.753C50.3526 173.236 53.1724 181.467 57.1424 189.122C59.0829 192.974 61.2868 196.683 63.7115 200.246L67.4221 205.577L69.2735 208.272C69.8854 209.17 70.4354 210.123 71.0203 211.036C73.3714 214.711 75.3777 218.586 77.2911 222.512C79.096 226.485 80.6415 230.577 81.8461 234.778C82.9964 238.983 83.8524 243.273 84.2358 247.613C84.6542 251.95 84.72 253.777 84.5612 258.102C84.4566 253.77 84.263 251.958 83.6587 247.679C83.0894 243.393 82.1985 239.161 80.9397 235.042C79.6577 230.922 77.996 226.934 76.2143 223.016C74.2932 219.159 72.283 215.338 69.9203 211.722C69.3354 210.816 68.7777 209.89 68.1735 209L66.3182 206.344C65.0981 204.578 63.8199 202.797 62.6192 200.985C60.2062 197.349 58.01 193.563 56.0928 189.648C52.2815 181.792 49.7019 173.352 48.5283 164.753Z" fill="#CCC9C6"/>
<path d="M46.1164 141.375C46.771 147.233 48.3009 152.952 50.0555 158.562C51.8178 164.168 53.9326 169.666 56.4115 174.982C61.3848 185.611 67.733 195.662 75.9443 204.013C78.0088 206.054 80.1662 208.176 82.0951 210.429C84.0356 212.686 85.8018 215.091 87.4169 217.596C90.6395 222.598 93.1067 228.092 94.7025 233.823C97.3828 243.44 97.7353 253.596 96.0698 263.361C95.7444 265.239 95.3377 267.113 94.8652 268.963C96.0194 263.175 96.5926 257.294 96.3874 251.428C96.2324 245.566 95.3532 239.723 93.6683 234.128C91.9641 228.541 89.5743 223.156 86.3634 218.273C84.7637 215.838 83.0091 213.492 81.0919 211.296C79.1746 209.074 77.0831 207.095 74.9799 204.954C66.726 196.394 60.2693 186.226 55.4819 175.416C53.096 169.999 51.0625 164.424 49.4319 158.744C48.6301 155.898 47.9291 153.033 47.3365 150.137C46.7555 147.245 46.252 144.321 46.1164 141.375Z" fill="#D2CFCB"/>
<path d="M116.412 126.082C119.484 120.12 122.005 113.936 124.213 107.664C126.425 101.396 128.257 94.9955 129.732 88.518C131.185 82.0443 132.211 75.4699 132.622 68.8491C132.784 65.5425 132.792 62.2089 132.432 58.9217L132.176 56.4437L131.661 54.0084L131.413 52.7849C131.309 52.3783 131.138 51.9989 131.014 51.604L130.216 49.2228C133.354 55.2086 134.109 62.1857 134.094 68.8878C134.094 72.2679 133.853 75.6403 133.42 78.9933C133.013 82.3385 132.44 85.6644 131.704 88.9593C130.282 95.5492 128.291 102.007 125.809 108.268C123.307 114.51 120.239 120.565 116.412 126.082Z" fill="#FFFBF7"/>
<path d="M43.3085 123.705C43.0722 122.571 42.925 121.936 42.925 121.936C42.925 121.936 43.0528 122.563 43.3085 123.705ZM42.4409 173.427C43.0799 174.527 43.6028 175.39 44.1528 176.373C44.4085 176.83 44.6912 177.307 44.9507 177.76C66.7726 215.893 100.981 243.712 81.7583 273.82C80.0424 276.511 78.2878 279.271 75.2822 281.954C78.7565 279.093 81.4755 279.434 83.9041 279.782C86.4604 280.146 88.7069 280.514 91.2012 277.126C91.9062 276.17 92.8474 274.625 93.653 272.627C94.0868 271.578 94.4741 270.42 94.8653 268.961C94.8653 268.961 105.354 283.112 115.603 272.832C119.054 261.349 120.429 244.049 105.11 225.251C87.6805 203.864 76.816 201.703 62.7367 177.597C51.6011 158.54 44.9275 130.911 43.3085 123.705C44.943 131.499 50.8381 162.83 42.4409 173.427Z" fill="url(#paint12_linear_152542_2309)"/>
<path d="M22.052 36.2677C18.9185 50.0669 16.9509 70.2816 20.0921 90.9223C21.4594 99.9475 28.1446 119.651 29.6591 129.149C25.8129 98.8285 11.3851 40.8093 57.6085 18.8057C46.6007 21.5354 24.9647 37.7545 22.052 36.2677Z" fill="url(#paint13_linear_152542_2309)"/>
<path d="M74.5539 0.00787354C66.4007 0.131775 53.5222 3.62421 44.5672 4.50311C41.7165 4.77802 39.5165 5.30457 37.7619 5.98599C32.626 7.98386 31.3439 11.3718 29.2214 14.1401C27.9742 15.7702 27.1066 16.2696 25.964 16.5328C25.9368 16.5367 25.9097 16.5368 25.8904 16.5484C17.1949 19.6653 -3.34496 45.0024 1.08991 79.9534C1.40752 83.3838 2.13182 86.7252 3.05753 89.9968C11.5438 123.546 39.9774 168.541 46.957 181.31C41.8133 193.142 30.8365 217.438 27.3351 240.317C27.1879 241.095 26.3435 246.353 26.2893 250.755C25.8168 262.402 28.0013 273.041 34.7562 280.684C34.795 280.735 36.077 282.113 36.1351 282.171C39.5784 285.567 43.6531 287.727 47.7433 289.028H47.7471C53.5415 291.514 57.957 290.124 62.206 289.4C64.1155 290.554 66.1064 291.444 68.1321 292.137C80.3251 296.35 93.9628 292.97 100.358 289.4C108.929 286.616 112.837 281.579 115.285 273.789C117.752 266.448 121.529 251.456 112.984 229.278C109.134 219.695 101.419 204.704 89.5125 182.917L89.4388 182.785C98.9748 164.739 124.523 120.093 129.074 107.037C129.318 106.348 129.535 105.682 129.748 105.016C137.467 85.2617 142.514 59.123 129.295 34.8118C128.636 33.5379 126.196 28.9731 125.352 27.3895C125.197 27.103 125.092 26.9134 125.065 26.8708C114.398 7.28711 114.038 11.0001 107.372 9.82309C107.132 9.78824 106.876 9.71466 106.628 9.65271C99.0406 7.91037 86.0033 2.97388 79.6434 0.635284C78.5124 0.224884 77.0832 0.0349731 75.4138 0.00787354H74.5539ZM82.8814 172.018C82.4864 171.344 82.1068 170.709 81.7233 170.059C67.0359 143.668 51.2215 120.677 42.6267 99.0454C40.7249 93.199 39.2376 87.4417 38.3119 81.932C35.07 66.1505 36.4217 56.8736 42.4563 44.112C48.2545 31.819 65.7888 16.4826 75.5997 21.1753C86.3867 26.3403 92.3206 27.5599 96.2364 27.0837C99.9973 26.6191 101.864 24.5709 104.363 22.5266C104.882 22.0736 106.152 21.1945 106.26 21.1094C112.121 25.6201 116.16 30.8858 119.646 36.1515C149.207 80.7897 100.404 149.128 84.5779 174.778C83.5128 172.997 82.8892 172.022 82.8814 172.018ZM46.5426 274.772C44.3309 274.482 42.1193 273.611 39.9929 272.159C37.0337 270.11 34.826 267.086 33.6872 263.675C30.2516 253.353 30.9721 232.844 49.3894 186.402C51.3144 190.568 53.1232 194.497 53.9056 196.108C64.5648 217.67 67.125 237.444 67.1405 249.261C65.9902 264.117 58.8208 273.134 50.7373 274.648C49.8503 274.788 48.9827 274.853 48.1345 274.853C47.5961 274.853 47.0654 274.822 46.5426 274.772Z" fill="url(#paint14_linear_152542_2309)"/>
<path d="M74.9645 0.00390625C66.8384 0.0116577 53.6693 3.60852 44.5672 4.50293C41.7165 4.77783 39.5165 5.30438 37.7619 5.98581C32.626 7.98367 31.3439 11.3716 29.2214 14.14C27.9742 15.77 27.1066 16.2694 25.964 16.5327C25.9368 16.5365 25.9097 16.5367 25.8904 16.5482C17.1949 19.6651 -3.34496 45.0022 1.08991 79.9532C1.40752 83.3836 2.13182 86.725 3.05753 89.9967C11.5438 123.546 39.9774 168.541 46.957 181.31C41.8133 193.142 30.8365 217.438 27.3351 240.317C27.1879 241.095 26.3435 246.353 26.2893 250.763C25.8168 262.401 28.0013 273.041 34.7562 280.684C34.795 280.734 36.077 282.113 36.1351 282.171C39.5784 285.567 43.6531 287.727 47.7433 289.028H47.7471C53.5415 291.514 57.957 290.124 62.206 289.4C64.1155 290.554 66.1064 291.444 68.1321 292.137C72.2726 293.566 76.5758 294.12 80.7085 294.096C88.7455 294.038 96.1396 291.754 100.358 289.4C108.929 286.616 112.837 281.579 115.285 273.789C117.752 266.448 121.529 251.456 112.984 229.278C109.134 219.695 101.419 204.703 89.5125 182.917L89.4388 182.785C98.9748 164.739 124.523 120.092 129.074 107.037C129.318 106.347 129.535 105.682 129.748 105.016C137.467 85.2616 142.514 59.1228 129.295 34.8116C128.636 33.5455 126.196 28.9729 125.352 27.3893C125.197 27.1028 125.092 26.9132 125.065 26.8706C114.398 7.28693 114.038 10.9999 107.372 9.82291C107.132 9.78806 106.876 9.71448 106.628 9.65253C99.0406 7.91019 86.0033 2.97369 79.6434 0.635101C78.4349 0.193726 76.8663 0.00390625 75.0458 0.00390625H74.9645ZM82.8814 172.018C82.4864 171.344 82.1068 170.709 81.7233 170.058C67.0359 143.668 51.2215 120.677 42.6267 99.0453C40.7249 93.1988 39.2376 87.4415 38.3119 81.9319C35.07 66.1503 36.4217 56.8734 42.4563 44.1119C48.2545 31.8188 65.7888 16.4825 75.5997 21.1751C86.3867 26.3401 92.3206 27.5598 96.2364 27.0835C99.9973 26.6189 101.864 24.5707 104.363 22.5264C104.882 22.0734 106.152 21.1944 106.26 21.1092C112.121 25.6199 116.16 30.8856 119.646 36.1513C149.207 80.7895 100.404 149.127 84.5779 174.778C83.5128 172.997 82.8892 172.021 82.8814 172.018ZM46.5426 274.772C44.3309 274.482 42.1193 273.61 39.9929 272.158C37.0337 270.11 34.826 267.086 33.6872 263.675C30.2516 253.353 30.9721 232.844 49.3894 186.401C51.3144 190.568 53.1232 194.497 53.9056 196.108C64.5648 217.67 67.125 237.444 67.1405 249.26C65.9902 264.117 58.8208 273.134 50.7373 274.648C49.8503 274.787 48.9827 274.853 48.1345 274.853C47.5961 274.853 47.0654 274.822 46.5426 274.772Z" fill="url(#paint15_linear_152542_2309)"/>
<path d="M72.5016 253.525C72.7766 239.935 70.2048 226.531 65.9442 213.784C61.6604 201.015 55.6646 188.885 48.7276 177.343C45.2804 171.543 41.6821 165.739 38.3085 159.858C34.9349 153.961 31.6233 148.037 28.4782 142.012C22.188 129.983 16.2736 117.709 11.8348 104.862C14.581 111.073 17.513 117.155 20.7007 123.137C23.8187 129.143 27.0722 135.074 30.3955 140.975C37.0265 152.784 44.01 164.341 51.067 175.945C58.0311 187.657 64.0037 200.051 67.9351 213.153C69.9143 219.689 71.3861 226.383 72.2073 233.155C73.0013 239.923 73.1485 246.776 72.5016 253.525Z" fill="#E1DEDA"/>
<g opacity="0.429993">
<path d="M20.6964 123.136C23.8144 129.137 27.0756 135.077 30.3911 140.974C31.7584 143.405 33.1373 145.829 34.5355 148.245C38.5405 154.622 43.0218 161.188 47.937 167.558C70.4832 196.805 84.6516 226.599 74.4378 255.351C72.5825 260.586 73.516 263.041 75.867 263.141H76.1769C82.6607 262.878 98.4829 246.554 98.7386 221.98V220.78C98.5643 203.898 91.0153 183.262 68.2716 161.32C32.9165 134.477 11.8383 104.869 11.8383 104.869C14.5805 111.075 17.5087 117.158 20.6964 123.136Z" fill="url(#paint16_linear_152542_2309)"/>
</g>
<path d="M49.3898 186.399C48.5764 184.549 47.9412 183.22 46.9535 181.308C41.8137 193.144 30.8369 217.44 27.3316 240.318C27.1922 241.093 26.344 246.362 26.2897 250.768C26.3672 251.554 26.4834 252.294 26.6345 252.971C29.7253 266.306 34.5359 268.575 36.5384 268.916C35.2873 267.367 34.3267 265.59 33.6915 263.673C30.2521 253.359 30.9686 232.842 49.3898 186.399Z" fill="#F2EFEA"/>
<path d="M112.984 229.274C109.138 219.699 101.423 204.704 89.5164 182.909L89.4428 182.789C89.4428 182.789 81.7273 170.063 81.7195 170.059C67.036 143.668 51.2254 120.681 42.6229 99.0379C40.7289 93.1992 39.2338 87.4418 38.312 81.9322C38.3042 81.9089 38.3042 81.8896 38.3003 81.8663C38.2926 81.8276 38.2887 81.7966 38.2771 81.7657C39.1137 87.1243 38.8968 92.6726 40.6243 101.21C43.9708 117.177 51.2254 134.821 64.5571 151.188C80.2787 170.473 98.1189 194.029 106.319 230.192C107.372 234.842 108.949 245.211 109.572 254.829C110.324 266.425 108.154 274.521 104.014 283.058C104.115 283.201 106.605 286.516 113.821 276.445C114.402 275.566 114.863 274.675 115.285 273.789C117.752 266.448 121.533 251.46 112.984 229.274Z" fill="#FFFBF7"/>
<path d="M11.1605 54.2253C11.1605 60.2112 16.0136 65.0548 22.0017 65.0548C27.9936 65.0548 32.8468 60.2112 32.8468 54.2253C32.8468 48.2395 27.9936 43.384 22.0017 43.384C16.0136 43.384 11.1605 48.2395 11.1605 54.2253ZM23.4503 49.0989C22.3542 48.6769 21.6647 47.6315 21.657 46.5164C21.7693 46.5087 21.8816 46.4855 22.0017 46.4855C23.7795 46.4855 25.3985 47.1012 26.7038 48.1156C26.1809 48.8473 25.3288 49.2809 24.4419 49.2809C24.1088 49.2809 23.7757 49.2228 23.4503 49.0989ZM14.7897 51.4415C15.452 49.734 16.707 48.3402 18.2911 47.469C18.5351 47.8756 18.6823 48.3593 18.6823 48.8588C18.6823 50.4075 17.4313 51.6582 15.8858 51.6582C15.4946 51.6582 15.1344 51.5886 14.7897 51.4415ZM20.3362 56.9704L18.9418 54.3454C18.7869 54.0472 18.8411 53.6833 19.0658 53.4393L21.1418 51.3021C21.3742 51.0582 21.7383 50.9885 22.0366 51.1395L24.713 52.448C25.019 52.5951 25.1894 52.9165 25.139 53.2534L24.7246 56.1998C24.6781 56.5366 24.4186 56.8001 24.0933 56.8581L21.1612 57.3691C21.1186 57.3768 21.0683 57.3769 21.0256 57.3769C20.739 57.3769 20.4756 57.2259 20.3362 56.9704ZM27.2461 54.7712C27.2461 53.4471 28.1718 52.3513 29.3957 52.0493C29.6049 52.7462 29.7443 53.4626 29.7443 54.2253C29.7443 55.3482 29.4964 56.4128 29.0549 57.3769C28.0014 56.9819 27.2461 55.9637 27.2461 54.7712ZM14.4992 56.0528C14.7239 55.9947 14.9601 55.9559 15.208 55.9559C16.7457 55.9559 18.0045 57.2028 18.0045 58.7515C18.0045 59.3942 17.7876 59.9672 17.4235 60.4395C15.9827 59.3748 14.933 57.8416 14.4992 56.0528ZM21.3084 61.8952C21.4827 60.5207 22.6447 59.46 24.0661 59.46C24.9996 59.46 25.8246 59.9285 26.3359 60.6371C25.1042 61.4734 23.613 61.9612 22.0017 61.9612C21.7616 61.9612 21.533 61.9185 21.3084 61.8952Z" fill="url(#paint17_linear_152542_2309)"/>
<path d="M23.2875 34.5715L25.7897 38.9082L30.1277 36.4068L27.6256 32.0704L23.2875 34.5715Z" fill="url(#paint18_linear_152542_2309)"/>
<path d="M17.1291 73.4447L20.739 76.9254L24.221 73.3324L20.615 69.8399L17.1291 73.4447Z" fill="url(#paint19_linear_152542_2309)"/>
<path d="M89.8804 255.51C89.493 256.017 89.2839 256.865 89.1909 257.953C89.0979 259.056 89.1367 260.044 89.218 260.984C88.8113 260.539 88.0057 260.392 87.5758 260.721C87.6881 261.159 87.8353 261.557 87.8934 262.026C87.9398 262.351 87.9398 262.711 87.9437 263.06C87.1884 263.613 86.3169 264.365 86.1969 265.766C86.1775 265.991 86.1853 266.196 86.1853 266.409C85.9025 265.518 85.4106 264.608 85.1666 263.834C84.9458 263.145 84.5507 262.483 84.1634 262.134C84.0511 262.022 83.9039 261.987 83.7683 261.906C83.6831 262.134 83.6173 262.378 83.5321 262.587C83.4972 262.692 83.4817 262.8 83.4391 263.009C83.1796 262.742 82.9704 262.498 82.7109 262.309C82.5173 262.169 82.2849 262.107 82.0486 262.061C81.5528 261.948 81.4676 262.068 81.4676 262.793C81.4676 263.029 81.456 263.28 81.4483 263.59C80.3676 263.176 79.7673 264.051 79.7905 264.074C80.019 264.287 80.2204 264.419 80.2708 264.748C80.3211 265.058 80.1972 265.545 80.0423 265.967C79.7324 266.804 79.9377 268.225 80.5381 268.778C80.968 269.177 81.7659 269.104 82.3275 268.558C82.9782 267.954 83.1796 266.087 82.8155 265.507C82.5947 265.158 82.4398 265.154 82.0099 265.448C82.1222 265.692 82.3469 265.929 82.3159 266.204C82.2849 266.513 82.068 266.943 81.8472 267.187C81.5451 267.512 81.2043 267.543 80.9602 267.276C80.5342 266.8 80.5264 265.975 80.9215 265.201C81.0338 264.988 81.3127 264.589 81.456 264.481C82.068 264.035 82.7923 263.908 83.2377 264.225C83.7335 264.577 84.0356 265.147 84.0976 265.991C84.2138 267.462 83.4507 269.754 83.5204 271.218C83.5708 272.573 84.5391 273.107 85.6662 273.328C86.162 273.425 87.4441 273.572 87.7074 273.669C89.0476 274.149 90.2096 274.075 90.9222 272.84C91.6543 271.574 92.0532 269.185 92.8356 267.927C93.2888 267.21 93.8117 266.846 94.4159 266.746C94.9659 266.672 95.5469 267.098 95.8877 267.78C95.973 267.942 96.0272 268.418 96.0349 268.666C96.0194 269.533 95.6283 270.265 95.0357 270.486C94.6832 270.614 94.3927 270.443 94.2803 270.01C94.199 269.696 94.2068 269.216 94.3268 268.918C94.4237 268.666 94.7258 268.565 94.9388 268.395C94.6948 267.934 94.5554 267.861 94.199 268.074C93.6064 268.43 92.9867 270.145 93.2888 270.974C93.5251 271.713 94.2068 272.139 94.7684 271.98C95.5702 271.756 96.3332 270.633 96.4571 269.731C96.5114 269.297 96.6353 268.809 96.8135 268.55C97.011 268.275 97.2473 268.252 97.561 268.174C97.5842 268.167 97.6036 268.112 97.6462 268.047C97.4719 267.098 96.8212 267.253 96.3099 266.997C96.4416 266.707 96.5462 266.49 96.6624 266.269C96.9994 265.627 96.9761 265.479 96.4804 265.367C96.2518 265.305 96.0194 265.243 95.7754 265.286C95.4656 265.329 95.1596 265.464 94.8071 265.58C94.8613 265.375 94.8962 265.271 94.9156 265.17C94.9466 264.938 94.9969 264.686 95.0279 264.45C94.9659 264.457 94.9117 264.457 94.8575 264.45C94.7568 264.45 94.66 264.442 94.5554 264.473C94.0596 264.612 93.7265 264.922 93.0951 265.294C92.5064 265.642 91.7473 266.521 91.1314 267.404C91.205 267.098 91.2902 266.8 91.4025 266.525C91.8015 265.507 91.7279 264.88 91.3328 264.392L90.8835 263.664C90.93 263.555 90.9803 263.431 91.0268 263.288C91.236 262.607 91.5575 262.076 91.8092 261.403C91.6969 260.973 90.93 260.574 90.4226 260.752C90.7092 259.831 90.9068 258.828 90.9145 257.659C90.9068 256.59 90.655 255.932 90.3684 255.424C90.3258 255.351 90.2638 255.32 90.2018 255.32C90.0934 255.32 89.9733 255.401 89.8804 255.51ZM70.1887 268.167C70.0144 267.559 69.8363 266.943 69.6465 266.281C68.8408 266.44 68.3605 267.055 68.0119 267.714C67.6711 268.368 67.4929 269.096 67.2296 269.766C66.9042 269.487 66.5788 269.193 66.2457 268.898C65.2077 270.126 65.0373 271.411 65.9785 272.914C66.7493 274.137 67.6595 275.26 68.531 276.371C69.5225 277.645 70.5296 278.861 70.5993 280.526C70.6729 282.082 69.8362 283.441 68.5116 284.552C67.4619 285.439 66.2961 285.768 64.832 285.776C64.7855 285.776 64.6616 286.209 64.6383 286.291C64.77 286.898 65.8623 286.624 66.4123 286.484C70.545 285.439 73.2137 282.303 71.9743 279.128C71.4979 277.866 69.8866 275.86 69.2708 274.637C68.7556 273.634 68.2947 272.619 68.5155 271.434C68.7905 270.037 70.1539 268.674 71.8852 268.96C72.869 269.119 73.6475 269.932 73.6398 270.919C73.632 271.554 73.0898 272.395 72.4623 272.67C72.0556 272.84 71.6335 272.898 71.3197 272.604C71.0331 272.317 71.0331 271.961 71.2229 271.574C71.2539 271.512 71.2616 271.442 71.2771 271.369C70.6419 271.419 69.844 272.286 69.9331 272.964C70.0996 274.149 72.7644 275.093 73.9884 274.288C75.1116 273.56 75.7159 271.856 75.313 270.486C74.9218 269.162 74.3253 268.469 73.0665 268.062C72.931 268.008 72.8148 267.954 72.7141 267.899C72.9659 267.264 73.1711 266.715 73.3842 266.111C73.3067 266.107 73.2254 266.107 73.144 266.107C71.7574 266.107 70.9789 266.978 70.1887 268.167ZM79.6627 273.041C78.8571 273.386 77.8887 274.35 77.7067 275.016C78.1018 274.911 78.4697 274.78 78.8106 274.722C79.5504 274.629 80.05 274.993 80.1817 275.682C80.2902 276.266 79.8641 277.293 79.2715 277.792C78.3109 278.609 77.2961 279.329 76.3007 280.084C75.1426 280.94 74.6236 281.954 74.7088 283.108C74.8134 284.649 76.1109 285.749 76.3394 285.969C74.3292 288.521 71.9433 290.65 69.5186 292.586C70.1848 292.78 70.8549 292.966 71.5211 293.113C73.7056 291.254 75.8359 289.28 77.8965 287.022C79.6472 287.793 81.7891 287.963 83.4701 286.67C84.5508 285.834 85.0504 284.819 85.4842 283.755C85.8134 282.949 86.0652 282.132 86.3441 281.312C86.7314 280.196 87.5409 279.298 88.3891 278.965C89.1677 278.663 89.6324 279.047 89.7022 280.061C89.706 280.196 89.7138 280.32 89.7293 280.545C90.2638 279.867 90.4613 279.182 90.6085 278.543C90.868 277.323 90.5814 276.576 90.0701 276.088C89.462 275.519 88.4395 275.477 87.3976 276.266C86.9909 276.557 86.4719 277.145 86.0962 277.718C85.6004 278.477 85.1976 279.244 84.818 280.018C83.5863 281.648 82.587 282.709 81.9053 283.344C82.6606 282.214 83.2377 281.013 83.7412 279.801C84.1789 278.756 84.5391 277.695 84.8877 276.627C84.9342 276.495 84.9536 276.356 85.0078 276.112C84.8219 276.29 84.7173 276.355 84.636 276.46C83.1874 278.214 81.5529 279.805 79.93 281.362C79.7673 281.513 79.6433 281.683 79.4923 281.85C79.562 281.013 80.174 279.929 80.813 278.988C81.0532 278.744 81.2779 278.501 81.4909 278.237C82.1571 277.451 82.7342 276.503 83.0983 275.585C83.5631 274.381 83.1641 273.61 82.4669 273.142C82.0602 272.863 81.6071 272.708 81.0919 272.708C80.6697 272.708 80.1895 272.817 79.6627 273.041ZM63.1161 276.015C62.4112 275.972 60.9975 275.918 60.982 275.972C64.9405 277.974 66.1063 280.727 66.7493 284.095C67.6014 283.681 68.4419 281.141 68.2947 279.805C68.0971 277.951 67.0669 276.599 65.3743 275.314C65.3278 275.57 65.2968 275.717 65.2503 275.91C64.3285 275.488 63.7514 274.594 62.5778 274.404C62.7676 274.985 62.938 275.488 63.1161 276.015ZM98.7888 280.866C98.723 280.831 98.6223 280.793 98.5138 280.734C97.7508 280.305 94.8885 279.662 93.4205 281.238C92.4096 282.357 91.2011 285.168 93.0525 286.38C93.5057 286.666 93.8349 286.945 94.5554 286.593C95.1557 286.287 95.5546 285.729 95.8335 285.09C95.8877 284.974 95.8955 284.846 95.9381 284.664C95.8219 284.753 95.7599 284.788 95.7018 284.854C95.1054 285.505 94.7568 285.675 94.4663 285.478C94.1758 285.299 93.9472 284.227 94.2765 283.635C95.1557 282.059 96.8135 281.528 97.6346 282.032C98.2853 282.434 98.4325 283.302 97.9096 284.591C97.2976 286.097 96.2712 287.305 95.0357 287.816C93.9085 288.281 92.8008 288.459 91.693 288.606C91.0036 288.687 90.3219 288.525 89.6054 288.37C88.7029 288.165 87.7617 287.963 86.7469 288.246C84.0085 289.028 80.813 291.545 78.9965 294.069C79.3606 294.088 79.7208 294.096 80.0849 294.096C80.6117 293.477 81.2391 292.869 81.975 292.311C84.0821 290.685 86.1698 289.849 88.1374 289.938C89.6905 290.019 91.0694 290.314 92.5103 290.375C93.3934 290.418 94.2571 290.472 95.1751 290.31C96.4649 290.077 97.716 289.094 98.8043 287.305C98.4557 287.231 98.1342 287.166 97.774 287.077C99.2846 285.721 100.489 284.138 100.884 282.039C100.261 282.473 99.6836 282.833 99.0793 283.185C99.4783 282.345 99.8695 281.548 100.113 280.769C100.373 279.945 100.342 279.279 100.048 278.826C99.6332 279.515 99.2497 280.15 98.7888 280.866ZM68.744 286.728C67.8803 287.433 67.9035 288.606 68.6162 289.531C68.8563 289.845 69.1313 290.116 69.3172 290.333C70.0648 289.717 70.7077 289.086 71.432 288.532C73.0356 287.297 73.5004 285.865 73.268 284.382C73.2137 284.018 73.1091 283.665 73.0123 283.205C71.5637 284.498 70.0996 285.609 68.744 286.728ZM61.6482 287.189C60.8774 287.158 60.1454 287.119 59.4056 287.03C59.3978 287.092 60.2267 287.89 60.7148 288.258C60.3623 288.556 60.0331 288.827 59.7 289.094C63.2324 288.954 65.8584 290.588 68.4884 292.226C68.1514 290.108 65.1496 287.255 61.5087 286.736C61.5514 286.883 61.594 287.023 61.6482 287.189ZM75.7468 291.719C75.1852 292.366 74.4028 292.97 73.7366 293.554C74.9916 293.771 76.2271 293.91 77.4627 293.988C77.606 293.922 77.7493 293.845 77.881 293.744C78.5666 293.252 79.1282 292.59 79.6975 291.967C80.112 291.506 80.4257 290.979 80.8247 290.488C81.1965 290.019 81.6187 289.57 82.0293 289.082C79.4845 289.156 77.3542 289.864 75.7468 291.719ZM88.9507 291.626C86.7662 291.812 84.361 292.811 82.0486 294.061C85.6972 293.926 89.1832 293.341 92.2624 292.528C91.5652 291.92 90.686 291.603 89.5356 291.603C89.3497 291.603 89.1522 291.614 88.9507 291.626Z" fill="url(#paint20_linear_152542_2309)"/>
<path d="M67.4349 179.425C67.3187 179.44 67.2219 179.502 67.2141 179.618V179.657C67.2528 180.296 67.4272 181.035 68.0546 181.992C68.7479 183.049 69.5071 183.835 70.3127 184.497C69.7589 184.644 69.3057 185.449 69.4722 185.906C70.0881 186.359 70.6923 186.653 71.2772 187.141C72.505 188.148 73.1363 187.61 73.2332 187.157C73.2603 186.994 73.0705 186.7 72.7877 186.359C73.0472 186.595 73.3416 186.754 73.6476 186.75C74.186 186.63 74.5501 186.382 74.1434 185.538C73.9265 185.109 73.5353 184.617 73.3222 184.168C73.0976 183.695 72.993 183.258 72.8303 182.801C72.2532 182.755 71.618 183.355 71.5289 183.997C71.0409 183.099 70.4909 182.185 69.7511 181.252C69.0307 180.327 68.3335 179.684 67.6944 179.456C67.6479 179.44 67.5976 179.429 67.5511 179.425H67.4349ZM77.7688 183.417C77.9159 184.454 79.0004 186.181 80.085 187.517C79.6163 186.413 79.8061 185.786 80.2321 185.24C80.3948 185.039 80.3522 184.276 79.7596 183.552C79.5311 183.269 79.0043 182.739 78.6596 182.642C78.5473 182.607 78.4388 182.592 78.3497 182.592C77.8811 182.592 77.7107 183.002 77.7688 183.417ZM85.0814 184.392C84.8297 184.594 84.3804 184.961 84.1286 186.351C83.9195 186.077 83.3346 185.558 83.0557 185.314C82.9512 185.492 82.8078 185.623 82.7497 185.833C82.5561 186.468 82.6607 187.23 83.1061 188.059C83.8652 189.495 84.698 190.909 85.5385 192.314C87.0878 194.908 88.5751 197.398 87.7308 199.674C87.9089 199.663 87.967 199.667 87.998 199.663C88.0561 199.643 88.0871 199.57 88.1336 199.543C89.2917 198.734 90.1515 197.367 89.3072 195.725C88.4396 194.029 86.1117 191.9 85.3022 190.161C84.8297 189.166 84.8064 188.33 85.1357 187.614C85.4378 186.971 86.3209 186.646 87.297 186.754C87.5294 186.785 88.0987 187.068 88.3582 187.23C89.3072 187.873 89.8339 188.814 89.648 189.611C89.5434 190.072 89.1445 190.27 88.5984 190.08C88.1955 189.94 87.6726 189.592 87.4364 189.263C87.2272 188.976 87.3318 188.574 87.3008 188.221C86.6269 188.156 86.4487 188.256 86.4293 188.791C86.3867 189.685 87.4713 190.974 88.5906 191.242C89.5667 191.509 90.5272 191.075 90.7519 190.355C91.0772 189.337 90.7287 188.303 89.8378 187.536C89.3963 187.172 88.947 186.692 88.7998 186.305C88.6487 185.914 88.7882 185.631 88.9082 185.233C88.9237 185.198 88.8772 185.143 88.8424 185.054C87.6804 184.566 87.3821 185.376 86.7392 185.747C86.53 185.395 86.3635 185.124 86.1969 184.841C85.9219 184.354 85.7593 184.14 85.554 184.14C85.4262 184.14 85.279 184.23 85.0814 184.392ZM76.0025 185.852C75.8089 186.034 75.6849 186.413 75.8864 186.777C76.2775 187.517 77.0716 188.252 77.9469 188.674C79.6163 189.48 81.1307 190.692 82.254 192.241C82.4476 192.515 82.6335 192.794 82.8156 193.077C81.8511 192.12 80.7279 191.245 79.7093 190.355C78.6131 189.414 77.5557 188.976 76.661 189.019C76.3976 189.035 76.2117 189.275 76.2233 189.538C76.2659 190.459 76.8895 191.404 77.823 192.535C78.6131 193.491 79.4033 194.591 80.2631 195.628C80.0811 195.473 79.8913 195.33 79.7093 195.175C78.3885 194.111 77.242 192.825 76.3202 191.342C75.8592 190.599 73.8296 188.109 72.9504 189.356C72.6328 189.805 73.1208 190.703 74.062 191.427C74.8987 192.062 75.7547 192.597 76.599 193.208C76.6145 194.231 77.0057 194.889 78.2258 195.775C78.9307 196.275 79.6356 196.658 80.3367 197.146C80.5459 197.293 80.848 197.568 80.9216 197.766C81.2779 198.765 81.9364 199.291 82.6529 199.608C83.4702 199.968 84.2061 199.984 84.7329 199.969C85.2131 199.949 85.7089 199.69 86.042 199.241C86.5339 198.586 86.836 196.867 86.1001 195.501C85.8561 195.051 85.3991 194.533 84.9769 194.176C84.636 193.874 84.4307 193.681 84.2332 193.259C83.8381 192.395 83.3346 191.536 82.7497 190.707C81.9131 189.546 81.1811 189.17 80.3754 189.259C79.6705 188.384 79.0314 187.571 78.2878 186.824C77.6138 186.154 76.8198 185.743 76.3356 185.743C76.1962 185.743 76.08 185.778 76.0025 185.852ZM70.3089 193.235C70.3127 194.412 72.0712 194.579 72.505 194.413C73.0395 194.207 73.3803 193.797 73.9071 193.607C74.2673 193.491 74.8173 193.63 75.4719 193.669C74.3254 192.949 72.5902 192.097 71.4553 192.097C70.7736 192.097 70.305 192.403 70.3089 193.235ZM72.8226 195.369C72.6173 195.415 72.474 195.547 72.292 195.636C72.5437 195.934 72.9272 196.523 73.2564 196.774C72.78 196.879 72.3578 196.918 71.9821 197.065C71.68 197.173 71.4631 197.386 71.2346 197.599C70.7581 198.052 70.8317 198.234 71.6103 198.745C71.8853 198.923 72.137 199.105 72.4856 199.341C71.2655 200.209 71.7962 201.483 71.8349 201.475C72.23 201.37 72.5166 201.25 72.9078 201.428C73.2796 201.606 73.7328 202.087 74.0698 202.543C74.7825 203.488 75.7895 203.899 76.8275 203.643C77.5673 203.465 78.0476 202.539 77.8462 201.541C77.6448 200.414 76.4363 199.241 75.5455 199.229C75.0071 199.218 74.8909 199.388 74.9103 200.058C75.2666 200.12 75.6656 200.034 75.9406 200.259C76.2582 200.518 76.5758 201.061 76.6881 201.475C76.8391 202.036 76.6223 202.412 76.1536 202.485C75.3441 202.621 74.4339 202.036 73.8606 201.053C73.7057 200.778 73.4694 200.201 73.4539 199.961C73.4036 198.977 73.7793 198.118 74.4455 197.862C75.1853 197.58 76.0142 197.661 76.9747 198.188C78.6596 199.121 80.6349 201.572 82.2772 202.543C83.8614 203.488 85.2829 202.725 86.1621 201.622C86.1931 201.579 86.2667 201.548 86.2899 201.494C86.2938 201.467 86.2899 201.401 86.317 201.223C83.993 201.924 81.6032 200.278 79.1089 198.571C77.7687 197.642 76.4054 196.716 75.0265 195.864C74.4261 195.497 73.8529 195.307 73.33 195.307C73.1557 195.307 72.9853 195.33 72.8226 195.369ZM92.3283 196.573C91.085 197.216 90.535 198.958 91.6815 201.192C91.9642 201.727 92.3051 202.292 92.6963 202.783C94.2146 204.704 95.9188 206.26 97.6037 207.852C98.6262 208.835 99.5868 209.9 100.559 210.976C103.061 213.76 102.6 217.063 102.67 217.218C103.785 215.402 104.761 213.532 103.843 210.635C103.259 208.827 102.031 207.596 100.764 206.497C99.8037 205.653 98.7966 204.936 97.7973 204.158C96.4378 203.101 95.5702 201.556 95.516 200.236C95.4656 199.032 96.2132 198.575 97.6502 198.973C97.8361 199.024 97.9445 199.051 98.2699 199.144C97.7431 198.168 96.798 197.506 95.973 197.003C95.0861 196.465 94.3269 196.252 93.6646 196.252C93.1649 196.252 92.7234 196.375 92.3283 196.573ZM90.2639 204.181C92.003 207 93.4322 209.997 94.8188 212.966C95.5198 214.438 96.523 215.793 97.441 217.086C97.7818 217.558 98.4945 217.69 99.0329 217.794C99.4086 217.868 99.672 217.976 99.9121 218.429C103.015 224.113 105.451 230.053 107.403 235.779C107.461 235.973 107.508 236.267 107.434 236.434C106.578 238.149 107.097 239.376 107.988 240.491C108.693 241.382 109.99 243.186 110.498 243.143C110.602 242.071 110.722 241.014 110.703 239.961C110.699 239.012 110.66 238.013 110.385 237.126C110.223 236.588 109.63 236.275 109.231 235.849C108.945 235.547 108.526 235.314 108.395 234.939C106.33 229.344 103.859 223.513 100.741 217.976C100.431 217.403 100.358 217.009 100.551 216.451C100.877 215.479 100.571 214.399 99.9974 213.385C98.5216 210.81 96.5347 208.82 94.4663 206.992C93.223 205.896 91.9293 204.905 90.6163 203.914C90.4536 203.786 90.2755 203.701 89.9656 203.507C90.1167 203.84 90.167 204.026 90.2639 204.181ZM84.6438 205.563C83.5709 206.357 83.048 207.542 83.1797 209.354C83.2804 210.616 84.148 212.405 84.9846 212.97C85.0311 212.386 85.0195 211.816 85.1047 211.329C85.3255 210.275 86.0652 209.753 87.0723 209.9C87.9399 210.039 89.1522 211.112 89.5589 212.161C90.2406 213.857 90.7713 215.591 91.329 217.314C91.972 219.304 93.1223 220.532 94.7646 220.938C96.1008 221.271 97.3945 221.016 98.6998 220.431C98.1459 220.094 97.716 219.82 97.2667 219.564C95.8491 218.739 94.9118 217.299 94.1913 215.595C93.2927 213.474 92.4522 211.301 91.2399 209.335C90.4614 208.041 89.4272 206.802 88.3234 205.869C87.5797 205.246 86.8864 204.99 86.2512 204.99C85.6586 204.99 85.1163 205.215 84.6438 205.563ZM73.7328 219.204C72.8536 219.057 71.9589 218.917 70.9906 218.762C70.7233 219.866 71.2191 220.849 71.8543 221.693C72.4856 222.514 73.3106 223.165 74.0156 223.896C73.4578 224.148 72.8846 224.384 72.3229 224.624C73.268 226.665 74.8173 227.664 77.2962 227.377C79.318 227.137 81.2895 226.649 83.2455 226.208C85.4726 225.716 87.6223 225.17 89.7952 226.08C91.8403 226.924 93.072 228.791 93.7072 231.129C94.2068 232.991 93.9318 234.668 93.072 236.519C93.0449 236.573 93.4593 236.972 93.622 237.072C93.8737 236.321 94.6484 235.16 94.8072 234.381C95.9459 228.535 92.0223 224.446 87.2117 224.113C85.3177 223.958 83.3966 224.187 81.4599 224.237C79.8719 224.288 78.2916 224.26 76.9244 223.277C75.2976 222.085 74.3641 219.548 75.7624 217.531C76.5641 216.381 78.067 215.893 79.3142 216.482C80.1353 216.873 80.8867 218.062 80.8557 219.022C80.8402 219.649 80.6621 220.214 80.0927 220.431C79.5504 220.629 79.1011 220.419 78.7138 219.935C78.6518 219.866 78.5666 219.815 78.493 219.754C78.1677 220.582 78.8068 222.1 79.7325 222.394C81.336 222.901 82.9511 220.838 82.6529 218.813C82.3934 216.958 81.5297 215.402 79.899 214.674C78.1096 213.88 76.5913 214.163 75.3208 215.495C75.1698 215.642 75.0303 215.75 74.9025 215.859C74.2325 215.158 73.6515 214.565 73.0124 213.93C71.9589 215.812 72.6212 217.403 73.7328 219.204ZM82.8234 222.255C84.6477 222.197 86.5455 219.858 85.6857 217.779C85.066 216.226 83.1952 214.949 81.7427 214.058C83.993 216.633 84.9033 219.428 82.8234 222.255ZM106.125 225.496C106.768 226.576 107.194 227.826 107.678 229.003C109.429 227.939 110.668 225.825 109.948 223.537C109.58 222.367 108.945 221.287 108.352 220.222C107.899 219.425 107.329 218.735 106.841 217.965C106.361 217.225 105.943 216.439 105.459 215.646C104.347 219.165 104.32 222.41 106.125 225.496ZM99.3815 229.902C99.9509 231.423 101.585 231.958 103.208 231.423C103.751 231.238 104.266 230.993 104.649 230.842C104.149 229.522 103.58 228.353 103.158 227.094C102.217 224.307 100.454 222.987 98.2854 222.595C97.7547 222.506 97.2047 222.476 96.5308 222.39C97.6424 224.988 98.4751 227.509 99.3815 229.902ZM80.1159 229.662C80.449 229.855 80.6349 229.956 80.8828 230.111C79.8719 231.179 78.3536 231.536 77.5247 233.049C78.4272 233.065 79.2096 233.073 80.0113 233.08C79.6279 234.021 78.8842 235.938 78.9462 235.988C83.5941 231.512 87.9554 231.226 92.9209 231.965C92.7544 230.599 89.6325 228.229 87.7152 227.795C87.1033 227.656 86.5068 227.586 85.9219 227.586C83.9543 227.586 82.1029 228.349 80.1159 229.662ZM109.522 231.098C110.765 230.61 112.001 230.157 113.221 229.902C113.139 229.693 113.066 229.48 112.984 229.275C112.775 228.752 112.547 228.206 112.318 227.648C111.102 228.632 110.076 229.89 109.522 231.098ZM109.766 234.176C109.696 234.199 109.646 234.3 109.522 234.486C111.389 234.819 112.082 236.461 112.43 238.362C113.511 238.098 113.999 237.169 114.472 236.329C114.878 236.701 115.258 237.142 115.692 237.459C115.316 236.093 114.894 234.691 114.417 233.259C114.17 233.232 113.918 233.212 113.674 233.212C112.357 233.212 111.059 233.615 109.766 234.176ZM93.5329 240.723C93.7575 240.731 93.9822 240.735 94.234 240.739C93.8234 241.773 93.4167 242.768 92.948 243.732C93.0216 243.778 94.5322 243.023 95.272 242.528C95.516 243.163 95.729 243.736 95.942 244.316C97.4332 239.411 100.931 236.608 104.444 233.785C104.184 233.739 103.909 233.719 103.623 233.719C100.47 233.719 95.7794 236.391 93.5329 240.723ZM104.947 237.401C103.731 238.447 102.6 239.6 101.988 241.18C101.388 242.698 101.578 243.914 102.55 244.948C103.77 243.836 104.68 242.717 104.324 241.308C105.176 241.262 105.989 241.203 107.02 241.13C106.257 239.453 105.784 237.971 106.826 236.182C106.768 236.135 106.717 236.085 106.655 236.046C106.109 236.507 105.509 236.929 104.947 237.401ZM112.14 239.562C112.767 240.631 113.213 241.571 113.844 242.35C114.282 242.926 115.002 243.306 115.893 242.927C116.203 242.803 116.621 242.477 116.834 242.156C116.749 241.742 116.656 241.327 116.559 240.902C115.932 240.975 115.448 240.607 115.049 240.317C114.383 239.841 113.67 239.535 112.682 239.535C112.512 239.535 112.33 239.543 112.14 239.562ZM105.703 244.622C105.451 245.451 105.102 246.132 103.995 246.369C104.436 247.011 105.11 247.131 105.889 247.042C106.621 246.953 107.132 246.434 107.449 245.865C107.934 245.002 107.988 243.964 107.872 243.07C107.81 242.578 107.713 241.997 107.554 241.676C106.547 242.597 106.036 243.585 105.703 244.622ZM113.333 246.032C114.197 246.524 115.459 245.954 116.153 244.533C115.002 244.851 114.588 244.127 113.999 243.531C113.48 243.012 112.814 242.671 112.148 242.203C111.803 243.647 112.396 245.513 113.333 246.032ZM108.499 245.799C108.526 246.582 108.538 247.286 107.736 248.01C108.499 248.235 109.165 248.045 109.824 247.522C110.416 247.065 110.595 246.5 110.564 245.861C110.505 244.75 109.692 243.422 108.646 242.93C108.623 243.98 108.457 244.932 108.499 245.799ZM112.047 249.071C112.148 249.226 112.276 249.311 112.434 249.327H112.551C112.686 249.315 112.845 249.265 113.031 249.172C113.561 248.905 113.74 248.603 113.658 248.192C113.441 247.035 112.593 246.314 111.66 245.621C111.482 246.938 111.431 248.122 112.047 249.071Z" fill="url(#paint21_linear_152542_2309)"/>
<path d="M33.8231 170.021L35.4034 169.119L31.1002 161.619L29.52 162.521L31.1738 165.414L23.3576 169.901L24.3414 171.62L32.1615 167.129L33.8231 170.021ZM40.8763 178.644L33.1376 179.871L38.0721 173.761L36.5383 171.101L27.1456 176.495L28.1256 178.21L35.3143 174.087L35.3415 174.133L29.671 180.897L30.4766 182.299L39.176 180.824L39.2031 180.858L32.0221 184.986L33.0059 186.701L42.4024 181.311L40.8763 178.644Z" fill="#BCBAB7"/>
<defs>
<linearGradient id="paint0_linear_152542_2309" x1="45.9116" y1="163.399" x2="74.4419" y2="93.9597" gradientUnits="userSpaceOnUse">
<stop stop-color="#858380"/>
<stop offset="1" stop-color="#A19F9C"/>
</linearGradient>
<linearGradient id="paint1_linear_152542_2309" x1="61.1341" y1="-1.98479" x2="99.774" y2="100.138" gradientUnits="userSpaceOnUse">
<stop stop-color="#9D9B98"/>
<stop offset="1" stop-color="#797775"/>
</linearGradient>
<linearGradient id="paint2_linear_152542_2309" x1="100.634" y1="78.0998" x2="-12.2193" y2="272.947" gradientUnits="userSpaceOnUse">
<stop stop-color="#797775"/>
<stop offset="0.842522" stop-color="#F2EFEA"/>
<stop offset="1" stop-color="#F2EFEA"/>
</linearGradient>
<linearGradient id="paint3_linear_152542_2309" x1="49.1418" y1="265.17" x2="49.1418" y2="39.7745" gradientUnits="userSpaceOnUse">
<stop stop-color="#9D9B98"/>
<stop offset="1" stop-color="#F2EFEA"/>
</linearGradient>
<linearGradient id="paint4_linear_152542_2309" x1="126.379" y1="176.057" x2="67.6111" y2="12.6015" gradientUnits="userSpaceOnUse">
<stop stop-color="#9D9B98"/>
<stop offset="1" stop-color="#F2EFEA"/>
</linearGradient>
<linearGradient id="paint5_linear_152542_2309" x1="122.628" y1="273.307" x2="33.3217" y2="24.9131" gradientUnits="userSpaceOnUse">
<stop stop-color="#44433E"/>
<stop offset="1" stop-color="#F2EFEA"/>
</linearGradient>
<linearGradient id="paint6_linear_152542_2309" x1="67.7436" y1="34.5147" x2="67.7436" y2="145.388" gradientUnits="userSpaceOnUse">
<stop stop-color="#F2EFEA"/>
<stop offset="1" stop-color="#F2EFEA"/>
</linearGradient>
<linearGradient id="paint7_linear_152542_2309" x1="33.0269" y1="29.3464" x2="69.2951" y2="5.8432" gradientUnits="userSpaceOnUse">
<stop stop-color="#FAF6F2"/>
<stop offset="1" stop-color="#FFFBF7"/>
</linearGradient>
<linearGradient id="paint8_linear_152542_2309" x1="25.9631" y1="10.0302" x2="67.2346" y2="10.0302" gradientUnits="userSpaceOnUse">
<stop stop-color="#B0AEAB"/>
<stop offset="1" stop-color="#FAF6F2"/>
</linearGradient>
<linearGradient id="paint9_linear_152542_2309" x1="131.91" y1="33.7451" x2="75.4334" y2="3.0921" gradientUnits="userSpaceOnUse">
<stop stop-color="#FFFBF7"/>
<stop offset="0.527027" stop-color="#FFFBF7"/>
<stop offset="1" stop-color="#B4B2AF"/>
</linearGradient>
<linearGradient id="paint10_linear_152542_2309" x1="37.7608" y1="4.82925" x2="106.626" y2="4.82925" gradientUnits="userSpaceOnUse">
<stop stop-color="#CCC9C6"/>
<stop offset="1" stop-color="#FAF6F2"/>
</linearGradient>
<linearGradient id="paint11_linear_152542_2309" x1="23.0792" y1="15.1506" x2="15.7121" y2="142.894" gradientUnits="userSpaceOnUse">
<stop stop-color="#FFFBF7"/>
<stop offset="1" stop-color="#FFFBF7"/>
</linearGradient>
<linearGradient id="paint12_linear_152542_2309" x1="42.4447" y1="201.945" x2="117.843" y2="201.945" gradientUnits="userSpaceOnUse">
<stop stop-color="#DAD7D3"/>
<stop offset="1" stop-color="#FAF6F2"/>
</linearGradient>
<linearGradient id="paint13_linear_152542_2309" x1="40.5973" y1="94.1287" x2="38.0731" y2="46.4037" gradientUnits="userSpaceOnUse">
<stop stop-color="#BBB8B5"/>
<stop offset="1" stop-color="#FAF6F2"/>
</linearGradient>
<linearGradient id="paint14_linear_152542_2309" x1="68.9682" y1="24.9336" x2="68.9682" y2="281.516" gradientUnits="userSpaceOnUse">
<stop stop-color="#DAD7D3"/>
<stop offset="0.512418" stop-color="#FFFBF7"/>
<stop offset="1" stop-color="#EEEBE7"/>
</linearGradient>
<linearGradient id="paint15_linear_152542_2309" x1="68.9682" y1="9.88112" x2="68.9682" y2="266.463" gradientUnits="userSpaceOnUse">
<stop stop-color="#DAD7D3"/>
<stop offset="0.512418" stop-color="#FFFBF7"/>
<stop offset="1" stop-color="#EEEBE7"/>
</linearGradient>
<linearGradient id="paint16_linear_152542_2309" x1="81.8404" y1="268.67" x2="45.8838" y2="120.745" gradientUnits="userSpaceOnUse">
<stop stop-color="#FAF6F2"/>
<stop offset="0.512418" stop-color="#FFFBF7"/>
<stop offset="0.677314" stop-color="#FFFBF7"/>
<stop offset="0.90099" stop-color="#EBE7E3"/>
<stop offset="1" stop-color="#CCC9C6"/>
</linearGradient>
<linearGradient id="paint17_linear_152542_2309" x1="33.0766" y1="35.114" x2="8.81266" y2="77.0068" gradientUnits="userSpaceOnUse">
<stop stop-color="#791426"/>
<stop offset="0.534653" stop-color="#AF1C3B"/>
<stop offset="1" stop-color="#791426"/>
</linearGradient>
<linearGradient id="paint18_linear_152542_2309" x1="28.4718" y1="32.4465" x2="4.20549" y2="74.3425" gradientUnits="userSpaceOnUse">
<stop stop-color="#791426"/>
<stop offset="0.534653" stop-color="#AF1C3B"/>
<stop offset="1" stop-color="#791426"/>
</linearGradient>
<linearGradient id="paint19_linear_152542_2309" x1="40.4011" y1="39.3567" x2="16.1377" y2="81.2484" gradientUnits="userSpaceOnUse">
<stop stop-color="#791426"/>
<stop offset="0.534653" stop-color="#AF1C3B"/>
<stop offset="1" stop-color="#791426"/>
</linearGradient>
<linearGradient id="paint20_linear_152542_2309" x1="41.0008" y1="374.026" x2="132.549" y2="156.519" gradientUnits="userSpaceOnUse">
<stop stop-color="#791426"/>
<stop offset="0.534653" stop-color="#AF1C3B"/>
<stop offset="1" stop-color="#791426"/>
</linearGradient>
<linearGradient id="paint21_linear_152542_2309" x1="39.7144" y1="108.445" x2="146.437" y2="347.39" gradientUnits="userSpaceOnUse">
<stop stop-color="#791426"/>
<stop offset="0.534653" stop-color="#AF1C3B"/>
<stop offset="1" stop-color="#791426"/>
</linearGradient>
</defs>
</svg>
