<svg width="350" height="92" viewBox="0 0 350 92" fill="none" xmlns="http://www.w3.org/2000/svg">
<path d="M150.2 72.2216C148.047 72.2216 147.127 69.3525 147.127 61.4568C147.127 57.3585 149.122 56.3346 154.812 56.3346C156.306 56.3346 157.499 56.3459 158.644 56.3656C156.829 61.9491 154.395 72.2216 150.2 72.2216ZM138.663 66.8378C138.663 68.9277 138.862 70.7111 139.225 72.2216H109.137C105.135 72.2216 102.577 71.2962 102.577 67.6057V57.3585H112.055C112.828 55.0548 113.338 52.948 113.594 50.7005H102.58C102.625 47.5389 102.856 44.7148 103.087 41.4744C99.4991 42.7542 96.6824 44.2394 94.3722 46.8047V50.7005H89.5013C89.0933 53.4683 89.0933 55.5639 88.992 57.3585H94.3722V68.1205C94.3722 75.6533 98.9363 78.8824 105.189 78.8824H146.097C151.109 78.8824 154.958 74.7757 158.658 65.482V78.8824H166.858V50.7005C163.169 50.3911 159.784 50.1829 156.095 50.1829C145.945 50.1829 138.663 54.3881 138.663 66.8378ZM181.726 63.7127V60.9477C181.726 57.3585 181.468 54.2841 180.958 50.7005H173.012C173.268 54.2841 173.524 57.3585 173.524 60.9477V78.8824H181.726C181.726 68.8349 184.954 57.4091 193.514 58.6412C193.514 56.8466 193.258 52.7454 192.748 50.1829C186.499 50.7258 183.437 56.2306 181.726 63.7127ZM68.7405 72.2216C66.5879 72.2216 65.6649 69.3525 65.6649 61.4568C65.6649 57.3585 67.6656 56.3346 73.3524 56.3346C74.8466 56.3346 76.0397 56.3459 77.1906 56.3656C75.37 61.9491 72.9416 72.2216 68.7405 72.2216ZM57.2092 66.8378C57.2092 75.3467 60.2819 79.3943 64.3846 79.3943C69.4102 79.3943 73.4228 74.9472 77.2018 65.4679V78.8824H85.4043V50.7005C81.7125 50.3911 78.3302 50.1829 74.6356 50.1829C64.4859 50.1829 57.2092 54.3881 57.2092 66.8378M324.492 53.7721C324.492 46.7541 319.621 42.4982 310.906 42.4982C306.089 42.4982 302.555 43.5221 300.399 44.5516C299.17 46.2899 298.607 48.2927 297.836 51.4628C301.117 50.1829 304.294 49.1619 309.114 49.1619C312.958 49.1619 316.036 50.8018 316.036 55.3107C316.036 60.1742 313.011 63.7127 296.553 73.2426C296.553 74.2693 296.606 76.3171 297.068 78.8824H324.233C325.007 76.5759 325.516 74.5281 325.772 72.2216H302.65C314.201 68.2723 324.492 64.1487 324.492 53.7721M37.8919 71.0121L37.4698 70.7842C32.5511 68.1739 25.9357 64.1797 25.9357 56.9C25.9357 50.2336 30.2465 47.1085 35.4213 47.1085C41.1644 47.1085 44.648 51.1562 44.648 58.2333C44.648 63.1052 41.9636 67.4032 37.8919 71.0121M53.6187 79.3943L40.1148 72.1963C47.7573 69.42 53.3626 63.9434 53.3626 56.1799C53.3626 45.7246 45.5175 40.4505 35.4213 40.4505C26.1439 40.4505 17.2239 46.394 17.2239 57.8733C17.2239 67.5579 24.6047 73.3467 32.7031 77.5997L58.7428 91.1802C58.7428 85.186 58.028 81.7487 53.6187 79.3943M245.545 76.3171C243.244 76.3171 236.063 71.6534 236.063 59.1559C236.063 53.0014 239.653 49.1619 245.545 49.1619C251.44 49.1619 255.034 53.0014 255.034 59.1559C255.034 71.6534 247.856 76.3171 245.545 76.3171M245.545 42.4982C235.297 42.4982 227.604 48.6471 227.604 58.6412C227.604 71.7068 240.165 79.3943 245.545 79.3943C250.931 79.3943 263.487 71.7068 263.487 58.6412C263.487 48.6471 255.802 42.4982 245.545 42.4982ZM245.661 56.4696C243.868 57.7467 242.329 59.2403 240.973 60.9477C242.329 62.6551 243.868 64.1431 245.661 65.4257C247.453 64.1431 248.987 62.6551 250.354 60.9477C248.987 59.2403 247.453 57.7467 245.661 56.4696ZM292.712 53.7721C292.712 46.7541 287.838 42.4982 279.121 42.4982C274.306 42.4982 270.769 43.5221 268.614 44.5516C267.387 46.2899 266.821 48.2927 266.05 51.4628C269.334 50.1829 272.514 49.1619 277.331 49.1619C281.175 49.1619 284.253 50.8018 284.253 55.3107C284.253 60.1742 281.228 63.7127 264.773 73.2426C264.773 74.2693 264.823 76.3171 265.285 78.8824H292.456C293.221 76.5759 293.736 74.5281 293.992 72.2216H270.867C282.421 68.2723 292.712 64.1487 292.712 53.7721M223.501 53.7721C223.501 46.7541 218.636 42.4982 209.922 42.4982C205.101 42.4982 201.564 43.5221 199.414 44.5516C198.182 46.2899 197.616 48.2927 196.851 51.4628C200.129 50.1829 203.309 49.1619 208.129 49.1619C211.97 49.1619 215.046 50.8018 215.046 55.3107C215.046 60.1742 212.021 63.7127 195.568 73.2426C195.568 74.2693 195.619 76.3171 196.083 78.8824H223.251C224.022 76.5759 224.531 74.5281 224.784 72.2216H201.663C213.211 68.2723 223.501 64.1487 223.501 53.7721Z" fill="white"/>
<path d="M293.465 30.4266C292.302 30.7191 291.025 30.9948 289.638 31.2564C288.239 31.518 286.514 31.6445 284.452 31.6445C282.42 31.6445 280.363 31.3717 278.287 30.8204C276.21 30.2719 274.339 29.3858 272.673 28.165C271.004 26.9471 269.637 25.3409 268.579 23.3551C267.512 21.3692 266.986 18.9333 266.986 16.0614C266.986 13.4229 267.425 11.1051 268.294 9.11925C269.164 7.13057 270.38 5.47943 271.93 4.15177C273.483 2.83254 275.329 1.84804 277.462 1.19546C279.595 0.540068 281.911 0.216592 284.407 0.216592C285.977 0.216592 287.499 0.365672 288.979 0.672272C290.462 0.973247 291.942 1.34454 293.42 1.78053L292.772 8.35697C291.464 7.62844 290.164 7.09119 288.875 6.74521C287.578 6.39642 286.236 6.22202 284.846 6.22202C283.391 6.22202 282.088 6.46674 280.926 6.96461C279.764 7.45405 278.771 8.13757 277.94 9.00674C277.11 9.88153 276.472 10.9195 276.021 12.1234C275.571 13.3245 275.352 14.6381 275.352 16.0614C275.352 17.5409 275.602 18.877 276.114 20.0697C276.618 21.2567 277.316 22.2637 278.202 23.0935C279.088 23.9176 280.155 24.5505 281.401 24.9865C282.651 25.4197 284.013 25.6391 285.499 25.6391C286.832 25.6391 288.155 25.4872 289.46 25.1806C290.769 24.8796 291.97 24.5083 293.073 24.0723L293.465 30.4266Z" fill="white"/>
<path d="M322.645 19.5863C322.645 21.6791 322.325 23.4737 321.686 24.987C321.047 26.4947 320.144 27.7436 318.968 28.7281C317.789 29.7182 316.382 30.4496 314.741 30.9277C313.101 31.4116 311.291 31.645 309.316 31.645C307.343 31.645 305.537 31.4116 303.894 30.9277C302.256 30.4496 300.849 29.7182 299.67 28.7281C298.494 27.7436 297.591 26.4947 296.952 24.987C296.313 23.4737 295.992 21.6791 295.992 19.5863V0.734641H304.093V18.239C304.093 19.2544 304.172 20.2024 304.333 21.0884C304.49 21.9773 304.772 22.7564 305.16 23.4399C305.551 24.1207 306.083 24.6579 306.75 25.0489C307.414 25.4427 308.275 25.6396 309.316 25.6396C310.363 25.6396 311.221 25.4427 311.891 25.0489C312.56 24.6579 313.087 24.1207 313.481 23.4399C313.869 22.7564 314.147 21.9773 314.308 21.0884C314.463 20.2024 314.547 19.2544 314.547 18.239V0.734641H322.645V19.5863Z" fill="white"/>
<path d="M334.799 14.7545H336.887C337.585 14.7545 338.238 14.687 338.849 14.5605C339.456 14.4254 339.988 14.1948 340.436 13.8629C340.886 13.531 341.243 13.0921 341.505 12.5549C341.764 12.0205 341.896 11.3594 341.896 10.5775C341.896 9.78987 341.764 9.13729 341.505 8.61972C341.243 8.09653 340.886 7.67461 340.436 7.35394C339.988 7.03609 339.456 6.80825 338.849 6.68167C338.238 6.54666 337.585 6.48196 336.887 6.48196H334.799V14.7545ZM326.695 0.735314H336.364C341.041 0.735314 344.482 1.5426 346.691 3.15155C348.894 4.76612 350 7.28081 350 10.7069C350 13.7841 348.939 16.1863 346.82 17.9106C344.696 19.6405 341.736 20.5012 337.931 20.5012H334.799V31.1225H326.695V0.735314Z" fill="white"/>
<path d="M98.0517 0.73488H106.327L110.25 24.0731H110.337L114.426 0.73488H124.705L128.973 24.0731H129.064L133.025 0.73488H140.91L134.112 31.1249H123.706L119.395 7.7895H119.305L115.301 31.1249H104.802L98.0517 0.73488Z" fill="white"/>
<path d="M149.576 15.9301C149.576 17.1818 149.705 18.3914 149.97 19.5671C150.228 20.7401 150.631 21.778 151.185 22.6781C151.737 23.5783 152.449 24.2955 153.324 24.8328C154.193 25.37 155.234 25.6401 156.458 25.6401C157.674 25.6401 158.726 25.37 159.596 24.8328C160.465 24.2955 161.174 23.5783 161.723 22.6781C162.278 21.778 162.686 20.7401 162.947 19.5671C163.206 18.3914 163.338 17.1818 163.338 15.9301C163.338 14.6278 163.206 13.3845 162.947 12.2115C162.686 11.0358 162.278 10.0035 161.723 9.1146C161.174 8.23417 160.465 7.52815 159.596 7.00496C158.726 6.48177 157.674 6.2258 156.458 6.2258C155.234 6.2258 154.193 6.48177 153.324 7.00496C152.449 7.52815 151.737 8.23417 151.185 9.1146C150.631 10.0035 150.228 11.0358 149.97 12.2115C149.705 13.3845 149.576 14.6278 149.576 15.9301ZM141.21 15.9301C141.21 13.4914 141.539 11.3002 142.192 9.3565C142.842 7.41282 143.81 5.76449 145.087 4.41714C146.365 3.06697 147.958 2.02622 149.854 1.30332C151.756 0.577603 153.957 0.211934 156.458 0.211934C158.952 0.211934 161.152 0.577603 163.054 1.30332C164.956 2.02622 166.546 3.06697 167.824 4.41714C169.101 5.76449 170.066 7.41282 170.722 9.3565C171.375 11.3002 171.698 13.4914 171.698 15.9301C171.698 18.3379 171.375 20.5151 170.722 22.4616C170.066 24.408 169.09 26.062 167.801 27.4234C166.51 28.7877 164.914 29.834 163.009 30.5569C161.113 31.2855 158.921 31.6483 156.458 31.6483C153.957 31.6483 151.768 31.2855 149.877 30.5569C147.997 29.834 146.404 28.7877 145.11 27.4234C143.818 26.062 142.842 24.408 142.192 22.4616C141.539 20.5151 141.21 18.3379 141.21 15.9301Z" fill="white"/>
<path d="M182.85 13.3625H184.98C185.622 13.3625 186.297 13.34 187.006 13.295C187.721 13.2528 188.359 13.115 188.925 12.8844C189.491 12.6481 189.963 12.3021 190.338 11.838C190.717 11.3711 190.903 10.7072 190.903 9.83242C190.903 9.13765 190.74 8.56664 190.402 8.11659C190.07 7.66653 189.637 7.32337 189.099 7.09271C188.562 6.86206 187.937 6.70454 187.223 6.61453C186.514 6.52452 185.768 6.48232 184.98 6.48232H182.85V13.3625ZM174.751 0.73568H189.209C190.54 0.73568 191.809 0.890383 192.997 1.19136C194.187 1.49796 195.234 1.97333 196.134 2.61185C197.029 3.25036 197.735 4.04358 198.245 4.99995C198.754 5.96195 199.007 7.09271 199.007 8.39787C199.007 10.4287 198.529 12.0996 197.566 13.4076C196.613 14.7099 195.144 15.5959 193.171 16.0629V16.1473C193.81 16.3188 194.325 16.5945 194.719 16.9771C195.11 17.354 195.45 17.8237 195.74 18.3891C196.033 18.9573 196.297 19.6099 196.545 20.3497C196.795 21.0894 197.105 21.9249 197.488 22.8559L200.445 31.1229H192.001L190.253 25.6406C189.845 24.3327 189.46 23.2581 189.099 22.4171C188.736 21.5789 188.34 20.9094 187.923 20.4172C187.501 19.9193 187.023 19.5818 186.483 19.3933C185.945 19.202 185.304 19.1092 184.549 19.1092H182.85V31.1229H174.751V0.73568Z" fill="white"/>
<path d="M203.931 0.73488H212.029V25.1166H224.573V31.1249H203.931V0.73488Z" fill="white"/>
<path d="M235.506 25.1157H238.641C241.688 25.1157 244.026 24.3478 245.65 22.8063C247.277 21.2705 248.093 18.9808 248.093 15.9289C248.093 12.8826 247.26 10.5901 245.605 9.05149C243.95 7.51286 241.632 6.74214 238.641 6.74214H235.506V25.1157ZM227.402 0.733904H238.463C241.108 0.733904 243.534 0.970183 245.737 1.43149C247.946 1.89561 249.837 2.7029 251.424 3.85054C253.003 4.99537 254.241 6.54243 255.124 8.48611C256.011 10.427 256.455 12.8685 256.455 15.7995C256.455 18.6461 256.002 21.0398 255.102 22.9835C254.201 24.93 252.955 26.5024 251.357 27.7063C249.761 28.9102 247.859 29.7794 245.65 30.3166C243.444 30.8539 241.049 31.1239 238.463 31.1239H227.402V0.733904Z" fill="white"/>
<path fill-rule="evenodd" clip-rule="evenodd" d="M0 0.73488V31.1249H9.46028V20.1491H16.2727L18.6955 13.508H9.46028V7.35351H20.9297L23.344 0.73488H0Z" fill="white"/>
<path fill-rule="evenodd" clip-rule="evenodd" d="M26.2406 31.1223H35.7009V0.732269H26.2406V31.1223Z" fill="white"/>
<path fill-rule="evenodd" clip-rule="evenodd" d="M42.2116 0.73488V31.1249H51.6775V20.1491H58.4843L60.9071 13.508H51.6775V7.35351H63.1413L65.5584 0.73488H42.2116Z" fill="white"/>
<path fill-rule="evenodd" clip-rule="evenodd" d="M80.2934 21.2017L76.5087 8.54389L72.8563 21.2017H80.2934ZM92.6491 31.1254H83.0932L81.8579 27.0412H71.1651L69.9805 31.1254H60.6665L71.742 0.73543H81.5793L92.6491 31.1254Z" fill="white"/>
</svg>
